<svg width="1920" height="566" viewBox="0 0 1920 566" fill="none" xmlns="http://www.w3.org/2000/svg">
<path d="M648.165 218.076C648.258 218.083 648.951 218.099 649.067 218.146C666.538 224.99 683.761 233.225 701.481 239.535C703.932 240.407 707.145 240.685 708.544 242.528C708.879 244.576 708.053 245.726 707.151 247.661C701.504 250.384 692.702 242.438 687.038 239.795C674.514 233.947 661.181 229.396 649.517 221.991C648.026 221.045 648.229 219.555 648.165 218.076Z" fill="#080808"/>
<path d="M576.742 502.315C574.321 502.101 564.501 500.702 563.357 498.996C566.004 498.239 573.604 500.557 577.135 501.037L577.69 501.106L576.742 502.315Z" fill="#080808"/>
<path d="M401.404 174.105C409.882 175.67 428.887 194.591 435.951 200.107C437.029 200.948 437.127 202.027 437.316 203.244C437.114 203.253 436.913 203.267 436.711 203.27C431.986 203.338 407.31 182.539 402.931 178.034C401.515 176.576 401.407 176.058 401.404 174.105Z" fill="#080808"/>
<path d="M500.239 153.91C502.268 156.185 505.914 169.043 505.683 172.612C505.573 174.361 504.475 175.006 503.314 175.965C497.777 172.612 497.656 162.583 497.598 156.646C497.586 155.42 499.291 154.594 500.239 153.91Z" fill="#080808"/>
<path d="M473.913 154.33L474.566 154.863C475.017 156.218 472.092 165.316 471.491 167.258C470.642 164.683 472.855 157.016 473.913 154.33Z" fill="#A7A8AC"/>
<path d="M475.502 38.7431C523.414 36.3598 570.413 52.4622 606.801 83.7284C632.705 106.036 657.042 145.828 659.603 180.301C684.166 188.49 708.694 198.508 733.841 205.785C746.44 209.431 759.542 212.037 771.76 215.846C779.672 212.944 787.319 208.889 794.965 205.323C809.899 198.353 824.961 191.26 840.334 185.303C867.85 174.643 920.612 165.287 948.308 177.968C951.532 179.443 954.001 182.098 955.099 185.487C956.994 191.368 954.925 198.158 952.261 203.467C936.575 234.774 847.877 275.39 814.795 286.316C812.57 292.589 810.627 297.912 807.98 304.003C814.54 322.164 814.951 338.516 812.252 357.566C805.438 405.723 778.505 445.926 739.852 474.924C696.181 507.684 635.75 527.985 580.914 520.673C568.517 519.019 554.381 515.372 546.659 504.921C542.978 508.591 539.706 510.066 535.146 512.586C536.586 515.147 537.851 518.846 536.597 521.627C525.459 546.339 500.718 562.669 474.276 555.998C451.198 569.212 421.112 566.635 396.231 560.415C353.335 549.698 317.591 522.962 278.636 503.302C201.244 461.916 110.47 453.374 26.7188 479.596C21.061 481.367 -11.2255 494.157 -12.8848 493.856C-14.2202 492.435 -13.8428 493.261 -14 491.272C-12.3945 488.365 -10.1935 488.116 -7.18066 486.776C85.5651 445.674 189.414 450.413 279.196 496.92C330.726 523.609 408.847 579.572 469.323 553.889C450.344 545.963 446.38 539.171 434.533 523.239C433.911 522.4 433.701 517.985 433.634 516.817C426.833 514.863 418.946 511.163 419.015 502.521C419.061 496.747 423.1 493.001 426.916 489.169C421.783 487.868 420.174 486.878 416.072 483.509C409.052 466.63 421.01 467.901 423.288 461.924C407.856 451.625 404.993 440.333 423.464 430.749C409.855 423.788 414.955 414.516 410.484 402.129C408.148 395.653 404.913 387.635 401.337 381.821C365.808 324.062 308.176 275.653 305.838 202.748C302.679 131.658 348.181 74.6901 413.067 50.2138C432.798 42.7712 454.36 39.6847 475.502 38.7431ZM518.6 533.922C510.266 537.263 496.644 537.182 487.541 536.69L487.217 537.465C485.974 540.384 481.306 548.158 481.265 549.858L482.206 550.599C496.337 551.044 510.514 546.193 519.461 534.649C518.878 533.916 519.212 534.078 518.6 533.922ZM447.894 530.968C453.777 538.575 466.833 546.604 476.421 548.882C477.663 547.182 479.132 545.269 480.271 543.535C481.461 541.483 483.102 538.824 484.148 536.755C475.115 537.859 463.314 536.471 454.558 533.841C452.373 533.182 450.068 531.708 447.894 530.968ZM531.858 516.897C530.57 515.88 529.309 515.781 527.731 516.163C497.349 521.724 469.468 524.713 439.104 518.111C442.933 522.036 444.627 523.469 449.58 525.81C468.428 533.666 488.836 532.782 508.752 530.689C515.312 530.001 532.499 525.776 531.858 516.897ZM805.293 310.945C802.34 317.401 799.959 324.809 797.058 330.958C790.163 345.539 787.625 355.136 785.47 370.894C781.551 399.577 763.583 425.809 741.944 444.252C738.066 447.551 726.767 458.021 722.449 459.278C713.37 461.918 712.335 464.245 704.504 470.127C699.262 474.025 693.708 477.486 687.905 480.474C660.892 494.594 611.113 510.301 578.418 503.873C578.106 503.809 577.025 502.658 576.742 502.311L577.689 501.103C586.746 499.959 597.786 501.323 607.778 500.179C637.439 496.606 666.088 487.158 692.061 472.387C697.083 469.524 706.07 463.912 710.15 459.831L709.891 459.052C709.735 458.989 709.585 458.928 709.429 458.863C706.655 457.674 705.504 455.782 704.435 453.073C696.985 434.209 710.654 387.332 713.885 365.506C715.78 352.744 716.282 339.324 716.369 326.43C676.606 341.568 628.075 359.097 585.833 363.466C580.504 370.868 575.765 381.879 571.199 390.137C569.639 392.957 564.345 401.924 563.542 403.923C559.069 415.042 559.941 420.374 550.018 428.96C553.774 430.843 557.924 432.512 559.346 436.885C561.969 444.962 557.761 451.371 551.242 455.418C557.421 461.521 558.49 463.416 557.589 472.158C554.063 477.211 552.057 479.381 546.48 482.2C550.584 488.114 552.994 490.751 551.485 498.433C551.254 499.954 550.312 502.942 551.561 504.225C558.132 510.983 570.188 513.335 579.181 514.954C586.96 516.353 595.508 516.654 603.403 516.532C692.547 515.185 791.688 453.481 805.877 360.235C808.264 344.533 809.032 326.405 805.293 310.945ZM530.35 507.948C513.468 513.145 491.639 514.082 474.052 514.434C468.631 514.544 460.14 514.371 455.135 514.914C455.753 515.324 455.892 515.457 456.574 515.764C477.132 516.868 496.522 517.382 516.785 512.891C520.311 512.11 528.616 510.972 531.09 508.393C530.512 507.919 530.795 507.977 530.35 507.948ZM540.123 484.843C509.162 497.069 465.85 497.826 432.737 498.052C430.22 498.063 428.172 498.89 426.363 500.566C424.36 505.462 428.926 508.537 433.01 510.15C448.409 512.463 541.925 508.006 546 496.028C545.971 492.19 542.955 488.415 540.799 485.124L540.123 484.843ZM519.114 484.068C514.11 484.774 503.689 485.936 499.173 487.024H499.17C491.102 487.58 482.75 488.132 474.705 488.716C462.458 489.606 444.722 487.408 433.555 491.733L433.271 492.288C437.217 493.057 442.945 492.317 447.021 492.502C463.204 493.236 479.757 492.184 495.731 489.525C498.285 489.098 503.153 488.617 505.339 488.051C505.34 488.051 505.341 488.052 505.342 488.053L519.611 485.267L519.114 484.068ZM533.488 480.314C528.558 481.476 524.356 482.957 519.114 484.067L519.611 485.266C525.686 484.3 528.004 483.205 533.488 480.314ZM548.902 472.516C553.086 468.058 549.907 457.61 540.892 458.858C508.278 466.188 474.89 473.947 441.407 467.41C434.998 466.207 426.272 465.221 421.906 471.269C419.377 474.772 421.336 480.065 424.948 481.904C426.354 482.62 428.357 482.72 429.937 482.914C463.665 484.343 495.679 483.361 528.957 477.233C533.407 476.414 546.302 475.283 548.902 472.516ZM512.577 459.026C499.885 460.589 488.424 461.964 475.6 462.581C467.52 462.97 455.134 462.43 447.526 464.007L447.173 464.699L450.158 464.91C472.184 466 494.262 464.03 515.744 459.054L512.577 459.026ZM544.954 430.437C539.539 441.193 485.217 441.895 473.403 442.461C457.654 443.214 441.409 445.057 426.858 437.549C426.149 437.183 425.446 436.805 424.749 436.417C417.264 441.767 415.867 450.548 424.464 455.507C440.926 460.19 492.349 456.464 510.676 453.727C521.021 452.087 531.303 449.312 541.324 446.325C543.971 445.535 549.97 445.175 551.502 444.139C558.356 439.512 548.369 434.107 545.416 432.693C545.352 432.224 545.22 430.696 544.954 430.437ZM544.868 450.605C542.481 451.319 532.472 454.093 531.066 455.17L531.453 455.609L531.95 455.517C534.846 454.868 544.492 453.127 546.035 451.182C545.359 450.508 545.758 450.68 544.868 450.605ZM665.059 189.757C646.275 182.646 601.339 163.65 583.278 164.624C580.84 165.727 577.303 167.027 576.17 169.673C575.447 171.35 575.956 173.107 576.713 174.676C582.747 187.108 626.833 215.248 640.172 224.609C649.98 231.476 659.632 238.564 669.116 245.868C675.283 250.664 681.751 254.632 686.316 261.036C677.884 270.366 669.926 272.223 661.297 279.611C668.371 276.792 675.307 273.631 682.074 270.14C694.529 263.603 708.301 254.88 720.987 248.983C727.663 245.881 764.606 223.653 769.657 225.404C768.824 228.603 751.99 236.625 747.955 238.776C711.111 258.396 674.352 277.853 637.641 297.725C617.73 308.386 597.652 318.739 577.418 328.777C568.263 326.349 557.41 325.191 547.55 323.193C536.355 320.927 510.451 309.229 500.169 314.501C484.472 322.548 511.716 337.968 517.455 342.903C521.726 346.789 528.726 347.98 528.339 355.414L529.217 355.65C537.667 349.653 565.923 329.905 575.043 330.809L575.707 331.423C574.831 332.638 536.25 353.612 531.332 356.725C534.511 357.885 536.47 358.543 539.395 360.209L540.163 366.689C547.746 365.614 570.408 361.584 577.58 359.576C578.667 355.293 579.932 345.771 578.816 341.706C574.678 341.189 555.138 351.969 547.348 353.393C553.908 346.337 569.79 343.352 576.477 336.891C576.644 335.925 576.788 335.095 576.909 334.401C578.793 334.697 578.355 336.405 579.984 335.641C639.427 307.743 701.129 281.077 760.282 252.856L815.962 226.37C824.123 222.46 836.358 215.732 844.548 212.979C848.241 194.194 872.723 194.073 877.717 212.269C887.484 209.132 894.211 202.945 895.523 192.437C895.853 189.782 895.101 179.79 901.366 183.377C902.996 186.127 902.58 189.209 901.76 192.176C897.639 207.052 891.171 216.527 875.41 218.961C874.983 220.869 874.486 223.421 873.978 225.252C856.789 241.997 848.206 218.014 844.762 216.955C841.294 218.38 837.393 220.411 834.069 222.322C811.367 235.368 786.828 244.465 763.56 256.43C760.514 257.997 756.699 259.476 753.549 260.835L640.051 312.441C624.094 319.625 593.531 332.172 579.325 340.85C581.868 343.891 582.481 344.85 584.365 348.364L583.689 356.809C608.374 352.423 632.803 346.72 656.881 339.729C676.485 333.84 697.534 325.777 716.733 318.494C719.34 317.504 719.311 316.998 721.918 318.796L722.259 319.034C725.16 317.7 730.772 311.813 734.009 310.616C744.158 306.858 797.218 280.885 805.148 283.473L805.501 284.394C804.709 285.604 803.622 286.655 802.247 287.189C787.689 292.848 773.315 298.972 758.89 304.974C747.082 309.885 735.563 316.539 723.669 321.091C723.42 332.806 723.518 348.011 722.021 359.31C719.721 376.701 714.693 395.459 713.636 412.977L713.954 412.241C715.33 409.006 716.283 405.567 717.08 402.154C720.854 386.033 723.496 369.58 726.253 353.302C726.299 353.016 724.877 350.714 724.646 350.346L725.12 349.027L726.108 348.947C729.42 352.916 728.46 362.438 728.004 367.564C726.958 379.303 723.791 391.896 720.745 403.283C718.063 413.313 705.342 442.327 712.526 451.369C713.382 452.445 714.578 453.294 715.971 453.421C718.756 453.673 721.814 451.151 723.762 449.35C744.77 429.904 780.666 353.239 792.353 324.401C796.017 315.352 799.757 306.311 803.282 297.209C805.432 291.673 806.917 285.658 810.026 280.58C810.154 280.37 810.275 280.156 810.402 279.946C810.483 279.82 810.565 279.697 810.646 279.573C852.287 263.127 891.212 247.098 925.722 217.774C933.593 211.086 941.823 204.344 946.123 194.666C946.944 192.826 947.394 190.819 946.672 188.87C945.655 186.146 943.268 184.368 940.649 183.334C932.714 180.203 922.855 180.625 914.411 180.595C875.388 180.458 855.575 185.91 820.222 201.769C810.356 206.195 783.782 219.993 774.5 221.543C759.814 223.995 683.513 196.743 665.059 189.757ZM427.117 430.783C427.386 432.224 427.345 433.47 428.927 434.267C438.983 439.339 453.551 439.316 464.157 439.464L463.846 438.795C453.585 437.475 442.635 435.752 432.765 432.64C430.959 432.07 428.937 431.191 427.117 430.783ZM779.499 370.177C768.767 389.205 759.341 410.177 747.319 428.608C746.152 430.398 741.789 435.115 742.164 436.95C760.184 419.725 772.293 404.568 777.09 379.409C777.489 377.289 779.753 371.643 779.499 370.177ZM592.098 80.2069C555.149 52.9888 514.484 43.0566 469.115 45.0936C424.544 48.0643 377.702 68.121 348.023 102.178C323.08 130.288 310.43 167.219 312.898 204.723C317.879 275.488 369.069 317.149 404.333 373.579C409.082 381.179 411.996 387.46 415.993 395.263C411.085 351.817 377.243 323.506 354.892 288.145C320.032 232.998 310.705 167.512 352.81 113.39C364.024 98.9738 378.426 86.7405 394.505 77.8192C398.073 75.8394 403.316 74.5679 407.271 73.0517C399.281 79.6959 389.795 84.3725 381.298 90.7069C362.178 104.959 349.709 120.874 339.751 142.471C313.287 199.869 338.739 264.549 375.598 310.857C404.596 347.29 422.552 371.15 421.431 419.759C423.252 422.646 424.15 424.047 426.959 426.146C439.108 426.961 446.097 428.557 458.1 430.885C462.926 431.82 473.767 432.132 478.767 432.142L493.62 432.161L493.135 331.153C485.882 321.541 484.986 319.478 493.181 309.734C493.556 291.502 493.25 273.157 493.678 255.06C491.551 253.944 489.274 252.793 487.199 251.624C485.431 253.148 483.384 255.027 481.518 256.359L481.438 368.49C481.409 386.041 481.408 403.597 481.188 421.146C481.154 424.019 481.148 425.97 478.796 427.828C474.606 425.81 476.166 385.273 476.143 377.879L476.016 259.464C469.576 264.283 422.757 298.899 419.151 298.717C417.472 297.258 417.87 297.971 417.184 295.97C418.286 288.225 438.981 225.678 442.255 219.208C435.288 215.518 375.825 172.366 374.636 168.674C375.137 166.506 374.696 166.934 376.094 165.751C379.511 165.268 382.936 165.266 386.38 165.264C410.676 165.247 434.99 165.984 459.278 165.226C461.931 156.255 482.466 88.8032 486.165 86.8407C487.407 86.1813 487.945 86.2306 489.28 86.5624C494.28 92.309 512.491 153.037 516.773 165.687C534.788 165.551 552.809 165.537 570.829 165.643C583.059 146.537 635.566 171.376 652.344 177.487C646.472 139.301 623.047 103.005 592.098 80.2069ZM498.376 388.6C498.405 403.563 498.607 417.041 497.394 431.971C511.773 431.415 538.313 430.449 549.254 419.416C550.155 418.506 552.027 415.657 552.802 414.459L553.738 412.249L553.287 411.675C544.433 414.844 537.983 416.69 534.302 405.206C531.158 395.412 533.545 383.537 533.614 373.392C527.916 374.408 518.114 376.887 513.114 373.474C504.977 367.923 518.154 357.687 522.044 354.611C513.976 349.59 505.196 343.159 498.33 336.568L498.376 388.6ZM574.158 364.578C563.16 367.686 551.861 369.632 540.458 370.384C541.204 381.529 539.157 392.445 540.833 403.113C541.082 404.696 542.55 406.557 543.671 407.732C547.549 408.543 547.717 408.024 551.288 406.366C557.287 403.584 573.985 370.573 575.101 365.344L574.638 364.645L574.158 364.578ZM527.749 357.94C524.877 360.47 520.866 363.52 519.629 367.051C520.652 370.256 524.426 368.941 527.212 368.443C529.743 368.143 531.91 368.239 533.696 366.603C536.401 362.012 531.604 358.122 527.749 357.94ZM578.648 187.567C565.382 197.079 547.713 210.555 534.401 218.995C537.592 224.744 559.634 290.641 559.41 296.087C558.335 297.956 558.959 297.376 557.127 298.496C550.284 297.808 505.587 264.792 498.621 258.423L498.343 307.831C504.804 306.423 511.26 306.049 517.803 307.272C529.443 309.667 539.87 312.924 551.278 316.163C558.364 318.173 566.703 319.234 573.645 321.435C579.516 318.561 620.804 295.522 623.846 292.42C632.116 283.985 640.306 265.976 644.114 254.792C645.825 249.757 647.056 244.513 648.911 239.535C629.989 226.249 610.842 213.884 592.798 199.311C591.955 198.631 579.023 188.192 578.648 187.567ZM487.402 93.6884C484.524 105.354 479.392 119.795 475.444 131.345C472.901 138.796 466.348 164.261 462.735 169.142C456.874 172.24 393.167 170.087 382.062 169.946C394.868 179.504 407.812 188.875 420.892 198.054C426.706 202.11 443.367 212.839 447.488 217.232C440.664 239.167 431.618 271.356 422.719 291.872C430.751 285.463 440.089 279.18 448.594 273.199C456.355 267.739 467.984 258.278 475.925 254.065C476.532 249.417 476.317 245.031 476.236 240.353C473.375 237.624 472.231 236.714 468.653 234.901C465.729 238.223 462.372 242.727 458.188 244.048L457.771 243.389C459.863 238.332 461.961 236.71 465.775 232.969C463.718 231.41 460.863 229.55 459.574 227.441C459.505 225.41 459.835 222.966 461.505 221.628C463.037 222.146 467.094 227.953 470.249 229.865C473.399 231.773 474.983 232.35 478.468 233.761C479.121 235.793 479.848 238.322 480.681 240.248C481.894 244.807 479.993 245.923 480.722 249.404L481.571 249.727C485.963 247.526 484.427 239.108 493.668 250.246C493.703 246.252 493.408 234.739 495.783 232.18C499.95 232.736 498.141 233.318 501.886 231.068C506.769 228.139 515.254 218.401 519.936 218.488L521.155 219.672C520.744 223.203 502.73 236.708 498.927 239.781C498.782 244.033 498.736 249.053 498.39 253.234C505.446 256.403 518.127 267.108 525.051 271.853C534.529 278.349 544.164 285.066 553.399 291.903C548.192 276.097 542.897 260.319 537.511 244.573C534.927 236.979 530.426 224.664 528.438 217.054C542.123 205.521 561.965 194.217 575.367 182.579C571.166 178.226 569.385 176.705 569.333 170.328C563.16 170.947 515.202 171.224 512.665 169.668C509.169 164.295 507.532 153.328 505.48 148.516C502.747 142.098 489.24 95.2491 487.402 93.6884ZM654.743 243.375C650.206 260.5 645.565 271.753 635.861 287.037C640.768 283.965 646.542 280.14 651.703 277.74C656.685 274.796 661.649 271.791 666.631 268.836C670.081 266.789 675.352 264.237 678.45 261.959C677.355 260.754 656.227 244.082 654.743 243.375ZM856.835 204.254C854.327 205.681 850.703 207.698 850.096 210.676C848.506 218.498 856.667 225.303 863.77 225.336C874.508 221.404 869.948 215.51 863.949 209.662C862.187 207.943 860.874 206.215 858.863 204.59L856.835 204.254Z" fill="#080808"/>
<path d="M636.63 292.031L637.71 292.582C636.745 293.977 633.249 295.498 631.532 296.376L630.792 296.96L630.284 296.444C632.139 294.723 634.474 293.395 636.63 292.031Z" fill="#080808"/>
<path d="M899 187.512C899 174.012 925.3 153.011 968.5 155.011C1011.7 157.011 1122.37 185.651 1222 194.512C1364.61 207.194 1449.97 221.177 1588.5 185.011C1733.48 147.161 1843.5 56.3451 1926 2.51172" stroke="black" stroke-width="6"/>
</svg>
