<svg width="70" height="37" viewBox="0 0 70 37" fill="none" xmlns="http://www.w3.org/2000/svg">
<path d="M23.9199 4.12797C24.5775 4.07059 25.7409 4.38701 26.4121 4.52739C27.5527 4.76693 28.6977 4.98719 29.8457 5.18852L32.3593 5.60942C35.1848 6.07892 35.4568 6.37555 37.082 8.68754L39.2773 11.7832C39.6628 12.332 40.1726 13.1378 40.6035 13.6075C41.9856 13.1427 44.9913 11.6085 46.2021 11.6592C46.8609 11.6869 47.4982 11.9557 47.9453 12.4454C48.4237 12.9687 48.6409 13.6059 48.5976 14.3125C48.5623 14.8893 48.3401 15.589 47.8886 15.9766C47.6823 16.1535 47.4504 16.3079 47.2148 16.4424C46.3343 16.9448 45.3869 17.3478 44.4843 17.8116C43.6909 18.2277 42.8928 18.6365 42.0918 19.0381C40.9498 19.6094 39.781 20.2263 38.5185 19.3399C37.9316 18.9276 37.3519 18.1079 36.8769 17.5372L35.332 15.7012C34.9782 15.9765 34.4808 16.4886 34.1435 16.8164C33.49 17.4505 32.8286 18.0763 32.1601 18.6944C31.7998 19.0301 31.3723 19.4552 30.9921 19.7481C32.4206 21.0343 33.9377 22.2023 35.3701 23.4844C35.639 23.6869 35.9277 23.972 36.1992 24.1612C37.5073 25.0729 37.6341 27.1356 36.4824 28.2237C35.934 28.7417 35.3631 29.2722 34.8134 29.8038C33.3194 31.2621 31.8083 32.7033 30.2802 34.126C29.428 34.9237 28.5086 35.9062 27.5869 36.5987C27.3597 36.7693 26.6348 36.8748 26.3349 36.877C25.6059 36.8876 24.9037 36.6009 24.3906 36.0831C23.8376 35.5277 23.6063 34.8319 23.5878 34.0567C23.5559 32.7126 24.4695 32.1108 25.3349 31.2588L28.2187 28.4239C28.6728 27.962 29.4553 27.2205 29.9501 26.8116C29.648 26.6153 28.978 26.0369 28.6601 25.7832C27.9837 25.2521 27.2987 24.7303 26.6074 24.2188C26.1609 24.9195 25.1966 26.0468 24.6386 26.7725C23.9022 27.7303 22.9475 28.9295 22.1259 29.8116C21.9993 29.9466 20.9819 30.4438 20.7353 30.5713L18.5332 31.7217C16.0844 32.9627 13.649 34.2315 11.2285 35.5264C10.5195 35.9007 9.69107 35.9782 8.92476 35.7432C7.57437 35.3187 6.7976 33.8058 7.24702 32.4502C7.63847 31.27 8.30643 31.0251 9.3271 30.4834C10.1088 30.0648 10.8963 29.6566 11.6884 29.2579L18.2871 25.836C18.5537 25.4066 18.8082 24.9254 19.0673 24.4854C19.9166 23.0461 20.7521 21.5987 21.5722 20.1426C21.217 19.1835 21.0958 18.2766 21.3027 17.2588C21.5442 16.071 22.2989 15.5279 23.164 14.7745L25.3886 12.8711C26.0916 12.2652 27.8288 10.6568 28.5214 10.2227C27.2653 9.87037 26.1691 9.7031 24.9892 9.3936C24.4911 9.59908 23.8539 9.96945 23.3759 10.2344L21.1162 11.4805C20.4659 11.837 19.7302 12.3256 18.9882 12.4346C18.3508 12.5282 17.6673 12.3417 17.1552 11.9541C16.6501 11.5718 16.2884 10.9884 16.2099 10.3555C16.1285 9.69867 16.3451 8.95075 16.7578 8.43364C17.1783 7.90826 22.3382 4.74485 23.122 4.35844C23.3928 4.22495 23.6203 4.16118 23.9199 4.12797ZM23.8691 5.18461C23.1227 5.50604 22.7667 5.78223 22.0859 6.20219C21.2002 6.73788 20.3224 7.28671 19.4531 7.84868C18.9134 8.19032 18.3022 8.48633 17.8027 8.88285C17.61 9.03586 17.4509 9.20332 17.3574 9.43461C17.2241 9.76475 17.2262 10.2987 17.373 10.6221C17.5217 10.9496 17.8278 11.1794 18.1601 11.2998C18.6539 11.4788 19.0672 11.3893 19.5273 11.169C20.5005 10.7029 24.2095 8.3947 24.8115 8.34965C25.4392 8.30288 26.6523 8.66444 27.3056 8.80668L29.0146 9.1768C29.3514 9.24687 30.0172 9.28215 30.1543 9.61528C30.3809 10.168 29.3122 10.8278 28.9257 11.1661L25.0195 14.5899C24.3122 15.2026 23.0804 16.0683 22.5644 16.7969C22.0689 17.4967 22.0073 19.1806 22.7128 19.7784C25.4763 22.0183 28.3616 24.1802 31.1201 26.4258C31.2029 26.4935 31.2212 26.915 31.1435 27.0059C29.2353 28.9739 27.2177 30.8674 25.2539 32.7881C24.7528 33.2784 24.4961 33.8101 24.6562 34.5118C24.7603 34.961 25.0403 35.3501 25.4335 35.5909C26.054 35.972 26.8048 35.9166 27.3652 35.4454C28.0952 34.8319 28.749 34.129 29.4433 33.4756C30.2369 32.7077 31.0834 31.9696 31.8603 31.1944C32.9044 30.1542 34.0113 29.2039 35.0439 28.1592C35.6055 27.5911 36.2873 27.215 36.2519 26.3331C36.2336 25.8809 36.1401 25.4901 35.7861 25.1729C35.2794 24.7187 34.7226 24.2977 34.1972 23.8623L31.2597 21.3975C30.7923 21.0116 30.2632 20.6462 29.8369 20.2168C29.7385 20.1178 29.6371 20.0082 29.6289 19.8614C29.6165 19.6411 29.7851 19.4743 29.9287 19.3301C30.2657 18.9917 30.6427 18.6905 30.9902 18.3623C31.5981 17.7882 32.1858 17.1918 32.8017 16.626C33.2477 16.2163 33.7366 15.829 34.1445 15.3819C34.3711 15.1334 34.8502 14.2517 35.1953 14.2549C35.4433 14.2573 35.7051 14.5285 35.8593 14.7012C36.5748 15.5026 37.2724 16.3386 37.955 17.168C38.2772 17.5594 38.5794 18.0325 38.9589 18.3672C39.185 18.5668 39.4556 18.7493 39.7656 18.7686C40.0384 18.7854 40.3211 18.7214 40.5732 18.6211C41.4133 18.2872 42.2185 17.7757 43.0263 17.3672C43.8029 16.9745 46.6308 15.7027 47.0996 15.2725C47.3978 14.9989 47.584 14.6224 47.5986 14.2159C47.6126 13.8199 47.4632 13.4582 47.1894 13.1739C46.9024 12.8757 46.4958 12.6709 46.0781 12.6563C45.6254 12.6407 42.4622 14.006 41.7021 14.3018C41.3081 14.4553 40.8276 14.7009 40.3984 14.6895C40.2198 14.6847 40.0866 14.5832 39.9648 14.462C39.5866 14.0841 39.279 13.5509 38.9687 13.1133L36.623 9.83207C35.9446 8.87578 35.1614 7.46708 34.0263 7.03422C33.4981 6.83289 32.6871 6.75028 32.1132 6.65532C31.2503 6.51195 30.3886 6.36147 29.5283 6.20317C28.3938 5.99069 27.2609 5.76911 26.1298 5.5391C25.5562 5.42146 24.401 5.12031 23.8691 5.18461ZM22.2617 20.8946C21.4671 22.2522 20.7452 23.6498 19.9697 25.0186C19.7056 25.4846 19.4421 26.0864 19.0898 26.4873C18.746 26.8776 15.9358 28.2064 15.2988 28.5303C14.1114 29.1342 12.9458 29.7889 11.7646 30.4063C10.8902 30.8632 9.9559 31.2829 9.12105 31.8077C8.45818 32.2245 8.00288 32.8265 8.21382 33.6495C8.32646 34.0859 8.61202 34.4593 9.00386 34.6827C9.82211 35.1543 10.5686 34.6457 11.3046 34.2637L18.2011 30.6641C18.7771 30.3674 21.2597 29.2058 21.6103 28.8389C22.7198 27.6745 23.8662 26.0388 24.8837 24.7598C25.1513 24.4132 25.5853 23.863 25.9023 23.5938C24.9562 23.0322 23.8401 21.9066 22.8759 21.293C22.7092 21.1869 22.4254 20.9712 22.2617 20.8946Z" fill="white"/>
<path d="M41.0469 0.0327729C43.6694 -0.273459 46.0454 1.60061 46.3584 4.22223C46.6713 6.844 44.803 9.22496 42.1817 9.54449C39.5517 9.865 37.1608 7.98896 36.8467 5.35797C36.5327 2.72683 38.4151 0.340212 41.0469 0.0327729ZM45.295 4.39019C45.0656 2.34432 43.2184 0.873445 41.1729 1.10699C39.1339 1.34009 37.6681 3.17972 37.8965 5.2193C38.1249 7.2589 39.962 8.7284 42.002 8.50445C44.0487 8.27959 45.5242 6.43613 45.295 4.39019Z" fill="white"/>
<path d="M56.1681 14.7015C61.8391 14.4934 66.354 19.5544 65.8954 25.0193C65.8755 25.257 65.8687 25.4753 65.8381 25.7142C66.3315 25.417 66.7446 24.9694 67.2672 24.7183C67.457 24.6269 67.7083 24.5473 67.913 24.6316C68.0399 24.6839 68.1253 24.794 68.1715 24.921C68.2221 25.0597 68.2229 25.2353 68.1499 25.3668C68 25.6376 66.0988 26.8985 65.732 27.1112C65.5668 27.2068 65.383 27.2965 65.1957 27.3394C64.997 27.385 64.7988 27.2682 64.6374 27.1635C64.3661 26.9877 62.6806 25.4957 62.6402 25.2404C62.6135 25.0686 62.6462 24.8378 62.751 24.6956C62.8088 24.6178 62.8852 24.5716 62.9812 24.5591C63.559 24.4835 64.3903 25.4768 64.8072 25.827C65.0399 24.3772 64.8391 23.1828 64.4523 21.8023C62.3269 15.1637 53.6228 13.4993 49.6768 19.4624C49.4581 19.793 48.733 21.1952 48.5631 21.3095C48.2766 21.388 47.998 21.2717 47.7148 21.1852C48.2205 19.8422 48.7402 18.7367 49.7201 17.6869C51.5381 15.7387 53.5489 14.8332 56.1681 14.7015Z" fill="white"/>
<path d="M64.2263 27.7991C66.3177 27.5154 63.4922 30.6968 63.0468 31.1464C61.7825 32.4473 60.1729 33.3602 58.4076 33.7775C57.0387 34.1066 55.909 34.07 54.5087 34.076L50.5449 34.0688L36.1511 34.0845C35.7634 34.0934 35.4124 33.958 35.3987 33.4875C35.3858 33.043 35.829 32.9814 36.1817 32.9755C36.8209 32.9649 37.4727 32.9687 38.119 32.9683L42.9485 32.9615L52.5676 32.9679C53.9173 32.9657 56.545 33.0528 57.7512 32.8244C58.9909 32.5845 60.1627 32.0741 61.183 31.3294C62.0156 30.7159 62.7738 29.9618 63.3623 29.1049C63.6345 28.7083 63.8438 28.1642 64.1932 27.8305L64.2263 27.7991Z" fill="white"/>
<path d="M4.10995 18.4829L13.1284 18.4808L15.936 18.4937C16.4472 18.4966 16.9596 18.4911 17.4699 18.5185C17.7704 18.5347 17.9915 18.7089 17.992 19.0253C17.9927 19.1868 17.9285 19.3417 17.8138 19.4554C17.5514 19.7199 16.4449 19.646 16.0467 19.645L13.8926 19.6409L4.99289 19.6498C3.95578 19.6522 2.91868 19.6475 1.88167 19.6358C1.49276 19.6316 0.452816 19.7024 0.192002 19.4846C0.0792781 19.3913 0.0102429 19.2554 0.00136934 19.1093C-0.0510652 18.2825 1.41655 18.4925 1.96459 18.4928L4.10995 18.4829Z" fill="white"/>
<path d="M47.803 22.0274C48.4573 22.0248 48.9753 22.6645 49.523 22.9886C49.8312 23.1708 50.1297 23.3974 50.4418 23.5899C50.7373 23.772 50.6727 24.4688 50.2838 24.525C49.6622 24.5742 48.8352 23.8872 48.3278 23.5636C48.4144 23.8808 48.462 24.4252 48.4985 24.7579C48.743 26.9807 50.0303 29.1165 51.8276 30.4346C52.2475 30.7426 52.8699 30.9456 53.1501 31.3973C53.3017 31.6419 53.08 31.8346 52.8711 31.9187C52.4856 31.9242 52.0691 31.9246 51.6879 31.8758C49.0071 29.7704 47.3963 27.1493 47.3611 23.6708C46.9688 23.9902 45.7676 25.1836 45.3134 24.4336C45.0922 24.0093 45.4301 23.7558 45.7324 23.5569C46.3918 23.123 47.0978 22.3348 47.803 22.0274Z" fill="white"/>
<path d="M5.66057 13.5896L15.7802 13.5933C17.1062 13.5923 18.5016 13.5278 19.8105 13.6416C20.2001 13.6755 20.3826 14.4551 19.7205 14.7298C19.0398 14.7882 17.9307 14.746 17.2028 14.7488C15.4383 14.76 13.6738 14.7609 11.9093 14.7518L7.42343 14.7524C6.96519 14.7517 6.5095 14.7534 6.04884 14.7519C5.76421 14.7508 5.38659 14.7492 5.26143 14.4254C5.11423 14.0446 5.31743 13.7327 5.66057 13.5896Z" fill="white"/>
<path d="M9.0272 23.3613C11.0161 23.2617 13.109 23.4006 15.1051 23.3442C15.3541 23.3372 15.8944 23.3416 16.1026 23.4588C16.2404 23.5381 16.3376 23.6728 16.3694 23.8286C16.4642 24.2949 16.1076 24.3788 15.7446 24.4324C14.3293 24.4446 12.9139 24.4475 11.4985 24.441C10.6675 24.4418 9.81211 24.4532 8.98343 24.4268C8.27359 24.4041 8.09039 23.4994 9.0272 23.3613Z" fill="white"/>
<path d="M63.636 32.9959C65.4952 32.9114 67.4325 33.0112 69.2976 32.9768C69.8046 32.9674 70.2283 33.8854 69.2887 34.0858C68.5538 34.0862 63.523 34.1838 63.2055 33.9902C63.0853 33.9172 63.0004 33.8047 62.9703 33.6667C62.941 33.5317 62.9584 33.3101 63.0424 33.195C63.1639 33.0286 63.45 33.018 63.636 32.9959Z" fill="white"/>
<path d="M10.4302 8.79426C10.7056 8.7853 12.3094 8.80989 12.4346 8.77486C13.4782 8.48267 14.5257 9.49514 13.3816 9.87824C12.4621 9.92766 11.5364 9.88991 10.6179 9.88537C9.80757 9.88133 9.67689 8.95182 10.4302 8.79426Z" fill="white"/>
</svg>
