<svg width="32" height="35" viewBox="0 0 32 35" fill="none" xmlns="http://www.w3.org/2000/svg">
<path d="M0.350586 34.5271V24.9374C0.350586 23.8825 0.726183 22.9795 1.47738 22.2283C2.22857 21.4771 3.1316 21.1015 4.18647 21.1015H27.2018C28.2566 21.1015 29.1597 21.4771 29.9109 22.2283C30.6621 22.9795 31.0377 23.8825 31.0377 24.9374V34.5271H0.350586ZM9.9403 19.1836C7.28714 19.1836 5.02557 18.2486 3.15558 16.3786C1.28558 14.5086 0.350586 12.247 0.350586 9.59386C0.350586 6.94071 1.28558 4.67913 3.15558 2.80914C5.02557 0.939147 7.28714 0.00415039 9.9403 0.00415039H21.448C24.1011 0.00415039 26.3627 0.939147 28.2327 2.80914C30.1027 4.67913 31.0377 6.94071 31.0377 9.59386C31.0377 12.247 30.1027 14.5086 28.2327 16.3786C26.3627 18.2486 24.1011 19.1836 21.448 19.1836H9.9403ZM4.18647 30.6912H27.2018V24.9374H4.18647V30.6912ZM9.9403 15.3477H21.448C23.0462 15.3477 24.4048 14.7883 25.5236 13.6695C26.6424 12.5507 27.2018 11.1921 27.2018 9.59386C27.2018 7.99558 26.6424 6.63703 25.5236 5.51823C24.4048 4.39944 23.0462 3.84003 21.448 3.84003H9.9403C8.34201 3.84003 6.98347 4.39944 5.86467 5.51823C4.74587 6.63703 4.18647 7.99558 4.18647 9.59386C4.18647 11.1921 4.74587 12.5507 5.86467 13.6695C6.98347 14.7883 8.34201 15.3477 9.9403 15.3477ZM9.9403 11.5118C10.4837 11.5118 10.9392 11.328 11.3068 10.9604C11.6744 10.5928 11.8582 10.1373 11.8582 9.59386C11.8582 9.05044 11.6744 8.59493 11.3068 8.22733C10.9392 7.85972 10.4837 7.67592 9.9403 7.67592C9.39688 7.67592 8.94137 7.85972 8.57376 8.22733C8.20616 8.59493 8.02235 9.05044 8.02235 9.59386C8.02235 10.1373 8.20616 10.5928 8.57376 10.9604C8.94137 11.328 9.39688 11.5118 9.9403 11.5118ZM21.448 11.5118C21.9914 11.5118 22.4469 11.328 22.8145 10.9604C23.1821 10.5928 23.3659 10.1373 23.3659 9.59386C23.3659 9.05044 23.1821 8.59493 22.8145 8.22733C22.4469 7.85972 21.9914 7.67592 21.448 7.67592C20.9045 7.67592 20.449 7.85972 20.0814 8.22733C19.7138 8.59493 19.53 9.05044 19.53 9.59386C19.53 10.1373 19.7138 10.5928 20.0814 10.9604C20.449 11.328 20.9045 11.5118 21.448 11.5118Z" fill="black"/>
</svg>
