<svg xmlns="http://www.w3.org/2000/svg" width="32" height="33" viewBox="0 0 32 33" fill="none">
<path d="M31.4264 0H10.6252C10.5835 0 10.5434 0.0418929 10.5018 0.0418929H10.42L0.328525 4.82602C0.123397 4.9082 0 5.11445 0 5.3626V32.4232C0 32.6294 0.123397 32.8357 0.28686 32.9178C0.368591 33 0.491989 33 0.615386 33C0.697117 33 0.778848 33 0.86218 32.9581L10.8302 28.2565H31.4247C31.7532 28.2565 32 28.0083 32 27.6796V0.57742C32 0.24871 31.7532 0.000585753 31.4263 0.000585753L31.4264 0ZM11.2405 1.19558H30.8094V27.0587L11.2405 27.0603V1.19558ZM1.18925 5.73303L10.0914 1.52599V27.2649L1.18925 31.4736V5.73303ZM27.2406 4.7437H14.8512C14.5227 4.7437 14.2775 4.99184 14.2775 5.32054V9.73383C14.2775 10.0642 14.5243 10.3107 14.8512 10.3107H27.2008C27.5293 10.3107 27.7745 10.0625 27.7745 9.73383V5.32054C27.8161 4.99183 27.5691 4.7437 27.2406 4.7437ZM26.6252 9.11699H15.4666V5.89919H26.667V9.11699H26.6252ZM27.2406 13.5303H14.8512C14.5227 13.5303 14.2775 13.7784 14.2775 14.1071C14.2775 14.4374 14.5243 14.684 14.8512 14.684H27.2008C27.5293 14.684 27.7745 14.4358 27.7745 14.1071C27.8161 13.7768 27.5691 13.5303 27.2406 13.5303ZM27.2406 17.9436H14.8512C14.5227 17.9436 14.2775 18.1917 14.2775 18.5204C14.2775 18.8507 14.5243 19.0972 14.8512 19.0972H27.2008C27.5293 19.0972 27.7745 18.8491 27.7745 18.5204C27.8161 18.1917 27.5691 17.9436 27.2406 17.9436ZM27.2406 22.3169H14.8512C14.5227 22.3169 14.2775 22.565 14.2775 22.8937C14.2775 23.224 14.5243 23.4705 14.8512 23.4705H27.2008C27.5293 23.4705 27.7745 23.2224 27.7745 22.8937C27.7745 22.5634 27.5691 22.3169 27.2406 22.3169ZM2.87212 11.5082C2.95385 11.5082 3.03558 11.5082 3.11891 11.4663L8.61554 8.86728C8.9024 8.74321 9.0258 8.37261 8.9024 8.0842C8.779 7.79577 8.41042 7.6717 8.12357 7.79577L2.62694 10.3948C2.34008 10.5189 2.21669 10.8895 2.34008 11.1779C2.42021 11.3858 2.66698 11.5082 2.87212 11.5082ZM8.12382 12.2929L2.6272 14.892C2.34034 15.016 2.21694 15.3866 2.34034 15.6751C2.42207 15.8813 2.66886 16.0054 2.874 16.0054C2.95573 16.0054 3.03746 16.0054 3.12079 15.9635L8.61742 13.3644C8.90428 13.2404 9.02768 12.8698 8.90428 12.5813C8.77928 12.2929 8.41067 12.1688 8.12382 12.2929ZM8.12382 16.8304L2.6272 19.4294C2.34034 19.5535 2.21694 19.9241 2.34034 20.2125C2.42207 20.4188 2.66886 20.5428 2.874 20.5428C2.95573 20.5428 3.03746 20.5428 3.12079 20.5009L8.61742 17.9019C8.90428 17.7778 9.02768 17.4072 8.90428 17.1188C8.77928 16.8304 8.41067 16.7063 8.12382 16.8304ZM8.12382 21.3678L2.6272 23.9669C2.34034 24.091 2.21694 24.4616 2.34034 24.75C2.42207 24.9562 2.66886 25.0803 2.874 25.0803C2.95573 25.0803 3.03746 25.0803 3.12079 25.0384L8.61742 22.4393C8.90428 22.3153 9.02768 21.9447 8.90428 21.6563C8.77928 21.3678 8.41067 21.2018 8.12382 21.3678Z" fill="white"/>
</svg>