<svg width="427" height="162" viewBox="0 0 427 162" fill="none" xmlns="http://www.w3.org/2000/svg">
<path d="M251.854 72.1743C253.987 72.045 256.604 72.2082 258.791 72.1499C261.062 72.1559 263.335 72.1278 265.605 72.1655C266.242 72.1761 266.989 72.3592 267.002 73.145C267.028 74.6895 267.008 76.2368 267.009 77.7808L267.011 87.7163L267.019 118.939C268.235 118.934 269.453 118.943 270.669 118.966C270.693 119.92 270.707 120.761 270.679 121.717C269.196 121.771 267.507 121.737 266.009 121.74L255.779 121.722L224.898 121.733L180.213 121.736L161.542 121.741C157.982 121.767 154.422 121.756 150.862 121.705C150.84 120.796 150.84 119.887 150.864 118.978C152.57 118.913 154.399 118.942 156.114 118.941L164.805 118.936L195.65 118.921L195.655 115.21L195.65 108.629C195.649 107.51 195.639 106.393 195.661 105.271C195.673 104.698 195.831 104.063 196.516 103.998C197.152 103.937 197.838 103.965 198.482 103.964L202.304 103.965L207.538 103.966C208.478 103.967 209.411 103.963 210.352 103.994C210.772 103.923 211.406 104.442 211.422 104.891C211.582 109.537 211.339 114.265 211.479 118.91C212.358 118.921 213.237 118.925 214.115 118.925L214.132 104.02L214.122 99.6333C214.119 98.8305 214.096 98.0182 214.139 97.2173C214.191 96.2532 214.954 96.148 215.728 96.1538C219.801 96.1845 223.875 96.1756 227.947 96.144C228.704 96.1382 229.877 96.1072 229.927 97.1333C229.977 97.9825 229.96 98.839 229.959 99.6899L229.956 104.081L229.97 118.929L232.625 118.939C232.521 111.181 232.62 103.219 232.618 95.4458L232.597 89.4106C232.592 88.4634 232.55 87.3325 232.645 86.3892C232.689 85.9476 233.133 85.6537 233.478 85.4263L242.748 85.4243C244.334 85.4202 245.945 85.3708 247.523 85.4565C248.632 85.5171 248.445 86.8256 248.444 87.5884C248.444 88.2845 248.435 88.9816 248.433 89.6772L248.421 96.0239L248.435 118.941L251.13 118.932L251.12 84.4819V76.3042C251.119 75.2546 251.065 73.9614 251.17 72.9194C251.202 72.5985 251.591 72.3354 251.854 72.1743ZM235.392 88.2681L235.375 118.924C238.666 118.94 242.443 119.027 245.704 118.927C245.62 112.343 245.714 105.621 245.694 99.02L245.679 91.9409C245.677 90.9542 245.61 89.1859 245.712 88.2661L235.392 88.2681ZM227.195 98.9419C223.854 98.9416 220.196 98.8634 216.881 98.9585L216.884 118.937C220.196 118.963 223.885 118.996 227.187 118.932C227.275 116.747 227.202 114.027 227.2 111.803L227.195 98.9419ZM253.879 74.9487L253.899 99.4575C253.912 105.855 254.002 112.541 253.891 118.921C254.781 118.925 263.976 119.05 264.244 118.828L264.216 89.0376L264.218 80.1636C264.214 78.5308 264.147 76.5413 264.246 74.9487C260.809 74.9428 257.315 74.9114 253.879 74.9487ZM198.416 106.725L198.417 118.925L207.328 118.943L208.714 118.934L208.723 106.735L200.005 106.716L198.416 106.725Z" fill="#333333"/>
<path d="M183.298 46.09C185.239 45.9633 188.289 46.0618 190.291 46.0627L203.308 46.0559C205.297 46.0553 206.605 46.0711 208.128 47.634C210.114 49.6733 209.498 54.1877 209.497 56.9875L222.163 56.9895C223.755 56.9918 227.427 56.8718 228.853 57.2063C230.113 57.5097 231.265 58.1578 232.182 59.0803C233.159 60.0519 233.856 61.2742 234.197 62.6154C234.491 63.8085 234.385 66.0048 234.382 67.341C234.372 69.3233 234.376 71.3061 234.395 73.2883C233.551 73.8273 232.275 74.8814 231.571 75.5725C231.6 75.3607 231.621 75.0435 231.621 74.8254C231.624 72.7107 231.641 70.6107 231.621 68.4934C231.606 66.8916 231.706 65.0128 231.497 63.4553C231.411 62.8141 230.801 61.721 230.338 61.2668C229.304 60.253 228.318 59.789 226.893 59.7873C222.145 59.7818 217.399 59.7919 212.655 59.7912L183.223 59.7902H168.254L163.673 59.7863C162.778 59.7851 161.869 59.7649 160.97 59.8264C159.083 59.9653 157.251 61.5899 157.005 63.5197C156.836 64.8446 156.933 66.7005 156.931 68.093L156.926 78.4846C157.833 78.7461 158.912 79.2449 159.835 79.5744C168.977 82.8369 178.108 84.3988 187.733 85.3586C187.732 84.3521 187.699 83.3401 187.7 82.3371C187.7 81.8965 187.734 81.4244 188.073 81.1232C188.224 80.9791 188.471 80.8142 188.686 80.8059C189.83 80.7614 191.014 80.7896 192.159 80.7912L199.839 80.8156C200.706 81.3436 200.612 82.0721 200.621 82.9846C200.629 83.7862 200.632 84.5891 200.642 85.3908C201.937 85.1599 203.275 85.0649 204.585 84.9182C206.017 84.7439 207.448 84.5542 208.876 84.3479C211.364 83.9735 213.836 83.5005 216.286 82.9309C218.458 82.4477 221.198 81.796 223.331 81.1252C222.847 81.5564 221.966 82.129 221.405 82.5158C220.367 83.2297 219.333 83.9489 218.303 84.674C217.9 84.9585 217.074 85.5727 216.636 85.7092C215.66 86.0124 214.507 86.2068 213.492 86.4055C210.851 86.914 208.191 87.325 205.519 87.6369C203.886 87.8402 202.276 88.057 200.631 88.133C200.594 90.3381 200.894 92.8687 198.011 93.5598C196.983 93.8059 195.747 93.6401 194.689 93.6721C193.679 93.7026 192.643 93.6599 191.631 93.6926C189.477 93.7692 187.718 92.4336 187.758 90.1555C187.769 89.5145 187.761 88.7956 187.767 88.1379C185.4 88.0886 182.311 87.6058 179.942 87.2795C171.901 86.1718 164.547 84.2763 156.913 81.4758L156.915 99.0061L156.905 103.793C156.899 105.991 156.639 108.156 158.316 109.863C158.979 110.541 159.847 110.98 160.783 111.108C161.598 111.226 163.506 111.171 164.395 111.167L170.393 111.168L192.644 111.169L192.669 114.009C189.875 113.938 186.931 113.996 184.126 113.998L169.006 113.984L163.511 113.999C160.836 113.999 158.759 114.07 156.621 112.149C155.162 110.857 154.279 109.029 154.169 107.074C154.117 106.127 154.152 104.855 154.153 103.879L154.16 98.1106L154.159 79.5842L154.16 68.6965C154.158 67.2825 154.175 65.8571 154.157 64.4445C154.134 62.5503 154.741 60.784 156.011 59.3606C156.907 58.3442 158.076 57.6121 159.377 57.2522C160.875 56.8505 164.052 56.9686 165.712 56.9719L173.97 56.9777C175.538 56.9805 177.416 57.0347 178.963 56.9484C178.924 55.2328 178.957 53.5069 178.939 51.7902C178.933 51.2024 178.936 50.5749 179.049 49.9982C179.178 49.3074 179.463 48.6558 179.882 48.094C180.738 46.9505 181.899 46.2814 183.298 46.09ZM197.876 83.5783C195.574 83.5696 192.775 83.5022 190.516 83.594C190.538 84.9451 190.545 86.2964 190.536 87.6477C190.535 87.9777 190.519 88.347 190.535 88.6711C190.576 89.4959 190.335 90.9006 191.519 90.9152C193.243 90.9362 194.969 90.8971 196.694 90.9445C197.111 90.956 197.367 90.9354 197.671 90.6389C198.014 90.0254 197.897 88.6743 197.892 87.9397C197.872 86.486 197.867 85.0321 197.876 83.5783ZM187.723 48.8352C186.805 48.8335 184.41 48.7161 183.582 48.8518C182.908 49.0942 182.244 49.4992 181.922 50.174C181.459 51.1437 181.746 55.5634 181.685 56.9611C184.283 57.0496 187.006 56.9537 189.616 56.969C194.645 56.9984 199.693 56.9277 204.721 56.9856L206.717 56.9846C206.697 54.9486 206.841 52.6376 206.62 50.6516C206.369 48.3933 203.262 48.8267 201.783 48.8313L195.978 48.844L187.723 48.8352Z" fill="#333333"/>
<path d="M256.784 49.0719C257.929 49.0318 267.034 48.9393 267.585 49.2504C267.784 49.363 267.906 49.6588 267.961 49.8733C268.178 50.7123 268.015 52.7782 268.018 53.7444C268.025 55.7644 268.141 57.852 268.022 59.8647C268.008 60.0944 267.995 60.329 267.868 60.5276C267.69 60.8057 267.367 60.9557 267.057 61.0264C266.549 61.1422 265.762 61.1585 265.312 60.8537C265.118 60.7239 264.977 60.528 264.914 60.3017C264.806 59.9197 264.821 58.594 264.717 58.0415C264.514 56.9626 264.232 55.9596 264.034 54.8811C261.612 57.3501 259.15 59.778 256.647 62.1635C244.228 73.8453 230.464 84.2246 215.252 91.876C214.825 92.0914 214.406 92.2995 213.969 92.4962C211.951 93.3428 209.974 94.4489 207.9 95.2123C207.174 95.4792 206.437 95.8462 205.684 96.0201C206.478 95.2743 207.529 94.7857 208.463 94.2272C210.394 93.0965 212.313 91.9455 214.219 90.7744C219.393 87.5217 224.471 84.1173 229.447 80.5654C236.841 75.3228 243.941 69.6704 250.713 63.6343C252.74 61.8267 254.732 59.9806 256.689 58.0969C258.399 56.4429 260.218 54.5818 261.965 53.0036C260.937 52.8462 260.088 52.3519 259.127 52.1033C258.521 51.9465 257.264 52.0134 256.552 51.9983C256.314 51.837 256.048 51.6641 255.966 51.3777C255.685 50.3931 255.734 49.4642 256.784 49.0719Z" fill="#333333"/>
<path d="M267 118.5V119.999C286.5 122 336 112.9 346 130.5C356 148.1 423 128.5 426.5 128.5" stroke="#333333" stroke-width="2.6"/>
<path d="M191.5 112.5H144.5C117.167 112.667 55.2714 105.878 48.5 71.5C42 38.5 10.5 38.5009 0 38.5" stroke="#333333" stroke-width="2.6"/>
</svg>
