<svg width="138" height="88" viewBox="0 0 138 88" fill="none" xmlns="http://www.w3.org/2000/svg">
<path d="M111.854 33.1746C113.987 33.0453 116.604 33.2085 118.791 33.1501C121.062 33.1561 123.336 33.128 125.606 33.1658C126.242 33.1764 126.989 33.3587 127.002 34.1443C127.028 35.6888 127.008 37.236 127.009 38.78L127.011 48.7166L127.019 79.9392C128.235 79.9345 129.453 79.9435 130.669 79.9666C130.693 80.9203 130.707 81.7607 130.679 82.7166C129.196 82.7702 127.507 82.7363 126.009 82.739L115.779 82.7224L84.8985 82.7322L40.2129 82.7361L21.542 82.74C17.9821 82.7665 14.4221 82.7548 10.8624 82.7039C10.8399 81.7954 10.84 80.8858 10.8643 79.9773C12.57 79.9127 14.3988 79.9425 16.1143 79.9412L24.8047 79.9353L55.6504 79.9207L55.6553 76.2097L55.6504 69.6287C55.6492 68.5089 55.6388 67.3918 55.6612 66.2703C55.6727 65.6975 55.8313 65.0625 56.5157 64.9968C57.1523 64.9358 57.838 64.965 58.4825 64.9646L62.3038 64.9656H67.5381C68.478 64.9661 69.4111 64.9635 70.3516 64.9939C70.772 64.9232 71.4061 65.4415 71.4219 65.8904C71.5823 70.5358 71.3387 75.2644 71.4795 79.9089C72.3581 79.9198 73.2367 79.9255 74.1153 79.9255L74.1319 65.0193L74.1221 60.6335C74.1188 59.8306 74.0956 59.0176 74.1387 58.2166C74.1907 57.2527 74.9541 57.1482 75.7276 57.1541C79.8007 57.1847 83.8749 57.1759 87.9473 57.1443C88.704 57.1384 89.877 57.1073 89.9268 58.1335C89.9773 58.9828 89.9604 59.8393 89.959 60.6902L89.9561 65.0798L89.9698 79.9285L92.6251 79.9382C92.5213 72.1807 92.6196 64.2187 92.6182 56.4451L92.5967 50.4099C92.592 49.4629 92.5496 48.3325 92.6446 47.3894C92.6891 46.9477 93.1333 46.653 93.4776 46.4255L102.748 46.4246C104.334 46.4205 105.946 46.371 107.523 46.4568C108.632 46.5174 108.445 47.8248 108.444 48.5876C108.444 49.2839 108.435 49.9808 108.433 50.6765L108.421 57.0242L108.435 79.9412L111.13 79.9324L111.12 45.4812V37.3044C111.119 36.2548 111.065 34.9607 111.17 33.9187C111.203 33.5981 111.592 33.3355 111.854 33.1746ZM95.3917 49.2673L95.3751 79.9246C98.666 79.9402 102.443 80.0274 105.704 79.9275C105.62 73.3428 105.714 66.6206 105.694 60.0193L105.679 52.9412C105.677 51.9545 105.61 50.1852 105.712 49.2654L95.3917 49.2673ZM87.1954 59.9412C83.8539 59.9408 80.1961 59.8636 76.8809 59.9587L76.8838 79.9363C80.1956 79.9621 83.8853 79.9962 87.1876 79.9324C87.2751 77.747 87.2016 75.0276 87.2002 72.8035L87.1954 59.9412ZM113.879 35.949L113.899 60.4578C113.912 66.8549 114.003 73.5416 113.891 79.9216C114.781 79.9257 123.976 80.0501 124.244 79.8279L124.216 50.0369L124.218 41.1628C124.214 39.5299 124.147 37.5406 124.246 35.948C120.809 35.942 117.315 35.9117 113.879 35.949ZM58.4161 67.7253L58.417 79.9255L67.3282 79.9421L68.7139 79.9343L68.7227 67.7341L60.0049 67.7156L58.4161 67.7253Z" fill="#333333"/>
<path d="M43.2978 7.09004C45.2391 6.96332 48.2891 7.0618 50.291 7.0627L63.3076 7.05586C65.2972 7.05525 66.6048 7.07106 68.1279 8.63399C70.1143 10.6733 69.4977 15.1877 69.497 17.9875L82.1631 17.9895C83.7553 17.9918 87.4273 17.8718 88.8525 18.2063C90.1126 18.5097 91.2645 19.1578 92.1816 20.0803C93.1593 21.0519 93.8563 22.2742 94.1972 23.6154C94.491 24.8085 94.3852 27.0048 94.3818 28.341C94.3717 30.3233 94.3759 32.3061 94.3955 34.2883C93.5512 34.8273 92.2747 35.8814 91.5713 36.5725C91.6002 36.3607 91.6211 36.0435 91.6211 35.8254C91.6238 33.7107 91.6406 31.6107 91.6211 29.4934C91.6062 27.8916 91.7059 26.0128 91.497 24.4553C91.4107 23.8141 90.8014 22.721 90.3379 22.2668C89.3036 21.253 88.3176 20.789 86.8925 20.7873C82.1455 20.7818 77.399 20.7919 72.6552 20.7912L43.2226 20.7902H28.2539L23.6728 20.7863C22.7785 20.7851 21.8686 20.7649 20.9697 20.8264C19.0826 20.9653 17.2514 22.5899 17.0049 24.5197C16.8357 25.8446 16.9334 27.7005 16.9306 29.093L16.9257 39.4846C17.8335 39.7461 18.9116 40.2449 19.8349 40.5744C28.9766 43.8369 38.1077 45.3988 47.7334 46.3586C47.7324 45.3521 47.6995 44.3401 47.7002 43.3371C47.7005 42.8965 47.734 42.4244 48.0732 42.1232C48.2241 41.9791 48.4715 41.8142 48.6855 41.8059C49.8298 41.7614 51.0137 41.7896 52.1591 41.7912L59.8388 41.8156C60.7059 42.3436 60.6121 43.0721 60.6211 43.9846C60.6289 44.7862 60.6323 45.5891 60.6416 46.3908C61.937 46.1599 63.2754 46.0649 64.5849 45.9182C66.0172 45.7439 67.4481 45.5542 68.8759 45.3479C71.3635 44.9735 73.8356 44.5005 76.2861 43.9309C78.4578 43.4477 81.1977 42.796 83.331 42.1252C82.8465 42.5564 81.9659 43.129 81.4052 43.5158C80.3671 44.2297 79.3328 44.9489 78.3027 45.674C77.8998 45.9585 77.0744 46.5727 76.6357 46.7092C75.6601 47.0124 74.5069 47.2068 73.4922 47.4055C70.8509 47.914 68.1913 48.325 65.5195 48.6369C63.8863 48.8402 62.2763 49.057 60.6308 49.133C60.5939 51.3381 60.8944 53.8687 58.0107 54.5598C56.9833 54.8059 55.7472 54.6401 54.6894 54.6721C53.6785 54.7026 52.6431 54.6599 51.6308 54.6926C49.4772 54.7692 47.7182 53.4336 47.7578 51.1555C47.769 50.5145 47.7615 49.7956 47.7666 49.1379C45.4 49.0886 42.3111 48.6058 39.9424 48.2795C31.9015 47.1718 24.5468 45.2763 16.9131 42.4758L16.915 60.0061L16.9052 64.7932C16.899 66.9906 16.6391 69.1555 18.3164 70.8625C18.9789 71.5414 19.8468 71.9799 20.7832 72.1076C21.5979 72.2258 23.5065 72.1706 24.3955 72.1672L30.3925 72.1682L52.6435 72.1691L52.6689 75.009C49.8748 74.9383 46.9314 74.9962 44.1259 74.9982L29.0058 74.9836L23.5107 74.9992C20.8359 74.9992 18.7591 75.0703 16.6211 73.1486C15.1624 71.8569 14.2791 70.0293 14.1689 68.0744C14.1173 67.127 14.1518 65.8551 14.1533 64.8791L14.1601 59.1106L14.1591 40.5842L14.1601 29.6965C14.1582 28.2825 14.1746 26.8571 14.1572 25.4445C14.134 23.5503 14.7406 21.784 16.0107 20.3606C16.9069 19.3442 18.0764 18.6121 19.3769 18.2522C20.8747 17.8505 24.0523 17.9686 25.7119 17.9719L33.9697 17.9777C35.5379 17.9805 37.4163 18.0347 38.9629 17.9484C38.9243 16.2328 38.9571 14.5069 38.9394 12.7902C38.9334 12.2024 38.936 11.5749 39.0488 10.9982C39.1782 10.3074 39.4629 9.65577 39.8818 9.09395C40.7378 7.95047 41.8995 7.28141 43.2978 7.09004ZM57.8759 44.5783C55.5737 44.5696 52.7755 44.5022 50.5156 44.594C50.5383 45.9451 50.545 47.2964 50.5361 48.6477C50.5354 48.9777 50.5192 49.347 50.5351 49.6711C50.5757 50.4959 50.3346 51.9006 51.5195 51.9152C53.243 51.9362 54.9691 51.8971 56.6943 51.9445C57.1107 51.956 57.367 51.9354 57.6709 51.6389C58.0138 51.0254 57.8966 49.6743 57.8916 48.9397C57.8722 47.486 57.8667 46.0321 57.8759 44.5783ZM47.7226 9.83516C46.8048 9.83346 44.4095 9.71608 43.582 9.85176C42.9083 10.0942 42.2439 10.4992 41.9218 11.174C41.4594 12.1437 41.7461 16.5634 41.6845 17.9611C44.2831 18.0496 47.006 17.9537 49.6162 17.969C54.6452 17.9984 59.6932 17.9277 64.7207 17.9856L66.7168 17.9846C66.6968 15.9486 66.8412 13.6376 66.6201 11.6516C66.3686 9.39333 63.2623 9.82669 61.7832 9.83125L55.9775 9.84395L47.7226 9.83516Z" fill="#333333"/>
<path d="M116.784 10.0719C117.929 10.0318 127.034 9.93929 127.585 10.2504C127.784 10.363 127.906 10.6588 127.961 10.8733C128.178 11.7123 128.015 13.7782 128.018 14.7444C128.025 16.7644 128.141 18.852 128.022 20.8647C128.008 21.0944 127.995 21.329 127.868 21.5276C127.69 21.8057 127.367 21.9557 127.057 22.0264C126.549 22.1422 125.762 22.1585 125.312 21.8537C125.118 21.7239 124.977 21.528 124.914 21.3017C124.806 20.9197 124.821 19.594 124.717 19.0415C124.514 17.9626 124.232 16.9596 124.034 15.8811C121.612 18.3501 119.15 20.778 116.647 23.1635C104.228 34.8453 90.4641 45.2246 75.2524 52.876C74.8245 53.0914 74.4061 53.2995 73.9688 53.4962C71.9513 54.3428 69.9737 55.4489 67.8996 56.2123C67.1738 56.4792 66.4369 56.8462 65.6836 57.0201C66.4777 56.2743 67.529 55.7857 68.4629 55.2272C70.3941 54.0965 72.3125 52.9455 74.2194 51.7744C79.3931 48.5217 84.4711 45.1173 89.4473 41.5654C96.8412 36.3228 103.941 30.6704 110.713 24.6343C112.74 22.8267 114.732 20.9806 116.689 19.0969C118.399 17.4429 120.218 15.5818 121.965 14.0036C120.937 13.8462 120.088 13.3519 119.127 13.1033C118.521 12.9465 117.264 13.0134 116.552 12.9983C116.314 12.837 116.048 12.6641 115.966 12.3777C115.685 11.3931 115.734 10.4642 116.784 10.0719Z" fill="#333333"/>
</svg>
