<svg width="1920" height="2523" viewBox="0 0 1920 2523" fill="none" xmlns="http://www.w3.org/2000/svg">
<path d="M-1276.85 630.814C-1312.44 606.674 -1371.08 535.122 -1383.6 492.986C-1356.48 468.618 -1323.14 442.594 -1294.86 418.549C-1185.73 660.159 -852.044 654.418 -631.722 664.28C-250.799 681.323 115.728 784.917 353.881 1115.12C388.357 1104.64 421.271 1096 457.344 1091.19C843.439 1039.68 1326.32 1374.04 1481.82 1722.32C1452.9 1745.67 1418.4 1776.3 1390.59 1801.14C1346.83 1708.84 1295.39 1634.1 1226.78 1557.96C1144.55 1467.97 1048.9 1391.12 943.415 1330.31C786.978 1239.95 593.078 1182.9 417.332 1228.51C478.627 1370.24 497.667 1564.86 365.618 1671.51C291.306 1731.52 190.083 1704.21 134.329 1627.98C88.3747 1565.14 72.4614 1487.06 83.8949 1411.75C99.5053 1303.95 156.057 1229.79 241.511 1167.02C229.713 1149.42 211.771 1129.68 197.505 1113.85C143.626 1054.05 86.1996 1006.71 18.1599 963.939C-135.613 867.266 -300.159 823.152 -477.088 801.767C-547.23 793.578 -617.56 787.898 -687.953 784.723C-892.803 773.727 -1106.83 766.963 -1276.85 630.814ZM203.194 1439.61C196.279 1491.34 207.894 1543.69 251.275 1577.79C268.086 1587.16 278.155 1580.06 290.451 1568.78C367.238 1498.35 344.679 1374.34 310.844 1287.51L305.292 1275.55C250.395 1315.36 212.337 1371.23 203.194 1439.61Z" fill="#4E9C5A"/>
</svg>
