<svg width="427" height="154" viewBox="0 0 427 154" fill="none" xmlns="http://www.w3.org/2000/svg">
<path fill-rule="evenodd" clip-rule="evenodd" d="M252.366 73.1763C254.5 73.047 257.116 73.2102 259.303 73.1519C261.574 73.1578 263.848 73.1297 266.118 73.1675C266.754 73.1781 267.501 73.3604 267.514 74.146C267.54 75.6905 267.52 77.2377 267.521 78.7817L267.523 88.7183L267.531 119.941C268.752 119.936 288.784 119.945 290.002 119.968C290.027 120.922 290.041 121.762 290.012 122.718C288.53 122.772 268.02 122.738 266.521 122.741L256.292 122.724L225.411 122.734L180.725 122.738L162.054 122.742C158.494 122.768 154.933 122.757 151.374 122.706C151.351 121.797 151.352 120.887 151.376 119.979C153.082 119.914 154.911 119.944 156.626 119.943L165.317 119.937L196.163 119.922L196.167 116.211L196.162 109.63C196.16 108.511 196.151 107.393 196.173 106.272C196.185 105.699 196.343 105.064 197.028 104.999C197.664 104.937 198.35 104.967 198.995 104.966L202.816 104.967H208.05C208.99 104.968 209.923 104.964 210.864 104.995C211.284 104.924 211.918 105.443 211.934 105.892C212.094 110.538 211.851 115.266 211.992 119.911C212.87 119.922 213.749 119.927 214.627 119.927L214.644 105.021L214.634 100.634C214.631 99.8315 214.608 99.0191 214.651 98.2183C214.703 97.2545 215.465 97.149 216.239 97.1548C220.312 97.1854 224.387 97.1776 228.459 97.146C229.216 97.1401 230.389 97.1091 230.439 98.1353C230.489 98.9845 230.473 99.841 230.471 100.692L230.467 105.082L230.482 119.93L233.137 119.94C233.033 112.182 233.132 104.22 233.13 96.4468L233.109 90.4116C233.104 89.4646 233.062 88.3342 233.157 87.3911C233.201 86.9494 233.645 86.6548 233.99 86.4272L243.259 86.4263C244.845 86.4222 246.457 86.3728 248.035 86.4585C249.144 86.5188 248.957 87.8264 248.957 88.5894C248.956 89.2856 248.948 89.9825 248.945 90.6782L248.933 97.0259L248.947 119.943L251.642 119.934L251.632 85.4829V77.3062C251.632 76.2565 251.577 74.9624 251.682 73.9204C251.715 73.5997 252.104 73.3373 252.366 73.1763ZM235.904 89.2671L235.887 119.924C239.178 119.94 242.955 120.026 246.216 119.926C246.132 113.342 246.226 106.62 246.207 100.019L246.191 92.9409C246.189 91.9542 246.122 90.185 246.224 89.2651L235.904 89.2671ZM227.708 99.9438C224.366 99.9435 220.708 99.8663 217.393 99.9614L217.396 119.939C220.708 119.965 224.397 119.999 227.7 119.935C227.787 117.75 227.714 115.03 227.712 112.806L227.708 99.9438ZM254.391 75.9517L254.412 100.46C254.424 106.858 254.515 113.544 254.403 119.924C255.293 119.928 264.488 120.053 264.756 119.831L264.728 90.0396L264.73 81.1655C264.727 79.5326 264.659 77.5433 264.758 75.9507C261.321 75.9447 257.827 75.9144 254.391 75.9517ZM198.928 107.727L198.929 119.928L207.84 119.945L209.226 119.937L209.235 107.737L200.517 107.718L198.928 107.727Z" fill="#333333"/>
<path fill-rule="evenodd" clip-rule="evenodd" d="M183.81 47.0881C185.751 46.9614 188.801 47.0598 190.803 47.0607L203.82 47.0539C205.809 47.0533 207.117 47.0691 208.64 48.632C210.627 50.6713 210.01 55.1858 210.009 57.9856L222.675 57.9875C224.268 57.9899 227.94 57.8698 229.365 58.2043C230.625 58.5077 231.777 59.1559 232.694 60.0783C233.672 61.0499 234.368 62.2723 234.709 63.6135C235.003 64.8066 234.897 67.0029 234.894 68.3391C234.884 70.3214 234.888 72.3041 234.908 74.2863C234.063 74.8253 232.787 75.8795 232.083 76.5705C232.112 76.3587 232.133 76.0415 232.133 75.8234C232.136 73.7087 232.153 71.6088 232.133 69.4914C232.118 67.8897 232.218 66.0108 232.009 64.4533C231.923 63.8121 231.314 62.7191 230.85 62.2648C229.816 61.251 228.83 60.787 227.405 60.7854C222.658 60.7799 217.911 60.7899 213.167 60.7893L183.735 60.7883H168.766L164.185 60.7844C163.291 60.7832 162.381 60.7629 161.482 60.8244C159.595 60.9633 157.764 62.588 157.517 64.5178C157.348 65.8426 157.446 67.6986 157.443 69.091L157.438 79.4826C158.346 79.7442 159.424 80.243 160.347 80.5725C169.489 83.8349 178.62 85.3969 188.246 86.3566C188.245 85.3502 188.212 84.3382 188.212 83.3352C188.213 82.8946 188.246 82.4224 188.585 82.1213C188.736 81.9771 188.984 81.8123 189.198 81.8039C190.342 81.7595 191.526 81.7876 192.671 81.7893L200.351 81.8137C201.218 82.3416 201.124 83.0702 201.133 83.9826C201.141 84.7842 201.144 85.5872 201.154 86.3889C202.449 86.1579 203.788 86.063 205.097 85.9162C206.529 85.7419 207.96 85.5522 209.388 85.3459C211.876 84.9716 214.348 84.4986 216.798 83.9289C218.97 83.4458 221.71 82.7941 223.843 82.1232C223.359 82.5544 222.478 83.127 221.917 83.5139C220.879 84.2278 219.845 84.947 218.815 85.6721C218.412 85.9566 217.587 86.5707 217.148 86.7072C216.172 87.0104 215.019 87.2048 214.004 87.4035C211.363 87.9121 208.704 88.323 206.032 88.635C204.398 88.8382 202.789 89.0551 201.143 89.1311C201.106 91.3362 201.407 93.8668 198.523 94.5578C197.496 94.8039 196.259 94.6382 195.202 94.6701C194.191 94.7006 193.155 94.658 192.143 94.6906C189.989 94.7673 188.23 93.4316 188.27 91.1535C188.281 90.5126 188.274 89.7937 188.279 89.1359C185.912 89.0866 182.823 88.6039 180.455 88.2775C172.414 87.1699 165.059 85.2743 157.425 82.4738L157.427 100.004L157.417 104.791C157.411 106.989 157.151 109.154 158.829 110.861C159.491 111.539 160.359 111.978 161.295 112.106C162.11 112.224 164.019 112.169 164.908 112.165L170.905 112.166L193.156 112.167L193.181 115.007C190.387 114.936 187.444 114.994 184.638 114.996L169.518 114.982L164.023 114.997C161.348 114.997 159.271 115.068 157.133 113.147C155.675 111.855 154.791 110.027 154.681 108.072C154.63 107.125 154.664 105.853 154.665 104.877L154.672 99.1086L154.671 80.5822L154.672 69.6945C154.67 68.2806 154.687 66.8551 154.669 65.4426C154.646 63.5483 155.253 61.7821 156.523 60.3586C157.419 59.3423 158.589 58.6101 159.889 58.2502C161.387 57.8485 164.565 57.9667 166.224 57.9699L174.482 57.9758C176.05 57.9785 177.928 58.0328 179.475 57.9465C179.437 56.2308 179.469 54.505 179.452 52.7883C179.446 52.2005 179.448 51.5729 179.561 50.9963C179.69 50.3055 179.975 49.6538 180.394 49.092C181.25 47.9485 182.412 47.2795 183.81 47.0881ZM198.388 84.5754C196.086 84.5667 193.288 84.4993 191.028 84.591C191.051 85.9421 191.057 87.2935 191.048 88.6447C191.048 88.9748 191.031 89.3441 191.047 89.6682C191.088 90.4929 190.847 91.8977 192.032 91.9123C193.755 91.9333 195.481 91.8942 197.207 91.9416C197.623 91.9531 197.879 91.9324 198.183 91.6359C198.526 91.0224 198.409 89.6714 198.404 88.9367C198.384 87.483 198.379 86.0291 198.388 84.5754ZM188.235 49.8342C187.317 49.8325 184.922 49.7151 184.094 49.8508C183.421 50.0932 182.756 50.4983 182.434 51.1731C181.972 52.1427 182.258 56.5624 182.197 57.9602C184.795 58.0486 187.518 57.9527 190.128 57.968C195.157 57.9974 200.205 57.9267 205.233 57.9846L207.229 57.9836C207.209 55.9476 207.353 53.6366 207.132 51.6506C206.881 49.3924 203.775 49.8257 202.295 49.8303L196.49 49.843L188.235 49.8342Z" fill="#333333"/>
<path d="M257.296 50.0719C258.442 50.0318 267.546 49.9393 268.097 50.2504C268.296 50.363 268.418 50.6588 268.473 50.8733C268.69 51.7123 268.527 53.7782 268.53 54.7444C268.537 56.7644 268.653 58.852 268.534 60.8647C268.521 61.0944 268.507 61.329 268.381 61.5276C268.202 61.8057 267.879 61.9557 267.569 62.0264C267.061 62.1422 266.274 62.1585 265.824 61.8537C265.63 61.7239 265.489 61.528 265.426 61.3017C265.319 60.9197 265.333 59.594 265.229 59.0415C265.026 57.9626 264.744 56.9596 264.546 55.8811C262.125 58.3501 259.662 60.778 257.159 63.1635C244.74 74.8453 230.976 85.2246 215.765 92.876C215.337 93.0914 214.918 93.2995 214.481 93.4962C212.464 94.3428 210.486 95.4489 208.412 96.2123C207.686 96.4792 206.949 96.8462 206.196 97.0201C206.99 96.2743 208.041 95.7857 208.975 95.2272C210.906 94.0965 212.825 92.9455 214.732 91.7744C219.905 88.5217 224.983 85.1173 229.959 81.5654C237.353 76.3228 244.453 70.6704 251.226 64.6343C253.252 62.8267 255.244 60.9806 257.201 59.0969C258.911 57.4429 260.73 55.5818 262.477 54.0036C261.45 53.8462 260.6 53.3519 259.639 53.1033C259.033 52.9465 257.776 53.0134 257.064 52.9983C256.826 52.837 256.56 52.6641 256.479 52.3777C256.198 51.3931 256.246 50.4642 257.296 50.0719Z" fill="#333333"/>
<path d="M0.512207 102.5C3.31221 103.7 41.6789 97 60.5122 93.5C69.0122 91.5 88.4122 86.3 98.0122 81.5C107.612 76.7 122.346 69.5 128.512 66.5C132.122 65.0781 137.884 63.1538 142.267 61.7163C145.745 60.5757 149.37 59.9381 153.028 59.8162L162.512 59.5" stroke="#333333" stroke-width="2.6"/>
<path d="M281.512 121V102.5C281.846 87.6667 292.512 61.1 332.512 73.5C358.679 83.1667 393.012 102.999 426.512 102.999" stroke="#333333" stroke-width="2.6"/>
</svg>
