<svg width="270" height="107" viewBox="0 0 270 107" fill="none" xmlns="http://www.w3.org/2000/svg">
<path d="M159.685 49.8043C161.027 49.7229 162.673 49.8253 164.049 49.7887C165.477 49.7924 166.908 49.7747 168.336 49.7984C168.737 49.8051 169.207 49.9203 169.215 50.4146C169.231 51.3862 169.218 52.3594 169.219 53.3307L169.22 59.5807L169.225 79.2213C169.99 79.2183 182.597 79.2233 183.362 79.2379C183.378 79.838 183.386 80.3669 183.368 80.9683C182.435 81.0021 169.533 80.9803 168.59 80.982L162.154 80.9713L142.727 80.9781L114.615 80.9801L102.869 80.983C100.63 80.9997 98.3898 80.9926 96.1505 80.9605C96.1363 80.3892 96.1361 79.817 96.1514 79.2457C97.2244 79.2051 98.375 79.2231 99.4542 79.2223L104.922 79.2183L124.327 79.2096L124.33 76.8746L124.326 72.7359C124.325 72.0315 124.32 71.3282 124.334 70.6226C124.341 70.2624 124.441 69.8632 124.871 69.8219C125.272 69.7835 125.703 69.8016 126.108 69.8014L128.513 69.8023H131.806C132.397 69.8026 132.984 69.8008 133.575 69.8199C133.84 69.7755 134.239 70.1019 134.249 70.3844C134.35 73.3063 134.197 76.2803 134.285 79.2017C134.838 79.2086 135.391 79.2125 135.943 79.2125L135.953 69.8365L135.947 67.0767C135.945 66.5718 135.931 66.0609 135.958 65.5572C135.991 64.9508 136.47 64.8846 136.957 64.8883C139.52 64.9075 142.083 64.9023 144.645 64.8824C145.121 64.8787 145.859 64.8589 145.891 65.5045C145.922 66.0387 145.911 66.5776 145.91 67.1129L145.908 69.8736L145.917 79.2144L147.588 79.2203C147.523 74.3407 147.584 69.3326 147.583 64.443L147.569 60.6461C147.566 60.0503 147.541 59.339 147.601 58.7457C147.629 58.4681 147.908 58.2833 148.124 58.1402L153.956 58.1392C154.954 58.1367 155.967 58.1058 156.96 58.1598C157.658 58.1977 157.541 59.0197 157.54 59.4996C157.54 59.9376 157.534 60.3764 157.532 60.814L157.524 64.8062L157.534 79.2223L159.23 79.2164L159.224 57.5455L159.223 52.4019C159.222 51.7418 159.189 50.9284 159.255 50.273C159.275 50.0712 159.52 49.9056 159.685 49.8043ZM144.172 66.6422C142.07 66.642 139.768 66.5931 137.683 66.6529L137.685 79.2193C139.768 79.2356 142.09 79.2575 144.167 79.2174C144.222 77.8428 144.176 76.132 144.175 74.733L144.172 66.6422ZM149.327 59.9264L149.317 79.2105C151.388 79.2204 153.764 79.2743 155.815 79.2115C155.763 75.0696 155.822 70.8413 155.81 66.689L155.8 62.2369C155.799 61.6164 155.756 60.5041 155.82 59.9254L149.327 59.9264ZM160.959 51.5504L160.972 66.9674C160.979 70.9913 161.036 75.1973 160.966 79.2105C161.524 79.2131 167.307 79.2915 167.48 79.1519L167.462 60.4127L167.463 54.8297C167.461 53.8026 167.418 52.5511 167.481 51.5494C165.318 51.5456 163.12 51.5269 160.959 51.5504ZM126.066 71.5387L126.067 79.2125L131.674 79.2232L132.545 79.2183L132.551 71.5445L127.066 71.5328L126.066 71.5387Z" fill="#333333"/>
<path d="M120.955 33.3767L129.144 33.3718C130.395 33.3715 131.218 33.3821 132.176 34.365C133.426 35.6478 133.038 38.4877 133.037 40.2488L141.006 40.2507C142.008 40.2522 144.318 40.1761 145.214 40.3865C146.007 40.5773 146.731 40.9851 147.308 41.5652C147.923 42.1763 148.362 42.9452 148.576 43.7888C148.761 44.5393 148.695 45.921 148.693 46.7615C148.686 48.0085 148.689 49.2558 148.701 50.5027C148.17 50.8417 147.368 51.5045 146.925 51.9392C146.943 51.806 146.955 51.6066 146.955 51.4695C146.957 50.1393 146.969 48.818 146.956 47.4861C146.947 46.4786 147.01 45.2968 146.878 44.3172C146.824 43.9139 146.44 43.227 146.149 42.9412C145.498 42.3034 144.877 42.0115 143.981 42.0105C140.995 42.0071 138.009 42.0129 135.025 42.0125H116.508L107.091 42.0115L104.209 42.0095C103.647 42.0088 103.074 41.9962 102.508 42.0349C101.321 42.1225 100.169 43.1443 100.014 44.3582C99.9075 45.1916 99.9698 46.3592 99.9681 47.2351L99.9642 53.7713C100.535 53.9358 101.214 54.2495 101.795 54.4568C107.546 56.5089 113.29 57.4917 119.345 58.0955C119.344 57.4623 119.324 56.8251 119.325 56.1941C119.325 55.917 119.347 55.6208 119.56 55.4314C119.655 55.3408 119.81 55.2365 119.945 55.2312C120.665 55.2033 121.41 55.2214 122.13 55.2224L126.961 55.2371C127.507 55.5692 127.448 56.0282 127.453 56.6023C127.458 57.1063 127.46 57.611 127.466 58.115C128.281 57.9697 129.124 57.9105 129.948 57.8181C130.849 57.7085 131.749 57.5885 132.647 57.4588C134.212 57.2233 135.767 56.9265 137.309 56.5681C138.675 56.2642 140.398 55.8543 141.741 55.4324C141.436 55.7035 140.882 56.0631 140.53 56.3064C139.876 56.7555 139.226 57.2086 138.577 57.6648C138.324 57.8437 137.805 58.2292 137.529 58.3152C136.915 58.5059 136.189 58.6287 135.551 58.7537C133.889 59.0736 132.215 59.3318 130.534 59.5281C129.507 59.6559 128.495 59.7928 127.46 59.8406C127.437 61.2276 127.626 62.8189 125.812 63.2537C125.165 63.4085 124.388 63.3049 123.722 63.325C123.086 63.3441 122.434 63.3171 121.797 63.3377C120.442 63.3857 119.337 62.545 119.362 61.1121C119.369 60.709 119.363 60.2571 119.367 59.8435C117.878 59.8125 115.935 59.5087 114.445 59.3035C109.386 58.6067 104.759 57.4147 99.9564 55.6531L99.9583 66.6795L99.9515 69.6912C99.9476 71.0734 99.784 72.4358 100.839 73.5095C101.256 73.9364 101.802 74.2124 102.391 74.2927C102.903 74.3671 104.104 74.332 104.663 74.3298H108.437L122.435 74.3308L122.45 76.1179C120.693 76.0735 118.841 76.1098 117.076 76.1111L107.565 76.1013L104.107 76.1111C102.424 76.1111 101.118 76.1558 99.7728 74.947C98.855 74.1345 98.2991 72.9844 98.2298 71.7547C98.1973 71.1587 98.2201 70.3587 98.221 69.7449L98.2249 66.117L98.2239 54.4627L98.2249 47.614C98.2237 46.7247 98.2339 45.8286 98.223 44.9402C98.2083 43.7486 98.5899 42.6374 99.389 41.742C99.9528 41.1027 100.688 40.6413 101.506 40.4148C102.448 40.1621 104.448 40.237 105.492 40.239L110.687 40.2429C111.674 40.2446 112.855 40.2787 113.828 40.2244C113.804 39.1451 113.825 38.0592 113.814 36.9793C113.81 36.6096 113.811 36.2149 113.882 35.8523C113.964 35.4179 114.143 35.0084 114.407 34.655C114.945 33.9357 115.676 33.5146 116.556 33.3943C117.777 33.3146 119.696 33.3762 120.955 33.3767ZM125.727 56.9744C124.278 56.9689 122.518 56.9264 121.096 56.9841C121.11 57.834 121.114 58.684 121.109 59.5339C121.108 59.7415 121.098 59.9737 121.108 60.1775C121.133 60.6963 120.982 61.5805 121.728 61.5896C122.812 61.6028 123.898 61.5783 124.984 61.6082C125.245 61.6154 125.406 61.602 125.597 61.4158C125.813 61.03 125.74 60.1798 125.737 59.7175C125.724 58.8032 125.721 57.8888 125.727 56.9744ZM119.339 35.1209C118.762 35.1198 117.255 35.0462 116.735 35.1316C116.311 35.2841 115.892 35.539 115.69 35.9636C115.399 36.5745 115.58 39.3531 115.541 40.2322C117.176 40.2878 118.889 40.2275 120.532 40.2371C123.695 40.2556 126.871 40.2114 130.034 40.2478L131.289 40.2468C131.277 38.9662 131.367 37.5127 131.228 36.2634C131.07 34.8428 129.115 35.1151 128.185 35.1179L124.534 35.1257L119.339 35.1209Z" fill="#333333"/>
<path d="M162.787 35.2712C163.507 35.2459 169.235 35.1878 169.581 35.3835C169.707 35.4543 169.784 35.6404 169.818 35.7753C169.954 36.303 169.852 37.6026 169.854 38.2104C169.858 39.481 169.932 40.7942 169.857 42.0602C169.848 42.2047 169.84 42.3523 169.76 42.4772C169.648 42.6521 169.444 42.7465 169.249 42.791C168.93 42.8638 168.435 42.8741 168.152 42.6823C168.029 42.6007 167.941 42.4774 167.901 42.3351C167.834 42.0948 167.843 41.2609 167.777 40.9133C167.65 40.2347 167.472 39.6038 167.348 38.9254C165.824 40.4785 164.275 42.0057 162.7 43.5062C154.887 50.8544 146.229 57.3834 136.659 62.1964C136.39 62.3319 136.126 62.4627 135.851 62.5865C134.582 63.119 133.338 63.8148 132.033 64.295C131.576 64.4629 131.113 64.6937 130.639 64.8031C131.139 64.334 131.8 64.0267 132.387 63.6753C133.602 62.9641 134.809 62.2401 136.009 61.5034C139.264 59.4574 142.458 57.3159 145.589 55.0816C150.24 51.7838 154.707 48.2283 158.968 44.4314C160.242 43.2944 161.496 42.1331 162.727 40.9482C163.803 39.9078 164.947 38.7371 166.046 37.7444C165.4 37.6454 164.865 37.3344 164.26 37.178C163.879 37.0794 163.088 37.1215 162.641 37.112C162.491 37.0105 162.324 36.9018 162.272 36.7216C162.096 36.1023 162.126 35.518 162.787 35.2712Z" fill="#333333"/>
<path d="M98.7418 54.5002C70.3499 37.1262 27.8971 54.6717 0.741772 84.7067" stroke="#333333" stroke-width="2"/>
</svg>
