<svg width="1920" height="1054" viewBox="0 0 1920 1054" fill="none" xmlns="http://www.w3.org/2000/svg">
<g clip-path="url(#clip0_2531_9326)">
<path d="M2105.31 776.107C2195.43 775.149 2294.9 757.978 2378.37 724.286C2449.57 695.546 2557.62 635.578 2559 547.779C2559.24 532.656 2552.22 515.306 2541.24 504.894C2540.51 504.21 2539.75 503.557 2538.97 502.938C2535.36 500.208 2528.44 493.923 2523.84 495.379C2523.58 499.83 2531.31 509.393 2534.42 514.75C2566.02 578.349 2471.55 643.372 2422.18 665.637C2251.16 742.76 2043.3 747.025 1865.77 689.677C1846.92 683.589 1766.95 649.563 1758.39 633.931C1761.95 628.692 1783.76 611.72 1790.32 605.13C1834.14 561.111 1867.58 504.163 1854.06 439.728C1843.16 387.779 1797.15 359.756 1745.75 369.654C1708.55 376.819 1678.97 399.484 1658.07 430.612C1632 470.027 1627.14 514.576 1637.32 559.84C1641.42 578.019 1647.89 593.245 1657.13 609.36C1660.32 614.952 1667.37 624.071 1668.84 629.342C1665.84 632.921 1649.18 639.296 1644.3 641.438C1500.97 704.395 1332.12 704.305 1182.61 666.143C962.115 609.866 756.282 495.856 521.55 547.311C434.823 566.333 368.799 593.404 302.222 655.318C307.059 666.128 319.613 695.638 324.912 703.671C327.831 703.049 333.595 696.39 335.829 694.029C345.401 683.722 355.852 674.269 367.066 665.778C437.524 612.201 526.853 588.335 614.003 584.507C748.849 578.584 879.497 622.294 1004.83 666.894C1217.02 742.406 1449.91 780.823 1663.28 687.118C1677.49 680.876 1693.55 674.413 1706.4 665.519C1715.87 674.754 1742.11 692.128 1754.01 698.97C1857.52 757.815 1987.85 777.356 2105.31 776.107ZM1720.76 597.574C1682.76 550.952 1678.12 475.852 1728.25 435.084C1742.14 423.796 1752.88 419.782 1770.83 421.328C1780.6 425.127 1786.65 429.229 1791.03 439.212C1816.82 497.904 1765.1 563.684 1720.76 597.574Z" fill="#4E9C5A"/>
</g>
<g clip-path="url(#clip1_2531_9326)">
<path d="M2105.31 776.107C2195.43 775.149 2294.9 757.978 2378.37 724.286C2449.57 695.546 2557.62 635.578 2559 547.779C2559.24 532.656 2552.22 515.306 2541.24 504.894C2540.51 504.21 2539.75 503.557 2538.97 502.938C2535.36 500.208 2528.44 493.923 2523.84 495.379C2523.58 499.83 2531.31 509.393 2534.42 514.75C2566.02 578.349 2471.55 643.372 2422.18 665.637C2251.16 742.76 2043.3 747.025 1865.77 689.677C1846.92 683.589 1766.95 649.563 1758.39 633.931C1761.95 628.692 1783.76 611.72 1790.32 605.13C1834.14 561.111 1867.58 504.163 1854.06 439.728C1843.16 387.779 1797.15 359.756 1745.75 369.654C1708.55 376.819 1678.97 399.484 1658.07 430.612C1632 470.027 1627.14 514.576 1637.32 559.84C1641.42 578.019 1647.89 593.245 1657.13 609.36C1660.32 614.952 1667.37 624.071 1668.84 629.342C1665.84 632.921 1649.18 639.296 1644.3 641.438C1500.97 704.395 1332.12 704.305 1182.61 666.143C962.115 609.866 756.282 495.856 521.55 547.311C434.823 566.333 368.799 593.404 302.222 655.318C307.059 666.128 319.613 695.638 324.912 703.671C327.831 703.049 333.595 696.39 335.829 694.029C345.401 683.722 355.852 674.269 367.066 665.778C437.524 612.201 526.853 588.335 614.003 584.507C748.849 578.584 879.497 622.294 1004.83 666.894C1217.02 742.406 1449.91 780.823 1663.28 687.118C1677.49 680.876 1693.55 674.413 1706.4 665.519C1715.87 674.754 1742.11 692.128 1754.01 698.97C1857.52 757.815 1987.85 777.356 2105.31 776.107ZM1720.76 597.574C1682.76 550.952 1678.12 475.852 1728.25 435.084C1742.14 423.796 1752.88 419.782 1770.83 421.328C1780.6 425.127 1786.65 429.229 1791.03 439.212C1816.82 497.904 1765.1 563.684 1720.76 597.574Z" fill="#4E9C5A"/>
</g>
<defs>
<clipPath id="clip0_2531_9326">
<rect width="694" height="505" fill="white" transform="translate(0 130)"/>
</clipPath>
<clipPath id="clip1_2531_9326">
<rect width="1230" height="642" fill="white" transform="translate(690 121)"/>
</clipPath>
</defs>
</svg>
