<svg width="100" height="86" viewBox="0 0 100 86" fill="none" xmlns="http://www.w3.org/2000/svg">
<path d="M73.1412 63.7266C73.3557 63.7642 73.6676 63.8551 73.8174 64.0148C74.7893 65.0505 75.7333 66.0788 76.7477 67.0769C79.416 69.6985 82.1186 72.2865 84.8532 74.8393C85.7227 75.6531 86.6864 76.7151 87.6705 77.3635C88.2518 77.7467 89.3866 77.3136 90.0817 77.1195L90.6319 78.1634C90.442 78.3836 90.2446 78.5523 90.0301 78.7455C88.8192 79.3686 87.2259 79.308 86.1919 78.3648C85.0669 77.3389 83.9927 76.2607 82.9014 75.1987L77.0007 69.479C75.8586 68.3647 73.6037 66.4538 72.6443 65.0734C72.5756 64.9743 72.5711 64.5609 72.5955 64.4209C72.6588 64.0549 72.8538 63.9173 73.1412 63.7266Z" fill="#1A1919"/>
<path d="M77.5924 59.0167C78.213 58.9771 78.7247 58.9591 79.225 59.4094C80.797 60.8269 82.2895 62.3298 83.832 63.7792L88.8337 68.4943C90.21 69.7871 91.8279 71.1503 92.9201 72.6715C93.5955 73.6123 93.5816 75.1359 92.532 75.8433C91.3096 75.732 91.642 74.5866 91.6682 73.6303C90.6497 72.2556 87.8717 69.887 86.4946 68.5361C84.0646 66.1732 81.5682 63.8701 79.1513 61.4961C78.2736 60.6343 75.7789 60.0791 77.5924 59.0167Z" fill="#1A1919"/>
<path fill-rule="evenodd" clip-rule="evenodd" d="M73.1809 18.9566C75.7468 13.028 82.3322 9.96861 88.5666 11.4878C89.3403 11.6932 90.833 11.8902 91.1662 12.7241C91.4102 13.3329 89.793 14.5096 89.3869 14.938C87.765 16.6471 85.0246 18.6678 83.8752 20.6782C84.4458 21.5978 88.8774 26.1665 89.7639 26.481C91.2073 26.4919 95.7108 20.6041 97.341 19.6353C97.5326 19.5216 97.8073 19.3914 98.0324 19.4663C98.3451 19.5708 98.5667 19.8281 98.719 20.1099C98.9122 20.4666 99.0097 20.8811 99.135 21.2652C99.9864 23.8771 100.095 26.8646 99.2912 29.5113C98.3112 32.7346 95.9275 35.5978 92.9514 37.1685C89.0624 39.2208 85.0221 39.1308 80.926 37.853C78.9029 39.6336 77.012 42.2202 75.1428 44.1919C74.3086 45.0715 73.5712 46.0587 72.5383 46.7154C72.1381 46.413 71.9486 46.2064 71.6008 45.8384C72.7036 44.366 74.2072 42.795 75.4231 41.4126C76.67 39.9956 77.9707 38.4255 79.3322 37.1333C78.3186 36.5834 76.1347 35.249 76.7766 33.8814C77.2358 33.5764 78.269 34.1678 78.6272 34.4673C84.7161 39.5361 94.5108 37.3412 97.4641 29.8745C98.729 26.6774 98.3478 24.7879 97.7698 21.5259C95.4241 23.4992 93.3522 25.9963 91.0393 27.9956C89.8988 28.9816 88.3768 27.9102 87.5344 26.938C86.0492 25.2242 83.4958 23.3746 82.2063 21.5142C82.167 20.6322 82.1332 19.9423 82.7053 19.2134C83.768 17.8599 85.1003 16.7321 86.3489 15.5552C87.2159 14.7386 88.0493 13.8473 88.9621 13.0874C85.7512 12.5843 83.4416 12.3258 80.4533 13.7564C74.5446 16.5848 71.9578 23.1199 74.5324 29.1753C74.8428 29.9049 75.6341 30.9494 75.3362 31.6958C74.7394 32.2487 74.0789 31.7316 73.5705 31.314C72.4602 31.9667 70.8151 33.5785 69.7795 34.5073C67.3586 36.7087 64.921 38.8917 62.467 41.0562C61.663 41.7754 60.8409 42.6791 60.0334 43.3335C60.2508 43.5159 60.7411 44.0036 60.9211 44.2271C62.5102 46.1989 64.7035 47.3935 66.5227 49.0034C69.7646 45.7422 71.365 48.6609 73.8108 50.8687C74.0629 51.3462 74.0831 51.6554 74.133 52.1948C74.0389 52.6104 73.9202 52.7407 73.6721 53.0855C77.4551 56.519 78.864 53.1819 81.6418 55.4702C84.2993 57.6594 87.5154 60.8313 90.0862 63.2085L95.0315 67.8023C96.1105 68.7953 97.5664 69.9918 98.4367 71.1314C99.2268 72.1613 99.7385 73.377 99.9211 74.6616C100.428 78.3703 98.2552 80.4862 95.799 82.7876C93.4543 84.9841 91.2706 85.6124 88.0696 85.023C84.8749 84.4343 83.3131 82.0031 81.0715 79.8941C77.9341 76.9433 74.8625 73.7849 71.7199 70.8277C71.0187 70.1645 69.5558 68.796 69.1086 68.0337C66.9822 64.4116 69.7497 63.2838 66.0041 60.3784C65.8752 60.4619 65.7445 60.5429 65.6125 60.6216C65.1912 60.8711 64.6828 61.0939 64.1926 60.9566C63.1528 60.6648 60.726 57.8512 60.2658 56.9927C60.3509 55.5099 60.8219 54.944 61.7043 53.772C59.1045 51.342 56.6074 48.7366 54.0852 46.2232L44.2942 36.5786L40.2082 32.5122C39.4963 31.815 38.3052 30.6237 37.5227 30.1128C36.8074 30.0806 35.8404 30.0896 35.2278 29.6929C34.2657 28.9937 33.4583 27.8871 32.6379 27.0161C30.4922 24.7382 27.3162 23.6549 30.4729 20.438C31.626 19.2628 32.5077 17.7111 34.2541 17.313C36.2049 16.8685 37.2095 18.6124 38.4289 19.7456C41.3793 22.223 41.4309 22.5866 42.1438 26.2144C42.7312 26.8826 43.7332 27.7972 44.4094 28.4536L49.3664 33.1988C52.3059 36.0197 55.7146 39.5431 58.8127 42.1421C60.0935 41.2652 62.2595 39.1172 63.4533 38.0425C66.5398 35.264 69.9692 32.3442 72.8918 29.4195C71.658 26.1362 71.7956 22.1493 73.1809 18.9566ZM72.2854 54.1626C71.429 54.9877 70.5568 55.7785 69.6936 56.5952C68.8968 57.349 68.052 58.3822 67.1916 59.0337C69.8585 61.5595 69.8176 61.714 69.801 65.1988C69.7922 67.0491 72.7248 69.5328 74.0705 70.8198L82.0266 78.562C83.3341 79.8434 84.9384 81.613 86.4006 82.6675C88.1527 83.9316 91.2189 83.9964 93.1028 82.9165C95.0202 81.6041 97.9813 78.8755 98.426 76.5464C98.6921 75.148 98.2955 73.7565 97.4817 72.6021C96.4911 71.1966 81.4231 57.1146 79.843 56.2613C76.0989 56.4889 75.6137 57.1567 72.6067 54.4341C72.5257 54.3609 72.3791 54.2252 72.2854 54.1626ZM69.0608 49.0728C67.2352 50.387 63.0667 54.6226 61.9983 56.5327C62.5386 57.2281 63.829 58.8798 64.6858 59.0542C64.8991 58.9922 64.8971 59.0016 65.0656 58.8638C66.6025 57.5034 68.06 55.9997 69.5315 54.562C70.3493 53.7629 71.6236 52.6325 72.3362 51.8013C71.7274 51.0332 69.9885 49.2147 69.0608 49.0728ZM34.9016 18.9458C33.3586 19.781 31.8163 21.4038 30.8615 22.8628C31.6699 23.9465 32.8771 24.9645 33.8576 25.9302C34.5761 26.6377 35.5831 27.7732 36.3362 28.3716C39.1285 28.4264 39.2086 29.1392 41.1584 31.0982L45.5071 35.4693C50.328 40.2534 55.234 44.9836 60.008 49.8198C60.7295 50.5508 61.4151 51.3679 62.1721 52.0659L62.8977 52.7515C63.6996 51.8959 64.5163 51.0028 65.3479 50.1802C62.882 48.4736 58.8878 44.5997 56.6526 42.4527L46.5647 32.7446C44.734 30.9716 42.7445 29.294 41.0237 27.4175C40.3397 26.6718 40.3363 24.8779 39.9533 23.8989L39.9309 23.8413C39.5126 22.7719 36.9588 20.8878 36.1223 19.9195C35.9272 19.6936 35.1782 19.0118 34.9016 18.9458Z" fill="#1A1919"/>
<path d="M33.6984 0.0932132C35.3087 0.0505569 43.1947 -0.181884 44.152 0.301582C44.4234 0.438639 44.657 0.938317 44.7811 1.2049C45.2789 2.27516 45.5846 3.47592 45.995 4.58605C46.4178 5.72934 46.9477 6.83627 47.3357 7.99053C49.411 8.74337 51.0565 9.42783 53.0807 10.3143C54.6069 9.59215 56.2227 8.51486 57.6845 7.6501C58.6491 7.07952 59.4354 6.50346 60.507 6.13019C61.5474 6.60367 61.9195 7.12242 62.7487 7.89163C63.7073 8.76359 64.6535 9.64905 65.5871 10.5479C66.6566 11.5727 67.8142 12.554 68.8258 13.6326C69.0711 13.894 69.3606 14.2267 69.4839 14.568C69.7857 15.4037 67.4567 19.1123 66.9978 20.0032C66.5769 20.8203 66.214 21.6658 65.8328 22.5018C66.7941 24.0671 67.6747 26.5397 68.6162 28.094C69.1665 28.3683 69.7183 28.5037 69.6111 29.2154C69.3253 29.6615 68.9611 29.7464 68.4768 29.8825L68.4216 29.8693C67.8413 29.7249 67.7908 29.7174 67.2475 29.4223C67.0609 29.0548 66.8414 28.5569 66.695 28.173C65.9364 26.1834 64.8185 24.3689 63.9442 22.4421C64.4477 21.1977 65.3324 19.6102 65.9716 18.4002C66.491 17.417 67.1843 16.018 67.7614 15.0981C66.1007 13.2278 62.4122 9.73019 60.4726 8.14077C58.4883 8.88173 55.1911 11.4427 53.1784 12.1766C52.1481 11.7813 51.0591 11.2711 50.0022 10.8544C48.9413 10.436 46.9114 9.80216 46.0077 9.29995C45.4271 7.48243 43.9119 3.41542 43.0866 1.69721L43.0444 1.6936C41.7426 1.59282 40.5854 1.68083 39.2926 1.6679C37.406 1.64907 35.6266 1.62057 33.739 1.73331C32.7778 3.85852 32.1048 6.06117 31.3034 8.24737C31.027 9.09305 30.4416 9.7062 29.5759 9.99858C27.5478 10.6836 25.6347 11.4698 23.6702 12.3349C22.0247 11.5932 18.1896 8.98031 16.5357 7.89376C15.4214 8.70922 14.2661 10.0195 13.2534 10.9818C11.8136 12.3501 10.3833 13.7351 8.95686 15.1176L11.413 19.4981C11.849 20.2739 12.6775 21.6667 12.9507 22.4596C12.6472 23.2857 12.0532 24.2124 11.6882 25.0654C11.0824 26.4814 10.6023 28.1209 9.94312 29.4898C8.76733 30.1704 4.85023 31.3164 3.34113 31.7958L1.57003 32.3833L1.55742 42.0086C2.46442 42.2066 4.12024 42.7135 5.05712 42.9828C6.36007 43.3574 8.74809 44.0051 9.93902 44.5446C10.471 45.6283 10.98 47.1815 11.5157 48.3541C11.9881 49.3881 12.7473 50.7634 13.114 51.7613C12.6839 52.8063 9.72713 58.986 9.76684 59.0427C10.5306 60.1338 15.9144 65.084 16.9698 65.9068C19.0997 64.8163 21.7415 63.3842 23.8835 62.4163C24.8386 62.7768 29.2702 64.7131 29.7508 65.3345C29.7631 65.4794 29.7743 65.5351 29.7184 65.6686C29.5813 65.9952 29.2987 66.2933 28.958 66.4087C28.3377 66.6183 24.8117 64.5862 23.9727 64.2218C22.7586 64.781 21.5617 65.3763 20.3836 66.0083C19.7489 66.3514 17.1647 67.9668 16.5488 67.6245C15.0936 66.7829 13.588 65.1675 12.3871 63.9885C11.4802 63.0984 8.28116 60.3772 7.91223 59.4454C7.98207 58.6783 10.822 52.6773 11.289 51.6787C10.5572 50.639 9.10849 47.0548 8.67776 45.8578C6.22088 45.1089 3.72954 44.3961 1.26906 43.6597C0.042832 43.2927 -0.019638 42.3658 0.00721665 41.2302C0.0826226 38.0471 -0.0506683 34.8311 0.0231002 31.6443C0.78633 30.6032 3.01085 30.1073 4.27637 29.7048C5.76689 29.231 7.25339 28.7448 8.73572 28.2461C9.06175 27.1816 10.6097 23.6207 11.1739 22.6378C10.2056 20.9489 9.37508 19.1247 8.36377 17.4466C7.91117 16.6955 7.34198 15.7646 7.03856 14.9628C8.26724 12.7956 12.3831 9.8354 14.0938 7.8037C14.6615 7.12946 15.6712 6.26864 16.5221 6.01541C17.6066 6.43354 18.3923 7.05602 19.3576 7.68318C20.7847 8.61048 22.2828 9.68189 23.8099 10.4227C25.9257 9.64177 27.265 8.932 29.6251 8.18048C29.8552 7.28527 32.0645 0.961487 32.4167 0.530666C32.7458 0.128174 33.2234 0.132103 33.6984 0.0932132Z" fill="#1A1919"/>
<path d="M52.8655 47.9238C53.3922 47.9593 53.6095 48.3497 53.9299 48.7336C53.173 49.9755 50.176 52.4967 48.9918 53.5551L43.0519 58.8658L32.8984 68.1231C30.931 69.9072 29.3805 71.2425 29.2379 74.1122C29.1641 75.3395 29.5789 77.0261 30.5644 77.8825C32.516 79.5781 34.5768 82.2439 37.3921 82.2128C38.6298 82.1989 40.2117 81.896 41.1651 81.1329C42.3826 80.1578 43.3365 78.743 44.3863 77.5894C47.4711 74.1564 50.5169 70.6891 53.5231 67.1865C54.8029 65.6931 56.0321 64.2546 57.3887 62.8175C58.0169 62.1098 58.5813 61.3715 59.2519 60.7009C59.9804 59.9723 60.239 60.3252 60.7951 61.0106C60.6558 61.2552 60.4849 61.5129 60.3333 61.7528C59.8947 62.3617 58.743 63.6094 58.1933 64.2382L53.0474 70.0603L46.4366 77.6492C43.6695 80.8586 41.7364 84.2441 36.7792 83.7332C33.2777 83.373 31.4344 81.0895 29.1307 78.725C27.1596 76.4227 27.2408 71.8664 29.1707 69.655C31.6638 66.7984 34.687 64.4765 37.4058 61.905C41.676 57.8663 46.0485 54.0172 50.436 50.1138C51.2515 49.3882 52.0094 48.5977 52.8655 47.9238Z" fill="#1A1919"/>
<path d="M27.9126 19.875C28.127 20.1933 27.5255 21.3862 27.2786 21.7127C26.5197 22.7159 25.4508 23.3982 24.5632 24.3225C21.6838 27.3082 19.8933 31.1762 19.4799 35.3034C18.4408 45.7334 25.9206 54.4529 36.0511 56.0327C37.4056 56.2439 38.6793 56.2659 40.0296 56.4008C39.4685 57.0967 39.1637 57.4591 38.3872 57.9355C37.9224 57.9348 37.3918 57.8776 36.9283 57.8307C20.5025 56.1679 11.7874 37.5481 22.373 24.3825C23.7215 22.7054 25.9099 20.633 27.9126 19.875Z" fill="#1A1919"/>
<path d="M40.0101 17.174C40.8641 17.1291 42.1984 17.3431 43.0417 17.5181C48.454 18.6172 53.2073 21.8229 56.2543 26.4291C58.2788 29.5316 59.7052 33.6569 59.4691 37.5318C59.4588 37.7007 59.2959 37.7457 59.1577 37.8229C58.2643 37.7463 57.9953 37.3346 57.9476 36.4938C57.456 27.8342 51.034 20.8124 42.6107 19.0919C41.7557 18.9173 39.7265 18.7813 39.6426 17.6742C39.715 17.3913 39.773 17.3736 40.0101 17.174Z" fill="#1A1919"/>
<path d="M37.0437 70.3637C39.2012 70.0501 41.2018 71.5525 41.5015 73.7123C41.8011 75.8713 40.2854 77.8617 38.1239 78.1474C35.9826 78.4307 34.0144 76.9316 33.7174 74.7922C33.4206 72.6529 34.9063 70.6748 37.0437 70.3637Z" fill="#1A1919"/>
<path d="M37.2286 71.955C40.066 71.7241 41.3536 75.6901 37.9893 76.5694C37.487 76.6218 37.0553 76.5481 36.5982 76.3344C35.9942 76.0585 35.5291 75.5468 35.3112 74.9197C34.7758 73.3534 35.8623 72.4094 37.2286 71.955Z" fill="#F5F5F6"/>
<path d="M73.9999 50.6606C73.7445 50.0253 73.1591 48.7551 73.8116 48.2417C74.0245 48.2154 74.1547 48.2001 74.3446 48.3471C75.034 48.8822 76.5348 52.0784 75.0504 52.3835C74.7114 52.4532 74.5338 52.2299 74.3618 51.9694L74.1326 52.1969C74.0826 51.6574 74.0622 51.3481 73.81 50.8706L73.9999 50.6606Z" fill="#1A1919"/>
<path d="M73.9985 50.6582C74.1778 50.9832 74.4366 51.5978 74.3604 51.967L74.1312 52.1945C74.0812 51.6549 74.0608 51.3457 73.8086 50.8681L73.9985 50.6582Z" fill="#F5F5F6"/>
</svg>
