<svg width="85" height="83" viewBox="0 0 85 83" fill="none" xmlns="http://www.w3.org/2000/svg">
<path d="M71.6973 44.3506C73.834 43.6041 76.0117 43.7223 78.0518 44.707C80.0437 45.6685 81.7162 47.3494 82.4375 49.4668C83.1502 51.559 84.2574 69.9158 84.0889 72.7686C84.0068 74.158 83.7361 75.5454 83.1191 76.8018C82.0557 78.967 80.2301 80.5106 77.9502 81.2764C74.4718 82.4444 70.7592 81.7174 67.1807 81.9521C66.5042 81.9966 63.6359 82.6682 63.2334 82.4092C62.9061 82.1978 62.696 81.8756 62.6279 81.498C62.9982 79.4083 70.809 79.7922 72.6865 79.8916C77.6285 80.1531 82.2811 77.8375 82.1973 72.1934C82.115 66.6642 81.2197 60.355 81.0469 54.7314C80.9813 52.6001 80.7185 49.4077 78.9531 47.8145C71.4985 41.9808 67.9397 50.6824 64.1436 55.5205C62.0355 58.2073 56.1901 56.893 53.1133 57.5176C52.0537 57.7326 50.2672 57.9646 50.3125 59.4268C50.3487 60.5938 51.2396 61.4105 52.3936 61.4854C56.592 61.3667 61.4717 61.7666 65.6035 61.4717C67.4121 60.1849 71.6534 53.559 73.5459 53.918C74.7909 55.0912 71.5859 57.7732 70.791 59.085C70.8008 60.9831 70.8761 62.8804 71.0166 64.7734C71.1155 66.059 71.5937 70.5651 71.3721 71.4482C70.7085 74.0922 61.9695 73.117 59.5488 74.4961C56.1099 76.4555 57.4235 80.1647 55.1543 82.7393C54.9702 82.9482 54.694 82.8603 54.4727 82.8145C53.6309 81.9878 54.4567 79.7525 54.6143 78.7588C55.8301 71.0801 63.0757 71.5572 69.1953 71.0088C69.1025 67.6813 68.9613 64.3555 68.7705 61.0322C67.9519 61.8546 67.138 62.7281 66.335 63.5693C66.4733 65.4796 66.8986 67.105 65.4209 68.5752C63.5563 69.247 57.1932 68.975 54.8408 68.9678C51.8906 68.9465 48.9399 68.9688 45.9902 69.0332C45.8215 73.1378 46.0213 78.0907 46.0137 82.3096C45.5431 82.4396 44.8712 82.6773 44.4336 82.4902C43.9578 81.5512 44.1116 70.8325 44.1387 69.0244L40.1865 69.0088C40.2913 70.4629 40.3754 81.6634 40.1377 82.0654C39.861 82.2777 39.5867 82.4361 39.2314 82.4609C38.9351 82.4815 38.5839 82.2375 38.3799 82.0352C37.8676 81.5254 38.0789 70.6796 38.0361 69.1016C34.4347 68.874 21.3836 69.4398 19.1807 68.4209C18.5416 68.1251 17.9894 67.5615 17.7588 66.8906C17.37 65.7589 17.7266 64.6443 18.2441 63.626C17.0332 62.7034 16.3885 62.0544 15.3779 60.9238C15.5043 64.2172 14.9581 67.6285 14.9688 71.0342C18.7818 71.633 23.771 71.1164 27.082 73.5439C28.4519 74.5485 31.0819 81.1714 29.8477 82.5186C29.4817 82.7129 29.3422 82.6538 28.9463 82.5752C28.06 81.772 27.4039 76.2745 25.9717 75.2471C22.2109 72.5495 17.3277 74.2573 13.1426 72.1553C12.7641 70.0526 13.4358 62.1344 13.6299 59.4971C12.6784 57.8997 10.9725 56.2368 10.29 54.8525C10.5536 54.3719 10.8349 53.8872 11.1055 53.4092C13.8236 55.4968 15.538 58.7823 18.0146 60.9678C18.9948 61.8328 25.6138 61.5177 27.0459 61.4834C29.007 61.4362 31.8652 61.5271 33.7637 61.2705C33.9349 60.2988 34.1307 59.5455 33.5225 58.7188C33.1765 58.2487 32.4896 57.7932 31.9316 57.6895C28.9202 57.1303 25.7627 57.3601 22.6787 56.9248C19.7546 56.512 18.5001 52.9305 16.7344 50.7158C15.2017 48.679 13.7367 46.6167 11.0107 46.2041C6.83397 45.5723 3.94729 48.0018 3.5127 52.1826C3.23015 54.9005 3.08997 57.5924 2.93262 60.3154C2.67981 64.6941 2.07163 69.1622 2.3252 73.5391C2.39898 74.7634 2.99107 76.18 3.74902 77.1748C7.04453 81.5008 14.4114 79.2275 19.1475 80.0908C20.1376 80.2713 20.9047 80.2104 21.6553 81.1602C21.9042 81.475 21.8841 81.6882 21.8301 82.0107C21.1563 82.8207 19.1463 82.1529 18.1318 82.042C13.0005 81.4822 7.41032 83.1836 3.16406 79.4473C-0.856361 75.9097 -0.0483404 71.1366 0.331055 66.3828L0.925781 58.666C1.12124 56.0395 1.10359 53.3743 1.56641 50.7891C2.26083 46.9104 5.21641 44.1852 9.14551 43.8867C14.9944 43.8724 17.5948 48.3165 20.6211 52.624C21.1159 53.3282 21.5852 54.0235 21.9961 54.7812C24.0788 54.9286 26.1632 55.0502 28.249 55.1455C31.5805 55.3181 36.0007 55.2951 36.0557 60.0723C36.0617 60.6041 35.9442 61.1135 35.832 61.6328C40.0814 61.6762 44.4809 61.5742 48.7559 61.5723C48.7369 61.5254 48.7189 61.4773 48.7021 61.4297C48.2932 60.2579 48.1803 58.8109 48.7324 57.668C50.5911 53.8207 58.4711 56.1318 61.8086 54.6572C64.8678 53.3052 66.2956 46.238 71.6973 44.3506ZM52.2246 63.7129C45.3614 63.6561 38.4978 63.6578 31.6348 63.7178C28.4392 63.7261 24.03 63.598 20.9141 63.7559C19.45 64.0425 19.2406 65.9711 20.21 66.6143C21.9568 66.901 24.3275 66.8299 26.1523 66.8271L34.6621 66.8008C44.1339 66.8642 53.6065 66.8569 63.0781 66.7793L64.4199 66.7441C64.3888 65.9562 64.372 64.6164 64.2432 63.8857C62.9874 63.6364 60.7435 63.6994 59.4053 63.7031L52.2246 63.7129Z" fill="#4E9C5A"/>
<path d="M41.2773 7.17188C45.5535 6.79223 49.7381 9.22241 51.4414 13.1904C52.8825 16.5477 52.3713 19.8845 50.2744 22.8193C49.5771 23.8784 48.4572 24.9753 48.0615 26.1943C47.3944 28.2501 47.932 30.2304 46.9824 32.2725C46.0991 34.172 45.2529 35.4894 43.2275 36.3232C42.1077 36.5042 41.7878 36.5112 40.6758 36.4746C38.2159 34.994 36.441 31.5569 36.4893 28.7031C36.5025 27.9124 36.4894 27.1206 36.498 26.3291C34.7927 23.5602 32.6755 22.5988 32.2266 19.0127C31.835 16.1003 32.6299 13.1525 34.4316 10.8311C36.1959 8.56743 38.4868 7.5209 41.2773 7.17188ZM43.7656 33.2471C42.9625 33.078 40.9768 33.1971 40.0488 33.2246C40.6846 34.7053 42.3961 34.4132 43.54 33.7246L43.8359 33.4111L43.7656 33.2471ZM38.5332 29.4434C38.7216 29.9945 39.0502 30.5257 39.3398 31.0352C40.0927 31.0631 45.014 31.2899 45.3184 31.1514C45.4166 30.5981 45.5256 30.0507 45.5664 29.4902C43.1327 29.6602 40.9669 29.8496 38.5332 29.4434ZM48.3262 11.8428C46.3945 9.68742 44.2787 8.83726 41.4053 9.05664C36.8016 9.87263 33.6887 13.2291 34.2471 18.1455C34.6484 21.6767 38.0377 24.1802 39.1719 27.4199C39.9253 27.4783 40.6785 27.5444 41.4307 27.6182C41.4242 24.5481 41.7727 22.0082 39.6768 19.7031C39.0705 19.0364 38.0971 18.1183 38.9736 17.3799C39.2576 17.1109 39.3266 17.1513 39.6777 17.1416C40.7109 17.5357 41.8577 19.4028 42.3086 19.5039C42.9616 18.8224 44.114 17.47 44.9463 17.2061C45.4218 17.304 45.2453 17.2124 45.6055 17.584C45.9629 18.8972 43.9085 20.2584 43.5635 21.1514C42.9452 22.7526 43.2658 25.7579 43.2451 27.5283L45.5186 27.4619C45.803 24.0434 46.7213 24.5351 48.501 22.0879C50.5188 19.3129 50.7289 14.472 48.3262 11.8428Z" fill="#4E9C5A"/>
<path d="M10.3877 27.7529C14.4419 27.1342 18.2242 29.9366 18.8135 33.9951C19.4027 38.0537 16.5734 41.8152 12.5107 42.375C8.48972 42.9287 4.77479 40.135 4.19141 36.1182C3.6082 32.1013 6.37512 28.3655 10.3877 27.7529ZM16.6631 34.3945C16.3158 31.4871 13.6719 29.4148 10.7656 29.7725C7.87384 30.1282 5.81482 32.7555 6.16016 35.6484C6.50573 38.5414 9.12546 40.6104 12.0195 40.2754C14.9282 39.9383 17.0102 37.3019 16.6631 34.3945Z" fill="#4E9C5A"/>
<path d="M72.7021 27.6787C76.7835 27.5749 80.1723 30.8062 80.2637 34.8877C80.3549 38.9693 77.114 42.3489 73.0322 42.4277C68.9679 42.5064 65.6057 39.2819 65.5146 35.2178C65.4237 31.1537 68.6385 27.782 72.7021 27.6787ZM72.4814 29.6406C69.5174 29.8469 67.287 32.4258 67.5107 35.3887C67.7344 38.3514 70.3267 40.5664 73.2881 40.3252C76.2248 40.0859 78.4171 37.52 78.1953 34.582C77.9735 31.6438 75.4209 29.4362 72.4814 29.6406Z" fill="#4E9C5A"/>
<path d="M52.4967 22.9141C54.8177 23.1574 57.1831 23.692 59.1268 25.0028C61.8199 26.819 63.5062 29.3237 63.0881 32.6885C62.7978 35.0243 61.4206 36.5229 60.1466 38.4114C60.716 39.453 61.8454 41.333 61.7257 42.5335C60.7815 44.2216 56.1744 41.3794 54.533 41.2178C51.9714 40.9658 49.6931 40.825 47.2582 39.9141C46.4693 39.5807 45.6873 39.231 44.9131 38.8649C45.1197 38.2642 45.3697 37.7876 45.6509 37.2235C49.2562 38.8306 51.0525 39.0634 54.8989 38.9645C55.119 38.9589 58.368 40.3133 58.9274 40.5161C58.2515 39.4384 58.0677 38.7812 57.7805 37.5701C62.9562 33.2139 61.7931 28.0987 55.8163 25.5292C53.8945 24.7029 51.8773 25.5082 52.4967 22.9141Z" fill="#4E9C5A"/>
<path d="M31.1332 22.8595C32.6259 22.8429 32.5059 24.4505 31.9934 24.5475C24.9225 25.8864 18.9883 31.5591 26.66 37.5891L25.467 40.734C26.6939 40.1695 27.7915 39.4974 28.8924 38.7202C31.1156 38.9755 33.2707 39.3692 35.3386 38.5037C36.2977 38.1021 37.5679 37.6226 38.5623 37.432C38.6087 37.4994 38.6542 37.5676 38.6989 37.6362C38.9453 38.0164 39.2227 38.4214 39.1247 38.8718C38.9274 39.277 38.4973 39.3902 38.0672 39.5769C34.5924 40.9373 32.9522 40.8365 29.3991 41.1797C28.0343 41.3116 25.0767 43.5332 23.284 43.1623C21.9205 42.1041 23.7134 39.6373 24.3864 38.5367C17.4194 31.6084 22.6259 24.1258 31.1332 22.8595Z" fill="#4E9C5A"/>
<path d="M29.7447 4.42969C31.1519 4.42969 33.0178 6.58998 33.3025 7.88843C33.3751 8.21972 33.049 8.44087 32.8379 8.64139C31.523 8.25023 29.353 6.60023 29.1523 5.16569C29.3122 4.67401 29.2873 4.80554 29.7447 4.42969Z" fill="#4E9C5A"/>
<path d="M53.7806 4.45646C54.436 4.43684 54.8862 4.48482 55.1591 5.12423C55.0722 6.28343 53.3008 7.73848 52.4249 8.5698C51.9922 8.5836 51.3593 8.1218 50.9141 7.87039C51.7818 6.50573 52.479 5.42527 53.7806 4.45646Z" fill="#4E9C5A"/>
<path d="M41.6267 0.0414255C42.0548 0.00597989 42.5534 -0.0694691 42.8974 0.152952C43.1388 0.805152 43.3523 4.31959 42.834 4.72506C42.3854 4.73468 41.7622 4.79709 41.4378 4.55113C41.1041 3.60422 40.9476 0.849207 41.6267 0.0414255Z" fill="#4E9C5A"/>
<path d="M55.3545 15.5499C56.557 15.4566 59.5286 14.8447 59.1438 16.8645C58.7836 17.193 58.7099 17.1197 58.1622 17.2425C57.142 17.286 55.1897 17.6069 54.5604 16.7344C54.4361 16.3333 54.4467 16.2795 54.5415 15.8682C54.8431 15.5478 54.8227 15.6408 55.3545 15.5499Z" fill="#4E9C5A"/>
<path d="M25.1111 15.6304C26.3594 15.5809 29.0643 15.2563 29.9613 16.2307C30.074 16.6696 30.0751 16.4824 29.8868 16.9663C28.7631 17.3405 26.2831 17.7232 25.2995 16.9432C25.0172 16.5921 25.0967 16.0973 25.1111 15.6304Z" fill="#4E9C5A"/>
</svg>
