<svg width="1920" height="1640" viewBox="0 0 1920 1640" fill="none" xmlns="http://www.w3.org/2000/svg">
<path d="M969.526 1331.13C981.017 1349.77 993.314 1395.25 990.33 1417.44C972.648 1423.09 951.728 1428.22 933.569 1433.48C933.328 1298.47 777.139 1231.47 676.863 1180.89C503.49 1093.44 354.875 968.796 313.201 765.699C295 763.369 277.908 760.509 260.148 755.213C70.06 698.525 -84.4167 442.402 -83.9284 248.166C-65.6199 243.356 -43.1979 236.333 -25.0973 230.604C-24.0432 282.611 -15.7552 328.063 0.214873 377.754C19.6238 436.723 48.0031 492.386 84.3022 542.66C138.099 617.291 216.25 684.275 307.403 699.783C308.524 621.155 340.315 526.784 423.917 504.818C470.964 492.457 512.278 526.278 522.258 573.328C530.483 612.108 521.572 651.698 500.538 684.291C470.78 731.1 429.028 753.742 376.231 765.053C378.035 775.693 382.248 788.606 385.569 798.939C398.109 837.963 414.899 871.941 437.571 906.015C488.811 983.024 556.03 1037.87 633.745 1084.74C664.615 1103.19 696.095 1120.51 728.129 1136.69C820.982 1184.56 918.981 1232.39 969.526 1331.13ZM450.943 646.441C464.955 623.859 470.491 597.116 457.46 572.223C451.608 564.36 445.45 565.554 437.384 568.226C387.012 584.908 371.598 647.218 369.184 694.615L369.266 701.329C403.076 694.3 432.419 676.293 450.943 646.441Z" fill="#4E9C5A"/>
</svg>
