<svg width="2040" height="1640" viewBox="0 0 2040 1640" fill="none" xmlns="http://www.w3.org/2000/svg">
<path d="M1089.53 1331.13C1101.02 1349.77 1113.31 1395.25 1110.33 1417.44C1092.65 1423.09 1071.73 1428.22 1053.57 1433.48C1053.33 1298.47 897.139 1231.47 796.863 1180.89C623.49 1093.44 474.875 968.795 433.201 765.698C414.999 763.368 397.908 760.508 380.148 755.212C190.06 698.524 35.5835 442.402 36.0716 248.166C54.3803 243.356 76.8026 236.332 94.9032 230.603C95.9573 282.61 104.245 328.063 120.215 377.754C139.624 436.723 168.003 492.386 204.302 542.66C258.099 617.291 336.25 684.275 427.403 699.783C428.524 621.155 460.315 526.784 543.917 504.818C590.964 492.457 632.277 526.278 642.257 573.327C650.483 612.107 641.572 651.697 620.537 684.29C590.78 731.099 549.028 753.742 496.231 765.053C498.036 775.693 502.248 788.606 505.569 798.939C518.109 837.963 534.9 871.94 557.572 906.014C608.812 983.023 676.03 1037.87 753.745 1084.74C784.615 1103.19 816.095 1120.51 848.128 1136.69C940.982 1184.56 1038.98 1232.39 1089.53 1331.13ZM570.943 646.441C584.955 623.859 590.491 597.116 577.46 572.223C571.608 564.36 565.45 565.554 557.384 568.226C507.012 584.908 491.598 647.218 489.184 694.615L489.266 701.329C523.076 694.3 552.419 676.293 570.943 646.441Z" fill="#4E9C5A"/>
</svg>
