<svg width="632" height="311" viewBox="0 0 632 311" fill="none" xmlns="http://www.w3.org/2000/svg">
<mask id="mask0_2330_9125" style="mask-type:alpha" maskUnits="userSpaceOnUse" x="0" y="0" width="632" height="311">
<path d="M0 15C0 6.7157 6.7157 0 15 0H632V296C632 304.284 625.284 311 617 311H0V15Z" fill="white"/>
</mask>
<g mask="url(#mask0_2330_9125)">
<mask id="mask1_2330_9125" style="mask-type:alpha" maskUnits="userSpaceOnUse" x="-468" y="0" width="624" height="311">
<path d="M155.5 311H-468V15C-468 6.7157 -461.284 0 -453 0H124L155.5 311Z" fill="white"/>
</mask>
<g mask="url(#mask1_2330_9125)">
<path d="M206.359 543.712C204.824 558.9 192.371 589.284 181.323 600.302C169.139 595.945 155.387 589.924 143.105 585.146C200.149 510.302 142.058 407.059 107.966 336.588C49.0201 214.749 19.5329 82.803 82.4762 -47.2838C73.3868 -56.2826 65.1359 -65.104 57.5468 -75.5573C-23.6803 -187.446 -0.728416 -394.662 81.8036 -501.987C93.9769 -496.896 109.364 -491.288 121.811 -486.794C100.369 -457.556 85.7075 -428.883 73.5038 -394.609C59.2747 -353.743 51.4115 -310.909 50.2156 -267.703C48.3909 -203.603 63.2873 -133.421 107.183 -86.2313C141.104 -129.286 198.672 -168.067 254.257 -144.821C285.539 -131.739 294.087 -95.5183 279.686 -65.2442C267.816 -40.2914 246.115 -22.1477 220.666 -13.0122C184.368 0.299422 151.664 -4.84868 117.645 -20.9469C114.137 -14.2922 111.001 -5.35934 108.463 1.76767C98.8789 28.6829 93.7829 54.6039 91.9038 83.0699C87.6564 147.404 101.641 206.236 124.814 265.099C134.09 288.386 144.183 311.309 155.068 333.828C186.196 399.659 220.193 467.643 206.359 543.712ZM209.24 -54.9725C226.561 -61.5401 240.951 -74.0009 244.279 -93.3008C244.37 -100.132 240.455 -102.08 234.858 -104.017C199.907 -116.114 164.984 -88.1462 143.575 -62.9295L140.777 -59.1772C162.471 -48.7492 186.342 -46.291 209.24 -54.9725Z" fill="#4E9C5A"/>
</g>
</g>
</svg>
