<svg width="1192" height="386" viewBox="0 0 1192 386" fill="none" xmlns="http://www.w3.org/2000/svg">
<mask id="mask0_1733_19154" style="mask-type:alpha" maskUnits="userSpaceOnUse" x="0" y="6" width="707" height="311">
<path d="M707 21C707 12.7157 700.284 6 692 6H0V302C0 310.284 6.71576 317 15 317H707V21Z" fill="white"/>
</mask>
<g mask="url(#mask0_1733_19154)">
<path d="M659.891 -226.712C658.357 -241.9 645.903 -272.284 634.856 -283.302C622.671 -278.945 608.919 -272.924 596.637 -268.146C653.682 -193.302 595.59 -90.0591 561.498 -19.5881C502.552 102.251 473.065 234.197 536.009 364.283C526.919 373.282 518.668 382.104 511.079 392.557C429.852 504.446 452.804 711.662 535.336 818.987C547.509 813.896 562.896 808.288 575.343 803.794C553.901 774.556 539.24 745.883 527.036 711.609C512.807 670.743 504.944 627.909 503.748 584.703C501.923 520.603 516.82 450.421 560.715 403.231C594.636 446.286 652.204 485.067 707.79 461.821C739.071 448.739 747.62 412.518 733.218 382.244C721.348 357.291 699.647 339.147 674.199 330.012C637.9 316.7 605.196 321.848 571.177 337.947C567.669 331.292 564.533 322.359 561.995 315.232C552.411 288.317 547.315 262.396 545.436 233.93C541.189 169.596 555.174 110.764 578.346 51.901C587.623 28.6142 597.715 5.69133 608.6 -16.8281C639.728 -82.6589 673.726 -150.643 659.891 -226.712ZM662.772 371.972C680.093 378.54 694.484 391.001 697.812 410.301C697.902 417.132 693.988 419.079 688.391 421.016C653.439 433.114 618.517 405.146 597.107 379.929L594.309 376.177C616.003 365.749 639.874 363.291 662.772 371.972Z" fill="#4E9C5A"/>
</g>
</svg>
