<svg width="632" height="311" viewBox="0 0 632 311" fill="none" xmlns="http://www.w3.org/2000/svg">
<mask id="mask0_2330_9115" style="mask-type:alpha" maskUnits="userSpaceOnUse" x="0" y="0" width="632" height="311">
<path d="M0 15C0 6.7157 6.7157 0 15 0H632V296C632 304.284 625.284 311 617 311H0V15Z" fill="white"/>
</mask>
<g mask="url(#mask0_2330_9115)">
<path d="M-31.3591 -232.712C-29.8247 -247.9 -17.3714 -278.284 -6.32383 -289.302C5.86067 -284.945 19.6131 -278.924 31.8947 -274.146C-25.1497 -199.302 32.942 -96.0589 67.034 -25.5879C125.98 96.2512 155.467 228.197 92.5237 358.283C101.613 367.282 109.864 376.104 117.453 386.557C198.68 498.446 175.728 705.662 93.1957 812.987C81.0227 807.896 65.6357 802.288 53.1887 797.794C74.6307 768.556 89.2917 739.883 101.496 705.609C115.725 664.743 123.588 621.909 124.784 578.703C126.609 514.603 111.713 444.421 67.8165 397.231C33.8959 440.286 -23.6722 479.067 -79.2576 455.821C-110.539 442.739 -119.088 406.518 -104.686 376.244C-92.8161 351.291 -71.1155 333.147 -45.6666 324.012C-9.36813 310.7 23.3361 315.848 57.355 331.947C60.8626 325.292 63.9985 316.359 66.5364 309.232C76.1207 282.317 81.2167 256.396 83.0957 227.93C87.3427 163.596 73.3582 104.764 50.186 45.9012C40.9092 22.6144 30.8171 -0.30842 19.932 -22.8279C-11.1958 -88.6587 -45.1937 -156.643 -31.3591 -232.712ZM-34.2406 365.972C-51.5615 372.54 -65.9517 385.001 -69.2796 404.301C-69.3703 411.132 -65.4558 413.079 -59.8587 415.016C-24.9072 427.114 10.0154 399.146 31.425 373.929L34.2231 370.177C12.5287 359.749 -11.3422 357.291 -34.2406 365.972Z" fill="#4E9C5A"/>
</g>
</svg>
