<svg width="758" height="386" viewBox="0 0 758 386" fill="none" xmlns="http://www.w3.org/2000/svg">
<mask id="mask0_1734_19176" style="mask-type:alpha" maskUnits="userSpaceOnUse" x="8" y="6" width="632" height="311">
<path d="M8 21C8 12.7157 14.7157 6 23 6H640V302C640 310.284 633.284 317 625 317H8V21Z" fill="white"/>
</mask>
<g mask="url(#mask0_1734_19176)">
<mask id="mask1_1734_19176" style="mask-type:alpha" maskUnits="userSpaceOnUse" x="-460" y="6" width="624" height="311">
<path d="M163.5 317H-460V21C-460 12.7157 -453.284 6 -445 6H132L163.5 317Z" fill="white"/>
</mask>
<g mask="url(#mask1_1734_19176)">
<path d="M214.359 549.712C212.824 564.9 200.371 595.284 189.323 606.302C177.139 601.946 163.386 595.924 151.105 591.146C208.149 516.302 150.058 413.059 115.966 342.588C57.0201 220.749 27.5329 88.8033 90.4762 -41.2835C81.3868 -50.2823 73.1359 -59.1038 65.5468 -69.5571C-15.6803 -181.446 7.27158 -388.662 89.8035 -495.987C101.977 -490.896 117.364 -485.288 129.811 -480.794C108.369 -451.556 93.7075 -422.883 81.5038 -388.609C67.2747 -347.743 59.4115 -304.909 58.2156 -261.703C56.3909 -197.603 71.2873 -127.421 115.183 -80.231C149.104 -123.286 206.672 -162.067 262.257 -138.821C293.538 -125.739 302.087 -89.518 287.686 -59.244C275.816 -34.2911 254.115 -16.1474 228.666 -7.01196C192.368 6.29969 159.664 1.15159 125.645 -14.9466C122.137 -8.29191 119.001 0.640952 116.463 7.76795C106.879 34.6832 101.783 60.6042 99.9038 89.0701C95.6564 153.404 109.641 212.236 132.814 271.099C142.09 294.386 152.183 317.309 163.068 339.828C194.195 405.659 228.193 473.643 214.359 549.712ZM217.24 -48.9723C234.561 -55.5398 248.951 -68.0006 252.279 -87.3006C252.37 -94.1316 248.455 -96.0793 242.858 -98.0163C207.907 -110.114 172.984 -82.1459 151.575 -56.9293L148.776 -53.1769C170.471 -42.7489 194.342 -40.2907 217.24 -48.9723Z" fill="#4E9C5A"/>
</g>
</g>
</svg>
