<svg width="1192" height="386" viewBox="0 0 1192 386" fill="none" xmlns="http://www.w3.org/2000/svg">
<mask id="mask0_1733_19156" style="mask-type:alpha" maskUnits="userSpaceOnUse" x="0" y="6" width="592" height="311">
<path d="M592 21C592 12.7157 585.284 6 577 6H0V302C0 310.284 6.71576 317 15 317H592V21Z" fill="white"/>
</mask>
<g mask="url(#mask0_1733_19156)">
<mask id="mask1_1733_19156" style="mask-type:alpha" maskUnits="userSpaceOnUse" x="476" y="6" width="624" height="311">
<path d="M476.5 317H1100V21C1100 12.7157 1093.28 6 1085 6H508L476.5 317Z" fill="white"/>
</mask>
<g mask="url(#mask1_1733_19156)">
<path d="M425.641 549.712C427.176 564.9 439.629 595.284 450.677 606.302C462.861 601.945 476.613 595.924 488.895 591.146C431.851 516.302 489.942 413.059 524.034 342.588C582.98 220.749 612.467 88.8033 549.524 -41.2835C558.613 -50.2823 566.864 -59.1037 574.453 -69.557C655.68 -181.446 632.728 -388.662 550.196 -495.987C538.023 -490.896 522.636 -485.288 510.189 -480.794C531.631 -451.556 546.292 -422.883 558.496 -388.609C572.725 -347.743 580.588 -304.909 581.784 -261.703C583.609 -197.603 568.713 -127.421 524.817 -80.231C490.896 -123.286 433.328 -162.067 377.743 -138.821C346.461 -125.739 337.913 -89.518 352.314 -59.2439C364.184 -34.2911 385.885 -16.1474 411.334 -7.01193C447.632 6.29973 480.336 1.15162 514.355 -14.9466C517.863 -8.2919 520.999 0.640966 523.537 7.76798C533.121 34.6832 538.217 60.6042 540.096 89.0702C544.343 153.404 530.359 212.236 507.186 271.099C497.91 294.386 487.817 317.309 476.932 339.828C445.804 405.659 411.807 473.643 425.641 549.712ZM422.76 -48.9722C405.439 -55.5398 391.049 -68.0006 387.721 -87.3005C387.63 -94.1315 391.545 -96.0793 397.142 -98.0163C432.093 -110.114 467.016 -82.1459 488.425 -56.9292L491.223 -53.1769C469.529 -42.7489 445.658 -40.2907 422.76 -48.9722Z" fill="#4E9C5A"/>
</g>
</g>
</svg>
