<svg width="776" height="386" viewBox="0 0 776 386" fill="none" xmlns="http://www.w3.org/2000/svg">
<mask id="mask0_1733_19146" style="mask-type:alpha" maskUnits="userSpaceOnUse" x="26" y="6" width="632" height="311">
<path d="M26 21C26 12.7157 32.7157 6 41 6H658V302C658 310.284 651.284 317 643 317H26V21Z" fill="white"/>
</mask>
<g mask="url(#mask0_1733_19146)">
<path d="M-5.35875 -226.712C-3.82432 -241.9 8.62894 -272.284 19.6765 -283.302C31.861 -278.945 45.6134 -272.924 57.895 -268.146C0.85068 -193.302 58.9423 -90.0591 93.0343 -19.5881C151.98 102.251 181.467 234.197 118.524 364.283C127.613 373.282 135.864 382.104 143.453 392.557C224.68 504.446 201.728 711.662 119.196 818.987C107.023 813.896 91.636 808.288 79.189 803.794C100.631 774.556 115.292 745.883 127.496 711.609C141.725 670.743 149.588 627.909 150.784 584.703C152.609 520.603 137.713 450.421 93.8168 403.231C59.8962 446.286 2.32817 485.067 -53.2573 461.821C-84.5385 448.739 -93.0873 412.518 -78.6859 382.244C-66.8158 357.291 -45.1152 339.147 -19.6663 330.012C16.6322 316.7 49.3364 321.848 83.3553 337.947C86.8629 331.292 89.9988 322.359 92.5367 315.232C102.121 288.317 107.217 262.396 109.096 233.93C113.343 169.596 99.3585 110.764 76.1863 51.901C66.9095 28.6142 56.8174 5.69133 45.9323 -16.8281C14.8045 -82.6589 -19.1934 -150.643 -5.35875 -226.712ZM-8.24022 371.972C-25.5612 378.54 -39.9514 391.001 -43.2793 410.301C-43.37 417.132 -39.4555 419.079 -33.8584 421.016C1.09315 433.114 36.0157 405.146 57.4253 379.929L60.2234 376.177C38.529 365.749 14.6581 363.291 -8.24022 371.972Z" fill="#4E9C5A"/>
</g>
</svg>
