<svg width="758" height="386" viewBox="0 0 758 386" fill="none" xmlns="http://www.w3.org/2000/svg">
<mask id="mask0_1733_19150" style="mask-type:alpha" maskUnits="userSpaceOnUse" x="8" y="6" width="632" height="311">
<path d="M8 21C8 12.7157 14.7157 6 23 6H640V302C640 310.284 633.284 317 625 317H8V21Z" fill="white"/>
</mask>
<g mask="url(#mask0_1733_19150)">
<mask id="mask1_1733_19150" style="mask-type:alpha" maskUnits="userSpaceOnUse" x="-460" y="6" width="624" height="311">
<path d="M163.5 317H-460V21C-460 12.7157 -453.284 6 -445 6H132L163.5 317Z" fill="white"/>
</mask>
<g mask="url(#mask1_1733_19150)">
<path d="M214.359 549.712C212.824 564.9 200.371 595.284 189.323 606.302C177.139 601.945 163.387 595.924 151.105 591.146C208.149 516.302 150.058 413.059 115.966 342.588C57.0202 220.749 27.533 88.8033 90.4763 -41.2835C81.3869 -50.2823 73.136 -59.1037 65.5469 -69.557C-15.6802 -181.446 7.2717 -388.662 89.8037 -495.987C101.977 -490.896 117.364 -485.288 129.811 -480.794C108.369 -451.556 93.7076 -422.883 81.5039 -388.609C67.2748 -347.743 59.4116 -304.909 58.2157 -261.703C56.391 -197.603 71.2874 -127.421 115.183 -80.231C149.104 -123.286 206.672 -162.067 262.257 -138.821C293.539 -125.739 302.087 -89.518 287.686 -59.2439C275.816 -34.2911 254.115 -16.1474 228.666 -7.01193C192.368 6.29973 159.664 1.15162 125.645 -14.9466C122.137 -8.2919 119.001 0.640966 116.463 7.76798C106.879 34.6832 101.783 60.6042 99.9039 89.0702C95.6565 153.404 109.641 212.236 132.814 271.099C142.09 294.386 152.183 317.309 163.068 339.828C194.196 405.659 228.193 473.643 214.359 549.712ZM217.24 -48.9722C234.561 -55.5398 248.951 -68.0006 252.279 -87.3005C252.37 -94.1315 248.455 -96.0793 242.858 -98.0163C207.907 -110.114 172.984 -82.1459 151.575 -56.9292L148.777 -53.1769C170.471 -42.7489 194.342 -40.2907 217.24 -48.9722Z" fill="#4E9C5A"/>
</g>
</g>
</svg>
