<svg width="93" height="96" viewBox="0 0 93 96" fill="none" xmlns="http://www.w3.org/2000/svg">
<path d="M20.0775 62.8008C20.2673 62.8972 20.3309 62.8871 20.4053 63.1421C20.5889 63.772 20.1625 66.9697 19.9123 67.4176C19.6119 67.4513 17.7389 66.2338 17.3285 65.9953C17.3384 67.6219 17.2732 69.356 17.2695 71.0098C20.7727 71.1103 24.3052 70.9911 27.808 71.026C28.857 71.0365 32.5425 70.8565 33.2184 71.2456C33.2895 71.3791 33.3371 71.5175 33.3621 71.6669C33.4806 72.3728 33.4742 78.5269 33.2099 78.8367C33.0499 79.0233 32.4085 79.0479 32.1714 79.0635C31.0965 79.1318 29.9904 79.0767 28.9122 79.0767C26.8591 79.0603 24.8059 79.0948 22.7544 79.1794C22.9305 79.6692 23.3311 80.873 22.8724 81.2527C22.7318 81.2576 22.5813 81.2469 22.467 81.1598C21.5442 80.4613 20.9448 79.9223 19.9393 79.3068C19.7114 79.1827 19.4939 79.0405 19.289 78.8811C19.068 78.7061 18.981 78.5812 18.9467 78.3149C19.3761 77.7964 21.877 75.7354 22.6469 75.5588C22.8234 75.5185 22.8966 75.6138 23.0183 75.7124C23.3295 76.5818 22.651 77.0535 22.044 77.5178C24.8469 77.7602 29.0841 77.6362 31.9742 77.5901C31.9723 75.8636 31.946 74.1371 31.8951 72.4114C28.4706 72.3063 25.017 72.3991 21.5905 72.3638C20.6974 72.3547 16.4701 72.5396 15.9665 72.0827C15.5635 71.0682 15.868 68.6698 15.801 67.4884C15.7657 66.868 15.6458 65.6722 15.776 65.1342C16.0403 64.8931 19.6403 63.0092 20.0775 62.8008Z" fill="#1B1A1A"/>
<path d="M33.3302 62.6872C33.7279 62.6674 34.3798 62.598 34.7426 62.7671C35.169 62.9658 35.2276 63.5741 35.0087 63.9575C34.5351 64.2077 33.0314 64.1868 32.4094 64.2052C31.6828 64.2366 30.6483 64.42 30.3398 63.6248C30.407 62.4391 32.3934 62.7149 33.3302 62.6872Z" fill="#1B1A1A"/>
<path d="M34.7705 53.2793C35.5523 53.7988 40.6555 59.1054 41.0518 59.7422C41.0609 59.8471 41.0674 59.9525 41.0723 60.0576C41.13 61.6604 41.0867 63.5642 41.0889 65.1846L41.0771 75.667L41.083 81.2852C41.0854 82.4083 41.0997 83.5076 41.0312 84.6299C40.9885 85.3308 40.4362 86.1526 39.71 86.2471C37.9174 86.4796 35.9987 86.4033 34.1855 86.3926C31.353 86.3696 28.52 86.3705 25.6875 86.3936L15.708 86.4023C14.0928 86.4032 12.4088 86.431 10.7959 86.376C10.3836 86.3619 9.61166 86.1864 9.29688 85.8906C8.72691 85.354 8.72861 84.8595 8.70215 84.124C8.61908 81.8217 8.68084 79.5226 8.67871 77.2227L8.64453 66.0156L8.65039 58.3877C8.66288 57.2097 8.66621 55.9741 8.74023 54.8037C8.84164 53.2003 11.2236 53.3715 12.3418 53.3594C16.2981 53.3162 20.274 53.4271 24.2275 53.3281C24.695 53.2756 25.162 53.3155 25.6309 53.3223C28.662 53.3654 31.7436 53.4053 34.7705 53.2793ZM11.6133 54.7998C10.4717 54.8664 10.0928 54.7565 10.0957 56.0703C10.0995 57.7764 10.1152 59.486 10.1123 61.1924L10.1006 72.8184L10.1025 79.9482C10.102 81.1463 10.0791 82.4605 10.124 83.666C10.1567 84.5443 10.3092 84.8646 11.3115 84.8926C13.1327 84.9435 14.9845 84.9221 16.8193 84.918C20.0865 84.8966 23.3539 84.8952 26.6211 84.9141L34.4492 84.9277C35.3668 84.9286 38.9137 85.0693 39.4346 84.6182C39.6781 83.8315 39.5663 78.7732 39.5615 77.5449L39.5469 68.3525L39.5322 61.1016C37.8938 61.0833 36.2131 61.1461 34.585 61.0967C33.2043 61.0545 33.5171 59.0126 33.5303 58.0215C33.5474 56.9697 33.5463 55.917 33.5273 54.8652C31.0963 54.8361 28.0526 54.7842 25.6562 54.8594C25.6055 57.2806 25.5862 59.7023 25.5986 62.124C25.5972 63.2609 25.6352 65.2651 25.5186 66.3584C26.1899 66.3739 27.8215 66.2488 27.7295 67.2236C27.6324 68.2482 24.2341 67.6769 23.4824 67.8232C22.9648 67.9237 21.6027 67.7197 21.6494 67.002C22.1415 66.1788 23.5442 66.4272 24.46 66.3564C24.2729 65.5183 24.3245 64.4703 24.3086 63.6045C24.2554 60.6964 24.3086 57.7726 24.2285 54.8662C20.024 54.7829 15.8185 54.7612 11.6133 54.7998ZM35.1914 56.0352C35.1587 57.1236 35.0883 58.4347 35.1152 59.5107C36.0532 59.4949 37.6453 59.431 38.5225 59.4932C38.527 59.1386 36.3104 57.1909 35.9766 56.7705C35.8849 56.6549 35.3074 56.0946 35.1914 56.0352Z" fill="#1B1A1A"/>
<path fill-rule="evenodd" clip-rule="evenodd" d="M59.8291 48.3846C64.2829 47.9652 68.7296 49.2482 72.2754 51.9755C74.2885 53.5527 76.2517 55.8233 77.375 58.1366C82.1417 67.9534 76.661 79.5607 65.4433 80.8632C60.5503 81.472 56.2231 80.0702 52.4531 76.9452C48.9125 74.0395 46.6874 69.8326 46.2773 65.2704C45.5747 57.6818 49.91 51.0494 57.2402 48.8778C58.1567 48.6064 58.8779 48.4702 59.8291 48.3846ZM71.8838 53.6844C69.2706 51.5017 64.6681 49.4737 61.1992 49.8651C47.027 50.851 43.18 67.0517 53.4384 75.7284C56.1438 78.0169 60.5394 79.8186 64.1299 79.4637C77.9566 78.3708 82.1441 62.2559 71.8838 53.6844Z" fill="#1B1A1A"/>
<path fill-rule="evenodd" clip-rule="evenodd" d="M61.0879 52.1644C65.0272 51.9133 67.7686 53.074 70.7178 55.5336C78.9082 62.3647 75.4785 76.4959 64.3536 77.2084C64.2649 77.2182 64.1754 77.2249 64.086 77.2299C60.5156 77.4534 57.445 76.174 54.7354 73.9125C48.2297 68.4817 48.311 57.9621 55.8965 53.5609C57.6496 52.5438 59.0868 52.279 61.0879 52.1644ZM61.3614 53.6449C51.1638 54.3783 48.2791 66.3852 55.6202 72.6439C58.0938 74.7525 60.8259 75.8355 64.1026 75.7074C70.5705 74.8816 74.3946 70.2185 73.5977 63.6224C72.9239 58.0401 66.9149 53.3205 61.3614 53.6449Z" fill="#1B1A1A"/>
<path fill-rule="evenodd" clip-rule="evenodd" d="M29.884 9.16422C33.7072 9.05345 37.4161 10.4756 40.1858 13.1134C46.1446 18.8447 45.3014 27.7518 40.7942 33.9435C39.2913 36.0081 37.9512 37.5934 37.4993 40.1867C37.1314 42.2984 37.7775 45.6295 37.3186 47.5597C37.1676 48.1836 36.8517 48.7554 36.4045 49.216C35.2165 50.4188 32.5618 50.0842 30.842 50.0744C30.2459 50.0748 28.9504 50.0471 28.469 50.0763C23.9277 50.4749 22.569 48.9532 22.9914 44.4513C23.5172 38.8486 22.0646 37.498 18.9846 33.2404C12.1124 23.7408 16.7567 10.2259 29.3381 9.18864C29.5198 9.17518 29.7019 9.1671 29.884 9.16422ZM35.8889 42.4435C33.6196 42.3086 30.1434 42.2967 27.8606 42.3937C26.7603 42.4245 25.6595 42.4393 24.5588 42.4367C24.5765 43.3498 24.5808 44.3008 24.6145 45.2101C25.6522 45.2261 26.6905 45.2163 27.7278 45.1818C28.38 45.1609 29.0425 45.1331 29.6946 45.1271C30.2736 45.1218 30.6998 46.0413 30.1623 46.4425C29.0364 47.2827 25.3708 46.2496 24.6223 47.1769C24.4721 48.2655 25.8544 48.5157 26.6516 48.505C28.1904 48.487 29.7299 48.4804 31.2688 48.4865C32.3081 48.4925 33.4419 48.5837 34.47 48.4191C34.813 48.3642 35.2154 48.2589 35.4631 48.0021C35.8094 47.6428 35.84 43.252 35.8889 42.4435ZM31.8284 10.8312C31.2758 10.7663 30.3345 10.715 29.7795 10.7492C26.0986 10.9899 23.349 12.0818 20.7121 14.838C15.8862 19.8828 16.6324 27.1877 20.4612 32.5763C22.4231 35.3375 24.1417 37.208 24.6077 40.7716C25.6239 40.7112 26.6679 40.7171 27.6877 40.7101C27.7371 38.1901 27.7889 34.1664 26.8069 31.9181C26.2597 30.6655 25.3007 29.1793 24.9133 27.9201C25.3809 27.0715 26.3144 25.8628 27.4084 26.1017C28.141 26.2617 27.963 26.2573 28.6672 26.0988L28.7532 26.0793C29.2917 26.3589 29.6695 26.5839 30.262 26.7355L30.3625 26.7619C31.8211 26.012 31.6507 26.2721 33.0969 25.8937C34.0626 26.2131 35.7982 27.2682 35.2287 28.5002C34.6814 29.6832 34.001 30.7941 33.5364 32.0158C32.7195 34.1484 32.6378 38.3733 32.6995 40.7043L35.8782 40.7326C36.3771 36.5686 38.4813 34.9463 40.6047 31.3625C43.6605 26.2048 44.0584 20.406 40.2209 15.5187C38.1419 12.9212 35.1303 11.2392 31.8284 10.8312ZM27.5461 27.4845C27.192 27.7358 26.9606 27.8917 26.6526 28.1955C27.155 29.1354 27.9192 30.5303 28.2424 31.5109C29.1473 34.2565 28.901 37.7504 29.1106 40.7111L31.2219 40.7238L31.3762 38.4298C31.4558 36.7388 31.5352 35.0509 31.7698 33.3771C32.0242 31.5611 32.8722 30.0472 33.5393 28.3771C33.624 28.1653 33.6161 28.1011 33.552 27.8966C32.9539 27.5613 30.9721 27.9841 30.3577 28.383C29.3845 27.9356 28.347 27.9693 27.5461 27.4845Z" fill="#1B1A1A"/>
<path d="M2.51279 29.3033C3.71658 29.2388 13.3969 29.174 13.8859 29.3366C14.1525 29.4254 14.3012 29.6545 14.4098 29.8968C14.3804 31.1432 11.4406 30.7735 10.5529 30.7676L5.21332 30.7533C3.74082 30.7518 1.57328 30.4208 1.56482 32.5259C1.53934 38.835 1.528 45.1425 1.53795 51.4517L1.54312 75.7195L1.5511 84.6306C1.54592 86.0662 1.49456 87.8346 1.62768 89.2727C1.6493 89.506 2.04308 89.9909 2.26027 90.1067C2.52816 90.2505 2.80065 90.276 3.11226 90.276C7.10377 90.2727 11.1057 90.2678 15.0965 90.2637L37.9073 90.2703L49.9226 90.2645C51.5085 90.2637 56.5671 90.4067 57.8246 90.0295C58.0444 89.6991 58.0742 89.6194 58.2099 89.2554C58.4118 87.4845 58.0543 85.0357 58.3424 83.4398C58.3854 83.2015 58.4631 83.0101 58.6859 82.8893C58.9284 82.7578 59.327 82.7816 59.5733 82.8901C59.775 82.9797 59.8948 83.1481 59.9648 83.3519C60.0773 83.6814 60.0729 88.9218 60.0153 89.626C59.9842 90.0057 59.9104 90.3697 59.7435 90.7148C59.385 91.4552 58.7076 92.0239 57.9335 92.2885C56.7462 92.6944 48.0782 92.4685 46.2593 92.466L25.4193 92.4643L10.8156 92.4676C8.27099 92.4701 5.71534 92.4808 3.17127 92.4619C2.51723 92.457 2.24121 92.3682 1.68397 92.1447C1.1961 91.9614 0.244095 90.9803 0.185586 90.4576C-0.108437 87.8297 0.0346303 84.7103 0.0359451 82.0692L0.0435048 64.4112L0.0574745 46.1491C0.0331506 41.6085 0.0147434 37.0673 0.0366021 32.5268C0.0453127 30.7172 0.827952 29.8241 2.51279 29.3033Z" fill="#1B1A1A"/>
<path fill-rule="evenodd" clip-rule="evenodd" d="M78.2901 76.0314C78.5242 76.0011 78.7929 76.0216 78.9727 76.176C80.705 77.665 82.4714 79.7281 84.0401 81.3527L89.3028 86.7766C90.1038 87.6039 90.9354 88.4014 91.711 89.2697C92.8991 90.5137 92.7683 91.3442 91.4053 92.3713C90.199 93.2818 88.7867 95.261 87.2139 95.3967L87.129 95.383C86.9286 95.3493 86.6538 95.2959 86.5059 95.1516C84.0546 92.7545 81.7237 90.2299 79.3389 87.7687L75.2295 83.5461C74.665 82.9684 72.8085 81.427 72.9424 80.6027C73.1282 79.4577 73.9358 79.7917 74.4756 79.4895C75.7444 78.7795 77.1429 76.7004 78.2901 76.0314ZM78.5079 78.0764C77.3723 79.0805 76.1604 80.1194 75.0528 81.1457C76.6658 82.5928 78.17 84.3427 79.6836 85.9064C81.7322 88.024 83.7888 90.1312 85.8028 92.2824C86.1996 92.7064 86.8793 93.4091 87.4356 93.5432C88.6123 93.014 89.8951 91.665 90.8409 90.7463C89.6433 89.3901 79.0338 78.2769 78.5079 78.0764Z" fill="#1B1A1A"/>
<path d="M46.282 29.3118C49.9174 29.3992 53.6573 29.1199 57.2861 29.336C60.2963 29.5152 59.8942 32.6939 59.8873 34.7525L59.8688 40.159C59.8647 41.839 59.8897 43.8709 59.8194 45.5747C59.8089 45.8275 59.4533 46.0381 59.2408 46.1802C59.0023 46.0927 58.5638 45.9292 58.4832 45.6864C58.2596 45.0127 58.3433 43.7153 58.3456 42.9843L58.3656 35.9001C58.3778 30.4052 58.7946 30.7562 53.3217 30.751L46.2914 30.7606C45.9715 30.461 45.6716 30.2101 45.7745 29.7482C45.9253 29.4984 46.0322 29.4569 46.282 29.3118Z" fill="#1B1A1A"/>
<path d="M6.34889 17.1035C6.371 17.106 6.39311 17.1084 6.41513 17.1109C7.66181 17.5496 8.95082 17.8696 10.2222 18.224C10.7339 18.3666 12.0422 18.6375 12.304 19.0626C12.3845 19.1926 12.4068 19.3504 12.3654 19.4975C12.2636 19.8598 12.0028 20.025 11.6991 20.1887C10.809 20.0115 5.99423 18.9092 5.64802 18.4148C5.56864 18.3015 5.53601 18.1168 5.56527 17.9812C5.64646 17.604 6.05824 17.3205 6.34889 17.1035Z" fill="#1B1A1A"/>
<path d="M53.4781 17.135C54.0327 17.117 54.5156 17.981 54.2535 18.4748C53.7363 18.8795 49.691 19.8163 48.721 20.0689C48.6107 20.0828 48.4878 20.088 48.3805 20.0537C48.1511 19.9802 47.8766 19.732 47.7928 19.505C47.7424 19.3682 47.7591 19.2476 47.8296 19.1211C48.2339 18.3959 52.4451 17.4457 53.4781 17.135Z" fill="#1B1A1A"/>
<path d="M14.7861 5.83789C15.1313 5.94488 18.6295 9.57695 18.8721 9.97682C18.9739 10.6162 18.6907 10.7579 18.1634 11.0002C17.1786 10.8161 14.4288 7.78594 13.8633 6.85629C14.1856 6.34614 14.3135 6.21088 14.7861 5.83789Z" fill="#1B1A1A"/>
<path d="M44.9087 5.84375C46.7143 6.50995 45.6923 7.47271 44.771 8.29652C43.8916 9.08286 43.0433 10.3902 42.0613 11.0149C41.7335 11.0104 41.4102 10.8992 41.1949 10.6394C41.0903 10.5106 41.041 10.3454 41.058 10.1802C41.0912 9.82909 41.5913 9.27909 41.8499 9.05262C42.8957 8.13669 43.8572 6.68753 44.9087 5.84375Z" fill="#1B1A1A"/>
<path d="M29.8861 0C30.8127 0.111594 30.8667 1.31596 30.7681 2.02217C30.5577 3.53141 31.3782 5.57757 30.058 6.5258C29.8289 6.39374 29.5567 6.23884 29.394 6.02601C29.0985 5.63945 29.1466 1.39148 29.2596 0.737771C29.3245 0.362558 29.5983 0.213245 29.8861 0Z" fill="#1B1A1A"/>
</svg>
