<svg width="40" height="40" viewBox="0 0 40 40" fill="none" xmlns="http://www.w3.org/2000/svg">
<path d="M36.315 2.46712L37.2983 3.45045C38.6533 4.80712 38.4483 7.21212 36.8367 8.82212L16.5583 29.1004L9.98833 31.5038C9.16333 31.8071 8.36 31.4138 8.19666 30.6288C8.14165 30.344 8.16763 30.0495 8.27166 29.7788L10.7217 23.1521L30.9433 2.92878C32.555 1.31878 34.96 1.11045 36.315 2.46712ZM15.6733 4.48378C15.8922 4.48378 16.1089 4.52689 16.3111 4.61065C16.5133 4.69441 16.6971 4.81717 16.8518 4.97194C17.0066 5.1267 17.1294 5.31043 17.2131 5.51264C17.2969 5.71485 17.34 5.93158 17.34 6.15045C17.34 6.36932 17.2969 6.58605 17.2131 6.78825C17.1294 6.99046 17.0066 7.1742 16.8518 7.32896C16.6971 7.48372 16.5133 7.60649 16.3111 7.69025C16.1089 7.77401 15.8922 7.81712 15.6733 7.81712H9.00666C8.12261 7.81712 7.27476 8.1683 6.64964 8.79343C6.02452 9.41855 5.67333 10.2664 5.67333 11.1504V31.1504C5.67333 32.0345 6.02452 32.8823 6.64964 33.5075C7.27476 34.1326 8.12261 34.4838 9.00666 34.4838H29.0067C29.8907 34.4838 30.7386 34.1326 31.3637 33.5075C31.9888 32.8823 32.34 32.0345 32.34 31.1504V24.4838C32.34 24.0418 32.5156 23.6178 32.8282 23.3053C33.1407 22.9927 33.5646 22.8171 34.0067 22.8171C34.4487 22.8171 34.8726 22.9927 35.1852 23.3053C35.4977 23.6178 35.6733 24.0418 35.6733 24.4838V31.1504C35.6733 32.9186 34.971 34.6142 33.7207 35.8645C32.4705 37.1147 30.7748 37.8171 29.0067 37.8171H9.00666C7.23855 37.8171 5.54286 37.1147 4.29262 35.8645C3.04238 34.6142 2.34 32.9186 2.34 31.1504V11.1504C2.34 9.38234 3.04238 7.68665 4.29262 6.4364C5.54286 5.18616 7.23855 4.48378 9.00666 4.48378H15.6733Z" fill="white"/>
</svg>
