<svg width="59" height="49" viewBox="0 0 59 49" fill="none" xmlns="http://www.w3.org/2000/svg">
<path d="M28.9199 0.0337063C29.485 -0.0355908 30.0581 0.00217737 30.6093 0.145034C31.7276 0.438084 32.6848 1.16199 33.2704 2.15871C33.842 3.14174 33.967 4.22017 33.6855 5.31398C34.4497 5.26658 35.8668 5.31925 36.7021 5.31984L43.1933 5.3257L49.8769 5.31398C51.038 5.31001 52.2022 5.29827 53.3632 5.31105C53.9781 5.31816 54.394 6.05331 53.8925 6.53371C53.7638 6.65888 53.597 6.73804 53.4189 6.75929C52.7882 6.82998 51.6459 6.80448 50.9931 6.80812C49.3564 6.82331 47.7187 6.82208 46.082 6.80324L32.8906 6.7964C32.5681 7.25392 32.3231 7.42065 31.8808 7.74562C31.8116 10.3356 31.8768 13.2834 31.8769 15.896L31.8759 32.2349C31.8734 34.9277 31.9636 38.1527 31.8329 40.7896C33.616 40.8486 35.4458 40.8 37.2216 40.8032C38.6769 40.8059 38.8726 40.9418 38.8447 42.4605C38.8366 42.9097 38.8463 43.4238 38.8554 43.8784L40.8456 43.8657C41.9222 43.856 43.0209 43.7293 43.871 44.5571C44.3729 45.0408 44.661 45.7046 44.6718 46.4019C44.6777 47.4518 43.7716 48.5209 42.7802 48.645C41.5472 48.7996 40.0095 48.7157 38.7587 48.7173L29.8662 48.7183L20.7255 48.7124L18.0156 48.7193C16.9548 48.7209 15.9468 48.8434 15.1269 48.0161C14.12 47.0005 14.1962 45.538 15.2089 44.5552C15.4959 44.2782 15.8501 44.0804 16.2363 43.98C16.9289 43.7981 19.4324 43.8712 20.289 43.8755C20.3203 40.6943 19.8649 40.8041 23.122 40.7837C24.4788 40.7746 25.8356 40.7795 27.1923 40.7993C27.1297 39.7316 27.1693 38.2261 27.1669 37.1245C27.1589 34.5006 27.1663 31.877 27.1894 29.2534L27.1621 7.71242C26.7703 7.39993 26.4427 7.12897 26.0722 6.7925C21.4495 6.84408 16.6763 6.82439 12.0439 6.80812L8.02728 6.79738C7.26257 6.80119 6.5031 6.80931 5.73334 6.8091C5.33666 6.80899 4.96058 6.42069 4.91303 6.04054C4.85951 5.61227 5.56763 5.34341 5.92768 5.33058C6.72381 5.30231 7.53672 5.32249 8.33881 5.32668L12.4736 5.32082C16.6968 5.31319 21.1273 5.2514 25.3388 5.31007C25.3304 5.26944 25.3227 5.22804 25.3163 5.18703C24.9054 2.59687 26.2816 0.463102 28.9199 0.0337063ZM33.7997 45.2739C28.2364 45.2788 22.5664 45.2212 17.0126 45.2974C16.6362 45.3151 16.419 45.3352 16.1288 45.6323C15.6665 46.1064 15.8193 46.7441 16.2871 47.1392C16.4564 47.2824 16.7192 47.2844 16.9306 47.2984C17.8984 47.3155 18.8737 47.2996 19.8427 47.3023L25.9746 47.3081L42.2519 47.312C43.4855 47.0651 43.6026 45.9542 42.5751 45.3325C41.8251 45.2456 40.2756 45.2751 39.4677 45.273L33.7997 45.2739ZM28.6249 8.40578C28.6702 9.21667 28.642 10.1388 28.6376 10.9644L28.623 15.3179L28.6142 31.4653L28.6171 38.7925C28.6131 39.7678 28.705 41.1112 28.5507 42.0415C27.9575 42.3953 22.8791 42.2199 21.7802 42.2017C21.7802 42.7404 21.7717 43.2989 21.7822 43.8355C22.7673 43.9085 24.0443 43.8737 25.0507 43.8726L30.6171 43.8696C32.8628 43.8611 35.109 43.8653 37.3544 43.8814L37.3486 42.2075L33.2714 42.2251C32.624 42.2278 30.9546 42.3447 30.4912 41.9722C30.3306 41.1207 30.4182 39.359 30.413 38.4126C30.3953 35.5886 30.3971 32.764 30.4179 29.94L30.4081 12.1148C30.4141 10.9058 30.3718 9.62399 30.3925 8.43214C29.7266 8.48126 29.2983 8.51921 28.6249 8.40578ZM29.122 1.43507C27.5648 1.66071 26.4891 3.11186 26.7255 4.6675C26.9621 6.22317 28.4206 7.289 29.9746 7.04152C31.5131 6.79641 32.5662 5.3552 32.332 3.81496C32.0977 2.27472 30.6639 1.21171 29.122 1.43507Z" fill="white"/>
<path d="M48.184 7.54023C48.7991 7.46937 49.0636 7.48755 49.3422 8.11054C49.7646 9.0582 50.1502 10.0228 50.557 10.9777L53.4691 17.9201L55.4145 22.5187C55.8353 23.4989 56.4378 24.834 56.7738 25.8391C58.5818 25.8752 59.411 25.6602 58.8061 28.0168C58.5221 29.1221 57.9727 30.0635 57.1986 30.9074C55.0536 33.2446 52.1154 34.1556 49.0111 34.3137L48.9047 34.3166C45.8239 34.3632 42.6069 33.4971 40.3217 31.3195C39.1231 30.1436 38.1903 28.5974 38.143 26.8791C38.1194 26.0094 38.5738 25.8236 39.3422 25.8391C39.6369 25.8451 39.9611 25.8395 40.2553 25.842C40.7073 24.481 41.5004 22.8455 42.0678 21.5119L44.8822 14.8322C45.8613 12.5616 46.7691 10.2562 47.7455 7.98456C47.8454 7.75244 47.9821 7.66579 48.184 7.54023ZM39.5111 27.2853C41.193 33.5464 50.8076 34.3961 55.3158 30.759C56.5516 29.6514 57.1051 28.9294 57.5775 27.2873L39.5111 27.2853ZM48.4135 9.85566C47.8665 11.5724 46.9694 13.3832 46.2865 15.0793C45.3815 17.3273 44.4322 19.5781 43.4525 21.7951C42.869 23.115 42.364 24.5081 41.7553 25.8303C44.0544 25.8528 46.3536 25.8563 48.6527 25.841C50.807 25.8456 53.1148 25.8813 55.2621 25.8215C54.3216 23.7129 53.45 21.5715 52.5492 19.4406C51.2185 16.2932 49.9247 13.1155 48.5473 9.98749C48.514 9.91245 48.48 9.89484 48.4135 9.85566Z" fill="white"/>
<path d="M10.2066 7.53577C10.8768 7.5246 11.0099 7.66196 11.27 8.27307C12.2332 10.5356 13.1275 12.8433 14.0962 15.1022L17.1382 22.194C17.6284 23.3553 18.2058 24.6595 18.6372 25.8317C19.1689 25.8361 19.8826 25.822 20.3911 25.9049C20.9332 26.4061 20.8552 27.0687 20.6939 27.7301C19.61 32.1729 14.8624 34.161 10.689 34.3141C6.23745 34.3653 0.636739 32.2811 0.0161219 27.0875C-0.15388 25.6634 1.05426 25.8273 2.05323 25.8668C3.50698 22.2328 5.18179 18.4447 6.70655 14.8239L8.42823 10.7672C8.80513 9.85886 9.17288 8.91648 9.58741 8.026C9.73214 7.71534 9.90683 7.63508 10.2066 7.53577ZM1.37257 27.2809C1.77964 28.8809 2.55942 29.9918 3.89503 30.9684C7.60615 33.682 13.5888 33.5813 17.1841 30.7155C18.3756 29.7133 18.9737 28.8167 19.3745 27.2907L1.37257 27.2809ZM10.2983 9.91761C8.5977 13.7733 7.08323 17.8003 5.3755 21.6608C4.76997 23.0296 4.24282 24.4523 3.59327 25.8121C5.85446 25.8427 8.11604 25.8517 10.3775 25.8405L17.1167 25.8326C16.4847 24.3989 10.4485 10.0386 10.2983 9.91761Z" fill="white"/>
</svg>
