<svg width="426" height="162" viewBox="0 0 426 162" fill="none" xmlns="http://www.w3.org/2000/svg">
<path d="M246.599 27C247.078 27.0004 247.759 26.9827 247.988 27.4854C249.519 30.8398 250.932 34.3127 252.49 37.6524C253.211 37.8521 254.816 38.0093 255.613 38.1045C257.368 38.3186 259.124 38.5208 260.881 38.7119C261.612 38.7894 265.563 38.7744 264.213 40.8242C263.958 41.2122 262.339 42.422 261.856 42.8486L255.8 48.2061C255.964 48.8079 256.093 49.4575 256.23 50.0684C256.791 52.5675 257.31 55.0791 257.901 57.5713C258.091 58.3696 258.511 59.9596 257.423 60.2852C257.121 60.3752 256.642 60.2566 256.346 60.124C253.378 58.3532 250.063 56.594 247.155 54.7686C246.637 54.8734 245.35 55.6953 244.855 55.9756C242.825 57.1324 240.804 58.286 238.811 59.5068C238.322 59.806 237.261 60.5052 236.676 60.3213C236.076 60.1327 235.642 59.5503 235.779 58.8926C236.024 57.7348 236.36 56.598 236.63 55.4443C237.172 53.126 237.51 50.5929 238.258 48.335C235.638 46.2936 233.014 43.8624 230.446 41.7217C230.031 41.3752 229.453 40.8735 229.455 40.29C229.457 39.496 229.88 39.1307 230.646 39.0264C232.054 38.8321 233.472 38.7826 234.883 38.6094C237.013 38.4111 239.213 37.9952 241.342 37.8818C241.561 37.317 241.87 36.7399 242.119 36.1826C243.42 33.2753 244.739 30.3761 246.022 27.4619C246.115 27.2511 246.402 27.0978 246.599 27ZM246.976 31.4873C245.835 33.9198 244.644 36.3021 243.638 38.7988C243.469 39.2154 243.281 39.6316 243.065 40.0254C241.185 40.294 239.3 40.5316 237.411 40.7373C236.257 40.8707 234.677 41.0836 233.543 41.1035C235.073 42.5396 239.902 46.2808 240.733 47.5713C240.543 49.5055 239.243 54.8904 238.539 56.7002C240.465 55.7372 245.494 52.3799 247.083 52.1172C247.656 52.3007 248.151 52.5155 248.66 52.8379C250.866 54.2348 253.18 55.4976 255.386 56.8848C255.17 56.3082 255.011 55.7229 254.896 55.1182C254.41 52.5093 253.6 49.8718 253.18 47.2617C254.098 46.2307 256.004 44.7973 257.133 43.8066C258.015 43.0319 259.309 41.8036 260.188 41.1133C259.268 41.0801 258.32 40.9454 257.408 40.8018C255.29 40.468 253.141 40.3131 251.02 40.0283C250.108 38.6844 247.448 31.8591 246.976 31.4873Z" fill="#333333"/>
<path d="M154.432 71.9339C157.13 71.8262 158.701 73.4779 160.548 75.2115C162.574 77.1443 164.501 79.1778 166.323 81.3044C169.292 84.7104 172.951 89.8101 177.296 91.2208C183.702 93.3007 189.31 87.2766 193.159 83.0664C195.603 80.3921 198.164 77.5689 200.807 75.1252C201.898 74.121 202.952 73.2523 204.263 72.5586C206.185 71.4537 208.927 71.6696 209.906 73.9164C211.639 77.8932 207.929 81.293 205.684 84.0187C201.862 88.6583 199.49 93.0779 197.731 98.8032C195.953 104.545 195.051 110.522 195.054 116.533C195.104 121.405 195.79 126.39 196.572 131.193C196.722 132.114 197.468 134.667 197.197 135.467C196.754 135.867 195.762 135.716 195.145 135.686C195.016 135.234 194.901 134.779 194.799 134.321C191.282 118.397 191.821 101.73 200.223 87.3621C202.244 84.0163 205.111 81.3659 207.281 78.1161C208.462 76.3483 208.292 73.778 205.591 74.636C202.78 76.0892 200.219 78.8716 198.051 81.1658C193.4 86.0868 189.468 91.8826 182.559 93.7169C175.232 95.6623 170.545 89.8694 166.311 84.9631C164.611 82.9808 162.869 81.0358 161.084 79.1294C159.957 77.9185 155.066 72.4075 153.517 75.3922C152.55 77.2546 155.269 80.9965 156.381 82.5117C160.56 88.2058 164.504 93.6979 166.778 100.478C167.67 103.196 168.204 106.018 168.364 108.875C168.69 114.258 167.485 129.777 165.235 134.17C164.876 134.873 164.343 135.491 163.561 135.721C163.142 135.846 162.567 135.886 162.18 135.644C162.023 135.546 161.908 135.389 161.88 135.204C161.779 134.513 163.116 133.38 163.491 132.766C164.256 131.514 165.111 123.906 165.343 122.007C167.319 105.8 165.484 99.2822 155.872 85.9027C154.13 83.4771 151.83 80.8891 151.163 77.9046C150.854 76.5259 150.951 74.8218 151.745 73.6123C152.377 72.6497 153.338 72.1722 154.432 71.9339Z" fill="#333333"/>
<path d="M180.212 67.2099C185.923 67.0772 190.654 71.6115 190.764 77.3231C190.873 83.0348 186.32 87.7481 180.608 87.8349C174.929 87.9212 170.248 83.3988 170.139 77.7196C170.03 72.0405 174.533 67.3419 180.212 67.2099ZM188.292 76.6913C187.828 72.3772 183.962 69.2507 179.646 69.7001C175.311 70.1518 172.167 74.0398 172.633 78.3739C173.098 82.7082 176.996 85.8399 181.329 85.3603C185.642 84.8825 188.756 81.0056 188.292 76.6913Z" fill="#333333"/>
<path d="M268.157 82.3067C268.612 82.2777 269.039 82.2514 269.416 82.5152C269.595 82.7523 269.667 82.982 269.67 83.2814C269.689 85.2997 269.674 87.3467 269.674 89.3628L269.648 103.775L269.698 123.54C269.703 127.14 269.708 130.787 269.667 134.388C269.646 134.743 269.585 135.25 269.308 135.497C268.822 135.93 267.765 135.834 267.365 135.327C267.167 135.075 267.181 134.39 267.179 134.088L267.218 101.254C267.239 98.5369 267.242 95.8196 267.226 93.1023C267.206 91.2345 267.09 88.6524 267.261 86.8324L256.274 98.7196C253.983 101.171 253.41 99.8699 251.469 97.8692C250.449 96.8708 249.363 95.9989 248.392 94.9232C248.507 96.0891 248.407 98.979 248.4 100.258L248.382 110.316L248.37 125.827C248.368 128.625 248.387 131.45 248.322 134.247C248.312 134.691 248.282 135.067 247.981 135.414C247.756 135.67 247.434 135.819 247.094 135.823C245.847 135.843 245.904 134.681 245.899 133.788C245.845 124.718 245.879 115.647 245.882 106.577L245.88 96.8968C245.867 95.1784 245.826 93.4284 245.824 91.7097C245.836 91.4177 245.935 91.0223 246.164 90.8231C246.608 90.4389 247.5 90.4145 247.937 90.8134C249.073 91.8514 250.082 93.03 251.16 94.1324C252.175 95.1713 253.299 96.1194 254.286 97.1748C254.83 96.5222 255.616 95.7602 256.21 95.1037L261.587 89.2045C262.648 88.0483 267.157 82.8037 268.157 82.3067Z" fill="#333333"/>
<path d="M237.782 106.626C239.12 106.513 239.255 106.962 239.27 108.128C239.293 110.059 239.271 111.988 239.264 113.919L239.296 121.572L239.298 130.29C239.294 131.702 239.291 133.134 239.275 134.546C239.236 134.931 239.288 135.297 238.931 135.544C237.751 136.356 236.834 135.529 236.812 134.261C236.788 132.882 236.813 131.548 236.819 130.193L236.829 122.255L236.782 115.119C236.775 113.9 236.723 112.319 236.826 111.13C236.086 111.948 235.287 112.773 234.509 113.559C231.499 116.601 228.725 119.845 225.79 122.964C224.373 124.471 223.847 124.596 222.273 123.053C221.919 122.707 221.505 122.319 221.148 121.974C220.114 120.982 219.091 119.979 218.08 118.964C218.23 122.196 217.937 125.646 218.066 128.895C218.139 130.757 218.007 132.701 218.097 134.567C218.179 136.244 215.733 136.185 215.608 134.803C215.569 133.874 215.594 132.827 215.599 131.895L215.606 126.819L215.591 119.624C215.587 118.416 215.526 117.181 215.588 115.974C215.604 115.652 215.612 115.387 215.853 115.143C216.078 114.914 216.51 114.741 216.83 114.75C217.846 114.782 222.972 120.249 223.973 121.278C227.654 117.107 231.602 113.05 235.387 108.964C235.994 108.308 237.076 107.104 237.782 106.626Z" fill="#333333"/>
<path d="M270.935 64.9341C271.531 64.8766 271.969 64.8634 272.462 65.2659C272.712 65.4712 272.923 65.72 272.947 66.0563C272.967 66.3577 272.828 66.6407 272.654 66.877C271.878 67.9282 270.894 68.8793 270.043 69.8758C268.512 71.6693 267.038 73.5169 265.531 75.3308C262.5 78.9785 259.65 82.7801 256.612 86.4209C256.236 86.8715 255.835 87.3363 255.2 87.3665C254.261 87.4112 249.728 82.5631 248.809 81.6809C247.948 80.9227 246.348 79.7949 247.443 78.5048C247.656 78.2537 247.969 78.1081 248.297 78.1064C249.149 78.0972 249.983 79.1177 250.51 79.7224C251.944 81.3644 253.555 82.8152 255.053 84.3891C256.769 82.0982 258.967 79.5788 260.781 77.2985C263.091 74.3932 265.449 71.4485 267.864 68.6362C268.732 67.6257 270.005 65.6751 270.935 64.9341Z" fill="#333333"/>
<path d="M238.951 92.8696C239.735 92.8543 240.559 93.2301 240.364 94.1583C240.149 95.2476 239.24 95.9189 238.583 96.7277C234.745 101.452 230.601 105.912 226.846 110.704C226.616 110.998 226.355 111.249 226.088 111.507C225.221 112.345 224.542 111.92 223.774 111.244C221.985 109.671 220.268 108.017 218.542 106.375C215.959 104.073 218.007 102.313 219.563 103.725C221.2 105.211 223.42 107.414 224.892 109.082C228.574 104.838 232.145 100.537 235.801 96.2749C236.657 95.2767 237.426 94.2769 238.232 93.2378C238.388 93.0371 238.708 92.9399 238.951 92.8696Z" fill="#333333"/>
<path d="M180.242 120.613C181.235 120.592 181.627 120.815 181.954 121.759C182.707 124.009 183.485 126.442 184.11 128.722C184.475 130.053 186.03 134.526 185.583 135.573C185.108 136.023 184.816 135.925 184.224 135.639C183.959 135.51 183.517 135.052 183.432 134.764C183.065 133.521 182.758 132.255 182.376 131.016C181.844 129.194 181.11 127.409 180.586 125.603C179.669 126.314 177.714 134.612 176.502 135.238C175.887 135.331 175.329 135.198 174.761 134.967C174.657 134.745 174.657 134.6 174.745 134.355C175.84 131.329 176.978 128.322 177.992 125.268C178.442 123.913 178.915 122.515 179.539 121.232C179.693 120.915 179.945 120.777 180.242 120.613Z" fill="#333333"/>
<path d="M222.267 72.5929C221.749 73.4343 221.155 74.2447 220.516 75.006C218.053 77.9334 215.764 81.0608 213.221 83.9103C212.119 85.1457 209.908 83.572 211.228 82.0717C213.831 79.1137 216.43 76.1202 218.852 73.0087C219.102 72.6883 219.548 72.3406 219.869 72.0977C220.239 72.3453 221.708 72.4888 222.267 72.5929Z" fill="#333333"/>
<path d="M220.641 70.8396C221.806 68.2418 225.341 65.0629 226.879 62.4888C227.187 61.9736 228.191 61.8449 228.688 62.0862C229.387 62.4285 229.685 63.4981 229.264 64.1694C228.451 65.4638 227.349 66.5486 226.398 67.7409C225.169 69.2017 224.029 70.8135 222.671 72.14L222.267 72.5917C221.708 72.4876 220.239 72.3441 219.869 72.0965C220.269 71.5751 220.372 71.4323 220.641 70.8396Z" fill="#333333"/>
<path d="M48 94.9992L47.8395 95.9356L48 94.9992ZM144.5 136.498L144.331 135.563L144.5 136.498ZM159.8 132.901C160.298 132.735 160.567 132.197 160.401 131.7C160.235 131.202 159.697 130.933 159.2 131.099L159.5 132L159.8 132.901ZM0 91.9992L-0.000159045 92.9492C13.0112 92.9514 29.42 92.7772 47.8395 95.9356L48 94.9992L48.1605 94.0629C29.5569 90.873 12.9888 91.0514 0.000159045 91.0492L0 91.9992ZM48 94.9992L47.8395 95.9356C67.7787 99.3545 81.6029 111.369 95.7077 121.848C109.766 132.294 124.069 141.158 144.669 137.433L144.5 136.498L144.331 135.563C124.563 139.138 110.833 130.719 96.8408 120.323C82.8956 109.962 68.6538 97.5768 48.1605 94.0629L48 94.9992ZM144.5 136.498L144.669 137.433C150.724 136.338 156.877 133.876 159.8 132.901L159.5 132L159.2 131.099C156.123 132.124 150.208 134.501 144.331 135.563L144.5 136.498Z" fill="#333333"/>
<path d="M269.75 135.999C269.75 135.308 269.19 134.749 268.5 134.749C267.81 134.749 267.25 135.308 267.25 135.999H268.5H269.75ZM268.5 135.999H267.25C267.25 138.995 268.612 141.43 270.906 143.313C273.161 145.163 276.323 146.492 280.046 147.417C287.497 149.267 297.598 149.593 308.388 148.833C329.947 147.315 354.787 141.417 367.62 134.084L367 132.999L366.38 131.913C354.013 138.98 329.603 144.833 308.212 146.339C297.527 147.092 287.728 146.749 280.648 144.99C277.105 144.11 274.344 142.899 272.492 141.38C270.679 139.892 269.75 138.128 269.75 135.999H268.5ZM367 132.999L367.62 134.084C379.887 127.074 392.069 126.935 402.378 128.584C407.541 129.409 412.211 130.68 416.202 131.76C420.108 132.817 423.542 133.75 426 133.75L426 132.5L426 131.25C423.958 131.25 420.917 130.446 416.855 129.346C412.876 128.27 408.084 126.965 402.772 126.115C392.131 124.413 379.313 124.523 366.38 131.913L367 132.999Z" fill="#333333"/>
</svg>
