<svg width="268" height="107" viewBox="0 0 268 107" fill="none" xmlns="http://www.w3.org/2000/svg">
<path d="M145.5 35.8572C144 37.3572 135.508 46.1459 134.5 47.3572C132.667 49.6905 128.7 54.3572 127.5 54.3572" stroke="#333333" stroke-width="1.1"/>
<path fill-rule="evenodd" clip-rule="evenodd" d="M149.508 22.3572C149.716 22.3574 150.012 22.3498 150.112 22.5681C150.776 24.0246 151.39 25.5322 152.067 26.9822C152.38 27.0689 153.076 27.1371 153.422 27.1785C154.184 27.2714 154.946 27.3601 155.709 27.4431C156.026 27.4767 157.742 27.4694 157.156 28.3591C157.046 28.5275 156.343 29.0537 156.133 29.239L153.503 31.5652C153.575 31.8266 153.631 32.1085 153.691 32.3738C153.934 33.4588 154.159 34.5495 154.416 35.6316C154.499 35.9784 154.68 36.668 154.208 36.8093C154.077 36.8485 153.869 36.7966 153.74 36.739C152.452 35.9701 151.013 35.2064 149.75 34.4138C149.525 34.4593 148.966 34.8165 148.751 34.9382C147.87 35.4404 146.993 35.9415 146.127 36.4714C145.915 36.6013 145.455 36.9046 145.2 36.825C144.94 36.7431 144.751 36.4905 144.811 36.2048C144.917 35.7022 145.063 35.2086 145.18 34.7078C145.415 33.7011 145.562 32.6013 145.887 31.6209C144.749 30.7345 143.61 29.6792 142.495 28.7498C142.315 28.5993 142.064 28.3811 142.065 28.1277C142.066 27.7831 142.249 27.6242 142.581 27.5789C143.193 27.4945 143.808 27.4734 144.421 27.3982C145.346 27.3121 146.302 27.131 147.226 27.0818C147.321 26.8366 147.456 26.5864 147.564 26.3445C148.128 25.0823 148.701 23.8235 149.258 22.5584C149.298 22.4668 149.423 22.3996 149.508 22.3572ZM149.672 24.3054C149.177 25.3616 148.66 26.3961 148.223 27.4802C148.15 27.6611 148.068 27.8415 147.974 28.0125C147.157 28.129 146.339 28.2327 145.519 28.322C145.018 28.3799 144.333 28.4725 143.84 28.4812C144.505 29.105 146.601 30.7286 146.962 31.2888C146.879 32.1286 146.315 34.4669 146.009 35.2527C146.846 34.8345 149.029 33.3763 149.719 33.2625C149.968 33.3421 150.182 33.4359 150.404 33.5759C151.361 34.1824 152.366 34.7305 153.323 35.3328C153.23 35.0824 153.161 34.8278 153.112 34.5652C152.9 33.4325 152.548 32.2873 152.365 31.1541C152.764 30.7065 153.592 30.0851 154.082 29.655C154.465 29.3186 155.028 28.7848 155.409 28.4851C155.01 28.4707 154.597 28.4127 154.201 28.3503C153.282 28.2054 152.349 28.138 151.428 28.0144C151.032 27.4312 149.877 24.4669 149.672 24.3054Z" fill="#333333"/>
<path d="M109.49 41.8675C110.661 41.8207 111.344 42.5379 112.146 43.2906C113.025 44.1298 113.862 45.0127 114.653 45.9361C115.942 47.4149 117.531 49.6292 119.418 50.2417C122.199 51.1448 124.634 48.5292 126.305 46.7011C127.366 45.54 128.478 44.3142 129.626 43.2531C130.099 42.8171 130.557 42.4399 131.126 42.1387C131.961 41.659 133.152 41.7527 133.577 42.7283C134.329 44.455 132.718 45.9312 131.743 47.1146C130.084 49.1291 129.054 51.0481 128.29 53.5339C127.518 56.027 127.126 58.6223 127.128 61.2321C127.15 63.3475 127.448 65.512 127.787 67.5975C127.852 67.9972 128.176 69.1058 128.058 69.4533C127.866 69.6269 127.435 69.5613 127.167 69.5483C127.111 69.3521 127.061 69.1544 127.017 68.9555C125.49 62.0413 125.724 54.8045 129.372 48.5663C130.25 47.1136 131.494 45.9628 132.437 44.5518C132.949 43.7842 132.876 42.6682 131.703 43.0407C130.483 43.6717 129.371 44.8798 128.429 45.8759C126.41 48.0126 124.702 50.5291 121.703 51.3255C118.521 52.1702 116.486 49.655 114.648 47.5247C113.91 46.664 113.153 45.8195 112.378 44.9917C111.889 44.466 109.766 42.0731 109.093 43.369C108.673 44.1777 109.854 45.8024 110.337 46.4603C112.151 48.9326 113.863 51.3173 114.851 54.2611C115.238 55.4411 115.47 56.6668 115.539 57.9069C115.681 60.2444 115.157 66.9823 114.181 68.8899C114.025 69.195 113.793 69.4636 113.454 69.5635C113.272 69.6175 113.022 69.6349 112.854 69.5301C112.786 69.4872 112.736 69.4194 112.724 69.3391C112.68 69.0389 113.261 68.5468 113.423 68.2805C113.756 67.7367 114.127 64.4333 114.228 63.6089C115.086 56.5719 114.289 53.7419 110.115 47.9327C109.359 46.8794 108.36 45.7558 108.071 44.4599C107.937 43.8613 107.979 43.1214 108.323 42.5962C108.598 42.1783 109.015 41.971 109.49 41.8675Z" fill="#333333"/>
<path fill-rule="evenodd" clip-rule="evenodd" d="M120.684 39.8152C123.164 39.7579 125.218 41.727 125.265 44.2068C125.313 46.6866 123.336 48.7324 120.856 48.7703C118.39 48.8077 116.357 46.8446 116.31 44.3787C116.263 41.9128 118.219 39.8725 120.684 39.8152ZM124.192 43.9324C123.991 42.0591 122.312 40.7021 120.438 40.8972C118.556 41.0933 117.191 42.781 117.393 44.6628C117.595 46.5447 119.287 47.9043 121.169 47.696C123.041 47.4886 124.393 45.8056 124.192 43.9324Z" fill="#333333"/>
<path d="M158.869 46.371C159.066 46.3583 159.252 46.3469 159.415 46.4615C159.493 46.5644 159.525 46.6641 159.526 46.7941C159.534 47.6705 159.527 48.5593 159.527 49.4347L159.516 55.6921L159.538 64.2742C159.54 65.8374 159.542 67.4206 159.525 68.9842C159.515 69.1385 159.489 69.3585 159.368 69.466C159.157 69.6538 158.698 69.6123 158.525 69.3919C158.439 69.2826 158.445 68.9851 158.444 68.8539L158.461 54.5978C158.47 53.418 158.471 52.2381 158.465 51.0583C158.456 50.2473 158.405 49.1262 158.48 48.336L153.709 53.4973C152.714 54.5616 152.466 53.9968 151.623 53.1281C151.18 52.6946 150.709 52.316 150.287 51.8489C150.337 52.3552 150.293 53.6099 150.29 54.1652L150.283 58.5326L150.277 65.2672C150.276 66.482 150.285 67.7088 150.257 68.9231C150.252 69.1158 150.239 69.2791 150.109 69.4298C150.011 69.5409 149.871 69.6056 149.723 69.6074C149.182 69.6159 149.207 69.1113 149.204 68.7237C149.181 64.7854 149.196 60.8472 149.197 56.9088L149.196 52.7059C149.191 51.9598 149.173 51.1999 149.172 50.4537C149.177 50.3269 149.22 50.1552 149.32 50.0687C149.512 49.9019 149.9 49.8913 150.09 50.0645C150.583 50.5152 151.021 51.0269 151.489 51.5056C151.93 51.9567 152.418 52.3683 152.846 52.8266C153.082 52.5432 153.424 52.2123 153.682 51.9273L156.016 49.3659C156.477 48.8639 158.435 46.5867 158.869 46.371Z" fill="#333333"/>
<path d="M145.68 56.9307C146.261 56.8816 146.32 57.0763 146.326 57.5827C146.336 58.4211 146.327 59.2587 146.324 60.0969L146.338 63.42L146.338 67.2052C146.337 67.8186 146.335 68.44 146.329 69.0534C146.312 69.2202 146.334 69.3795 146.179 69.4866C145.667 69.839 145.268 69.4799 145.259 68.9294C145.248 68.3307 145.26 67.7517 145.262 67.1632L145.267 63.7166L145.246 60.618C145.243 60.0889 145.22 59.4024 145.265 58.8862C144.944 59.2413 144.597 59.5995 144.259 59.9408C142.952 61.2617 141.748 62.6701 140.473 64.0244C139.858 64.6789 139.63 64.7329 138.946 64.0633C138.793 63.9129 138.613 63.7443 138.458 63.5944C138.009 63.1639 137.565 62.7285 137.126 62.2878C137.191 63.6908 137.064 65.1888 137.119 66.5998C137.151 67.4082 137.094 68.2522 137.133 69.0623C137.168 69.7903 136.106 69.7649 136.052 69.1649C136.035 68.7616 136.046 68.307 136.049 67.902L136.051 65.6982L136.045 62.5742C136.043 62.0495 136.017 61.5133 136.044 60.9896C136.051 60.8495 136.054 60.7344 136.159 60.6287C136.256 60.5292 136.444 60.4538 136.583 60.4578C137.024 60.4717 139.25 62.8454 139.684 63.2924C141.283 61.4812 142.997 59.72 144.64 57.9456C144.904 57.6611 145.373 57.1381 145.68 56.9307Z" fill="#333333"/>
<path d="M160.075 38.8276C160.334 38.8027 160.524 38.7969 160.738 38.9717C160.847 39.0608 160.938 39.1689 160.948 39.3149C160.957 39.4457 160.897 39.5686 160.821 39.6712C160.484 40.1277 160.057 40.5406 159.688 40.9733C159.023 41.752 158.383 42.5542 157.728 43.3418C156.412 44.9256 155.175 46.5762 153.856 48.157C153.693 48.3527 153.518 48.5545 153.243 48.5676C152.835 48.587 150.867 46.482 150.468 46.099C150.094 45.7698 149.4 45.2801 149.875 44.7199C149.967 44.6109 150.103 44.5477 150.246 44.5469C150.616 44.543 150.978 44.986 151.207 45.2486C151.829 45.9615 152.529 46.5915 153.179 47.2749C153.924 46.2802 154.879 45.1863 155.666 44.1962C156.669 42.9347 157.693 41.6561 158.741 40.4351C159.118 39.9963 159.671 39.1494 160.075 38.8276Z" fill="#333333"/>
<path d="M146.188 50.9577C146.528 50.9511 146.886 51.1143 146.801 51.5173C146.708 51.9902 146.313 52.2817 146.028 52.6329C144.361 54.6842 142.562 56.6205 140.932 58.7014C140.832 58.8287 140.719 58.938 140.603 59.0498C140.226 59.414 139.931 59.2293 139.598 58.9359C138.821 58.2528 138.076 57.5347 137.326 56.8217C136.205 55.8222 137.094 55.0578 137.77 55.671C138.481 56.3162 139.444 57.2729 140.083 57.9968C141.682 56.1544 143.232 54.2866 144.82 52.4363C145.192 52.0028 145.526 51.5687 145.876 51.1176C145.943 51.0304 146.082 50.9882 146.188 50.9577Z" fill="#333333"/>
<path d="M120.697 63.0032C121.128 62.9943 121.298 63.0911 121.44 63.5011C121.767 64.4781 122.105 65.5344 122.376 66.5243C122.535 67.102 123.21 69.0444 123.016 69.499C122.809 69.6944 122.683 69.652 122.426 69.5275C122.311 69.4718 122.119 69.2728 122.082 69.1479C121.922 68.6081 121.789 68.0585 121.623 67.5205C121.392 66.7291 121.073 65.9542 120.846 65.17C120.448 65.4787 119.599 69.0819 119.073 69.3535C118.806 69.3937 118.563 69.3361 118.317 69.2358C118.272 69.1394 118.271 69.0765 118.31 68.9699C118.785 67.6561 119.279 66.3508 119.72 65.0245C119.915 64.4361 120.121 63.8294 120.391 63.2722C120.458 63.1344 120.568 63.0746 120.697 63.0032Z" fill="#333333"/>
<path d="M132.625 61.137C133.351 61.1459 133.356 62.0488 132.833 62.2357C132.348 62.4088 131.746 62.5319 131.238 62.6653C130.461 62.8745 129.688 63.0963 128.92 63.3314C128.213 63.2644 128.159 62.4619 128.633 62.3316C129.911 61.9805 131.352 61.4006 132.625 61.137Z" fill="#333333"/>
<path d="M169.207 0.357178L150 22.8572" stroke="#333333" stroke-width="1.1"/>
</svg>
