<svg width="269" height="107" viewBox="0 0 269 107" fill="none" xmlns="http://www.w3.org/2000/svg">
<path d="M153.114 35.876C154.199 35.9741 154.737 36.4584 155.525 37.1543C155.673 38.0237 155.887 39.085 155.584 39.9137C155.397 39.8932 155.231 39.7799 155.064 39.6864C154.759 39.1123 154.789 38.2107 154.761 37.5311C153.8 37.0586 153.045 37.0037 153.114 35.876Z" fill="#333333"/>
<path d="M123.607 47.6602C124.969 48.4071 122.275 50.363 121.604 50.9873C121.15 50.6306 121.213 50.7896 121.111 50.3022C121.496 49.4763 122.883 48.323 123.607 47.6602Z" fill="#333333"/>
<path d="M115.557 55.6426L115.899 55.7021C115.999 55.8026 116.18 55.9375 116.172 56.0401C116.12 56.7666 114.327 58.2441 113.765 58.7659C113.478 58.7185 113.425 58.625 113.226 58.4053C113.297 57.5761 114.884 56.2866 115.557 55.6426Z" fill="#333333"/>
<path d="M153.114 56.9434C153.574 57.023 153.416 56.9381 153.732 57.2424C153.633 58.1047 152.058 59.3494 151.354 60.0064C151.057 59.9119 151.021 59.8608 150.799 59.6384C150.917 58.6928 152.347 57.6385 153.114 56.9434Z" fill="#333333"/>
<path d="M111.755 59.4854C113.11 60.334 110.452 62.1226 109.705 62.7836C109.271 62.4255 109.32 62.5787 109.263 62.1166C109.628 61.3862 111.092 60.1085 111.755 59.4854Z" fill="#333333"/>
<path d="M149.267 60.7344C149.517 60.8099 149.599 60.9243 149.785 61.1065C149.712 62.0572 148.22 63.1912 147.455 63.9062C146.988 63.6563 147.05 63.7829 146.898 63.3745C147.106 62.6469 148.647 61.3181 149.267 60.7344Z" fill="#333333"/>
<path d="M127.502 43.8496C127.67 43.9449 127.805 44.1217 127.936 44.2694C127.81 45.2365 126.348 46.3401 125.569 47.054L125.119 46.69L125.086 46.3224C125.506 45.5526 126.792 44.4983 127.502 43.8496Z" fill="#333333"/>
<path d="M119.595 51.6768C121.162 52.178 118.103 54.4441 117.589 54.9008C117.195 54.537 117.221 54.672 117.155 54.2285C117.605 53.3872 118.842 52.3688 119.595 51.6768Z" fill="#333333"/>
<path d="M135.338 36.0098C136.835 36.4821 133.887 38.7951 133.391 39.2665L132.96 38.9445L132.912 38.5877C133.338 37.7782 134.62 36.687 135.338 36.0098Z" fill="#333333"/>
<path d="M131.316 40.0137C131.608 40.0454 131.657 40.1172 131.875 40.322C131.817 41.2277 130.205 42.4879 129.466 43.1812C128.992 42.8889 129.083 43.0424 128.954 42.5799C129.273 41.8577 130.674 40.6291 131.316 40.0137Z" fill="#333333"/>
<path d="M145.478 64.5771C145.859 64.8896 145.765 64.7358 145.929 65.1963C145.698 65.9578 144.26 67.1638 143.62 67.7539C143.322 67.6823 143.287 67.6309 143.071 67.4065C143.172 66.4879 144.731 65.2734 145.478 64.5771Z" fill="#333333"/>
<path d="M141.489 68.5869C141.936 68.7146 141.816 68.6107 142.046 68.9635C142.005 69.7078 140.235 71.1527 139.632 71.7043C139.247 71.3565 139.276 71.4857 139.182 71.0493C139.573 70.2144 140.762 69.2533 141.489 68.5869Z" fill="#333333"/>
<path d="M137.746 72.3975C137.894 72.4517 138.054 72.6217 138.177 72.7356C138.073 73.6859 136.559 74.8558 135.796 75.568C135.59 75.4498 135.481 75.3122 135.32 75.1413C135.48 74.1657 136.946 73.1026 137.746 72.3975Z" fill="#333333"/>
<path d="M133.848 76.2266C135.361 76.7469 132.538 78.8669 131.984 79.3818C131.317 78.9834 131.416 78.6404 131.903 78.1033C132.498 77.4462 133.195 76.8312 133.848 76.2266Z" fill="#333333"/>
<path d="M115.134 75.4062C116.263 75.6016 117.972 77.2131 117.889 78.4474C116.925 78.3541 115.726 76.9238 115.173 76.1503C115.064 75.9976 115.126 75.6175 115.134 75.4062Z" fill="#333333"/>
<path d="M130.04 80.0635C130.451 80.3676 130.364 80.2133 130.48 80.6713C130.204 81.3777 128.757 82.6198 128.133 83.2008C127.978 83.1121 127.796 82.9267 127.66 82.8008C127.81 81.8183 129.243 80.7725 130.04 80.0635Z" fill="#333333"/>
<path d="M155.712 52.3955C157.565 52.7198 155.975 55.1735 155.364 55.9798L154.971 55.846C154.579 55.3476 155.63 53.4803 155.712 52.3955Z" fill="#333333"/>
<path d="M155.526 46.8535C156.551 47.3729 156.537 50.0268 156.173 50.8695L155.688 50.6967C155.183 50.0996 155.135 47.5521 155.526 46.8535Z" fill="#333333"/>
<path d="M123.175 83.0049C124.246 83.4595 126.044 83.7381 126.41 84.1131L126.371 84.7013C125.248 84.8349 123.419 84.6048 122.974 83.4137L123.175 83.0049Z" fill="#333333"/>
<path d="M118.967 79.2422C119.642 79.2944 120.036 79.5992 120.497 80.0815C121.208 80.8272 121.843 81.2263 121.701 82.2763C120.884 82.1751 119.538 80.5872 119.037 79.9033C118.924 79.7504 118.967 79.4487 118.967 79.2422Z" fill="#333333"/>
<path d="M111.187 71.8079C112.377 71.6542 113.989 73.4912 114.006 74.6355C113.063 74.5203 111.26 72.7818 111.187 71.8079Z" fill="#333333"/>
<path d="M136.91 34.8141C137.636 34.7492 139.81 34.602 140.403 35.0405C140.667 35.2354 140.613 35.4115 140.656 35.7596C139.787 35.7743 137.922 35.912 137.172 35.4991C136.929 35.3662 136.961 35.121 136.91 34.8141Z" fill="#333333"/>
<path d="M155.27 41.4648C156.293 41.9163 156.177 44.7814 155.727 45.4551C155.584 45.3648 155.391 45.1985 155.254 45.0891C155.008 44.2729 154.731 42.1162 155.27 41.4648Z" fill="#333333"/>
<path d="M107.302 68.0726C108.408 68.0444 110.031 69.8311 110.174 70.9725C109.174 70.9172 107.369 69.0991 107.302 68.0726Z" fill="#333333"/>
<path d="M142.323 35.1303C143.107 35.0775 145.228 35.0084 145.895 35.4357C146.094 35.5643 146.078 35.8059 146.134 36.0879C145.234 36.0986 143.383 36.2294 142.601 35.8032C142.366 35.6754 142.384 35.4284 142.323 35.1303Z" fill="#333333"/>
<path d="M107.807 63.4521L108.125 63.6374C108.562 64.4575 107.271 65.2234 106.939 66.8412L106.578 66.6894C105.761 65.6471 107.066 64.193 107.807 63.4521Z" fill="#333333"/>
<path fill-rule="evenodd" clip-rule="evenodd" d="M159.131 26.0742C165.094 25.3167 169.191 30.4884 165.736 35.7021C164.274 37.9096 162.07 38.9339 159.85 40.1894C159.919 44.3779 160.14 48.5277 160.272 52.707C160.357 55.4151 159.822 56.1617 157.94 58.0302C151.432 64.4931 144.934 70.9736 138.45 77.4599L132.183 83.7207C129.997 85.8937 128.373 88.1111 125 88.0429C121.438 87.9706 118.834 84.4757 116.461 82.1377C112.589 78.0956 108.358 74.3034 104.498 70.2383C102.676 68.3207 101.92 65.3482 103.598 63.1015C104.559 61.8148 106.375 60.1878 107.54 59.0234L115.125 51.4599L127.067 39.5293C129.234 37.3605 131.348 35.0627 133.636 33.0283C134.254 32.4791 134.807 31.9893 135.614 31.7558C138.357 30.9642 147.615 31.9781 150.919 32.1718C151.228 31.5349 151.588 30.9239 151.997 30.3447C153.746 27.8579 156.196 26.5967 159.131 26.0742ZM137.074 32.9052C136.273 33.1498 135.603 33.3978 134.962 33.9492C132.529 36.0368 105.164 63.3984 104.643 64.3818C104.225 65.173 104.142 66.3921 104.409 67.2343C104.604 67.849 104.96 68.387 105.378 68.8711C107.271 71.0576 121.637 85.3962 122.951 86.0459C124.07 86.5987 125.235 86.7056 126.419 86.2998C128.913 85.445 136.442 77.2665 138.762 74.9131L152.259 61.4258C154.228 59.4692 156.557 57.4514 158.261 55.2744C158.765 54.6313 158.738 53.4698 158.758 52.6924C158.619 47.703 158.333 42.7091 158.151 37.7217C158.119 36.8122 158.031 35.3433 157.318 34.7246C156.124 33.6904 153.261 33.8916 151.705 33.8535C151.408 35.6046 151.54 36.2733 151.098 38.1494C152.085 39.1443 153.121 40.6461 152.94 42.0293C151.828 50.5566 139.075 45.9551 144.379 38.6465C145.649 36.8973 149.202 37.5225 149.918 36.9248L149.88 36.6758C148.82 36.0799 148.164 36.5779 147.743 35.8418C148.271 35.1857 149.455 35.6358 149.943 35.332C150.072 35.2515 150.243 34.0361 150.293 33.7236L141.477 33.1406C140.39 33.0725 138.062 32.8673 137.074 32.9052ZM149.472 39.0195C149.032 38.6332 147.974 38.621 147.412 38.6572L147.366 38.6601C146.289 39.0728 145.416 39.5573 144.913 40.6845C144.586 41.4312 144.583 42.2799 144.907 43.0283C145.279 43.8939 145.981 44.5766 146.855 44.9258C147.209 45.0655 147.618 45.1712 147.988 45.2617C149.38 44.9274 150.157 44.7183 151.017 43.4717C151.19 42.9812 151.403 42.4213 151.552 41.9297C151.314 41.2521 151.108 40.6013 150.768 39.9677C150.251 40.9119 149.853 41.7244 148.856 42.2177C148.293 42.2448 148.039 42.166 147.789 41.6133C147.925 40.2065 149.68 40.1974 149.472 39.0195ZM162.446 36.9424C167.594 32.9187 165.942 26.9883 158.969 27.667C155.798 28.3758 154.386 29.501 152.686 32.1767L152.614 32.291C158.048 32.6425 159.587 32.3867 159.687 38.4092C160.254 38.3148 161.958 37.3244 162.446 36.9424Z" fill="#333333"/>
<path d="M171.882 0C171.882 2.5 170.859 5.05916 170 8.5C168.1 16.1084 163.5 27.5 163.5 27.5" stroke="#333333" stroke-width="1.5"/>
</svg>
