<svg width="70" height="89" viewBox="0 0 70 89" fill="none" xmlns="http://www.w3.org/2000/svg">
<path d="M50.4497 35.876C51.5349 35.9741 52.0727 36.4584 52.8611 37.1543C53.0095 38.0237 53.2233 39.085 52.9201 39.9137C52.7334 39.8932 52.5674 39.7799 52.3999 39.6864C52.0951 39.1123 52.1254 38.2107 52.0967 37.5311C51.1359 37.0586 50.3811 37.0037 50.4497 35.876Z" fill="#333333"/>
<path d="M20.9433 47.6602C22.3045 48.4071 19.6107 50.363 18.9405 50.9873C18.4857 50.6306 18.5495 50.7896 18.4474 50.3022C18.832 49.4763 20.2188 48.323 20.9433 47.6602Z" fill="#333333"/>
<path d="M12.8932 55.6426L13.2347 55.7021C13.3352 55.8026 13.5155 55.9375 13.5076 56.0401C13.4565 56.7666 11.6627 58.2441 11.101 58.7659C10.8137 58.7185 10.7611 58.625 10.5616 58.4053C10.6334 57.5761 12.2197 56.2866 12.8932 55.6426Z" fill="#333333"/>
<path d="M50.4504 56.9434C50.9101 57.023 50.7521 56.9381 51.068 57.2424C50.9691 58.1047 49.394 59.3494 48.6902 60.0064C48.3934 59.9119 48.3567 59.8608 48.1349 59.6384C48.253 58.6928 49.6828 57.6385 50.4504 56.9434Z" fill="#333333"/>
<path d="M9.09145 59.4854C10.4463 60.334 7.78764 62.1226 7.04078 62.7836C6.60671 62.4255 6.65618 62.5787 6.59872 62.1166C6.96418 61.3862 8.42757 60.1085 9.09145 59.4854Z" fill="#333333"/>
<path d="M46.6027 60.7344C46.8533 60.8099 46.9346 60.9243 47.1214 61.1065C47.048 62.0572 45.5558 63.1912 44.7914 63.9062C44.3238 63.6563 44.3861 63.7829 44.2345 63.3745C44.4419 62.6469 45.9835 61.3181 46.6027 60.7344Z" fill="#333333"/>
<path d="M24.8381 43.8496C25.0057 43.9449 25.1413 44.1217 25.2722 44.2694C25.1461 45.2365 23.6843 46.3401 22.9055 47.054L22.4555 46.69L22.422 46.3224C22.8417 45.5526 24.1279 44.4983 24.8381 43.8496Z" fill="#333333"/>
<path d="M16.9314 51.6768C18.4985 52.178 15.4392 54.4441 14.9254 54.9008C14.5312 54.537 14.5567 54.672 14.4913 54.2285C14.9413 53.3872 16.1781 52.3688 16.9314 51.6768Z" fill="#333333"/>
<path d="M32.6738 36.0098C34.1707 36.4821 31.2232 38.7951 30.7269 39.2665L30.296 38.9445L30.2481 38.5877C30.6742 37.7782 31.9557 36.687 32.6738 36.0098Z" fill="#333333"/>
<path d="M28.652 40.0137C28.944 40.0454 28.9935 40.1172 29.2106 40.322C29.1531 41.2277 27.5413 42.4879 26.8024 43.1812C26.3284 42.8889 26.4194 43.0424 26.2901 42.5799C26.6093 41.8577 28.0105 40.6291 28.652 40.0137Z" fill="#333333"/>
<path d="M42.8139 64.5771C43.1953 64.8896 43.1011 64.7358 43.2655 65.1963C43.0341 65.9578 41.5962 67.1638 40.9563 67.7539C40.6579 67.6823 40.6228 67.6309 40.4073 67.4065C40.5079 66.4879 42.067 65.2734 42.8139 64.5771Z" fill="#333333"/>
<path d="M38.8253 68.5869C39.2721 68.7146 39.1524 68.6107 39.3822 68.9635C39.3407 69.7078 37.5709 71.1527 36.9677 71.7043C36.5831 71.3565 36.6118 71.4857 36.5177 71.0493C36.9087 70.2144 38.0976 69.2533 38.8253 68.5869Z" fill="#333333"/>
<path d="M35.082 72.3975C35.2304 72.4517 35.39 72.6217 35.5129 72.7356C35.4092 73.6859 33.8947 74.8558 33.1319 75.568C32.926 75.4498 32.8175 75.3122 32.6563 75.1413C32.8159 74.1657 34.2825 73.1026 35.082 72.3975Z" fill="#333333"/>
<path d="M31.1841 76.2266C32.697 76.7469 29.8739 78.8669 29.3202 79.3818C28.6531 78.9834 28.752 78.6404 29.2388 78.1033C29.834 77.4462 30.5314 76.8312 31.1841 76.2266Z" fill="#333333"/>
<path d="M12.4704 75.4062C13.5986 75.6016 15.3078 77.2131 15.2248 78.4474C14.2609 78.3541 13.0624 76.9238 12.5087 76.1503C12.4002 75.9976 12.4624 75.6175 12.4704 75.4062Z" fill="#333333"/>
<path d="M27.3756 80.0635C27.7873 80.3676 27.6996 80.2133 27.8161 80.6713C27.54 81.3777 26.0925 82.6198 25.4686 83.2008C25.3138 83.1121 25.1318 82.9267 24.9962 82.8008C25.1462 81.8183 26.5793 80.7725 27.3756 80.0635Z" fill="#333333"/>
<path d="M53.0477 52.3955C54.9005 52.7198 53.3111 55.1735 52.6998 55.9798L52.3073 55.846C51.9147 55.3476 52.9664 53.4803 53.0477 52.3955Z" fill="#333333"/>
<path d="M52.8623 46.8535C53.8869 47.3729 53.8725 50.0268 53.5087 50.8695L53.0235 50.6967C52.5192 50.0996 52.4714 47.5521 52.8623 46.8535Z" fill="#333333"/>
<path d="M20.5107 83.0049C21.5816 83.4595 23.3801 83.7381 23.7455 84.1131L23.7072 84.7013C22.5838 84.8349 20.7549 84.6048 20.3097 83.4137L20.5107 83.0049Z" fill="#333333"/>
<path d="M16.3031 79.2422C16.9781 79.2944 17.3723 79.5992 17.8335 80.0815C18.5436 80.8272 19.1788 81.2263 19.0368 82.2763C18.2197 82.1751 16.8744 80.5872 16.3733 79.9033C16.26 79.7504 16.3031 79.4487 16.3031 79.2422Z" fill="#333333"/>
<path d="M8.52255 71.8079C9.71306 71.6542 11.3249 73.4912 11.3424 74.6355C10.3993 74.5203 8.59596 72.7818 8.52255 71.8079Z" fill="#333333"/>
<path d="M34.2462 34.8141C34.9723 34.7492 37.1459 34.602 37.7395 35.0405C38.0028 35.2354 37.9486 35.4115 37.9917 35.7596C37.1235 35.7743 35.258 35.912 34.5079 35.4991C34.2653 35.3662 34.2973 35.121 34.2462 34.8141Z" fill="#333333"/>
<path d="M52.6061 41.4648C53.6291 41.9163 53.5126 44.7814 53.0626 45.4551C52.9205 45.3648 52.7274 45.1985 52.5902 45.0891C52.3444 44.2729 52.0667 42.1162 52.6061 41.4648Z" fill="#333333"/>
<path d="M4.63779 68.0726C5.74371 68.0444 7.3667 69.8311 7.51033 70.9725C6.50972 70.9172 4.70481 69.0991 4.63779 68.0726Z" fill="#333333"/>
<path d="M39.6593 35.1303C40.4428 35.0775 42.5637 35.0084 43.2308 35.4357C43.4303 35.5643 43.4143 35.8059 43.4702 36.0879C42.5701 36.0986 40.7189 36.2294 39.9369 35.8032C39.7024 35.6754 39.7199 35.4284 39.6593 35.1303Z" fill="#333333"/>
<path d="M5.14298 63.4521L5.46055 63.6374C5.89782 64.4575 4.60678 65.2234 4.27484 66.8412L3.91418 66.6894C3.0971 65.6471 4.4025 64.193 5.14298 63.4521Z" fill="#333333"/>
<path fill-rule="evenodd" clip-rule="evenodd" d="M56.4667 26.0742C62.4303 25.3167 66.5271 30.4884 63.0721 35.7021C61.6103 37.9096 59.4062 38.9339 57.1864 40.1894C57.255 44.3779 57.4758 48.5277 57.6083 52.707C57.6928 55.4151 57.1576 56.1617 55.2762 58.0302C48.7684 64.4931 42.2699 70.9736 35.786 77.4599L29.5194 83.7207C27.3331 85.8937 25.7094 88.1111 22.3358 88.0429C18.7741 87.9706 16.1697 84.4757 13.7967 82.1377C9.92528 78.0956 5.69411 74.3034 1.83384 70.2383C0.0115332 68.3207 -0.744285 65.3482 0.934424 63.1015C1.89514 61.8148 3.71089 60.1878 4.87583 59.0234L12.4608 51.4599L24.4032 39.5293C26.5701 37.3605 28.6843 35.0627 30.9725 33.0283C31.59 32.4791 32.1427 31.9893 32.9501 31.7558C35.6933 30.9642 44.9513 31.9781 48.2547 32.1718C48.5642 31.5349 48.9245 30.9239 49.3329 30.3447C51.0819 27.8579 53.5319 26.5967 56.4667 26.0742ZM34.41 32.9052C33.6091 33.1498 32.9391 33.3978 32.2977 33.9492C29.8649 36.0368 2.49959 63.3984 1.97935 64.3818C1.56147 65.173 1.47853 66.3921 1.74497 67.2343C1.93967 67.849 2.29563 68.387 2.71372 68.8711C4.60695 71.0576 18.9734 85.3962 20.287 86.0459C21.4056 86.5987 22.5707 86.7056 23.7547 86.2998C26.249 85.445 33.7778 77.2665 36.0985 74.9131L49.5946 61.4258C51.5638 59.4692 53.8931 57.4514 55.5975 55.2744C56.1014 54.6313 56.0745 53.4698 56.0936 52.6924C55.9548 47.703 55.6691 42.7091 55.4872 37.7217C55.4552 36.8122 55.3673 35.3433 54.6542 34.7246C53.4605 33.6904 50.5968 33.8916 49.0409 33.8535C48.7441 35.6046 48.8764 36.2733 48.4344 38.1494C49.4206 39.1443 50.4566 40.6461 50.2762 42.0293C49.1637 50.5566 36.4109 45.9551 41.7147 38.6465C42.9849 36.8973 46.5385 37.5225 47.2538 36.9248L47.2157 36.6758C46.1562 36.0799 45.5002 36.5779 45.079 35.8418C45.6072 35.1857 46.7908 35.6358 47.2792 35.332C47.4084 35.2515 47.5792 34.0361 47.6288 33.7236L38.8133 33.1406C37.7265 33.0725 35.3978 32.8673 34.41 32.9052ZM46.8084 39.0195C46.3679 38.6332 45.3096 38.621 44.7479 38.6572L44.702 38.6601C43.6248 39.0728 42.7516 39.5573 42.2489 40.6845C41.9219 41.4312 41.9192 42.2799 42.243 43.0283C42.6148 43.8939 43.3168 44.5766 44.1913 44.9258C44.5454 45.0655 44.9539 45.1712 45.3241 45.2617C46.7155 44.9274 47.4933 44.7183 48.3534 43.4717C48.5257 42.9812 48.7391 42.4213 48.8876 41.9297C48.6498 41.2521 48.4441 40.6013 48.1043 39.9677C47.5874 40.9119 47.1895 41.7244 46.1922 42.2177C45.6292 42.2448 45.3753 42.166 45.1249 41.6133C45.2606 40.2065 47.0159 40.1974 46.8084 39.0195ZM59.7821 36.9424C64.9303 32.9187 63.2784 26.9883 56.3045 27.667C53.1339 28.3758 51.7218 29.501 50.0223 32.1767L49.9501 32.291C55.3839 32.6425 56.9227 32.3867 57.0233 38.4092C57.5901 38.3148 59.2936 37.3244 59.7821 36.9424Z" fill="#333333"/>
<path d="M69.2181 0C69.2181 2.5 68.1955 5.05916 67.336 8.5C65.4357 16.1084 60.836 27.5 60.836 27.5" stroke="#333333" stroke-width="1.5"/>
</svg>
