<svg width="429" height="154" viewBox="0 0 429 154" fill="none" xmlns="http://www.w3.org/2000/svg">
<path d="M241.749 55.4365C243.335 55.58 244.121 56.2879 245.273 57.3052C245.49 58.5761 245.803 60.1275 245.36 61.3389C245.087 61.309 244.844 61.1434 244.599 61.0067C244.154 60.1674 244.198 58.8494 244.156 57.856C242.752 57.1653 241.648 57.085 241.749 55.4365Z" fill="#333333"/>
<path d="M198.615 72.6631C200.604 73.755 196.667 76.6141 195.687 77.5267C195.022 77.0053 195.115 77.2377 194.966 76.5253C195.528 75.3179 197.555 73.6321 198.615 72.6631Z" fill="#333333"/>
<path d="M186.848 84.332L187.347 84.419C187.494 84.566 187.757 84.7631 187.746 84.9131C187.671 85.9752 185.049 88.135 184.228 88.8977C183.808 88.8285 183.731 88.6918 183.439 88.3706C183.544 87.1585 185.863 85.2735 186.848 84.332Z" fill="#333333"/>
<path d="M241.749 86.2344C242.421 86.3508 242.19 86.2267 242.651 86.6715C242.507 87.9321 240.204 89.7516 239.176 90.7119C238.742 90.5738 238.688 90.4992 238.364 90.174C238.536 88.7917 240.627 87.2505 241.749 86.2344Z" fill="#333333"/>
<path d="M181.291 89.9492C183.271 91.1897 179.385 93.8044 178.293 94.7706C177.659 94.2471 177.731 94.4711 177.647 93.7955C178.181 92.7279 180.32 90.8601 181.291 89.9492Z" fill="#333333"/>
<path d="M236.124 91.7754C236.49 91.8857 236.609 92.053 236.882 92.3194C236.775 93.7092 234.594 95.3668 233.476 96.412C232.793 96.0467 232.884 96.2317 232.662 95.6348C232.966 94.5711 235.219 92.6287 236.124 91.7754Z" fill="#333333"/>
<path d="M204.309 67.0938C204.554 67.233 204.752 67.4915 204.943 67.7075C204.759 69.1211 202.622 70.7343 201.484 71.778L200.826 71.2459L200.777 70.7084C201.391 69.5832 203.271 68.042 204.309 67.0938Z" fill="#333333"/>
<path d="M192.75 78.5352C195.041 79.2678 190.569 82.5805 189.817 83.2481C189.241 82.7162 189.279 82.9136 189.183 82.2653C189.841 81.0355 191.649 79.5468 192.75 78.5352Z" fill="#333333"/>
<path d="M215.763 55.6328C217.951 56.3233 213.643 59.7045 212.917 60.3935L212.287 59.9228L212.217 59.4012C212.84 58.2179 214.713 56.6228 215.763 55.6328Z" fill="#333333"/>
<path d="M209.884 61.4854C210.311 61.5318 210.384 61.6367 210.701 61.936C210.617 63.26 208.261 65.1021 207.181 66.1157C206.488 65.6883 206.621 65.9127 206.432 65.2367C206.898 64.181 208.947 62.3851 209.884 61.4854Z" fill="#333333"/>
<path d="M230.586 97.3936C231.144 97.8503 231.006 97.6254 231.246 98.2986C230.908 99.4118 228.806 101.175 227.871 102.037C227.434 101.933 227.383 101.858 227.068 101.53C227.215 100.187 229.494 98.4113 230.586 97.3936Z" fill="#333333"/>
<path d="M224.756 103.254C225.409 103.441 225.234 103.289 225.57 103.804C225.51 104.892 222.923 107.005 222.041 107.811C221.479 107.302 221.521 107.491 221.383 106.853C221.954 105.633 223.692 104.228 224.756 103.254Z" fill="#333333"/>
<path d="M219.283 108.824C219.5 108.904 219.734 109.152 219.913 109.319C219.762 110.708 217.548 112.418 216.433 113.459C216.132 113.286 215.973 113.085 215.738 112.835C215.971 111.409 218.115 109.855 219.283 108.824Z" fill="#333333"/>
<path d="M213.587 114.422C215.798 115.183 211.671 118.281 210.862 119.034C209.887 118.452 210.031 117.95 210.743 117.165C211.613 116.205 212.632 115.306 213.587 114.422Z" fill="#333333"/>
<path d="M186.23 113.223C187.879 113.508 190.377 115.864 190.256 117.668C188.847 117.532 187.095 115.441 186.286 114.31C186.127 114.087 186.218 113.532 186.23 113.223Z" fill="#333333"/>
<path d="M208.018 120.032C208.62 120.477 208.492 120.251 208.662 120.921C208.259 121.953 206.143 123.769 205.23 124.618C205.004 124.489 204.738 124.218 204.54 124.034C204.759 122.597 206.854 121.069 208.018 120.032Z" fill="#333333"/>
<path d="M245.546 79.585C248.255 80.059 245.931 83.6459 245.038 84.8246L244.464 84.6289C243.89 83.9004 245.427 81.1707 245.546 79.585Z" fill="#333333"/>
<path d="M245.276 71.4844C246.774 72.2437 246.753 76.1231 246.221 77.355L245.511 77.1024C244.774 76.2295 244.704 72.5056 245.276 71.4844Z" fill="#333333"/>
<path d="M197.982 124.331C199.548 124.996 202.177 125.403 202.711 125.951L202.655 126.811C201.013 127.006 198.339 126.67 197.688 124.929L197.982 124.331Z" fill="#333333"/>
<path d="M191.833 118.829C192.82 118.905 193.396 119.351 194.07 120.056C195.108 121.146 196.037 121.73 195.829 123.264C194.635 123.117 192.668 120.795 191.935 119.796C191.77 119.572 191.833 119.131 191.833 118.829Z" fill="#333333"/>
<path d="M180.458 107.962C182.198 107.738 184.555 110.423 184.58 112.096C183.201 111.928 180.565 109.386 180.458 107.962Z" fill="#333333"/>
<path d="M218.061 53.8837C219.123 53.7888 222.3 53.5737 223.168 54.2147C223.553 54.4996 223.473 54.7571 223.536 55.2658C222.267 55.2873 219.54 55.4886 218.444 54.8852C218.089 54.6908 218.136 54.3323 218.061 53.8837Z" fill="#333333"/>
<path d="M244.9 63.6064C246.396 64.2664 246.225 68.4546 245.567 69.4395C245.36 69.3075 245.078 69.0644 244.877 68.9044C244.518 67.7112 244.112 64.5586 244.9 63.6064Z" fill="#333333"/>
<path d="M174.78 102.502C176.396 102.461 178.769 105.073 178.979 106.742C177.516 106.661 174.878 104.003 174.78 102.502Z" fill="#333333"/>
<path d="M225.974 54.3468C227.119 54.2695 230.22 54.1685 231.195 54.7932C231.486 54.9812 231.463 55.3344 231.545 55.7466C230.229 55.7622 227.523 55.9535 226.38 55.3304C226.037 55.1436 226.063 54.7825 225.974 54.3468Z" fill="#333333"/>
<path d="M175.517 95.748L175.981 96.0189C176.62 97.2176 174.733 98.3373 174.248 100.702L173.721 100.48C172.526 98.9566 174.435 96.8311 175.517 95.748Z" fill="#333333"/>
<path fill-rule="evenodd" clip-rule="evenodd" d="M250.544 41.1084C259.262 40.0013 265.25 47.5612 260.199 55.1826C258.062 58.4095 254.841 59.9079 251.596 61.7432C251.696 67.8657 252.018 73.9308 252.212 80.0401C252.336 83.9991 251.554 85.0909 248.804 87.8223C239.291 97.2697 229.791 106.743 220.313 116.225L211.152 125.377C207.956 128.554 205.583 131.795 200.652 131.695C195.445 131.59 191.637 126.481 188.168 123.064C182.509 117.155 176.325 111.611 170.682 105.668C168.018 102.865 166.912 98.5197 169.365 95.2354C170.77 93.3544 173.425 90.9766 175.128 89.2744L186.216 78.2178L203.672 60.7774C206.84 57.6068 209.931 54.2476 213.277 51.2735C214.179 50.4706 214.987 49.7544 216.167 49.4131C220.177 48.2559 233.71 49.7393 238.539 50.0225C238.992 49.0911 239.519 48.1975 240.116 47.3506C242.673 43.7156 246.254 41.8722 250.544 41.1084ZM218.302 51.0938C217.131 51.4513 216.151 51.8131 215.213 52.6192C211.657 55.6702 171.659 95.6636 170.894 97.1055C170.283 98.262 170.161 100.045 170.551 101.276C170.836 102.175 171.356 102.961 171.967 103.669C174.735 106.865 195.739 127.829 197.656 128.775C199.292 129.584 200.995 129.74 202.726 129.147C206.372 127.896 217.378 115.941 220.77 112.501L240.498 92.7852C243.377 89.9251 246.781 86.9764 249.273 83.794C250.01 82.854 249.97 81.1553 249.998 80.0186C249.795 72.7252 249.377 65.4254 249.111 58.1348C249.065 56.8052 248.936 54.6574 247.894 53.753C246.149 52.2414 241.964 52.5352 239.69 52.4795C239.256 55.0393 239.449 56.0174 238.803 58.7598C240.244 60.2141 241.758 62.4089 241.494 64.4307C239.868 76.8966 221.225 70.1695 228.979 59.4854C230.836 56.9284 236.031 57.8436 237.076 56.9698L237.021 56.6065C235.472 55.7353 234.513 56.4627 233.897 55.3867C234.669 54.4274 236.399 55.0857 237.113 54.6416C237.302 54.5239 237.552 52.747 237.624 52.2901L224.738 51.4385C223.15 51.3389 219.746 51.0383 218.302 51.0938ZM236.425 60.0313C235.781 59.4665 234.234 59.449 233.413 59.502L233.346 59.5069C231.771 60.1101 230.495 60.8171 229.76 62.4649C229.282 63.5564 229.278 64.7975 229.751 65.8916C230.295 67.1571 231.321 68.1547 232.6 68.6651C233.118 68.8694 233.715 69.024 234.256 69.1563C236.29 68.6676 237.426 68.3617 238.684 66.5391C238.936 65.822 239.248 65.0039 239.465 64.2852C239.117 63.2947 238.816 62.3432 238.319 61.417C237.564 62.7974 236.982 63.9849 235.525 64.7061C234.701 64.7457 234.33 64.6314 233.964 63.8233C234.162 61.7666 236.728 61.7532 236.425 60.0313ZM255.391 56.9951C262.917 51.1133 260.502 42.4435 250.308 43.4356C245.672 44.4717 243.608 46.1167 241.123 50.0283L241.019 50.1953C248.962 50.7092 251.211 50.3356 251.358 59.1397C252.186 59.0023 254.676 57.5538 255.391 56.9951Z" fill="#333333"/>
<path d="M2 55.9985C40.5 55.4957 87.0497 47.2504 118.5 55.9978C140.631 62.3915 160.455 82.4241 174.325 80.6014C177.883 80.0676 185.1 79.1 185.5 79.5" stroke="#333333" stroke-width="2.6" stroke-miterlimit="1.88708"/>
<path d="M428 130.499L410.5 131.719C410.5 131.719 325.45 140.467 294 131.72C271.869 125.326 271.87 106.395 258 108.218C254.5 107.478 243.5 110.498 247.5 100.498C251.5 90.498 260.5 75.998 251.5 78.998" stroke="#333333" stroke-width="2.6" stroke-miterlimit="1.88708"/>
</svg>
