<svg width="357" height="64" viewBox="0 0 357 64" fill="none" xmlns="http://www.w3.org/2000/svg">
<mask id="mask0_2223_3466" style="mask-type:alpha" maskUnits="userSpaceOnUse" x="0" y="0" width="361" height="64">
<path d="M0 7H179.5V0H361V64H0V7Z" fill="#D9D9D9"/>
</mask>
<g mask="url(#mask0_2223_3466)">
<path fill-rule="evenodd" clip-rule="evenodd" d="M636.224 -4.99735C664.776 -3.86184 696.259 2.1274 722.638 12.8201C745.143 21.9418 779.26 40.5908 779.529 66.4083C779.576 70.8552 777.318 75.8888 773.817 78.8446C773.585 79.0388 773.343 79.2229 773.094 79.3974C771.946 80.1655 769.742 81.9467 768.287 81.4758C768.212 80.1651 770.68 77.4276 771.675 75.8828C781.812 57.4902 752.005 37.4842 736.405 30.4727C682.371 6.18573 616.518 2.96259 560.159 18.1352C554.177 19.7459 528.775 28.9881 526.03 33.5016C527.148 35.075 534.024 40.2698 536.091 42.2689C549.89 55.6217 560.375 72.676 555.967 91.4857C552.411 106.65 537.78 114.451 521.514 111.054C509.741 108.596 500.411 101.654 493.85 92.3078C485.668 80.4765 484.212 67.3372 487.528 54.1303C488.86 48.8265 490.939 44.4129 493.898 39.7643C494.922 38.1511 497.172 35.5372 497.649 34.0021C496.702 32.9217 491.436 30.8902 489.895 30.2145C444.606 10.3533 391.106 8.77973 343.663 18.5788C273.692 33.0299 208.255 64.588 133.982 47.2408C106.54 40.8284 79.4741 25.8266 58.4998 6.99904C60.9998 6.99905 70.2877 1.73347 71.9822 -0.577047C72.906 -0.366402 74.7188 1.6443 75.4221 2.35938C78.4348 5.47948 81.7287 8.35701 85.2653 10.959C107.485 27.3728 135.742 35.2334 163.347 37.1842C206.06 40.2027 247.539 28.5947 287.334 16.6741C354.712 -3.50868 428.575 -12.5933 495.996 16.9688C500.487 18.9379 505.563 20.9899 509.619 23.7257C512.638 21.1013 520.986 16.2437 524.768 14.3454C557.68 -1.96824 599.01 -6.47743 636.224 -4.99735ZM514.038 43.8298C501.907 57.172 500.292 79.1996 516.096 91.6563C520.473 95.1057 523.87 96.3873 529.558 96.1029C532.662 95.0791 534.588 93.9308 535.996 91.0385C544.28 74.0334 528.021 54.2105 514.038 43.8298Z" fill="#4E9C5A"/>
</g>
</svg>
