<svg xmlns="http://www.w3.org/2000/svg" width="36" height="38" viewBox="0 0 36 38" fill="none">
<path d="M35.2002 7.85067C34.422 6.46328 33.1347 5.44711 31.6205 5.02644L13.9297 0.209512C12.4058 -0.209505 10.7797 0.00495057 9.40961 0.808354C8.04129 1.61008 7.04263 2.93311 6.63408 4.48545L6.03747 6.76198L5.8948 7.28329C4.32709 7.29814 2.82907 7.94316 1.72496 9.07648C0.620889 10.2082 0.00161863 11.7391 0 13.3343V31.9423C0.00162112 33.5491 0.629024 35.0882 1.74604 36.2233C2.86145 37.3599 4.37403 37.9984 5.95323 38H24.2404C25.7514 37.9984 27.2056 37.4111 28.3081 36.3586C29.4105 35.3061 30.0768 33.866 30.1741 32.3317C30.5778 31.7494 30.8761 31.0994 31.0561 30.4115L35.7966 12.4433C36.2067 10.8926 35.9913 9.23971 35.2002 7.85067ZM5.95321 8.6029H24.2404C26.81 8.6062 28.8933 10.726 28.8967 13.3409V22.117L25.6542 18.1908C25.0446 17.4303 23.9454 17.3082 23.19 17.9202L18.5727 21.6419L13.4628 16.4423C12.8338 15.8056 11.8416 15.733 11.1283 16.2708C10.3047 16.8976 3.99467 21.7081 1.29073 23.793V13.3407C1.29397 10.7227 3.38051 8.6029 5.95321 8.6029ZM24.2404 36.6869H5.95321C3.38358 36.6836 1.30028 34.5637 1.29696 31.9489V29.2368H23.9943C24.3526 29.2368 24.6428 28.9415 24.6428 28.577C24.6428 28.2124 24.3526 27.9171 23.9943 27.9171H1.29696V25.4492C3.24243 23.9381 11.0245 18.0257 11.9127 17.3264C12.1072 17.168 12.3893 17.1878 12.5612 17.3726L17.5544 22.4534L14.4417 24.9411C14.2277 25.116 14.145 25.4096 14.2358 25.6736C14.325 25.9375 14.5698 26.1141 14.8437 26.1157C14.9896 26.1174 15.1307 26.0679 15.2458 25.9771L24.0067 18.9629C24.2142 18.793 24.519 18.826 24.6876 19.0355L28.8965 24.1827V31.9495C28.8932 34.5642 26.81 36.684 24.2402 36.6874L24.2404 36.6869ZM34.5448 12.1068L30.1936 28.6033V13.3404C30.192 11.7336 29.5646 10.1945 28.4476 9.05942C27.3322 7.9228 25.8196 7.28439 24.2404 7.28274H7.24355L7.28895 7.10457L7.88556 4.82804C8.20656 3.61389 8.98797 2.57955 10.058 1.95267C11.128 1.32414 12.399 1.15589 13.5923 1.4825L31.2507 6.30619C32.4455 6.62458 33.4653 7.41806 34.0781 8.51017C34.6974 9.59894 34.8644 10.8923 34.545 12.1064L34.5448 12.1068ZM21.4323 16.8579C22.3142 16.8744 23.1184 16.3465 23.4669 15.5216C23.8155 14.6968 23.6388 13.74 23.0211 13.0983C22.4034 12.4582 21.4663 12.2619 20.6492 12.6017C19.8322 12.9416 19.2988 13.7499 19.2988 14.6473C19.2988 15.8532 20.2472 16.8364 21.4323 16.8579ZM21.4323 13.7631C21.7906 13.7466 22.1213 13.9545 22.2688 14.2861C22.4164 14.6177 22.3499 15.0086 22.1018 15.2709C21.8538 15.5332 21.4728 15.6157 21.1405 15.4788C20.8097 15.3402 20.5941 15.0119 20.5957 14.6473C20.5957 14.1722 20.9654 13.7813 21.4323 13.7631Z" fill="white"/>
</svg>