<svg width="1332" height="1019" viewBox="0 0 1332 1019" fill="none" xmlns="http://www.w3.org/2000/svg">
<g filter="url(#filter0_d_901_15888)">
<path d="M1025.97 802.828C1019.5 804.949 1001.37 807.127 994.395 807.52C936.328 810.788 876.579 786.14 833.954 747.181C765.978 685.051 738.96 608.56 733.897 518.941C689.656 519.995 645.716 526.501 603.071 538.31C438.005 583.659 304.593 687.297 201.441 821.816C176.296 854.125 153.372 888.102 132.821 923.513C117.446 900.123 100.183 862.17 91.2 835.369L95.5557 827.196C176.067 679.876 301.44 562.073 453.468 490.898C484.761 476.021 517.086 463.429 550.199 453.218C606.887 434.335 684.188 421.848 743.829 422.5C757.473 348.57 804.11 269.321 857.906 217.387C938.251 139.811 1040.32 98.5642 1150.83 89.0044C1180.57 86.4351 1201.17 87.2609 1230.48 87.5987C1236.16 108.285 1240.4 147.331 1240.43 167.996C1070.65 171.01 888.5 254.294 842.783 431.625C847.236 432.332 851.678 433.25 856.095 434.22C968.179 459.165 1080.09 527.427 1109.9 645.227C1128.19 717.505 1102.53 783.941 1025.97 802.828ZM978.722 711.902C985.655 712.321 995.625 711.222 1002.5 709.27C1007.65 707.525 1011.75 706.256 1014.21 700.764C1019.63 688.666 1013.32 663.193 1008.93 651.338C991.503 604.261 949.034 570.02 904.567 549.677C883.607 540.087 865.781 535.09 843.811 529.276L832.584 526.719C834.93 552.365 838.908 574.602 848.174 599.001C869.174 654.293 916.057 708.113 978.722 711.902Z" fill="white" fill-opacity="0.64" style="mix-blend-mode:screen" shape-rendering="crispEdges"/>
</g>
<defs>
<filter id="filter0_d_901_15888" x="1.52588e-05" y="1.52588e-05" width="1331.63" height="1018.71" filterUnits="userSpaceOnUse" color-interpolation-filters="sRGB">
<feFlood flood-opacity="0" result="BackgroundImageFix"/>
<feColorMatrix in="SourceAlpha" type="matrix" values="0 0 0 0 0 0 0 0 0 0 0 0 0 0 0 0 0 0 127 0" result="hardAlpha"/>
<feOffset dy="4"/>
<feGaussianBlur stdDeviation="45.6"/>
<feComposite in2="hardAlpha" operator="out"/>
<feColorMatrix type="matrix" values="0 0 0 0 0 0 0 0 0 0 0 0 0 0 0 0 0 0 0.03 0"/>
<feBlend mode="normal" in2="BackgroundImageFix" result="effect1_dropShadow_901_15888"/>
<feBlend mode="normal" in="SourceGraphic" in2="effect1_dropShadow_901_15888" result="shape"/>
</filter>
</defs>
</svg>
