<svg width="124" height="137" viewBox="0 0 124 137" fill="none" xmlns="http://www.w3.org/2000/svg">
<path fill-rule="evenodd" clip-rule="evenodd" d="M61.2625 0.0334264C62.0255 -0.0571483 62.7992 0.0370095 63.5184 0.30784C65.2605 0.958099 67.6515 2.55899 69.3983 3.42015C72.0664 4.73532 74.766 6.01171 77.491 7.20237C86.8632 11.2756 96.6833 14.2306 106.748 16.0071C110.16 16.6276 113.639 16.9365 117.068 17.3254C118.838 17.664 122.814 16.6718 123.141 19.301C123.407 21.4298 123.293 23.7279 123.289 25.842L123.287 37.8889V55.7805C123.29 60.5196 123.378 65.0172 122.97 69.7483C122.069 79.7441 118.789 89.3789 113.405 97.8498C103.733 113.025 90.0066 123.658 74.1502 131.806C70.7977 133.528 65.668 136.096 62.0447 136.898C59.7646 137.039 50.5755 132.51 48.1688 131.272C28.1637 120.917 9.8675 104.715 2.9627 82.6526C0.267848 74.0411 0.017597 68.2079 0.0125094 59.3694L0.00957976 46.4035V29.677C0.00283344 26.5201 -0.00857464 23.3637 0.0105563 20.2043C-0.0167616 19.0662 0.452564 17.6022 1.83185 17.5246C3.73276 17.4177 5.57788 17.3594 7.49493 17.1731C12.8998 16.6476 18.208 15.8746 23.5008 14.6428C31.7141 12.7442 39.7187 10.0331 47.3953 6.55003C49.2932 5.7089 51.1687 4.81667 53.0184 3.87425C55.3062 2.68918 58.8711 0.544233 61.2625 0.0334264ZM62.16 3.89085C61.9689 3.78906 61.6772 3.72081 61.4647 3.77073C59.5073 4.66981 57.6261 5.71983 55.7108 6.69456C41.6033 13.8744 26.4144 18.8248 10.6385 20.4895C8.30361 20.736 6.03742 21.0001 3.68341 21.0647C3.57901 24.5528 3.63198 28.2284 3.63165 31.7366L3.62677 49.0325L3.62286 60.1008C3.62175 63.7532 3.51338 67.3467 3.98517 70.9826C7.64257 99.1676 30.5532 119.436 55.1854 130.588C56.2408 131.065 60.9086 133.242 61.8279 133.155C65.322 131.933 68.1618 130.592 71.4949 128.971C88.765 120.571 105.035 107.382 113.675 89.9084C116.103 84.9973 118.125 78.924 118.941 73.5344C119.94 66.9482 119.554 59.4613 119.553 52.7102L119.565 21.0578C99.4583 20.2252 79.7722 13.2757 62.16 3.89085Z" fill="#4E9C5A"/>
<path fill-rule="evenodd" clip-rule="evenodd" d="M59.8442 27.7094C61.0324 27.5653 62.6005 27.6472 63.7778 27.7348C75.971 28.641 86.3849 36.5987 90.1763 48.3773C92.7941 56.7512 91.6034 65.8521 86.9175 73.2699C85.9498 74.8332 84.7095 76.4815 83.6577 78.0316C81.5165 81.1581 79.7658 84.6063 78.5835 88.2084C77.8071 90.4654 77.7857 92.6063 77.7349 94.9496C77.6829 97.3671 78.1136 100.372 76.9888 102.579C76.2323 104.066 74.9469 104.869 73.4097 105.355C73.2493 107.256 72.8277 108.776 71.4243 110.158C69.184 112.364 66.3729 112.058 63.4849 112.026C57.3504 111.989 50.7373 113.493 49.8882 105.369C43.4743 103.722 46.3385 96.4982 45.4653 91.5316C44.5916 86.563 42.6243 82.1187 39.647 78.057C35.6674 72.6287 32.6165 67.3728 31.9409 60.5668C31.077 52.5831 33.4826 44.5892 38.6089 38.4076C44.0828 31.7491 51.4057 28.5393 59.8442 27.7094ZM65.4409 105.275C61.5698 105.248 57.6982 105.268 53.8276 105.339L53.4155 105.407C52.995 106.383 54.286 107.782 55.0513 108.284C55.921 108.349 57.786 108.457 58.6274 108.385C60.997 108.179 66.8427 108.9 68.7095 107.874C69.2883 107.319 69.8751 106.441 69.9077 105.629L69.7788 105.392C69.1721 105.236 66.2379 105.279 65.4409 105.275ZM59.6909 98.2133C57.1552 98.21 53.6401 98.1152 51.1636 98.269L48.9419 98.3725C48.9619 99.3909 48.9273 100.053 49.2895 101.012C50.7992 102.279 51.2716 101.971 53.1636 101.932C59.6137 101.8 66.0721 101.932 72.5249 101.846C74.4393 101.415 74.5943 100.014 74.4683 98.3246C69.5429 98.2328 64.6168 98.1956 59.6909 98.2133ZM65.7085 69.5824C63.926 69.5687 62.1436 69.5849 60.3618 69.6313L58.352 69.6674C58.8769 77.8693 59.3364 86.6582 59.2642 94.8627C60.806 94.8716 62.3742 94.8949 63.9136 94.8871L64.1304 94.7914C64.2293 93.8968 64.1669 92.9698 64.1977 92.0697C64.4508 84.7029 64.7234 76.8603 65.7085 69.5824ZM61.8559 31.1723C61.3162 31.1644 60.5326 31.1734 60.02 31.2504C45.1482 32.7056 33.8844 44.6033 35.3784 59.8539C35.6891 62.9506 36.5541 65.9661 37.9311 68.7572C38.7351 70.3597 39.816 71.9592 40.8149 73.4506C43.6373 77.664 46.4111 81.6387 47.8813 86.5688C48.6733 89.2239 48.9505 92.1016 49.0308 94.8695C51.3076 94.9005 53.9012 94.7722 56.0903 94.8529C56.0401 86.0977 55.9253 77.5616 54.8188 68.8666C52.604 69.0846 50.7523 69.1773 48.8774 67.6664C47.847 66.8446 47.1968 65.6372 47.0786 64.3246C46.8224 61.6609 48.6571 59.2208 51.4106 59.0922C55.9004 58.8828 56.9384 62.5835 57.5268 66.2182C59.6419 66.3852 61.0543 66.3706 63.1802 66.2826C64.2977 66.2559 65.415 66.2082 66.5308 66.1391C66.7689 63.9775 67.0372 61.6103 68.8657 60.1605C69.8795 59.3569 71.2539 58.9354 72.5434 59.1107C73.7543 59.2835 74.8436 59.9423 75.5591 60.935C76.3708 62.0447 76.6985 63.4356 76.4663 64.7904C76.2606 66.0394 75.5516 67.15 74.5054 67.8627C72.8431 69.0097 71.0546 68.9512 69.1518 68.7807C67.8726 76.8142 67.2954 86.6382 67.3315 94.8227L74.4097 94.8031C74.5214 85.1459 78.1596 79.8546 83.3843 72.1703C87.618 65.9419 89.2921 58.4334 87.3345 51.0395C86.1865 46.5417 83.8708 42.4267 80.6216 39.1107C75.6579 34.0945 68.913 31.2415 61.8559 31.1723ZM51.6841 62.2689C49.0912 63.3794 50.1394 65.4186 52.2593 65.5307C52.7433 65.4876 53.1612 65.5078 53.5493 65.2426C54.3978 64.0951 52.7329 62.4587 51.6841 62.2689ZM71.7788 62.4076C70.9017 62.6291 69.827 63.6281 69.9927 64.6498C70.1266 65.4738 71.1893 65.3918 71.855 65.391C72.4089 65.2424 72.8526 65.0596 73.1655 64.5346C73.3524 64.2267 73.404 63.8556 73.3101 63.5082C73.1198 62.7985 72.439 62.5025 71.7788 62.4076Z" fill="#4E9C5A"/>
</svg>
