<svg width="69" height="78" viewBox="0 0 69 78" fill="none" xmlns="http://www.w3.org/2000/svg">
<path fill-rule="evenodd" clip-rule="evenodd" d="M51.4113 12.8146C55.2419 12.3471 58.7457 15.0286 59.296 18.8508C59.8486 22.6733 57.2435 26.2361 53.4347 26.8693C50.8955 27.2916 48.3288 26.3061 46.7228 24.2951C45.117 22.2839 44.724 19.5614 45.6964 17.1789C46.6714 14.7963 48.8573 13.1263 51.4113 12.8146ZM56.588 19.3127C56.2786 16.9644 54.154 15.2904 51.799 15.5402C50.2226 15.7076 48.8602 16.7176 48.2413 18.1779C47.6225 19.6384 47.8431 21.3202 48.8205 22.5705C49.7954 23.8207 51.3749 24.4433 52.9415 24.1965C55.2791 23.8277 56.8973 21.6607 56.588 19.3127Z" fill="#3C3C3C"/>
<path fill-rule="evenodd" clip-rule="evenodd" d="M66.1648 0.0509725C66.8866 -0.0580361 66.9483 0.00446501 67.658 0.270699C68.8267 1.29501 68.8367 3.0837 68.9226 4.58515C69.8066 20.207 63.0189 30.8482 53.238 41.9992C53.7562 44.094 54.0458 46.2393 54.1023 48.3967C54.2864 57.0025 49.8292 63.9899 43.3191 69.1906C41.7524 70.4419 39.2298 72.849 37.2039 72.8937C36.7325 72.6887 36.1971 72.4054 36.2683 71.8215C36.9534 66.1391 37.7713 62.6418 35.1218 57.0353C26.6327 62.5356 29.267 62.053 22.1921 55.5871C14.2676 48.2901 11.4635 52.4234 17.6004 41.0695C13.6148 39.9591 9.68331 40.5387 5.74195 41.4436C4.84562 41.6494 2.69894 42.06 1.86891 41.9797C1.29427 41.0171 1.45686 40.4456 1.94801 39.4289C7.98415 26.9361 16.7531 20.587 30.947 21.2043C40.6226 10.4415 51.2635 1.68737 66.1648 0.0509725ZM50.822 44.1643C46.5786 48.2899 42.1014 51.8418 37.3963 55.4123C39.5768 60.2353 39.7 62.5358 39.5183 67.7883L39.4685 68.4221L39.7732 68.51C45.4877 64.1669 50.3841 59.1318 51.3025 51.6398C51.4596 50.3521 51.5537 45.0908 50.822 44.1643ZM65.8865 3.00996C65.2999 2.78808 65.1497 2.86404 64.5408 2.97578C49.7943 5.25927 37.1501 16.8098 28.7712 28.4797C24.6604 34.2043 19.8225 41.6199 16.9763 48.1389C19.2944 49.7754 21.6443 51.383 23.7488 53.2912C25.3548 54.88 27.0302 56.4977 28.5994 58.1154C44.0114 47.9635 61.5947 33.9971 65.5877 14.9514C66.123 12.3958 66.8712 5.26034 65.8865 3.00996ZM29.0388 23.7971C28.3021 23.815 26.7913 23.8035 26.1209 23.8732C15.5566 25.004 10.4317 29.9047 5.34352 38.6945L8.80348 38.051C12.4355 37.7174 15.2941 37.731 18.9089 38.5676C22.2143 33.1991 25.0385 28.7787 29.0388 23.7971Z" fill="#3C3C3C"/>
<path d="M13.7694 55.7716C14.9998 55.6502 17.9319 55.3761 17.534 57.3353C16.3799 58.6374 16.4265 58.4011 14.7886 58.516C6.73874 59.0807 3.25897 68.2703 2.86115 75.1067C8.66155 73.7459 14.7468 71.2262 17.9663 65.8727C18.9142 64.2982 18.8823 61.0613 20.724 60.3384C21.8046 60.6044 21.9666 60.9124 22.0796 61.907C21.0359 68.4307 16.2031 72.9577 10.3904 75.57C8.54859 76.398 2.82677 78.5208 0.935873 77.8069C-1.82926 75.3143 2.24968 65.0852 3.94167 62.6308C6.66014 58.6862 9.17235 56.7996 13.7694 55.7716Z" fill="#3C3C3C"/>
</svg>
