<svg width="61" height="80" viewBox="0 0 61 80" fill="none" xmlns="http://www.w3.org/2000/svg">
<path d="M28.7482 60.1144C34.7778 59.5992 41.879 60.2048 47.9926 60.1168C48.506 60.1094 48.5466 60.367 48.8386 60.7563C48.9689 61.5154 48.8414 61.678 48.566 62.4362C46.8393 62.6316 42.9428 62.4594 41.0468 62.4928C37.4493 62.5563 33.6635 62.5198 30.0534 62.4915C29.1886 62.4847 29.0422 62.3415 28.5483 61.807C28.3579 61.0586 28.4834 60.8554 28.7482 60.1144Z" fill="#3C3C3C"/>
<path d="M29.0893 26.5551C34.7838 26.3907 40.5729 26.5516 46.2779 26.4907C47.4299 26.4783 48.321 26.3678 48.9228 27.4179C48.9285 28.194 48.7842 28.3222 48.3173 28.9606C43.6292 28.9317 33.8972 29.2948 28.9197 28.708C28.61 28.6713 28.4901 28.1574 28.4059 27.889C28.4901 27.1572 28.5678 27.0858 29.0893 26.5551Z" fill="#3C3C3C"/>
<path d="M28.9661 32.6482C30.8249 32.5777 32.7882 32.617 34.6574 32.6194C38.9821 32.6246 43.3236 32.4963 47.645 32.6214C48.3271 32.6412 48.5081 32.9381 48.8817 33.3968C48.9904 34.1668 48.8376 34.343 48.4614 35.0419C42.6642 35.0329 35.1775 35.1741 29.2462 34.9604C28.8448 34.946 28.5955 34.4327 28.4117 34.119C28.4131 33.3818 28.5379 33.297 28.9661 32.6482Z" fill="#3C3C3C"/>
<path d="M28.8377 66.2163C30.6401 66.1117 32.6947 66.1737 34.5196 66.1779C38.9438 66.1879 43.3982 66.046 47.8148 66.2287C48.4178 66.2536 48.5676 66.5697 48.8498 66.9835C48.9105 67.7484 48.7898 67.8685 48.4475 68.5953C42.6513 68.6128 35.201 68.7365 29.3404 68.4909C28.8316 68.4695 28.6166 68.1122 28.3835 67.769C28.308 67.0692 28.4939 66.8769 28.8377 66.2163Z" fill="#3C3C3C"/>
<path d="M28.9496 42.8787C34.6742 42.8558 42.1356 42.7176 47.9925 42.916C48.4288 42.9307 48.6613 43.4147 48.856 43.7424C48.8593 44.5165 48.7772 44.6135 48.3444 45.266L35.1572 45.2911C33.3773 45.295 31.1429 45.3601 29.3577 45.1881C28.8289 45.1372 28.6401 44.7497 28.3925 44.3803C28.3845 43.6371 28.5228 43.5376 28.9496 42.8787Z" fill="#3C3C3C"/>
<path d="M29.132 49.023C34.7257 49.0001 42.1628 48.8763 47.906 49.0335C48.388 49.0466 48.6396 49.5101 48.8657 49.8548C48.8939 50.639 48.7985 50.7395 48.3421 51.3914C42.9479 51.4029 34.8025 51.5752 29.2064 51.2551C28.7873 51.2313 28.5533 50.7344 28.4215 50.3757C28.4931 49.6426 28.6094 49.5599 29.132 49.023Z" fill="#3C3C3C"/>
<path d="M20.6287 24.668L21.6198 24.8775C22.2209 25.4821 22.0732 25.1784 22.1812 26.0169C21.6768 27.6441 16.0713 33.4075 14.6007 33.3955C13.7156 33.0263 13.0172 32.1491 12.3412 31.4299C11.4229 30.589 10.5824 29.8707 11.0333 28.5577L11.5635 28.3512C13.3893 28.4936 13.6108 29.0476 14.8866 30.4156C16.7514 28.4326 18.682 26.5678 20.6287 24.668Z" fill="#3C3C3C"/>
<path d="M20.6295 41.2734C21.4415 41.3702 21.6538 41.4944 22.0945 42.0415C22.2606 44.1046 16.1666 49.8931 14.5713 50.0917C13.7487 49.8029 13.2738 49.1574 12.655 48.5057C11.6859 47.6093 10.6819 46.9006 11.3004 45.4922C12.8368 44.5748 13.8856 46.0147 14.8649 47.0392C16.8088 45.1691 18.6741 43.1663 20.6295 41.2734Z" fill="#3C3C3C"/>
<path d="M20.63 58.7422C21.5701 58.8365 21.758 58.9529 22.1607 59.727C22.0544 61.4932 16.3018 67.2278 14.6495 67.4725C13.807 67.2917 13.2513 66.5006 12.6585 65.8415C11.6549 64.9053 10.719 64.2414 11.2219 62.7599C12.9039 61.9811 13.8025 63.3162 14.8447 64.4545L20.63 58.7422Z" fill="#3C3C3C"/>
<path fill-rule="evenodd" clip-rule="evenodd" d="M27.6468 0.113183C32.0571 -0.0300338 35.3502 -0.745435 36.5618 4.48525C41.0568 4.55533 47.1389 2.93208 48.0091 8.83584C53.2808 8.91267 60.3608 7.15804 60.3616 14.621C60.3629 28.1403 60.3714 41.6612 60.3694 55.1806L60.3792 68.0312C60.3801 71.9714 61.4665 78.3785 56.1068 78.8319C53.4229 79.059 50.8263 79.0078 48.1361 79.0067L33.7659 78.9853C25.3787 78.8857 16.9507 79.1284 8.5589 79.0077C6.3398 78.9758 3.43606 79.1622 1.54523 77.789C0.545647 77.0628 0.0367181 74.7178 0.026678 73.536C-0.0110809 69.1081 0.0487159 64.6326 0.0657405 60.206L0.0598811 36.7489L0.0413264 21.8993C-0.0405281 8.75609 -0.942547 8.74957 12.429 8.82314C13.4908 3.02693 19.1539 4.43418 23.7894 4.46475C24.3741 1.95422 25.1475 0.934038 27.6468 0.113183ZM57.2611 12.372C55.5456 10.9425 50.3907 11.5559 47.9124 11.5468L47.8734 14.6142C47.3054 15.6049 46.3241 17.2552 45.0706 17.3251C35.9826 17.8307 26.6989 17.4765 17.5902 17.5058C13.0072 17.5206 12.4739 15.6133 12.556 11.536C9.82164 11.4762 7.08664 11.4613 4.35187 11.4901C3.64513 11.9429 3.31995 12.0918 2.86945 12.8251C2.56484 14.277 2.66444 18.3903 2.66926 20.0429L2.70539 32.8358C2.73289 46.352 2.6756 59.8685 2.70441 73.3847C2.70681 74.5044 2.66462 75.1287 3.51594 75.9198C6.66853 76.4949 10.4058 76.3262 13.6546 76.327L27.1644 76.3241L45.3616 76.3173C47.8182 76.3208 54.2094 76.6092 56.6712 75.9315C57.9625 75.576 57.7386 72.5675 57.72 71.1884L57.7249 36.0956C57.7251 32.8925 58.0094 14.3041 57.2611 12.372ZM29.6741 2.69131L27.6927 2.73037C26.0699 4.02631 26.4318 5.11935 26.3978 7.08291C24.2184 7.07592 17.2805 6.40351 15.7933 7.80752C14.8342 8.71319 15.1091 10.492 15.139 11.7099C15.1575 12.465 15.0836 13.772 15.6175 14.3446C16.7133 15.5187 30.5646 14.9324 33.1097 14.9335C35.5381 14.9521 42.8533 15.2573 44.6693 14.4862C45.6634 13.3767 45.5371 7.92367 44.6165 7.54482C42.628 6.72812 35.9513 7.09786 33.9525 7.09853C34.0631 3.21727 33.6699 2.63302 29.6741 2.69131Z" fill="#3C3C3C"/>
</svg>
