<svg width="1397" height="2500" viewBox="0 0 1397 2500" fill="none" xmlns="http://www.w3.org/2000/svg">
<path fill-rule="evenodd" clip-rule="evenodd" d="M211.105 2425.67C179.807 2455.16 97.2232 2496.85 53.374 2499.91C35.4808 2468.15 17.3232 2429.95 -7.59488e-06 2397.12C259.551 2343.1 326.46 2016.14 383.964 1803.23C483.379 1435.11 664.147 1099.86 1038.21 939.152C1035.48 903.222 1034.19 869.217 1037.34 832.961C1070.96 444.899 1502.26 46.2217 1876.01 -29.8818C1892.52 3.42112 1914.92 43.7577 1933.12 76.2963C1833.52 98.9516 1749.39 132.918 1660.16 183.342C1554.45 244.059 1458.66 320.717 1376.37 410.468C1254.18 543.532 1156.35 720.4 1162.68 901.858C1314.34 872.826 1508.45 896.534 1583.85 1048.6C1626.29 1134.18 1577.63 1227.05 1491.1 1264.91C1419.78 1296.11 1340.11 1294.67 1269.08 1267.15C1167.26 1228.48 1107.15 1157.17 1064.46 1060.12C1044.71 1067.81 1021.55 1081.03 1002.99 1091.51C932.913 1131.11 874.227 1176.88 817.689 1234C689.909 1363.09 611.091 1514.11 551.769 1682.17C528.534 1748.85 507.705 1816.27 489.31 1884.29C434.061 2081.86 380.947 2289.3 211.105 2425.67ZM1322.2 1156.75C1371.19 1174.74 1424.82 1174.78 1467.52 1139.85C1480.32 1125.47 1475.59 1114.1 1467.25 1099.65C1415.18 1009.39 1289.24 1004.46 1197.13 1018.62L1184.25 1021.44C1211.17 1083.68 1257.44 1132.97 1322.2 1156.75Z" fill="#4E9C5A"/>
</svg>
