<svg width="79" height="77" viewBox="0 0 79 77" fill="none" xmlns="http://www.w3.org/2000/svg">
<path fill-rule="evenodd" clip-rule="evenodd" d="M12.1632 11.6858C14.7495 11.6128 24.6678 11.1253 26.1544 12.4808C26.8376 14.1569 26.3611 17.5764 26.3947 19.555C26.4318 21.7325 27.1014 24.6071 25.4025 26.1663C24.0569 26.2977 12.3533 26.5536 11.9005 25.7024C10.5177 23.1024 11.3663 16.8685 11.2384 13.7854C11.1967 12.7815 11.4374 12.3289 12.1632 11.6858ZM13.4728 13.9212C13.4638 17.2477 13.472 20.5751 13.4972 23.9017C16.9707 23.921 20.6727 23.9985 24.1222 23.8938L24.1437 13.9456L13.4728 13.9212Z" fill="#3C3C3C"/>
<path d="M11.9139 32.4003C19.2553 32.1932 29.9053 32.3002 37.5267 32.4499C37.9588 32.4584 38.1829 32.9297 38.359 33.2541C38.2211 34.1809 38.3513 33.8221 37.7214 34.6388L20.7666 34.6709C18.7423 34.6736 13.4446 34.802 11.7714 34.4876C11.1708 34.0206 11.3324 34.2745 11.1631 33.5358C11.4234 32.6651 11.2212 32.9636 11.9139 32.4003Z" fill="#3C3C3C"/>
<path d="M11.5153 40.875C13.321 40.7649 15.3011 40.7997 17.124 40.8037C21.9475 40.8143 26.7874 40.7255 31.6079 40.8629C32.1916 40.8796 32.3286 41.135 32.6496 41.5184C32.7649 42.1934 32.6027 42.3521 32.2744 43.0049C26.8495 43.3844 17.942 43.0287 12.281 43.003C11.7238 43.0005 11.4988 42.6623 11.2314 42.306C11.147 41.6144 11.2243 41.5426 11.5153 40.875Z" fill="#3C3C3C"/>
<path d="M12.39 62.4269C14.8994 62.4199 29.836 61.9697 30.8712 62.8429C31.2008 63.5241 31.1431 63.2211 31.063 63.9991C30.5571 64.6108 30.8197 64.424 30.0555 64.6934L18.3839 64.718C17.0938 64.722 12.2774 64.9918 11.4052 64.257C11.0919 63.5502 11.1413 63.8625 11.2566 63.0612C11.7686 62.4801 11.5532 62.6644 12.39 62.4269Z" fill="#3C3C3C"/>
<path d="M22.4127 53.6739C24.461 53.6875 29.4802 53.2255 30.9288 54.2734C31.2071 54.9166 31.1758 54.6306 30.9333 55.3954C29.8091 56.3522 22.8029 55.9615 20.827 55.9477C18.7868 55.8972 12.4681 56.4719 11.2401 55.1752C11.1663 54.5196 11.148 54.7709 11.4926 54.1191C12.4986 53.4077 20.4776 53.6731 22.4127 53.6739Z" fill="#3C3C3C"/>
<path d="M30.8852 11.6939C35.0998 11.658 40.0535 11.5798 44.3141 11.6962C44.8478 11.7108 45.0698 12.0788 45.3468 12.4291C45.4081 13.1703 45.2889 13.2514 44.8745 13.9243C40.7147 14.0465 36.3574 13.933 32.177 13.9526C31.26 13.9568 30.7274 13.8548 30.3259 13.011C30.3905 12.3211 30.4637 12.28 30.8852 11.6939Z" fill="#3C3C3C"/>
<path d="M31.0784 19.8713C35.2931 19.8346 39.9231 19.6763 44.1473 19.9528C44.8921 20.0016 45.141 20.2885 45.4518 20.8763C45.2955 21.7249 45.4399 21.4015 44.8394 22.0934C40.6002 22.118 35.9231 22.28 31.6837 21.9822C30.956 21.9311 30.7186 21.6734 30.3838 21.1117C30.5358 20.265 30.3984 20.5888 31.0784 19.8713Z" fill="#3C3C3C"/>
<path fill-rule="evenodd" clip-rule="evenodd" d="M3.13578 0.0850117C18.5683 -0.155178 34.0594 0.224555 49.4883 0.00395697C54.68 -0.0702098 55.4269 0.861585 55.25 5.91607C55.1904 7.62394 55.2435 9.68477 55.2393 11.4356L55.2452 27.7989C59.0086 27.5796 61.89 27.6205 65.5176 29.0176C70.5537 30.9373 74.6068 34.8018 76.7657 39.7413C78.896 44.5783 78.995 50.0689 77.0401 54.9795C74.7396 60.8239 70.8167 64.1113 65.2373 66.5352C61.6323 67.7502 58.9369 67.9189 55.2422 67.5137C55.222 69.7336 55.765 74.9895 53.9063 75.9327C51.8874 76.9562 44.4076 76.4985 41.9239 76.4991L18.6455 76.4835L8.37015 76.5215C6.42885 76.5347 4.31289 76.6205 2.39554 76.4024C1.09821 76.2548 0.0737245 74.6234 0.0625366 73.377C0.0237644 69.022 0.0401408 64.6674 0.0390991 60.3125L0.0351928 33.9649L0.0332397 14.295C0.0330115 11.5407 -0.172978 3.9192 0.443396 1.64263C1.43433 0.49952 1.64819 0.364172 3.13578 0.0850117ZM52.5274 2.80767C38.1587 2.47906 23.6533 2.92969 9.27445 2.74224C7.16593 2.71472 4.96857 2.71233 2.86234 2.77446L2.82133 73.8702L52.5645 73.8956L52.5537 66.9063C50.8891 66.4053 49.2874 65.7142 47.7803 64.8477C43.0581 61.8359 39.7293 57.6027 38.4922 52.0635C37.3176 46.8788 38.2596 41.4393 41.1094 36.9522C43.9436 32.5294 47.6835 30.0178 52.5928 28.4376C52.5276 19.9196 52.6518 11.2924 52.5274 2.80767ZM75.6856 45.6338C74.536 35.9265 65.6957 29.0175 56.001 30.2501C46.4225 31.4681 39.6163 40.1816 40.752 49.7725C41.8877 59.3632 50.5402 66.2452 60.1377 65.1915C69.8523 64.1248 76.8348 55.3414 75.6856 45.6338Z" fill="#3C3C3C"/>
<path d="M67.8954 39.7383C68.6483 40.154 69.2639 40.923 69.8657 41.5688C65.2284 46.1678 59.4002 52.457 54.6954 56.6367C52.9314 55.1442 51.2244 53.3043 49.6107 51.6282L47.4365 49.4028L49.4012 47.3805L54.7994 52.8191C59.1407 48.4349 63.5062 44.0746 67.8954 39.7383Z" fill="#3C3C3C"/>
</svg>
