<svg width="81" height="76" viewBox="0 0 81 76" fill="none" xmlns="http://www.w3.org/2000/svg">
<path fill-rule="evenodd" clip-rule="evenodd" d="M48.5078 19.1717C48.7413 14.3246 50.2854 15.3132 54.5215 15.3933C58.566 15.1946 58.6432 15.2769 59.0869 19.2185L61.7354 20.533C62.7884 19.9764 63.9627 19.2203 65.1348 19.4119C66.4074 20.2768 67.7667 22.5682 68.5957 23.9158C70.8305 27.5496 70.8284 27.9001 67.2461 30.0584L67.2812 33.4969C69.3245 34.7719 70.9937 35.4572 69.3428 38.0183C67.9978 40.105 66.5809 42.2627 64.916 44.1121C63.5429 43.7493 62.9025 43.4575 61.5947 42.8679C60.7564 43.2178 59.7196 43.7913 58.8906 44.2234C58.7458 49.3461 57.1299 48.1346 52.6836 48.1033C48.6951 48.1208 48.5475 48.2368 48.4961 44.0984L45.8203 42.6658C44.8116 43.1745 43.7889 43.7062 42.6611 43.6736C41.3511 43.1056 37.6701 37.3674 37.4131 35.7273C37.308 35.0546 39.7183 33.578 40.2881 33.2029L40.3604 30.074C39.2863 29.4668 37.8806 28.8233 37.3691 27.7058C37.4509 26.1065 39.375 23.4609 40.2764 22.0652C42.2963 18.9418 42.6419 18.9155 45.876 20.4607L48.5078 19.1717ZM56.2168 18.1365C54.6407 18.1465 53.0086 18.1336 51.4395 18.2049C50.9282 18.8189 50.916 20.0852 50.7129 20.9588L46.0381 23.4783L43.3799 22.4314L40.4355 26.8426C41.1618 27.4015 42.2385 28.1825 42.876 28.7937L42.7588 34.4461C42.035 35.0895 41.3414 35.7289 40.5615 36.3015L43.3027 40.5877C44.3279 40.2733 45.2464 39.9647 46.3066 39.7928C47.6564 40.5932 49.4873 41.6066 50.7646 42.4461L51.2012 45.3533L56.1963 45.3074L56.542 42.5408C58.2419 41.4863 59.61 40.8136 61.4033 39.9324C62.2744 40.1994 63.3376 40.4935 64.1807 40.7928C65.1101 39.3696 66.06 37.9577 67.0244 36.5584C66.3098 36.0193 65.3617 35.3476 64.7266 34.7576C64.7336 32.7086 64.7545 30.7056 64.6494 28.658L67.1807 26.8025C66.2046 25.3532 65.2105 23.8199 64.1924 22.407C63.0156 22.9432 62.5457 23.1745 61.292 23.4568C59.5172 22.3424 58.5612 21.8509 56.6533 20.9773L56.2168 18.1365Z" fill="#3C3C3C"/>
<path fill-rule="evenodd" clip-rule="evenodd" d="M52.9385 25.1666C56.5627 24.7056 59.8667 27.2856 60.2989 30.9127C60.7332 34.54 58.127 37.826 54.4981 38.2311C50.9066 38.6314 47.6657 36.0599 47.2383 32.4723C46.8111 28.8846 49.3563 25.6228 52.9385 25.1666ZM56.5 28.9225C55.4936 27.932 54.0315 27.5598 52.6748 27.9479C50.6105 28.5377 49.4027 30.679 49.9678 32.7506C50.5331 34.8219 52.6582 36.0539 54.7364 35.5152C56.1024 35.1607 57.1748 34.0985 57.5391 32.734C57.9034 31.3694 57.5089 29.9131 56.5 28.9225Z" fill="#3C3C3C"/>
<path d="M17.524 29.1722C19.8849 29.1876 25.9612 28.8267 27.8224 29.4123C28.4926 30.0577 28.572 30.3517 28.1844 31.1655C26.7505 32.1767 22.6732 31.7976 20.77 31.7651C18.4277 31.7493 11.3683 32.2388 9.93682 31.1574C9.67293 30.2639 9.63558 30.6026 9.95084 29.8241C11.3333 28.7466 15.6511 29.1423 17.524 29.1722Z" fill="#3C3C3C"/>
<path d="M10.4718 20.9399C14.2595 20.9485 18.0473 20.9378 21.8327 20.9074C23.5584 20.8981 27.4723 20.3894 28.3784 21.8259C28.4204 22.6747 28.3177 22.7875 27.8389 23.5046C22.4982 23.6415 16.9427 23.4743 11.5763 23.5289C10.6376 23.5387 10.0631 23.4175 9.74316 22.4921C9.81789 21.6516 9.89729 21.5675 10.4718 20.9399Z" fill="#3C3C3C"/>
<path d="M10.3033 37.4756C15.8005 37.4828 21.5218 37.3508 27.026 37.4826C27.7662 37.5003 27.9601 37.8035 28.3314 38.2637C28.4411 39.0943 28.3033 39.2517 27.8923 39.9992L16.8023 40.0543C14.9855 40.0606 10.7727 40.5355 9.7592 39.1034C9.71717 38.2971 9.85263 38.202 10.3033 37.4756Z" fill="#3C3C3C"/>
<path d="M7.18812 5.09771C7.61079 4.86296 8.12922 4.88444 8.53088 5.1533C8.9302 5.42191 9.14736 5.89281 9.09131 6.37258C9.03527 6.85236 8.71536 7.26019 8.26232 7.42907C7.6318 7.66429 6.92655 7.37349 6.64399 6.76197C6.36376 6.15046 6.59963 5.42472 7.18812 5.09771Z" fill="#3C3C3C"/>
<path d="M12.0411 5.11178C12.4498 4.87867 12.9542 4.89105 13.3535 5.14472C13.7505 5.39815 13.9747 5.85083 13.935 6.32056C13.8976 6.79053 13.6011 7.20047 13.1691 7.38546C12.5479 7.65011 11.831 7.385 11.532 6.78142C11.2308 6.17785 11.455 5.44534 12.0411 5.11178Z" fill="#3C3C3C"/>
<path fill-rule="evenodd" clip-rule="evenodd" d="M4.81839 0.15045C20.0464 -0.178895 36.5849 0.134527 51.876 0.138731L67.4473 0.127012C70.511 0.121402 73.7827 0.0238395 76.8184 0.317442C77.9252 0.424414 78.5625 0.928753 79.3447 1.67682C80.921 3.18082 80.9563 4.8885 80.961 6.95611C80.9913 18.4738 80.9864 30.0063 80.9864 41.5235L80.9824 52.8047C80.9824 54.2395 81.0591 57.3343 80.8887 58.6631C80.7206 59.9574 80.13 61.1608 79.21 62.086C77.3068 63.992 69.9926 63.4285 67.1856 63.4268L49.4053 63.4278C49.7672 65.2361 50.0731 67.2218 50.3907 69.0508C50.6218 70.2238 50.8084 71.5578 51.0069 72.7501C53.0479 72.7092 59.93 71.9322 60.334 74.1905C60.0305 74.8953 60.0303 74.9343 59.4024 75.3243C58.2675 75.4873 56.9176 75.4271 55.7617 75.4278C44.8422 75.4346 33.9245 75.4042 23.0049 75.4503C21.9238 75.4549 21.0393 75.1782 20.8828 74.0333C21.8758 71.9987 27.8764 72.7204 30.1602 72.7286C30.6622 69.6264 31.1831 66.5268 31.7178 63.4297C26.4517 63.3676 6.07212 64.1086 2.81448 62.7403C1.67033 62.2605 0.82079 61.1459 0.412135 59.9835C-0.0175487 58.7614 -0.137497 10.7894 0.17776 5.13678C0.224487 4.29555 0.385947 3.60039 0.796901 2.85162C1.63292 1.32115 3.07628 0.639244 4.67581 0.154356L4.81839 0.15045ZM34.4824 63.4171C33.929 66.5142 33.3993 69.6157 32.8926 72.7208L47.1963 72.7452L47.9219 72.6563C48.501 71.6376 46.9203 64.8299 46.6377 63.4102L34.4824 63.4171ZM29.7442 53.0704C21.0245 53.0708 11.438 52.856 2.81643 53.0821C2.74871 55.4174 1.99721 60.5283 5.40432 60.709C8.35371 60.8655 11.3503 60.8206 14.3067 60.8204L29.7139 60.8194C44.2506 60.8178 58.7992 60.8212 73.336 60.8008C74.8282 60.7987 75.9918 60.8271 77.3135 60.1016C78.663 58.1286 78.2591 55.5543 78.2217 53.0743L29.7442 53.0704ZM2.79397 50.3126L78.2061 50.3253L78.2197 12.0547L2.79397 12.0235V50.3126ZM76.209 3.02447C73.5352 2.61407 70.0812 2.80436 67.3233 2.8067L48.7461 2.83697L20.1162 2.81744C15.8684 2.8137 8.92565 2.64419 4.83206 2.90533C2.21204 4.688 2.78183 6.47131 2.8262 9.35553L76.4756 9.35846C77.5188 9.31392 77.4441 9.49821 78.044 8.88775C78.5437 7.16537 78.5838 3.38923 76.209 3.02447Z" fill="#3C3C3C"/>
</svg>
