<svg width="62" height="59" viewBox="0 0 62 59" fill="none" xmlns="http://www.w3.org/2000/svg">
<path d="M54.9286 25.8879C55.0923 25.909 55.2378 26.0032 55.3231 26.1438C55.5306 26.4836 55.4904 26.8312 55.1502 27.0481C54.2024 27.6533 53.1903 28.1361 52.203 28.6692C50.5856 29.5528 48.9812 30.4616 47.3924 31.3957C47.574 31.7858 47.8086 32.2389 48.0204 32.6145C49.7945 35.7617 51.3486 39.0717 53.1434 42.2024C53.9902 41.8359 54.8663 41.3615 55.702 40.9504C56.6873 40.4762 57.6753 40.0076 58.6659 39.5442C59.2304 39.2738 60.6123 38.3666 61.1463 38.8186C61.3795 39.0163 61.4981 39.5896 61.2059 39.7688C60.5618 40.1623 59.8238 40.4679 59.1375 40.7913L55.744 42.4192C55.0609 42.7457 54.1598 43.2591 53.4852 43.5325C53.282 43.6151 53.0616 43.6494 52.8426 43.6331C52.4574 43.5998 52.3001 43.42 52.0721 43.1526C50.0862 44.3128 49.1747 44.4933 47.4627 46.1243C48.0274 47.9216 47.361 49.8769 45.3329 50.2082C44.8933 50.2799 44.4568 50.223 44.0164 50.1819C44.0153 50.7279 44.0424 51.2584 43.8485 51.7776C43.1851 53.5551 41.5107 53.8892 39.8768 53.3186C39.7957 55.6761 37.625 57.1191 35.5594 55.9397C35.5165 56.5973 35.4311 57.0886 35.0164 57.5999C33.4803 59.4931 31.7927 58.6077 30.0848 57.6067C29.3383 57.1696 28.6541 56.9904 27.9295 56.4348C26.5125 57.3726 25.0158 57.434 23.9881 55.845C23.9051 55.7166 23.7565 55.2997 23.6522 55.2102C23.4797 55.0638 23.0248 55.5126 22.8055 55.4836C22.3397 55.5226 22.031 55.502 21.5848 55.3499C20.7888 55.0854 20.1697 54.453 19.9227 53.6516C19.8779 53.5094 19.8036 53.1258 19.7606 53.0315C19.4978 53.0153 18.9805 53.0999 18.7284 53.0286C17.2574 52.6083 16.5662 51.6953 16.5682 50.1838C14.287 50.2797 12.9098 47.9363 14.3416 46.0452L13.6551 45.6663C12.4608 44.9158 10.9067 44.0816 9.65024 43.3928C9.0382 44.1827 8.61153 44.0721 7.78696 43.6672C6.53697 43.0532 5.30014 42.4238 4.03989 41.8303C3.24331 41.4538 2.44898 41.0726 1.65707 40.6868C1.18203 40.4563 0.73228 40.2443 0.268401 39.9709C-0.25988 39.7741 0.0796775 38.6847 0.531096 38.7825C1.31639 38.9538 2.4968 39.6496 3.23129 39.9924C4.3772 40.5198 5.51638 41.0624 6.64828 41.6194C7.2531 41.9152 7.98454 42.2537 8.55453 42.5969C10.4652 38.9786 12.1638 35.1949 14.0457 31.6047C11.4761 30.1042 8.82473 28.7212 6.22348 27.2766C5.44037 26.8416 5.8221 25.5664 6.98422 26.1692C9.1717 27.3304 11.3373 28.5326 13.4793 29.7756C14.0108 30.0789 14.6286 30.3668 15.1444 30.6926C15.3274 30.8084 15.4211 31.1599 15.4872 31.3684C16.3503 31.7844 17.3097 32.249 18.2469 32.4651C18.926 32.6216 19.7877 32.5406 20.4745 32.5715C22.234 32.6507 25.4676 32.4523 27.0819 32.8166C28.4282 31.9786 28.6282 31.9999 30.1756 31.7766C33.0355 31.3641 35.9809 31.4761 38.8202 31.9905C39.9056 32.1871 41.1156 32.7481 42.1873 33.0852C43.4713 32.8049 44.5045 32.1272 45.6454 31.511C46.1413 31.2429 45.7934 30.7332 46.3045 30.4514C48.2759 29.3649 50.201 28.2028 52.1932 27.1526C52.9768 26.7396 53.7391 26.2731 54.5448 25.9045C54.6542 25.8929 54.8227 25.8735 54.9286 25.8879ZM11.4012 39.8323C11.0489 40.5269 10.6215 41.5388 10.2752 42.1565C10.9699 42.5825 11.5661 42.9567 12.2782 43.3538C13.0691 43.795 14.4608 44.4878 15.1668 45.0139C15.7953 44.2961 16.3534 43.7212 17.37 43.6438C18.5236 43.5565 19.5007 44.3517 20.0545 45.3069C21.6485 43.3517 24.4793 44.2319 24.8133 46.6106C26.2317 45.8649 27.5133 46.2438 28.3426 47.679C28.6775 48.2587 28.6691 49.0169 28.4637 49.6477C28.4541 49.6771 28.4439 49.7062 28.4334 49.7356C29.9532 50.0406 31.0801 51.1519 30.787 52.8245C30.6362 53.6839 29.553 54.7743 28.95 55.4163C29.8765 56.0029 32.0349 57.551 33.1395 57.3499C34.1959 57.1576 34.2845 56.2562 34.1288 55.3411L34.0799 55.2942C33.5716 54.8097 31.0709 53.6977 31.0663 53.1252C31.0648 52.9325 31.1131 52.6855 31.2655 52.5549C31.4037 52.4366 31.5863 52.4315 31.7577 52.4573C32.2176 52.5259 32.6742 52.8826 33.0633 53.1243C33.919 53.6557 35.8696 54.9381 36.8133 55.0803C37.1912 55.1371 37.5945 55.0564 37.912 54.8401C38.2643 54.5999 38.5644 54.2767 38.6405 53.8459C38.7092 53.4563 38.6303 53.0159 38.3963 52.6926C37.9959 52.1405 34.8534 50.4909 34.0702 50.0481C33.6108 49.7885 32.9915 49.515 32.6346 49.1174C32.523 48.9932 32.4623 48.8406 32.4823 48.6721C32.5025 48.5017 32.6078 48.3459 32.744 48.2454C32.8953 48.1338 33.0876 48.0801 33.2743 48.1116C33.6686 48.1784 36.7838 50.1513 37.4725 50.5442C38.5296 51.1272 39.6152 51.8263 40.7137 52.2707C41.4263 52.5587 42.3536 52.0378 42.6532 51.3928C43.4147 49.7519 41.3277 48.8867 40.2918 48.2864L36.7586 46.2483C36.2534 45.9581 34.9363 45.4398 35.3387 44.7073C35.4188 44.5588 35.5586 44.4509 35.7225 44.4114C36.5886 44.2095 43.2067 49.0236 44.7977 49.0432C45.319 49.0495 45.7894 48.696 46.0692 48.2795C46.3146 47.9146 46.4233 47.4918 46.3309 47.0569C46.2116 46.4961 45.8136 46.0991 45.3446 45.801C44.4317 45.2217 43.4598 44.7067 42.5291 44.1516L36.0135 40.2952C35.2589 39.8577 34.1867 39.1245 33.4393 38.7981C33.0315 38.6201 31.2622 38.6437 30.8416 38.7717C28.6453 39.4416 27.2243 42.1725 24.6913 42.1936C23.901 42.1999 23.2618 42.0396 22.5731 41.6057C21.9743 41.2331 21.551 40.6343 21.3993 39.9456C21.2927 39.4531 21.2933 38.7989 21.5907 38.3684C22.2579 37.4035 23.2171 36.6863 24.0516 35.8743C24.6838 35.2648 25.2886 34.6089 25.9266 34.0081C24.7738 33.9806 23.5209 33.9024 22.3817 33.9094C19.5782 33.9267 17.5384 34.0374 15.0038 32.5627L11.4012 39.8323ZM28.0018 50.969C27.3718 51.2892 25.1412 53.7968 24.7987 54.4631C25.0556 55.2936 25.44 55.8313 26.3827 55.8176C27.268 55.5726 28.8538 53.8241 29.3446 53.0247C30.0031 51.952 29.1684 51.0054 28.0018 50.969ZM25.825 47.5022C24.6454 47.8398 22.687 50.5843 21.7469 51.5403C21.5592 51.7314 21.2943 52.0722 21.1444 52.304C20.6851 53.3461 21.5252 54.2168 22.5409 54.177C23.42 53.9921 23.9187 53.2689 24.5038 52.6379C25.0651 52.0324 25.5986 51.3973 26.161 50.7922C26.7219 50.1461 27.5421 49.521 27.328 48.5725C27.2509 48.2198 27.036 47.9128 26.7313 47.719C26.465 47.552 26.1365 47.4885 25.825 47.5022ZM21.8543 45.4934C21.6664 45.5814 21.3886 45.7238 21.2459 45.8655C20.5273 46.5824 18.1157 49.2111 17.7635 49.9836C17.7767 50.5196 17.8301 50.9686 18.243 51.3704C18.4983 51.6179 18.8418 51.7536 19.1971 51.7473C19.3212 51.7442 19.4167 51.7322 19.5379 51.7053C20.3661 51.3311 23.2706 48.0038 23.6688 47.1282C23.404 46.1103 23.0442 45.4667 21.8543 45.4934ZM17.2245 44.967C16.4967 45.3209 15.4197 46.4891 15.1092 47.2454C14.7577 48.1017 15.7972 49.1533 16.703 48.8352C17.3838 48.2527 18.5305 47.1279 18.953 46.3665C18.6768 45.3683 18.3172 44.904 17.2245 44.967ZM46.3543 32.594C45.6607 32.9509 44.8787 33.3693 44.2274 33.7405C43.2172 34.3161 42.1613 34.5579 41.0506 34.0872C38.2428 32.8966 35.5189 32.7506 32.4989 32.9309C31.5537 32.9873 29.4007 33.1737 28.4354 33.5686C26.4882 35.0933 24.8469 37.0704 22.9383 38.6702C22.077 39.3921 23.0295 40.6677 23.8983 40.8284C26.5851 41.3251 28.4896 37.6612 30.8368 37.4582C33.7593 37.2306 33.8993 37.3697 36.3036 38.9153C37.0056 39.3689 37.7156 39.8106 38.4325 40.2405L43.7879 43.4319C44.6508 43.9364 45.8523 44.5621 46.6502 45.0803C48.0018 43.7591 49.8928 42.8189 51.5789 41.9768C50.7523 40.7922 46.8007 32.8505 46.3543 32.594Z" fill="white"/>
<path d="M29.8018 8.68522e-05C30.1517 -0.0093381 32.5969 0.751119 33.165 0.913173L44.6729 4.25106C44.6474 6.37453 44.6427 8.49859 44.6572 10.6222C44.6463 14.3269 44.661 16.3875 43.2295 19.921C42.7463 21.1466 42.1295 22.3154 41.3896 23.4054C38.7345 27.2746 34.6454 29.9249 30.0293 30.7686C26.8525 30.4168 23.1709 28.3867 20.8887 26.1934C19.521 24.8742 18.3621 23.3544 17.4531 21.6856C15.2767 17.7105 15.1091 14.5545 15.1055 10.1964C15.118 8.21446 15.114 6.23195 15.0938 4.25009C16.9223 3.79907 18.919 3.16061 20.7256 2.62118C23.7449 1.72657 26.7704 0.852725 29.8018 8.68522e-05ZM29.7227 1.41122C25.286 2.6344 20.8632 3.9088 16.4561 5.23446C16.3847 6.69358 16.4294 8.35786 16.4189 9.83993C16.4092 11.2287 16.4 13.0165 16.5391 14.3868C16.9202 18.1651 18.503 21.7218 21.0547 24.5343C22.941 26.6178 25.4607 28.1214 28.1035 29.0343C28.6651 29.2282 29.5946 29.5543 30.1777 29.4659C34.5005 28.5165 38.2658 25.8815 40.6387 22.1456C44.2771 16.4224 43.1645 11.5677 43.374 5.2745C40.6671 4.40796 37.7765 3.61968 35.0527 2.81454C34.3005 2.59215 30.2222 1.37649 29.7227 1.41122Z" fill="white"/>
<path d="M38.1104 8.78906C38.5064 8.79759 38.8597 8.95027 38.9046 9.40366C38.9282 9.64275 38.6712 9.94989 38.5117 10.117C37.7247 10.9415 36.8942 11.7256 36.0808 12.5243L32.3756 16.1951C30.9955 17.5478 29.6636 18.9517 28.2359 20.2576C28.0258 20.4497 27.6661 20.4911 27.4395 20.3053C26.8534 19.8246 26.3263 19.2505 25.7911 18.7111C25.1042 18.0133 24.3977 17.335 23.6725 16.6772C23.3563 16.3934 23.0828 16.2054 23.035 15.7503C22.9476 15.0555 23.6267 14.8141 24.127 15.2107C24.5068 15.5117 24.8506 15.9093 25.1977 16.2502L27.8363 18.8505C30.8561 15.5752 34.3474 12.4548 37.4605 9.25219C37.6536 9.05349 37.8443 8.87891 38.1104 8.78906Z" fill="white"/>
</svg>
