<svg width="32" height="32" viewBox="0 0 32 32" fill="none" xmlns="http://www.w3.org/2000/svg">
<path d="M15.75 0C19.9272 0 23.9332 1.65937 26.8869 4.61307C29.8406 7.56677 31.5 11.5728 31.5 15.75C31.5 19.9272 29.8406 23.9332 26.8869 26.8869C23.9332 29.8406 19.9272 31.5 15.75 31.5C11.5728 31.5 7.56677 29.8406 4.61307 26.8869C1.65937 23.9332 0 19.9272 0 15.75C0 11.5728 1.65937 7.56677 4.61307 4.61307C7.56677 1.65937 11.5728 0 15.75 0ZM16.5832 6.73242C14.7574 6.73242 13.3137 7.25156 12.252 8.28984C11.1621 9.33047 10.6453 10.7648 10.6453 12.5965H13.4648C13.4648 11.5594 13.6652 10.7402 14.0836 10.1707C14.5547 9.47812 15.3211 9.1582 16.4109 9.1582C17.2594 9.15352 17.9191 9.38438 18.3902 9.85078C18.8653 10.3784 19.114 11.0716 19.0828 11.7809C19.0743 12.4272 18.8377 13.0498 18.4148 13.5387L18.1195 13.8832C16.5094 15.3211 15.5461 16.3582 15.2227 17.0297C14.8781 17.6977 14.7305 18.5133 14.7305 19.4555V19.8H17.5746V19.452C17.5746 18.8578 17.6977 18.341 17.9473 17.8453C18.1868 17.3685 18.5233 16.947 18.9352 16.6078C20.1234 15.5672 20.8406 14.8992 21.0656 14.6531C21.6598 13.8586 21.9797 12.8461 21.9797 11.6086C21.9797 10.0992 21.4852 8.91094 20.4961 8.04375C19.5047 7.1543 18.1934 6.73242 16.5832 6.73242ZM16.1402 21.0129C15.8904 21.0058 15.6416 21.0481 15.4081 21.1374C15.1746 21.2267 14.961 21.3612 14.7797 21.5332C14.5977 21.7032 14.4547 21.9107 14.3606 22.1414C14.2666 22.372 14.2236 22.6203 14.2348 22.8691C14.2348 23.4141 14.407 23.8605 14.7797 24.2051C15.1433 24.5574 15.6305 24.753 16.1367 24.75C16.6816 24.75 17.1246 24.5742 17.4973 24.2297C17.6815 24.0549 17.8273 23.8436 17.9253 23.6094C18.0234 23.3752 18.0716 23.123 18.0668 22.8691C18.0713 22.6211 18.0254 22.3748 17.9317 22.1451C17.838 21.9155 17.6986 21.7073 17.5219 21.5332C17.1454 21.1863 16.6485 20.9996 16.1367 21.0129" fill="#4E9C5A"/>
</svg>
