<svg width="269" height="107" viewBox="0 0 269 107" fill="none" xmlns="http://www.w3.org/2000/svg">
<path fill-rule="evenodd" clip-rule="evenodd" d="M101.762 37C102.772 37.001 111.133 40.3073 111.766 40.9483C112.048 41.8256 111.578 42.5307 111.19 43.3819C120.879 46.7742 125.721 37.9588 136.007 42.208C147.406 37.6256 150.757 45.4986 161.502 44.0879C161.146 43.2408 160.108 41.2156 161.004 40.7481C162.52 39.9561 169.201 37.0356 170.597 37.0527C170.902 37.5003 171.269 38.1962 171.465 38.6983C174.446 46.3383 177.355 54.0131 180.253 61.6846C180.357 61.9598 180.371 62.1631 180.265 62.4375C179.733 63.169 172.406 65.7311 171.144 66.2549C169.85 66.7918 169.571 65.3821 169.321 64.4512C167.287 66.0325 165.172 67.5265 163.19 69.1719C163.955 70.6995 164.019 71.2945 163.865 72.9893C162.891 76.5044 160.227 77.2892 156.953 76.3916C156.668 80.6948 154.218 82.4294 150.081 81.0918C150.059 85.4456 146.695 87.2852 142.831 85.4199C140.756 92.5906 134.939 88.2201 131.01 85.7842C127.941 89.0427 124.905 87.323 123.382 83.7442C123.15 83.2003 118.272 84.8204 117.7 79.4717C113.924 79.8466 112.396 78.6813 111.852 75.1182C111.761 74.5219 109.818 74.6142 109.018 74.1885C105.901 72.5317 105.981 70.6418 107.236 67.7529C107.046 67.0679 103.716 64.7313 102.982 64.169C102.819 64.6229 102.2 66.5814 101.578 66.3389C99.8201 65.6514 93.0887 63.4742 92 62.2979C92.0923 61.3186 100.97 37.8906 101.596 37.0029C101.651 37.0008 101.706 36.9999 101.762 37ZM134.577 43.084C133.139 42.6109 131.335 42.1898 129.822 42.4072C122.38 43.2024 118.964 47.3088 110.657 44.7383C108.254 50.7486 105.883 56.7728 103.547 62.8096C104.986 63.9545 106.842 65.4693 108.345 66.4873C110.227 64.065 112.315 62.0894 115.369 64.1192C116.875 65.12 116.687 66.6023 117.322 67.209C120.677 65.6585 123.034 67.665 123.733 71.0069C126.462 70.5215 128.854 71.3073 129.378 74.2822C129.472 74.8167 129.449 75.6969 129.749 76.0733C135.366 77.6541 135.364 80.4855 131.827 84.6016C133.62 85.7662 140.679 91.282 141.248 85.0488C141.435 82.9996 133.777 80.7979 134.599 79.082C137.356 77.8861 145.516 88.8893 148.413 82.9307C148.688 82.4849 148.714 80.9164 148.4 80.5C146.238 77.6372 142.004 76.014 139.151 73.7861C138.169 73.0202 136.279 72.5137 136.408 71.1289C137.265 70.3877 140.803 73.1483 141.75 73.792C144.757 75.7687 147.892 78.0296 151.028 79.793C151.592 80.1101 152.595 80.1755 153.194 80.0645C155.325 79.9287 156.155 76.1859 154.72 74.9824C153.492 73.9536 151.439 72.7514 149.977 71.7979L141.964 66.458C141.006 65.8236 139.072 65.0149 139.006 63.9209C139.271 63.5291 139.125 63.6401 139.62 63.5127C141.761 63.9117 151.553 71.6483 154.187 72.8828C156.264 73.8572 158.33 76.6791 161.146 74.7695C161.864 74.2836 162.354 73.524 162.5 72.668C162.67 71.7071 162.422 70.7482 161.86 69.957C161.566 69.543 161.206 69.2515 160.8 68.9531C157.254 66.3448 153.435 64.0224 149.776 61.5664C146.864 59.6118 144.008 57.4016 140.976 55.6504C140.185 55.1934 139.316 54.7874 138.408 54.6338C136.567 54.3224 134.857 55.1229 133.397 56.1768C130.899 57.9809 127.702 61.5229 124.359 61.0049C123.282 60.8379 122.377 60.3622 121.733 59.4668C121.292 58.8531 121.093 57.9772 121.22 57.2295C121.543 55.3226 128.849 47.7935 130.485 46.2529C131.445 45.3496 132.47 44.4843 133.56 43.7402C133.894 43.5135 134.233 43.2949 134.577 43.084ZM132.33 81.6319C133.526 78.9438 131.583 77.4541 129.146 77.6533C127.881 78.3622 125.636 81.2891 125.222 82.6944C124.528 85.0499 126.342 86.2704 128.48 85.874C129.732 85.3251 131.783 82.8609 132.33 81.6319ZM125.096 72.1934C122.83 72.7829 122.866 73.9317 121.466 75.2822C119.169 77.4983 117.47 81.9238 122.327 82.3272C124.059 81.7486 123.943 81.3003 125.082 80.1397C127.129 78.054 130.642 72.6856 125.096 72.1934ZM121.868 72.3418C122.901 69.8468 121.332 67.8865 118.684 68.1553C116.252 69.3948 110.113 76.6172 115.432 78.0313C116 78.1825 116.267 78.154 116.822 78.0586C118.055 77.5976 118.717 76.7546 119.479 75.7217C120.227 74.7087 121.401 73.4694 121.868 72.3418ZM112.5 64.6914C110.399 65.4887 105.327 70.8978 109.375 72.876C109.878 73.1216 110.486 73.2348 111.052 73.2324C113.068 72.6167 115.365 69.556 115.839 67.5908C115.312 65.8219 114.595 64.6261 112.5 64.6914ZM161.909 45.3242C153.225 47.1933 148.044 41.1013 141.157 42.2559C137.179 42.7868 134.749 44.2896 131.831 46.917C128.637 49.7945 126.028 53.0381 123.237 56.2871C122.424 57.2348 122.336 58.4573 123.466 59.249C125.666 60.6555 128.629 58.1064 130.314 56.7705C133.833 53.9816 136.999 51.6183 141.458 54.3262C144.857 56.3897 148.202 58.7383 151.507 61.0254L151.626 61.1074C154.111 62.7501 160.004 66.447 162.098 68.1992C164.296 66.5259 166.638 64.8045 168.798 63.0996C166.547 57.1568 164.252 51.2313 161.909 45.3242ZM169.777 38.6094C167.23 39.6202 164.625 40.6215 162.125 41.7324C162.811 43.7524 170.74 64.4938 171.084 64.8174C173.406 63.7797 176.418 62.6259 178.822 61.7725C177.945 59.4831 170.171 38.8857 169.777 38.6094ZM102.396 38.5274C99.7734 46.0065 96.3625 54.235 93.4834 61.6777C94.2647 62.0281 100.727 64.6669 101.222 64.6143L101.345 64.4815C104.473 56.8764 107.296 49.1928 110.404 41.5947C107.712 40.6328 105.041 39.6099 102.396 38.5274Z" fill="#333333"/>
<path d="M25 0C25 9.5 48.2423 38.1829 72 45.5C81.5828 48.4514 97.5 48.5 97.5 48.5" stroke="#333333" stroke-width="1.5"/>
<path d="M175 50.5001C195 17 257 45.0464 269 45.0467" stroke="#333333" stroke-width="1.5"/>
</svg>
