<svg width="426" height="90" viewBox="0 0 426 90" fill="none" xmlns="http://www.w3.org/2000/svg">
<path fill-rule="evenodd" clip-rule="evenodd" d="M153.7 2.68904e-05C155.428 0.00209964 169.73 5.65815 170.81 6.75393C171.293 8.2546 170.49 9.46022 169.826 10.916C186.397 16.7185 194.679 1.64024 212.272 8.90823C231.77 1.07084 237.5 14.536 255.879 12.1231C255.27 10.6743 253.493 7.21216 255.025 6.41214C257.618 5.05809 269.045 0.0615238 271.433 0.0908472C271.956 0.856356 272.584 2.04657 272.919 2.9053C278.017 15.9727 282.993 29.0996 287.949 42.2207C288.126 42.6917 288.151 43.0393 287.969 43.5088C287.057 44.7602 274.53 49.1409 272.37 50.0371C270.157 50.9562 269.679 48.5465 269.253 46.9541C265.773 49.6588 262.155 52.2131 258.766 55.0274C260.075 57.6402 260.183 58.6576 259.92 61.5567C258.254 67.5689 253.697 68.9112 248.098 67.376C247.61 74.7362 243.419 77.703 236.344 75.4151C236.307 82.8619 230.552 86.0081 223.943 82.8174C220.394 95.0819 210.446 87.6078 203.725 83.4414C198.477 89.0144 193.283 86.0723 190.677 79.9512C190.28 79.0217 181.938 81.7917 180.961 72.6446C174.503 73.2859 171.889 71.2918 170.958 65.1973C170.802 64.1774 167.48 64.3356 166.11 63.6074C160.78 60.7737 160.914 57.5407 163.062 52.5996C162.735 51.4274 157.043 47.4315 155.788 46.4698C155.508 47.2452 154.449 50.5963 153.385 50.1817C150.379 49.0059 138.866 45.2816 137.004 43.2696C137.162 41.5944 152.35 1.511 153.416 0.0049097C153.51 0.00121348 153.605 -0.000219524 153.7 2.68904e-05ZM209.828 10.4063C207.369 9.59706 204.283 8.87725 201.695 9.24905C188.965 10.609 183.124 17.633 168.915 13.2364C164.804 23.5162 160.75 33.8194 156.754 44.1446C159.215 46.1028 162.39 48.6944 164.96 50.4356C168.18 46.2924 171.75 42.913 176.974 46.3848C179.55 48.0965 179.228 50.6312 180.315 51.669C186.054 49.0171 190.086 52.4492 191.281 58.1651C195.949 57.335 200.039 58.6793 200.934 63.7676C201.095 64.6818 201.057 66.1874 201.57 66.8311C211.178 69.535 211.173 74.3769 205.123 81.417C208.188 83.4083 220.264 92.8443 221.237 82.1817C221.557 78.6766 208.458 74.9113 209.864 71.9766C214.581 69.9311 228.537 88.7516 233.493 78.5596C233.963 77.7969 234.008 75.1145 233.47 74.4024C229.771 69.5058 222.531 66.7285 217.652 62.918C215.971 61.6079 212.738 60.7426 212.96 58.3741C214.426 57.1064 220.475 61.8272 222.094 62.9287C227.238 66.3098 232.601 70.1763 237.966 73.1924C238.929 73.7348 240.644 73.8462 241.669 73.6563C245.313 73.4249 246.733 67.0246 244.279 64.9659C242.179 63.206 238.667 61.1486 236.166 59.5176L222.462 50.3848C220.823 49.2996 217.516 47.9171 217.403 46.0459C217.856 45.376 217.605 45.5645 218.453 45.3467C222.115 46.0291 238.862 59.2626 243.367 61.3741C246.92 63.0406 250.455 67.8671 255.27 64.6006C256.5 63.7694 257.338 62.4709 257.587 61.0069C257.877 59.3634 257.453 57.7234 256.492 56.3701C255.989 55.662 255.373 55.1626 254.678 54.6524C248.614 50.1911 242.081 46.2192 235.824 42.0186C230.844 38.6755 225.959 34.8946 220.771 31.8994C219.418 31.1179 217.932 30.4238 216.38 30.1612C213.23 29.6286 210.306 30.9974 207.809 32.7998C203.536 35.8856 198.069 41.9443 192.351 41.0586C190.508 40.773 188.96 39.9585 187.859 38.4268C187.105 37.3771 186.765 35.8795 186.982 34.6006C187.537 31.3386 200.029 18.4613 202.828 15.8262C204.47 14.281 206.225 12.802 208.088 11.5293C208.659 11.1415 209.239 10.767 209.828 10.4063ZM205.983 76.3379C208.028 71.7405 204.706 69.1924 200.538 69.5332C198.374 70.7456 194.533 75.7517 193.825 78.1553C192.638 82.1844 195.741 84.2728 199.399 83.5948C201.54 82.6559 205.047 78.4401 205.983 76.3379ZM193.61 60.1944C189.735 61.2027 189.797 63.1687 187.403 65.4785C183.475 69.2689 180.568 76.8376 188.876 77.5274C191.838 76.5378 191.639 75.7706 193.588 73.7852C197.089 70.2178 203.098 61.0361 193.61 60.1944ZM188.089 60.4492C189.855 56.1814 187.173 52.8284 182.643 53.2881C178.484 55.408 167.984 67.761 177.081 70.1797C178.053 70.4385 178.51 70.3887 179.46 70.2256C181.568 69.4371 182.701 67.9962 184.005 66.2295C185.283 64.497 187.29 62.3779 188.089 60.4492ZM172.067 47.3633C168.473 48.7274 159.8 57.9782 166.724 61.3614C167.584 61.7814 168.624 61.9759 169.592 61.9717C173.04 60.9185 176.967 55.6834 177.778 52.3223C176.876 49.2966 175.651 47.2512 172.067 47.3633ZM256.576 14.2393C241.723 17.436 232.861 7.01453 221.082 8.98928C214.278 9.89731 210.121 12.4689 205.131 16.9629C199.668 21.8845 195.205 27.4312 190.432 32.9883C189.04 34.6092 188.89 36.7004 190.822 38.0547C194.586 40.4607 199.654 36.1002 202.537 33.8155C208.555 29.0454 213.97 25.0026 221.596 29.6338C227.41 33.1632 233.13 37.181 238.783 41.0928L238.988 41.2334C243.239 44.0431 253.317 50.3654 256.898 53.3623C260.659 50.5003 264.663 47.5576 268.357 44.6416C264.508 34.4772 260.583 24.3426 256.576 14.2393ZM270.034 2.75393C265.677 4.48278 261.221 6.19465 256.945 8.09475C258.118 11.5495 271.679 47.0229 272.268 47.5791C276.241 45.8042 281.392 43.8299 285.505 42.3701C284.004 38.4546 270.711 3.2393 270.034 2.75393ZM154.784 2.61233C150.299 15.4047 144.465 29.479 139.541 42.209C140.878 42.8086 151.931 47.3214 152.776 47.2315L152.986 47.0049C158.337 33.9972 163.165 20.8541 168.481 7.85843C163.877 6.21311 159.309 4.46389 154.784 2.61233Z" fill="#333333"/>
<path d="M0.00378418 61.5342C2.33446 61.541 4.57674 61.0554 6.68517 60.0621C34.5548 46.9328 59.6396 29.2942 96.5038 30.5368C114.415 31.1405 137.104 37.5335 141.504 39.5335C145.904 41.5335 147.84 42.324 148.004 42.0335C152.504 34.0371 163.504 14.0371 168.504 8.03711" stroke="#333333" stroke-width="2.6"/>
<path d="M426.004 17.6084C425.328 17.6064 424.693 17.7487 424.079 18.0306C395.294 31.2466 369.86 49.8818 332.004 48.6058C314.093 48.002 291.404 41.6091 287.004 39.6091L284.504 39.0352L278.504 41.0352L257.004 7.53516" stroke="#333333" stroke-width="2.6"/>
</svg>
