<svg width="426" height="154" viewBox="0 0 426 154" fill="none" xmlns="http://www.w3.org/2000/svg">
<path fill-rule="evenodd" clip-rule="evenodd" d="M153.7 38.4629C155.428 38.465 169.73 44.121 170.81 45.2168C171.293 46.7175 170.49 47.9231 169.826 49.3789C186.397 55.1814 194.679 40.1031 212.272 47.3711C231.77 39.5337 237.5 52.9988 255.879 50.586C255.27 49.1372 253.493 45.675 255.025 44.875C257.618 43.521 269.045 38.5244 271.433 38.5537C271.956 39.3192 272.584 40.5095 272.919 41.3682C278.017 54.4356 282.993 67.5625 287.949 80.6836C288.126 81.1546 288.151 81.5022 287.969 81.9717C287.057 83.2231 274.53 87.6038 272.37 88.5C270.157 89.419 269.679 87.0094 269.253 85.417C265.773 88.1217 262.155 90.676 258.766 93.4903C260.075 96.1031 260.183 97.1205 259.92 100.02C258.254 106.032 253.697 107.374 248.098 105.839C247.61 113.199 243.419 116.166 236.344 113.878C236.307 121.325 230.552 124.471 223.943 121.28C220.394 133.545 210.446 126.071 203.725 121.904C198.477 127.477 193.283 124.535 190.677 118.414C190.28 117.485 181.938 120.255 180.961 111.107C174.503 111.749 171.889 109.755 170.958 103.66C170.802 102.64 167.48 102.799 166.11 102.07C160.78 99.2366 160.914 96.0036 163.062 91.0625C162.735 89.8903 157.043 85.8944 155.788 84.9326C155.508 85.7081 154.449 89.0592 153.385 88.6446C150.379 87.4687 138.866 83.7445 137.004 81.7324C137.162 80.0573 152.35 39.9739 153.416 38.4678C153.51 38.4641 153.605 38.4627 153.7 38.4629ZM209.828 48.8692C207.369 48.06 204.283 47.3401 201.695 47.7119C188.965 49.0719 183.124 56.0959 168.915 51.6992C164.804 61.9791 160.75 72.2823 156.754 82.6074C159.215 84.5657 162.39 87.1573 164.96 88.8985C168.18 84.7553 171.75 81.3759 176.974 84.8477C179.55 86.5594 179.228 89.0941 180.315 90.1319C186.054 87.4799 190.086 90.9121 191.281 96.628C195.949 95.7979 200.039 97.1422 200.934 102.23C201.095 103.145 201.057 104.65 201.57 105.294C211.178 107.998 211.173 112.84 205.123 119.88C208.188 121.871 220.264 131.307 221.237 120.645C221.557 117.139 208.458 113.374 209.864 110.439C214.581 108.394 228.537 127.214 233.493 117.022C233.963 116.26 234.008 113.577 233.47 112.865C229.771 107.969 222.531 105.191 217.652 101.381C215.971 100.071 212.738 99.2055 212.96 96.8369C214.426 95.5692 220.475 100.29 222.094 101.392C227.238 104.773 232.601 108.639 237.966 111.655C238.929 112.198 240.644 112.309 241.669 112.119C245.313 111.888 246.733 105.488 244.279 103.429C242.179 101.669 238.667 99.6115 236.166 97.9805L222.462 88.8477C220.823 87.7625 217.516 86.3799 217.403 84.5088C217.856 83.8389 217.605 84.0274 218.453 83.8096C222.115 84.492 238.862 97.7255 243.367 99.8369C246.92 101.503 250.455 106.33 255.27 103.064C256.5 102.232 257.338 100.934 257.587 99.4698C257.877 97.8263 257.453 96.1863 256.492 94.833C255.989 94.1249 255.373 93.6255 254.678 93.1153C248.614 88.6539 242.081 84.6821 235.824 80.4815C230.844 77.1384 225.959 73.3575 220.771 70.3623C219.418 69.5808 217.932 68.8867 216.38 68.6241C213.23 68.0915 210.306 69.4603 207.809 71.2627C203.536 74.3485 198.069 80.4072 192.351 79.5215C190.508 79.2359 188.96 78.4214 187.859 76.8897C187.105 75.84 186.765 74.3423 186.982 73.0635C187.537 69.8015 200.029 56.9242 202.828 54.2891C204.47 52.7438 206.225 51.2649 208.088 49.9922C208.659 49.6044 209.239 49.2299 209.828 48.8692ZM205.983 114.801C208.028 110.203 204.706 107.655 200.538 107.996C198.374 109.208 194.533 114.215 193.825 116.618C192.638 120.647 195.741 122.736 199.399 122.058C201.54 121.119 205.047 116.903 205.983 114.801ZM193.61 98.6573C189.735 99.6656 189.797 101.632 187.403 103.941C183.475 107.732 180.568 115.3 188.876 115.99C191.838 115.001 191.639 114.233 193.588 112.248C197.089 108.681 203.098 99.499 193.61 98.6573ZM188.089 98.9121C189.855 94.6443 187.173 91.2913 182.643 91.751C178.484 93.8709 167.984 106.224 177.081 108.643C178.053 108.901 178.51 108.852 179.46 108.689C181.568 107.9 182.701 106.459 184.005 104.692C185.283 102.96 187.29 100.841 188.089 98.9121ZM172.067 85.8262C168.473 87.1903 159.8 96.4411 166.724 99.8242C167.584 100.244 168.624 100.439 169.592 100.435C173.04 99.3814 176.967 94.1463 177.778 90.7852C176.876 87.7595 175.651 85.7141 172.067 85.8262ZM256.576 52.7022C241.723 55.8989 232.861 45.4774 221.082 47.4522C214.278 48.3602 210.121 50.9318 205.131 55.4258C199.668 60.3474 195.205 65.8941 190.432 71.4512C189.04 73.0721 188.89 75.1633 190.822 76.5176C194.586 78.9236 199.654 74.5631 202.537 72.2783C208.555 67.5083 213.97 63.4655 221.596 68.0967C227.41 71.6261 233.13 75.6439 238.783 79.5557L238.988 79.6963C243.239 82.506 253.317 88.8283 256.898 91.8252C260.659 88.9632 264.663 86.0205 268.357 83.1045C264.508 72.9401 260.583 62.8055 256.576 52.7022ZM270.034 41.2168C265.677 42.9457 261.221 44.6575 256.945 46.5576C258.118 50.0124 271.679 85.4858 272.268 86.042C276.241 84.2671 281.392 82.2928 285.505 80.833C284.004 76.9175 270.711 41.7022 270.034 41.2168ZM154.784 41.0752C150.299 53.8676 144.465 67.9419 139.541 80.6719C140.878 81.2715 151.931 85.7843 152.776 85.6944L152.986 85.4678C158.337 72.4601 163.165 59.317 168.481 46.3213C163.877 44.676 159.309 42.9268 154.784 41.0752Z" fill="#333333"/>
<path d="M0.00378418 99.9971C2.33446 100.004 4.57674 99.5183 6.68517 98.525C34.5548 85.3957 59.6396 67.7571 96.5038 68.9997C114.415 69.6034 137.104 75.9964 141.504 77.9964C145.904 79.9964 147.84 80.7869 148.004 80.4964C152.504 72.5 163.504 52.5 168.504 46.5" stroke="#333333" stroke-width="2.6"/>
<path d="M426.004 56.0713C425.328 56.0693 424.693 56.2116 424.079 56.4935C395.294 69.7095 369.86 88.3447 332.004 87.0687C314.093 86.4649 291.404 80.072 287.004 78.072L284.504 77.498L278.504 79.498L257.004 45.998" stroke="#333333" stroke-width="2.6"/>
</svg>
