<svg width="245" height="90" viewBox="0 0 245 90" fill="none" xmlns="http://www.w3.org/2000/svg">
<path fill-rule="evenodd" clip-rule="evenodd" d="M77.5117 37C78.5216 37.001 86.8833 40.3073 87.5156 40.9483C87.798 41.8256 87.3284 42.5307 86.9404 43.3819C96.6286 46.7742 101.471 37.9588 111.757 42.208C123.156 37.6256 126.507 45.4986 137.252 44.0879C136.896 43.2408 135.858 41.2156 136.754 40.7481C138.27 39.9561 144.951 37.0356 146.347 37.0527C146.652 37.5003 147.019 38.1962 147.215 38.6983C150.196 46.3383 153.105 54.0131 156.003 61.6846C156.107 61.9598 156.121 62.1631 156.015 62.4375C155.483 63.169 148.156 65.7311 146.894 66.2549C145.6 66.7918 145.321 65.3821 145.071 64.4512C143.037 66.0325 140.922 67.5265 138.94 69.1719C139.705 70.6995 139.769 71.2945 139.615 72.9893C138.641 76.5044 135.977 77.2892 132.703 76.3916C132.418 80.6948 129.968 82.4294 125.831 81.0918C125.809 85.4456 122.445 87.2852 118.581 85.4199C116.506 92.5906 110.689 88.2201 106.76 85.7842C103.691 89.0427 100.655 87.323 99.1318 83.7442C98.9004 83.2003 94.0216 84.8204 93.4502 79.4717C89.6745 79.8466 88.1458 78.6813 87.6016 75.1182C87.5105 74.5219 85.5684 74.6142 84.7676 74.1885C81.6512 72.5317 81.7306 70.6418 82.9863 67.7529C82.7956 67.0679 79.4661 64.7313 78.7324 64.169C78.5689 64.6229 77.9497 66.5814 77.3281 66.3389C75.5701 65.6514 68.8387 63.4742 67.75 62.2979C67.8423 61.3186 76.7201 37.8906 77.3457 37.0029C77.4008 37.0008 77.4565 36.9999 77.5117 37ZM110.327 43.084C108.889 42.6109 107.085 42.1898 105.572 42.4072C98.1298 43.2024 94.7144 47.3088 86.4072 44.7383C84.0035 50.7486 81.6331 56.7728 79.2969 62.8096C80.7361 63.9545 82.5923 65.4693 84.0947 66.4873C85.9774 64.065 88.0647 62.0894 91.1191 64.1192C92.625 65.12 92.4365 66.6023 93.0723 67.209C96.4273 65.6585 98.7845 67.665 99.4834 71.0069C102.212 70.5215 104.604 71.3073 105.128 74.2822C105.222 74.8167 105.199 75.6969 105.499 76.0733C111.116 77.6541 111.114 80.4855 107.577 84.6016C109.37 85.7662 116.429 91.282 116.998 85.0488C117.185 82.9996 109.527 80.7979 110.349 79.082C113.106 77.8861 121.266 88.8893 124.163 82.9307C124.438 82.4849 124.464 80.9164 124.15 80.5C121.988 77.6372 117.754 76.014 114.901 73.7861C113.919 73.0202 112.029 72.5137 112.158 71.1289C113.015 70.3877 116.553 73.1483 117.5 73.792C120.507 75.7687 123.642 78.0296 126.778 79.793C127.342 80.1101 128.345 80.1755 128.944 80.0645C131.075 79.9287 131.905 76.1859 130.47 74.9824C129.242 73.9536 127.189 72.7514 125.727 71.7979L117.714 66.458C116.756 65.8236 114.822 65.0149 114.756 63.9209C115.021 63.5291 114.875 63.6401 115.37 63.5127C117.511 63.9117 127.303 71.6483 129.937 72.8828C132.014 73.8572 134.08 76.6791 136.896 74.7695C137.614 74.2836 138.104 73.524 138.25 72.668C138.42 71.7071 138.172 70.7482 137.61 69.957C137.316 69.543 136.956 69.2515 136.55 68.9531C133.004 66.3448 129.185 64.0224 125.526 61.5664C122.614 59.6118 119.758 57.4016 116.726 55.6504C115.935 55.1934 115.066 54.7874 114.158 54.6338C112.317 54.3224 110.607 55.1229 109.147 56.1768C106.649 57.9809 103.452 61.5229 100.109 61.0049C99.0321 60.8379 98.1271 60.3622 97.4834 59.4668C97.0422 58.8531 96.8428 57.9772 96.9697 57.2295C97.2935 55.3226 104.599 47.7935 106.235 46.2529C107.195 45.3496 108.22 44.4843 109.31 43.7402C109.644 43.5135 109.983 43.2949 110.327 43.084ZM108.08 81.6319C109.276 78.9438 107.333 77.4541 104.896 77.6533C103.631 78.3622 101.386 81.2891 100.972 82.6944C100.278 85.0499 102.092 86.2704 104.23 85.874C105.482 85.3251 107.533 82.8609 108.08 81.6319ZM100.846 72.1934C98.5802 72.7829 98.6157 73.9317 97.2158 75.2822C94.9191 77.4983 93.2199 81.9238 98.0771 82.3272C99.8088 81.7486 99.693 81.3003 100.832 80.1397C102.879 78.054 106.392 72.6856 100.846 72.1934ZM97.6182 72.3418C98.6506 69.8468 97.0816 67.8865 94.4336 68.1553C92.0018 69.3948 85.863 76.6172 91.1816 78.0313C91.7503 78.1825 92.0169 78.154 92.5723 78.0586C93.8047 77.5976 94.4675 76.7546 95.2295 75.7217C95.9768 74.7087 97.1515 73.4694 97.6182 72.3418ZM88.25 64.6914C86.1488 65.4887 81.0767 70.8978 85.125 72.876C85.6277 73.1216 86.2359 73.2348 86.8018 73.2324C88.818 72.6167 91.1146 69.556 91.5889 67.5908C91.0616 65.8219 90.345 64.6261 88.25 64.6914ZM137.659 45.3242C128.975 47.1933 123.794 41.1013 116.907 42.2559C112.929 42.7868 110.499 44.2896 107.581 46.917C104.387 49.7945 101.778 53.0381 98.9873 56.2871C98.1736 57.2348 98.0865 58.4573 99.2158 59.249C101.416 60.6555 104.379 58.1064 106.064 56.7705C109.583 53.9816 112.749 51.6183 117.208 54.3262C120.607 56.3897 123.952 58.7383 127.257 61.0254L127.376 61.1074C129.861 62.7501 135.754 66.447 137.848 68.1992C140.046 66.5259 142.388 64.8045 144.548 63.0996C142.297 57.1568 140.002 51.2313 137.659 45.3242ZM145.527 38.6094C142.98 39.6202 140.375 40.6215 137.875 41.7324C138.561 43.7524 146.49 64.4938 146.834 64.8174C149.156 63.7797 152.168 62.6259 154.572 61.7725C153.695 59.4831 145.921 38.8857 145.527 38.6094ZM78.1455 38.5274C75.5234 46.0065 72.1125 54.235 69.2334 61.6777C70.0147 62.0281 76.4775 64.6669 76.9717 64.6143L77.0947 64.4815C80.2234 56.8764 83.0461 49.1928 86.1543 41.5947C83.4621 40.6328 80.7913 39.6099 78.1455 38.5274Z" fill="#333333"/>
<path d="M0.75 0C0.75 9.5 23.9923 38.1829 47.75 45.5C57.3328 48.4514 73.25 48.5 73.25 48.5" stroke="#333333" stroke-width="1.5"/>
<path d="M150.75 50.5001C170.75 17 232.75 45.0464 244.75 45.0467" stroke="#333333" stroke-width="1.5"/>
</svg>
