<svg width="74" height="63" viewBox="0 0 74 63" fill="none" xmlns="http://www.w3.org/2000/svg">
<path d="M53.9463 14.6348C56.2814 14.2466 58.6436 15.1542 60.1182 17.0059C61.5927 18.8578 61.9483 21.3638 61.0469 23.5527C60.1452 25.7417 58.1277 27.2707 55.7764 27.5469C52.2592 27.9598 49.0549 25.4907 48.5576 21.9844C48.0606 18.4782 50.4529 15.2157 53.9463 14.6348ZM59.2432 20.0508C58.7454 17.6775 56.4386 16.1401 54.0566 16.5947C52.4772 16.8962 51.1833 18.0269 50.6729 19.5518C50.1625 21.0767 50.515 22.7586 51.5947 23.9502C52.6745 25.1416 54.3134 25.6579 55.8809 25.2998C58.2451 24.7597 59.7407 22.4244 59.2432 20.0508Z" fill="#4E9C5A"/>
<path d="M70.8398 0.587891C71.8537 0.522484 73.4974 0.328421 73.835 1.64648C74.1032 2.69464 73.9637 4.34383 73.8916 5.45996C73.4014 13.053 70.171 20.3686 66.373 26.8604C65.2239 28.8034 63.3226 30.9765 62.0146 32.8057C60.5768 34.8166 56.7871 37.6557 55.7959 39.6016C55.8595 42.7186 56.0844 45.3096 55.0244 48.3418C54.1781 50.7811 52.1042 53.8837 50.3057 55.7266C49.0718 56.9908 42.409 61.8917 40.9131 61.3682C40.4869 60.771 41.5573 56.4263 41.7129 55.5371C41.8751 54.6438 41.9842 53.7413 42.0391 52.835C42.1382 51.0129 42.0339 50.0326 41.5156 48.3223C39.9484 49.2762 38.2408 49.9788 36.4561 50.4043C35.8442 51.6921 35.4594 53.3595 34.835 54.7559C33.3682 58.0359 31.0354 60.3596 27.7188 61.748C27.1997 61.9653 26.5093 62.1778 25.9932 61.9453C25.6275 61.3987 25.986 60.2276 26.123 59.5273C23.533 61.2517 22.1223 61.9523 19.0479 62.4541C18.2637 62.5784 15.4129 63.191 15.2559 62.0293C14.7596 58.3556 15.7379 54.7054 17.2695 51.3857C17.0195 51.3223 16.771 51.2533 16.5244 51.1777C14.9389 50.6826 15.4591 49.6807 15.9424 48.4795C17.2675 45.1866 20.9037 42.7449 24.1084 41.5283C24.9622 41.2042 25.8157 40.9084 26.6689 40.5654C27.1818 38.8154 27.7549 36.8253 28.1191 35.0518C25.5799 34.9604 23.5231 35.1346 21.1387 35.8496C20.0425 36.1784 15.8142 37.9498 15.7812 35.9814C15.772 35.4299 15.8685 34.7809 16.127 34.2891C19.621 27.6426 25.3592 20.6263 33.5908 20.7607C34.283 20.6922 36.4071 20.7712 36.9141 20.3428C38.751 18.7906 40.0385 16.731 41.9258 15.1758C42.7328 14.5106 43.5521 13.5813 44.3125 12.8389C46.9594 10.2546 50.3539 8.3608 53.457 6.36328C58.6196 3.63537 65.0542 1.1473 70.8398 0.587891ZM27.5713 42.9463C27.3515 42.8548 27.4598 42.8623 27.2363 42.9072C22.0361 43.8521 21.1623 45.1022 17.7783 48.6621C18.994 49.0804 19.5448 49.413 20.4385 50.3672C18.2892 53.9483 17.0499 56.3038 17.1758 60.6875C19.0141 60.4293 19.7744 60.1677 21.4854 59.6123C23.0632 59.1 26.2441 56.3029 27.3418 56.6016C28.0702 57.2422 27.7178 58.8105 28.127 59.0547C28.2214 59.0189 28.4288 58.9472 28.5088 58.9072C32.8652 56.7118 33.9797 53.0638 34.0762 48.4199C32.5762 51.6972 30.5259 52.809 27.2705 54.1885C26.6433 54.454 22.6626 55.4591 22.5264 54.4824C22.1997 52.1307 22.6559 49.1299 23.6514 46.958C24.5343 44.938 27.4138 43.4143 27.5713 42.9463ZM53.665 40.8203C52.0457 42.2812 50.5231 43.6058 48.6719 44.7861C47.1168 45.7777 45.2341 46.6713 43.7324 47.6865C44.353 50.5751 44.3297 55.2177 43.4199 58.04C44.037 58.007 44.7889 57.1649 45.3125 56.873C50.8998 53.7582 54.2038 47.6994 53.7998 41.3193C53.7861 41.1033 53.8129 40.9866 53.665 40.8203ZM29.6348 44.3691C25.5903 46.4579 25.3933 48.3424 24.5469 52.5684C25.2863 52.4307 26.0586 52.3117 26.7686 52.0723C29.1682 51.1787 31.1947 49.9685 32.4531 47.6641C31.8595 46.6636 30.5954 45.0184 29.6348 44.3691ZM29.9766 37.2461C29.597 38.3687 29.1355 39.7388 28.6543 40.8154C30.4981 41.6697 31.7713 43.7036 33.2549 45.0996C34.3227 46.1042 35.5675 47.1041 36.5742 48.1279L37.8115 47.5811C38.3218 47.3595 38.8567 47.139 39.3506 46.8867C38.6167 45.7383 36.5237 43.9687 35.4941 42.8701C33.9261 41.1969 32.3801 39.5239 30.665 37.999C30.4142 37.776 30.1576 37.411 29.9766 37.2461ZM57.9492 6.47266C55.9514 7.47897 52.1379 9.4955 50.2803 10.791C43.774 15.3289 38.1918 21.6597 34.0518 28.4033C32.8291 30.3948 31.6965 33.1555 30.5996 35.2568C31.881 36.1986 32.9621 37.5487 34.1064 38.6289C35.4631 39.9095 36.7117 41.0122 37.9932 42.3721C38.8922 43.3262 40.4999 45.2339 41.4688 45.9785C43.9813 45.486 44.8516 44.656 46.958 43.3037C50.9679 40.7295 54.2633 37.7618 57.626 34.4365C60.396 31.6973 62.1371 29.4814 64.2744 26.21C66.2972 23.1136 67.5001 20.4435 68.8701 17.0254C65.4673 14.5328 62.5528 12.1773 59.8662 8.90625C59.4832 8.43991 58.2766 6.63284 57.9492 6.47266ZM34.9893 22.583C28.7107 22.766 27.1392 23.9074 22.6387 28.3975C21.7968 29.2374 18.8386 33.3755 18.6953 34.3008C18.9099 34.2999 18.8231 34.3345 18.9766 34.2354C22.3579 33.4116 25.4458 32.9373 28.9541 33.3984C30.8928 30.4579 32.3006 26.9621 34.2969 24.0107C34.557 23.6262 35.0023 23.051 35.1924 22.6562C35.0731 22.5942 35.0833 22.5697 34.9893 22.583ZM72.0195 2.80762C71.8006 2.66093 71.5679 2.72228 71.2881 2.74609C66.8171 3.08456 64.0769 4.11737 59.8691 5.53223C60.835 6.44238 61.6144 7.80008 62.4336 8.86816C63.2459 9.92731 63.8933 10.4644 64.9287 11.2881L69.5352 15.1533C70.8575 11.8629 71.5734 8.82313 71.9521 5.2959C72.0279 4.59004 72.2323 3.46442 72.0195 2.80762Z" fill="#4E9C5A"/>
<path d="M36.5044 0.052439C37.1858 -0.0255536 38.4977 -0.0448355 39.1332 0.197437C39.4621 0.631998 39.0007 6.81884 38.7413 7.09504C36.5168 7.27807 37.0756 4.98245 37.2804 3.61974L23.1124 17.9202C21.6022 19.4169 20.5305 21.1096 18.7739 22.3561C17.1963 21.6986 15.9406 20.1112 14.8537 18.8333C11.9811 22.0012 8.61159 25.1339 5.57225 28.1595C4.37382 29.3526 3.27621 30.6249 2.03145 31.7711C1.50306 32.2868 0.774952 32.8477 0.0698945 32.3057C-0.512034 30.9684 2.70441 28.2712 3.62384 27.3439L9.49515 21.5104C11.1774 19.8312 13.0834 17.3602 15.0373 16.0499C16.3002 17.4632 17.208 18.3915 18.5818 19.6539C19.795 18.7327 20.7257 17.6302 21.7876 16.5479L26.4332 11.8033C28.9347 9.23348 33.3903 5.05711 35.4317 2.26144C34.2993 2.19691 33.1642 2.1912 32.0311 2.24442C32.0113 1.68005 32.0403 1.07604 32.0562 0.508654C33.5743 0.324338 34.9805 0.164796 36.5044 0.052439Z" fill="#4E9C5A"/>
</svg>
