<svg width="128" height="311" viewBox="0 0 128 311" fill="none" xmlns="http://www.w3.org/2000/svg">
<mask id="mask0_2343_10352" style="mask-type:alpha" maskUnits="userSpaceOnUse" x="0" y="0" width="128" height="311">
<path d="M0.5 15C0.5 6.7157 6.57026 0 14.0582 0H122.071L127.5 311H0.5V15Z" fill="white"/>
</mask>
<g mask="url(#mask0_2343_10352)">
<mask id="mask1_2343_10352" style="mask-type:alpha" maskUnits="userSpaceOnUse" x="-498" y="0" width="627" height="311">
<path d="M128.786 311H-497.879V15C-497.879 6.7157 -491.041 0 -482.607 0H97.1261L128.786 311Z" fill="white"/>
</mask>
<g mask="url(#mask1_2343_10352)">
<path d="M188.711 543.712C187.149 558.9 174.47 589.284 163.222 600.302C150.816 595.946 136.815 589.924 124.31 585.146C182.389 510.302 123.244 407.059 88.5336 336.588C28.5185 214.749 -1.50357 82.803 62.5815 -47.2838C53.3273 -56.2826 44.9267 -65.1041 37.2 -75.5574C-45.5007 -187.446 -22.1324 -394.662 61.8967 -501.987C74.2907 -496.896 89.957 -491.288 102.63 -486.794C80.7988 -457.556 65.8714 -428.883 53.4464 -394.609C38.9591 -353.743 30.9534 -310.909 29.7357 -267.703C27.8779 -203.603 43.0445 -133.421 87.7364 -86.2313C122.273 -129.286 180.885 -168.067 237.478 -144.821C269.328 -131.739 278.031 -95.5183 263.369 -65.2443C251.283 -40.2914 229.189 -22.1477 203.278 -13.0123C166.322 0.299382 133.024 -4.84871 98.3882 -20.9469C94.8165 -14.2922 91.6237 -5.35936 89.0396 1.76764C79.2815 28.6829 74.0935 54.604 72.1801 83.0698C67.8557 147.404 82.0944 206.236 105.687 265.099C115.133 288.386 125.408 311.309 136.49 333.828C168.183 399.659 202.796 467.643 188.711 543.712ZM191.645 -54.9726C209.28 -61.5401 223.931 -74.0009 227.319 -93.3009C227.412 -100.132 223.426 -102.08 217.727 -104.017C182.142 -116.114 146.586 -88.1462 124.789 -62.9296L121.94 -59.1772C144.027 -48.7492 168.331 -46.291 191.645 -54.9726Z" fill="#4E9C5A"/>
</g>
</g>
<path d="M47 217C70.196 217 89 198.196 89 175C89 151.804 70.196 133 47 133C23.804 133 5 151.804 5 175C5 198.196 23.804 217 47 217Z" fill="white" stroke="#4E9C5A" stroke-width="10"/>
<path d="M50.5066 174.359C52.7466 175.442 53.8666 177.103 53.8666 179.343C53.8666 181.173 53.2132 182.647 51.9066 183.767C50.5812 184.887 48.8546 185.447 46.7266 185.447C44.3932 185.447 42.5826 184.85 41.2946 183.655C40.0252 182.461 39.3906 180.818 39.3906 178.727H42.3026C42.3772 181.471 43.8426 182.843 46.6986 182.843C47.9492 182.843 48.9386 182.526 49.6666 181.891C50.3946 181.238 50.7586 180.37 50.7586 179.287C50.7586 178.149 50.3852 177.262 49.6386 176.627C48.8919 175.974 47.8559 175.647 46.5306 175.647H45.0466V173.323H46.4466C47.6972 173.323 48.6492 173.062 49.3026 172.539C49.9746 171.998 50.3106 171.223 50.3106 170.215C50.3106 169.263 49.9746 168.517 49.3026 167.975C48.6492 167.434 47.7439 167.163 46.5866 167.163C44.1039 167.163 42.8066 168.339 42.6946 170.691H39.7546C39.7919 168.787 40.4079 167.303 41.6026 166.239C42.8159 165.157 44.4866 164.615 46.6146 164.615C48.6306 164.615 50.2359 165.101 51.4306 166.071C52.6439 167.042 53.2506 168.367 53.2506 170.047C53.2506 171.97 52.3359 173.407 50.5066 174.359Z" fill="#5E5E5E"/>
</svg>
