<svg width="127" height="311" viewBox="0 0 127 311" fill="none" xmlns="http://www.w3.org/2000/svg">
<mask id="mask0_2343_10400" style="mask-type:alpha" maskUnits="userSpaceOnUse" x="0" y="0" width="127" height="311">
<path d="M127 15C127 6.7157 120.284 0 112 0H0V296C0 304.284 6.7157 311 15 311H127V15Z" fill="white"/>
</mask>
<g mask="url(#mask0_2343_10400)">
<mask id="mask1_2343_10400" style="mask-type:alpha" maskUnits="userSpaceOnUse" x="1" y="0" width="623" height="313">
<path d="M1 312.003H624V15C624 6.71571 617.284 0 609 0H27.6928L1 312.003Z" fill="white"/>
</mask>
<g mask="url(#mask1_2343_10400)">
<path d="M-51.8594 552.55C-50.325 567.984 -37.872 598.863 -26.8245 610.06C-14.6398 605.633 -0.886704 599.512 11.3951 594.657C-45.6493 518.596 12.4413 413.676 46.5334 342.06C105.479 218.24 134.966 84.1494 72.0228 -48.0518C81.1127 -57.1971 89.3627 -66.1628 96.9527 -76.7863C178.18 -190.493 155.228 -401.078 72.6961 -510.147C60.5228 -504.973 45.1354 -499.274 32.6883 -494.707C54.1304 -464.993 68.792 -435.854 80.9957 -401.023C95.2247 -359.493 103.089 -315.962 104.284 -272.054C106.109 -206.912 91.2117 -135.59 47.3158 -87.6328C13.3951 -131.387 -44.1727 -170.798 -99.7583 -147.174C-131.039 -133.879 -139.587 -97.0708 -125.186 -66.3047C-113.316 -40.9463 -91.6155 -22.5084 -66.1667 -13.2244C-29.8682 0.303604 2.83579 -4.92806 36.8547 -21.288C40.3623 -14.5251 43.4979 -5.44681 46.0359 1.79611C55.6205 29.149 60.7163 55.4921 62.5956 84.4208C66.8429 149.801 52.8581 209.589 29.6858 269.409C20.409 293.074 10.3176 316.37 -0.567612 339.255C-31.6954 406.156 -65.694 475.244 -51.8594 552.55ZM-54.7404 -55.8657C-72.0615 -62.54 -86.4528 -75.2031 -89.7807 -94.8168C-89.8714 -101.759 -85.9561 -103.738 -80.359 -105.707C-45.4073 -118.001 -10.4841 -89.5784 10.9254 -63.9518L13.7227 -60.1389C-7.97161 -49.5414 -31.8421 -47.0432 -54.7404 -55.8657Z" fill="#4E9C5A"/>
</g>
</g>
<path d="M76.5 213.1C53.3495 213.1 34.5 194.137 34.5 170.643C34.5001 147.149 53.3496 128.186 76.5 128.186C99.65 128.186 118.5 147.149 118.5 170.643C118.5 194.137 99.65 213.1 76.5 213.1Z" fill="white" stroke="#4E9C5A" stroke-width="10"/>
<path d="M82.172 173.247H84.832V175.876H82.172V180.739H79.176V175.876H69.3203V172.993L78.896 160.609H82.172V173.247ZM79.204 173.247V164.172L72.2043 173.247H79.204Z" fill="#5E5E5E"/>
</svg>
