<svg width="35" height="50" viewBox="0 0 35 50" fill="none" xmlns="http://www.w3.org/2000/svg">
<path d="M17.5 23.75C15.8424 23.75 14.2527 23.0915 13.0806 21.9194C11.9085 20.7473 11.25 19.1576 11.25 17.5C11.25 15.8424 11.9085 14.2527 13.0806 13.0806C14.2527 11.9085 15.8424 11.25 17.5 11.25C19.1576 11.25 20.7473 11.9085 21.9194 13.0806C23.0915 14.2527 23.75 15.8424 23.75 17.5C23.75 18.3208 23.5883 19.1335 23.2742 19.8918C22.9602 20.6501 22.4998 21.3391 21.9194 21.9194C21.3391 22.4998 20.6501 22.9602 19.8918 23.2742C19.1335 23.5883 18.3208 23.75 17.5 23.75ZM17.5 0C12.8587 0 8.40752 1.84374 5.12563 5.12563C1.84374 8.40752 0 12.8587 0 17.5C0 30.625 17.5 50 17.5 50C17.5 50 35 30.625 35 17.5C35 12.8587 33.1563 8.40752 29.8744 5.12563C26.5925 1.84374 22.1413 0 17.5 0Z" fill="#4E9C5A"/>
</svg>
