<svg width="150" height="138" viewBox="0 0 150 138" fill="none" xmlns="http://www.w3.org/2000/svg">
<path fill-rule="evenodd" clip-rule="evenodd" d="M88.1396 45.7961C89.8643 45.8005 92.8052 45.4277 92.7373 47.9709C92.8041 51.2944 92.756 54.626 92.7627 57.9572L92.7929 78.5226L92.8076 99.6926C92.8087 103.267 92.8315 106.847 92.7881 110.42C92.7302 111.015 92.7784 111.611 92.3008 112.052C91.006 113.25 89.5407 112.152 89.4658 110.587C89.4335 109.913 89.4857 109.255 89.4902 108.584L89.497 103.94L89.4892 90.3478L89.4853 49.1467C86.9091 49.1026 84.3322 49.1046 81.7558 49.1525L81.7519 118.002C85.171 118.018 88.5905 118.012 92.0088 117.987C93.7257 119.075 93.4236 120.957 91.5107 121.165C89.9553 121.335 87.8467 121.198 86.2295 121.192C81.6682 121.147 77.1062 121.13 72.5449 121.139L19.3027 121.137L7.07712 121.152C5.29753 121.153 3.43244 121.149 1.6572 121.174C-0.505798 121.204 -0.436002 118.225 1.19821 118.113C2.45151 118.029 3.96149 118.06 5.23727 118.058L13.1074 118.044C13.2015 111.613 13.1555 104.972 13.1718 98.5246C13.15 96.4362 12.3856 91.6312 15.3222 91.5851C18.861 91.5294 22.5144 91.3748 26.04 91.6603C26.7291 91.7172 27.206 92.4532 27.5215 92.9787C27.647 95.3516 27.5652 98.5771 27.5722 101L27.5703 117.979C30.0161 118.079 32.465 118.084 34.9111 117.992C34.7458 109.975 34.9127 101.312 34.9179 93.2531L34.917 84.2443C34.9158 82.4806 34.8735 80.6904 34.9883 78.9308C35.1136 77.0342 36.5877 76.4595 38.2666 76.4728C40.5115 76.5154 43.0523 76.5067 45.2666 76.4679C47.2953 76.4326 49.261 76.4188 49.2675 78.8908C49.2707 80.0792 49.3125 81.3611 49.334 82.5431C49.3794 85.8225 49.3965 89.1023 49.3857 92.382L49.3711 117.961C51.8209 118.049 54.2732 118.057 56.7236 117.985L56.707 84.632C56.6632 80.3447 56.6624 76.057 56.705 71.7697C56.7087 69.4956 56.697 67.1874 56.7343 64.9142C56.7406 64.5422 56.8927 63.3583 57.1416 63.1125C57.7515 62.5103 59.0867 62.4111 59.8965 62.4133C61.9196 62.4191 63.9187 62.4099 65.9394 62.426C67.0946 62.4665 68.2876 62.3598 69.4316 62.5217C70.516 62.6752 70.9891 63.347 71.0127 64.3908C71.0603 66.5051 71.054 68.6151 71.0634 70.7267L71.0976 83.0803L71.0927 117.976C73.5794 118.061 76.0679 118.079 78.5556 118.033C78.3459 115.985 78.453 111.846 78.4541 109.597L78.4609 94.1877L78.4922 62.3576C78.5035 58.116 78.4444 53.8762 78.5039 49.6359C78.5325 47.5947 78.323 46.5746 80.4834 45.8215C81.5542 45.7827 82.6993 45.8345 83.7754 45.8312C85.2266 45.8269 86.6921 45.7924 88.1396 45.7961ZM46.0498 79.8195C43.4576 79.7807 40.8646 79.7823 38.2724 79.8234L38.2558 118.012C39.2343 118.039 45.5473 118.19 46.0888 117.959L46.1064 89.7619C46.0922 86.405 46.146 83.205 46.0498 79.8195ZM17.4287 94.7121C17.1129 94.7255 16.6865 94.7027 16.4414 94.8644C16.3112 95.6311 16.4057 100.127 16.4004 101.164L16.331 118.076C18.6216 118.063 21.1761 117.985 23.4404 118.039L24.4336 118.038L24.4228 94.7746C22.0918 94.7266 19.7601 94.7054 17.4287 94.7121ZM67.8027 65.6896C65.3595 65.642 62.6603 65.5993 60.2187 65.6916L59.9834 65.8254C59.8696 67.261 59.9476 70.0978 59.9463 71.6476L59.9336 83.0871L59.8838 118.05C62.5091 118.054 65.1346 118.043 67.7597 118.016C67.8525 115.57 67.7902 112.807 67.8027 110.333C67.8383 104.547 67.837 98.7624 67.7988 92.9767C67.8479 83.8811 67.849 74.7853 67.8027 65.6896Z" fill="#4E9C5A"/>
<path fill-rule="evenodd" clip-rule="evenodd" d="M126.12 37.6875C127.285 37.6799 129.922 37.5984 130.977 37.8125C131.619 37.9384 132.213 38.2441 132.689 38.6944C134.41 40.3106 133.867 45.2946 133.933 47.6885C137.491 47.8594 141.038 47.635 144.586 47.7881C146.233 47.7416 148.717 49.5 148.781 51.2832C149.027 58.1186 148.911 65.6843 148.919 72.4776C148.925 74.7113 148.912 76.9451 148.881 79.1787C148.865 80.4265 148.967 81.9502 148.553 83.1319C147.213 86.953 143.235 86.2254 139.887 86.2041C136.895 86.1809 133.902 86.1777 130.91 86.1953L113.401 86.1846C110.455 86.1891 107.102 86.3111 104.19 86.0459C103.129 85.9493 102.343 85.5463 101.59 84.7891C100.327 83.5181 100.391 82.0731 100.384 80.4151L100.372 60.2237L100.366 54.4912C100.365 52.5451 100.11 50.4923 101.665 49.0254C103.379 47.4086 106.235 47.7636 108.439 47.7666L115.307 47.7686C115.329 43.9373 113.96 38.4271 118.937 37.7022C121.33 37.7102 123.726 37.7052 126.12 37.6875ZM103.528 76.0352C103.523 77.7888 103.473 79.5516 103.557 81.3018C103.593 82.0731 103.981 82.8723 104.842 82.9365C106.74 83.0779 108.682 83.025 110.587 83.0235L120.389 83.0332L135.438 83.0283C136.797 83.0268 144.257 83.2932 145.128 82.4903C146.022 81.6656 145.707 76.5291 145.725 74.9063L145.76 65.6035C142.557 66.8505 139.389 67.8424 136.002 68.4961C134.004 68.8818 131.918 69.059 129.922 69.3838C129.894 71.2504 130.161 72.7698 128.276 73.7901C127.105 73.8353 125.89 73.8059 124.731 73.8242C120.285 73.8943 119.371 74.2058 119.418 69.374C115.131 69.1578 107.608 67.0308 103.552 65.4629L103.528 76.0352ZM122.546 65.3213C122.506 67.2065 122.462 68.9069 122.538 70.792C123.942 70.7966 125.374 70.8167 126.775 70.7569C126.893 68.9061 126.854 67.1851 126.79 65.3311C125.386 65.3254 123.948 65.3031 122.546 65.3213ZM144.922 51.0879C141.505 50.7723 135.383 50.987 131.79 50.9951L107.471 50.9824C106.611 50.9758 104.637 50.759 104.031 51.4483C103.236 52.3525 103.58 60.1065 103.62 61.7256C108.596 64.3671 113.762 65.452 119.332 66.1397L119.452 63.6367C120.59 61.9247 122.825 62.2213 124.69 62.252C126.661 62.2843 129.616 61.7929 129.906 64.4473C129.963 65.0019 129.996 65.5589 130.005 66.1162C132.063 65.8828 135.496 65.5072 137.436 64.9571C140.245 64.3247 143.121 63.1969 145.702 61.9268C145.781 59.0051 145.779 55.0157 145.693 52.0615C145.453 51.7389 145.199 51.3743 144.922 51.0879ZM130.777 45.667C131.457 39.3101 129.355 41.1107 124.47 40.8848C123.128 40.8228 120.872 40.8133 119.31 40.9024C118.838 41.2134 118.549 41.388 118.484 41.9824C118.291 43.7666 118.408 45.9349 118.437 47.7373C122.016 47.8993 126.511 47.8151 130.131 47.7617C130.63 47.685 130.538 47.7812 130.759 47.4805C130.836 46.9308 130.726 46.1424 130.777 45.667Z" fill="#4E9C5A"/>
<path fill-rule="evenodd" clip-rule="evenodd" d="M117.828 88.8812C122.578 88.648 127.745 88.931 132.523 88.931C132.878 88.9312 133.32 89.1726 133.585 89.4056C133.885 89.6633 134.102 90.0027 134.207 90.3831C134.48 91.363 134.355 97.2806 134.425 98.8548C136.692 98.9351 139.007 98.8826 141.231 98.8949C143.992 98.9104 146.908 98.5049 148.466 101.312C148.998 102.271 149.018 103.041 149.022 104.116C149.031 106.522 148.982 108.929 148.977 111.334L149.033 122.224C149.048 124.665 149.04 127.105 149.011 129.544C148.983 131.812 149.203 134.325 147.406 136.031C145.886 137.473 142.569 137.083 140.598 137.08L131.852 137.069L113.321 137.072C110.364 137.075 107.278 137.163 104.327 136.964C104.04 136.945 103.273 136.779 102.983 136.656C101.525 136.036 100.485 134.511 100.388 132.934C100.37 130.76 100.39 128.558 100.394 126.374L100.393 113.994L100.391 106.69C100.391 105.838 100.403 104.948 100.395 104.1C100.345 98.2985 104.799 98.8598 109.067 98.8822C111.221 98.8955 113.377 98.8932 115.532 98.8753C115.517 96.9263 115.126 91.5606 115.997 90.0589C116.436 89.3037 117.026 89.0753 117.828 88.8812ZM103.617 116.45C103.67 121.634 103.426 126.901 103.611 132.089C103.647 133.138 104.1 133.822 105.193 133.88C106.877 133.967 108.574 133.935 110.261 133.933L119.609 133.926C127.62 133.922 135.628 133.941 143.641 133.91C146.294 133.899 145.833 131.911 145.857 129.938C145.876 128.331 145.814 126.719 145.831 125.109C145.82 122.377 145.74 119.333 145.807 116.627C141.552 118.295 134.797 120.147 130.218 120.366C130.25 123.101 130.135 125.515 126.568 125.325C124.098 125.192 119.832 126.244 119.353 122.783C119.253 122.057 119.294 121.097 119.299 120.356C114.569 119.908 107.984 118.221 103.617 116.45ZM127.008 116.142C125.493 116.036 123.973 116.028 122.456 116.118C122.16 117.141 122.272 121.024 122.341 122.187C123.686 122.389 125.594 122.343 126.97 122.224C127.275 121.711 127.076 117.019 127.008 116.142ZM144.902 102.047C139.055 101.728 131.498 101.986 125.627 101.999L110.74 101.993C108.886 101.989 106.874 101.899 105.042 101.941C104.574 102.096 104.064 102.329 103.813 102.784C103.257 103.79 103.595 111.316 103.59 112.868C104.702 113.348 106.029 114.05 107.146 114.419C110.621 115.571 115.625 116.703 119.275 117.137C119.274 116.065 119.261 114.841 120.101 114.07C121.693 112.609 124.72 113.162 126.751 113.069C129.618 112.936 130.27 114.871 130.249 117.172C133.279 116.863 135.923 116.341 138.882 115.622C141.354 114.924 143.561 114.133 145.809 112.849C145.879 109.649 145.87 106.449 145.781 103.25C145.445 102.69 145.355 102.526 144.902 102.047ZM119.584 92.0013C119.196 92.1508 118.891 92.3787 118.819 92.807C118.496 94.7001 118.637 96.9896 118.659 98.9017C122.612 99.0344 126.509 98.9154 130.464 98.9075C130.966 98.8897 130.911 98.9739 131.227 98.724C131.337 98.2365 131.328 92.9572 131.075 92.3763C130.37 91.9512 128.31 92.0023 127.43 92.0335C124.82 92.1272 122.185 91.9455 119.584 92.0013Z" fill="#4E9C5A"/>
<path d="M102.821 0.0757498C106.535 -0.0152875 111.17 -0.0374898 114.873 0.0833355C115.099 0.249122 115.358 0.421044 115.549 0.626659C116.115 1.23469 115.776 11.0252 115.742 12.4845C114.162 14.6117 112.514 13.3153 112.475 11.085C112.445 9.36234 112.423 7.64357 112.438 5.91966C109.008 8.7359 106 11.4706 102.697 14.3787L92.4486 23.2569C90.4299 24.9948 88.5426 26.8952 86.4418 28.5388C85.8877 28.9722 85.3639 29.3358 84.6418 29.4343C83.6731 29.5664 83.2185 28.9466 82.5339 28.3905C81.327 27.3271 80.1201 26.2554 78.9108 25.1904C75.8127 22.4458 72.664 19.7592 69.4663 17.1319C69.3171 17.3589 69.1637 17.5832 69.006 17.8044C67.9361 19.3025 66.6775 20.8289 65.5654 22.3288L56.5048 34.6919C53.2213 39.2347 49.8172 43.7569 46.4799 48.2643C46.2196 48.7655 44.7365 49.1319 44.3129 48.8139C40.0826 45.6368 35.7871 41.9306 31.6115 38.7274C29.9205 40.3028 27.2534 43.4705 25.6291 45.2739L12.1937 60.3358C10.8439 61.8837 9.52222 63.4118 8.03644 64.8306C6.04504 66.7319 4.20785 64.1849 5.42696 62.7398C6.7484 61.1734 8.26926 59.5629 9.65349 58.0319L16.8328 49.9683C21.1821 45.1535 25.4397 40.2589 29.7918 35.4473C30.8103 34.3213 31.7228 34.4848 32.861 35.3166C35.6302 37.3402 38.2949 39.525 40.9504 41.6956C42.1407 42.6845 43.7327 43.7562 44.7887 44.8416C45.8555 43.1383 48.2877 39.9187 49.5281 38.2456L57.19 27.8368C60.705 22.9883 64.3316 18.1129 67.8304 13.2467C68.2549 12.6564 69.4936 12.4102 70.0815 12.8784C73.1986 15.3613 76.1286 18.1187 79.0571 20.8241C80.835 22.4625 82.8498 23.8916 84.5837 25.5478C86.1509 24.0209 88.3712 22.2307 90.0636 20.7329L101.503 10.6507C104.507 8.04799 106.712 6.33256 109.501 3.40085C107.427 3.40944 104.954 3.51698 102.929 3.29463C101.367 3.12305 100.887 0.903788 102.821 0.0757498Z" fill="#4E9C5A"/>
</svg>
