<svg width="40" height="32" viewBox="0 0 40 32" fill="none" xmlns="http://www.w3.org/2000/svg">
<path d="M36 0H4C1.8 0 0.02 1.8 0.02 4L0 28C0 30.2 1.8 32 4 32H36C38.2 32 40 30.2 40 28V4C40 1.8 38.2 0 36 0ZM35.2 8.5L21.06 17.34C20.42 17.74 19.58 17.74 18.94 17.34L4.8 8.5C4.59946 8.38742 4.42384 8.23532 4.28378 8.05291C4.14372 7.87049 4.04212 7.66156 3.98515 7.43874C3.92818 7.21593 3.91701 6.98387 3.95231 6.75661C3.98762 6.52936 4.06867 6.31163 4.19056 6.1166C4.31245 5.92158 4.47265 5.75331 4.66145 5.62199C4.85026 5.49067 5.06374 5.39902 5.28899 5.3526C5.51424 5.30617 5.74657 5.30593 5.97191 5.3519C6.19725 5.39786 6.41093 5.48907 6.6 5.62L20 14L33.4 5.62C33.5891 5.48907 33.8027 5.39786 34.0281 5.3519C34.2534 5.30593 34.4858 5.30617 34.711 5.3526C34.9363 5.39902 35.1497 5.49067 35.3385 5.62199C35.5274 5.75331 35.6875 5.92158 35.8094 6.1166C35.9313 6.31163 36.0124 6.52936 36.0477 6.75661C36.083 6.98387 36.0718 7.21593 36.0149 7.43874C35.9579 7.66156 35.8563 7.87049 35.7162 8.05291C35.5762 8.23532 35.4005 8.38742 35.2 8.5Z" fill="#4E9C5A"/>
</svg>
