<svg width="1920" height="1962" viewBox="0 0 1920 1962" fill="none" xmlns="http://www.w3.org/2000/svg">
<path fill-rule="evenodd" clip-rule="evenodd" d="M-544.264 1641.94C-587.252 1643.17 -676.656 1619.4 -711.446 1592.54C-703.696 1556.92 -691.864 1516.31 -682.974 1480.26C-453.181 1612.47 -185.828 1412.72 -1.32104 1291.91C317.677 1083.02 675.598 952.766 1061.86 1081.41C1083.71 1052.75 1105.36 1026.5 1131.81 1001.5C1414.92 733.98 2002.16 722.914 2331.94 914.543C2322.13 950.4 2312.05 995.423 2304.01 1031.83C2214.54 982.532 2129.12 951.974 2028.94 930.317C1909.61 905.392 1787.09 898.969 1665.95 911.304C1486.21 929.465 1295.55 996.547 1179.64 1136.3C1312.23 1215.45 1441.46 1362.2 1396.69 1525.93C1371.49 1618.07 1273.4 1655.09 1183.6 1625.84C1109.58 1601.73 1051.02 1547.69 1016.26 1479.91C965.901 1383.33 968.417 1290.1 1001.05 1189.22C981.183 1181.83 955.089 1176.31 934.257 1171.81C855.586 1154.8 781.32 1149.97 701.112 1155.05C519.838 1166.52 360.554 1226.94 204.514 1313.04C142.822 1347.4 82.4441 1383.91 23.4804 1422.5C-149.138 1533.34 -326.729 1652.99 -544.264 1641.94ZM1129.34 1432.77C1153.97 1478.77 1194 1514.45 1249.13 1516.75C1268.25 1514.52 1272.27 1502.88 1275.65 1486.54C1296.76 1384.51 1205.96 1297.09 1127.74 1246.43L1116.24 1239.97C1094.98 1304.36 1096.77 1371.94 1129.34 1432.77Z" fill="#4E9C5A"/>
</svg>
