<svg width="81" height="77" viewBox="0 0 81 77" fill="none" xmlns="http://www.w3.org/2000/svg">
<path d="M14.4951 40.6357C15.9953 40.5717 17.4666 41.6466 18.5244 42.6211C20.0365 44.0205 20.9201 45.9707 20.9756 48.0303C21.0271 49.5891 19.8356 48.6481 19.6094 49.5566C19.4787 50.0814 19.4347 50.8202 19.2197 51.4111C18.9394 52.1914 18.5034 52.9068 17.9385 53.5137C16.4527 55.1057 14.5324 55.8124 12.3896 55.8916C7.57594 55.7161 4.19893 50.7611 5.97168 46.2285C7.48378 42.3629 10.7678 42.0839 14.2021 40.6582C14.2993 40.6473 14.3974 40.64 14.4951 40.6357ZM11.6543 43.543C8.57647 44.5357 6.68782 47.25 7.77832 50.4912C8.21984 51.7839 9.16245 52.8456 10.3936 53.4375C11.397 53.9226 12.4956 54.0315 13.5938 53.9277C15.7317 53.3725 17.4102 51.6382 17.5264 49.374C15.7375 49.0612 13.9702 49.3552 12.0947 49.1074C11.6526 47.547 12.1148 44.4066 11.8691 43.5635C11.8247 43.5578 11.6885 43.5356 11.6543 43.543ZM14.0869 42.1641C13.9264 43.7623 14.0434 45.6126 13.9531 47.2461C15.477 47.194 17.3246 47.2284 18.7891 47.0713L18.9727 47.0029C18.976 46.5999 18.0746 45.2227 17.7871 44.8389C16.921 43.6829 15.4475 42.642 14.0869 42.1641Z" fill="#4E9C5A"/>
<path d="M71.1991 46.4683C72.3832 46.4178 76.4689 45.9326 75.5943 47.9836C75.4999 48.205 75.3034 48.2199 75.097 48.2912C74.007 48.4385 72.5266 48.4855 71.4385 48.3742C70.4476 48.2728 70.2426 46.9615 71.1991 46.4683Z" fill="#4E9C5A"/>
<path d="M71.8053 38.1561C72.5081 38.1026 74.7353 38.085 75.3441 38.2934C75.7913 38.7756 75.4542 39.3736 75.1999 39.8906C75.0986 40.0964 74.787 40.0797 74.5778 40.105C73.6826 40.1241 69.2236 40.5552 70.7534 38.4364C71.0423 38.2017 71.4308 38.1987 71.8053 38.1561Z" fill="#4E9C5A"/>
<path d="M71.1372 50.7703C72.4632 50.693 74.1768 50.6726 75.4616 50.8691C75.5019 51.2483 75.6322 51.8462 75.4622 52.1602C75.1678 52.4135 75.1921 52.3369 74.7308 52.3864C73.5214 52.4459 71.9418 52.4971 70.7615 52.352C70.3443 52.3008 70.1625 51.1505 71.1372 50.7703Z" fill="#4E9C5A"/>
<path d="M71.2236 42.4576C72.3319 42.4327 75.8515 42.0201 75.6737 43.6828C75.4455 43.9955 75.4337 43.9248 75.0142 44.0934C74.0495 44.269 71.0085 44.541 70.5138 43.5079C70.4205 42.8904 70.6798 42.6363 71.2236 42.4576Z" fill="#4E9C5A"/>
<path d="M67.4562 46.4102C68.2501 46.4143 68.5826 46.852 69.07 47.3945C68.8168 47.7911 68.6734 47.9345 68.344 48.2773C68.2974 48.2988 68.2502 48.3193 68.2026 48.3388C67.8716 48.4763 67.6596 48.5092 67.3228 48.3698C66.6882 47.8538 67.0605 46.9501 67.4562 46.4102Z" fill="#4E9C5A"/>
<path d="M67.6171 50.7188C68.4118 50.9574 68.6618 51.2984 69.2032 51.9004C68.8797 52.1086 68.5338 52.2842 68.1934 52.4641C67.6265 52.6077 67.3342 52.5916 66.9637 52.1275C66.7925 51.4776 67.0989 51.0751 67.6171 50.7188Z" fill="#4E9C5A"/>
<path d="M67.2061 38.2239C67.8064 38.1857 68.89 38.1866 69.0623 38.8922C68.9975 39.1829 68.7364 39.3474 68.5021 39.5408C67.1496 40.3684 66.5595 39.271 67.2061 38.2239Z" fill="#4E9C5A"/>
<path d="M67.6422 42.4062C68.1417 42.4971 68.853 42.8131 69.0289 43.3136C68.8489 43.6452 68.7895 43.5977 68.4062 43.8179C67.0338 44.5929 66.4165 43.2581 67.6422 42.4062Z" fill="#4E9C5A"/>
<path d="M43.4453 28.0049C52.3155 27.6628 59.7785 34.587 60.1006 43.458C60.4226 52.3291 53.4812 59.7762 44.6094 60.0781C35.7661 60.379 28.3483 53.4647 28.0273 44.6221C27.7064 35.7796 34.6034 28.346 43.4453 28.0049ZM58.0771 42.6045C57.2837 34.8928 50.3885 29.284 42.6768 30.0771C34.9647 30.8704 29.356 37.7656 30.1494 45.4775C30.9429 53.1894 37.8379 58.7974 45.5498 58.0039C53.2613 57.2102 58.8703 50.316 58.0771 42.6045Z" fill="#4E9C5A"/>
<path d="M48.5176 35.6514C49.5789 35.5782 52.442 35.417 53.1729 36.0537C53.7068 36.9883 53.4656 47.9389 53.4541 49.6777C53.9333 50.1249 54.6968 50.9168 54.4834 51.6123C53.8797 52.0191 36.2203 51.7911 33.8438 51.75C33.9866 50.4358 34.0784 49.3605 34.085 48.0293C34.0913 46.7198 33.9858 45.2151 34.1328 43.9404C34.8206 43.8539 35.3219 43.8335 36.0166 43.8145C37.2109 43.7705 38.3321 43.7235 39.5283 43.791C39.6402 45.4911 39.5314 48.0443 39.5098 49.7998L40.9932 49.8311C40.9948 46.5247 40.9519 43.0358 41.2129 39.7588C43.1354 39.7352 44.5755 39.6572 46.4941 39.9609C46.6541 42.9087 46.5372 46.8515 46.5352 49.8691L47.915 49.8945C47.9217 46.9186 47.8471 39.094 48.0752 35.7861C48.0809 35.7044 48.3814 35.6765 48.5176 35.6514ZM50.0625 37.4453C49.9121 38.8856 49.9932 41.139 50.0156 42.6455L50.084 50.0195C50.5056 49.9845 50.9848 49.9606 51.3916 49.8633C51.5148 48.512 51.4674 47.0372 51.4785 45.6719C51.5007 42.9391 51.4031 40.1979 51.3828 37.4678C50.9612 37.4525 50.4788 37.4232 50.0625 37.4453ZM43.0986 41.6758C43.0093 43.8028 42.9001 47.6829 43.0332 49.7793L44.5273 49.7842C44.5843 47.7402 44.648 43.7248 44.4883 41.749C44.025 41.7297 43.5613 41.7055 43.0986 41.6758ZM36.1641 46.1504C36.1199 47.3208 36.0671 48.5614 36.1318 49.7295L37.6523 49.7119L37.583 46.1621L36.1641 46.1504Z" fill="#4E9C5A"/>
<path d="M6.16619 4.41985C7.41351 4.38024 7.72964 4.96971 8.26642 5.97947C7.87406 6.77932 7.69414 6.98587 7.01247 7.50929C5.58385 8.12679 4.12402 5.15795 6.16619 4.41985Z" fill="#4E9C5A"/>
<path d="M11.1673 4.52032C12.2496 4.41112 13.3746 4.71445 13.3549 6.10638C13.3463 6.70921 12.8389 7.09345 12.3959 7.46039C12.3547 7.48506 12.3129 7.50878 12.2706 7.53158C11.3213 8.04323 10.7095 6.62943 10.3721 5.96504C10.5228 5.23554 10.6009 4.96827 11.1673 4.52032Z" fill="#4E9C5A"/>
<path d="M16.8166 4.39865C18.782 4.37567 19.3755 6.20247 17.5862 7.43485C16.1525 7.85897 15.6517 6.46124 15.9588 5.27734C16.0752 4.82838 16.4109 4.58867 16.8166 4.39865Z" fill="#4E9C5A"/>
<path d="M69.2637 0.0117188C71.871 0.0103119 74.6184 -0.0394419 77.2188 0.0830078C78.0647 0.122893 79.2664 0.700671 79.874 1.31641C80.3837 1.83619 80.7014 2.5148 80.7734 3.23926C80.925 4.63051 80.8322 7.53877 80.8291 9.08984L80.8252 19.9863L80.8193 55.3721C80.8104 56.9426 80.9385 58.4021 79.7354 59.5703C79.1788 60.111 78.4907 60.4977 77.7393 60.6914C76.2166 61.084 69.7084 60.8544 67.834 60.8232C69.1517 61.8302 75.5323 68.1387 76.3408 69.5068C76.7205 70.1505 76.8499 70.9625 76.9824 71.6865C77.0458 74.9271 74.0034 77.4287 70.9756 76.9385C68.4804 76.534 65.3646 72.5114 63.5781 70.7607C62.3016 69.3577 60.7999 68.048 59.6426 66.5469C58.976 65.6828 58.4401 64.6166 58.6123 63.5283C57.7214 62.6268 56.6864 61.7056 55.7598 60.792C54.7099 61.4473 53.3825 62.3084 52.4092 62.6934C46.1449 65.1708 38.4309 64.6827 32.7705 60.917C32.4722 60.7196 28.1539 60.8374 27.3125 60.8428L10.8057 60.8232C8.40299 60.8177 5.95534 60.9487 3.56641 60.8057C1.88247 60.7046 0.141334 58.7175 0.0683594 57.0654C-0.033686 54.7549 0.00810718 52.4173 0.0107422 50.1025L0.0175781 36.2559L0.0283203 15.1445L0.0263672 8.6748C0.024882 7.31246 0.0136914 5.98148 0.078125 4.61914C0.219286 1.63543 1.22426 0.352003 4.2793 0.0507812C4.62299 0.00827626 5.42755 0.00586802 5.80176 0.00390625L53.8193 0.0175781L69.2637 0.0117188ZM64.4365 60.5273C63.4867 61.2334 61.2772 63.5307 60.6777 64.5078C61.7833 66.4312 63.8512 68.1566 65.4111 69.7773C66.7292 71.1459 69.6914 74.4715 71.3916 75.0479C74.7464 74.7067 76.0826 72.2986 73.958 69.6494C71.7031 66.8385 68.5206 64.475 66.0684 61.791C65.7797 61.4751 64.8277 60.5611 64.4365 60.5273ZM62.2656 42.5859C61.4686 32.5122 52.6406 25.0012 42.5693 25.8281C32.5404 26.6518 25.0678 35.4345 25.8613 45.4658C26.6551 55.4972 35.4155 62.9963 45.4492 62.2324C55.5254 61.4655 63.0626 52.6597 62.2656 42.5859ZM59.6572 57.4375C58.6956 58.1721 58.1072 58.7726 57.5391 59.8545C57.9189 60.3756 59.1564 61.8539 59.7441 62.0039L59.9551 61.9014C60.8462 61.1486 61.4068 60.5996 62.1406 59.6855C61.792 59.277 60.1968 57.3766 59.6572 57.4375ZM13.3975 11.8174C9.89205 11.7795 6.28878 11.7635 2.78418 11.8252C2.45802 11.8605 2.32611 11.8175 2.09961 11.9932C1.97398 13.0288 2.06361 16.4922 2.06445 17.6934L2.05859 29.249L2.0625 46.9248C2.05738 50.0499 1.97468 53.1985 2.0625 56.3184C2.09814 57.5844 2.47346 58.5047 3.81738 58.7109C5.18096 58.9599 6.51594 58.8786 7.89844 58.873L13.123 58.8652C18.7479 58.8774 24.7999 58.9518 30.3955 58.7695C29.5029 58.084 29.0771 57.6651 28.3701 56.8027C23.4099 50.7523 23.1171 44.4219 24.8525 37.0254C22.9618 37.1372 19.9506 37.0144 17.9609 37.0205L4.55664 37.1201C4.57135 36.4266 4.56899 35.6305 4.66406 34.9531L6.09473 34.9863C6.06773 32.9071 5.97731 30.2096 6.20312 28.1963C7.52322 28.0961 11.3506 28.0589 12.5684 28.334C12.6992 30.2922 12.623 32.9348 12.627 34.9463L14.667 34.959C14.6749 32.4457 14.6624 29.9319 14.6289 27.4189C14.609 25.8446 14.5296 23.087 14.7295 21.5654C16.1829 21.4256 19.4337 21.3254 20.8857 21.5811C21.3873 23.3628 21.1973 25.2535 21.2324 27.1016C21.2823 29.7191 21.1438 32.4394 21.1885 35.0479L23.4834 35.0723C23.4419 30.7281 23.4325 26.3834 23.4561 22.0391C23.4532 20.8086 23.3437 16.0733 23.5703 15.1426C24.8364 14.978 28.7424 14.7129 29.7588 15.4307C30.161 16.4217 29.8343 27.49 29.8115 29.3398C36.8201 23.9464 41.4049 22.5618 50.291 24.4795C52.398 22.713 52.32 22.3409 53.8516 20.5488C53.549 18.9814 54.0023 17.9123 55.4453 17.0674C56.3711 16.5253 57.2842 16.5735 58.2129 17.0918C59.6743 18.1087 59.5971 18.527 59.7529 20.0781C59.7746 20.2373 62.9269 23.2897 63.2549 23.6133C64.1013 23.1095 65.473 23.0512 66.4189 23.2578C67.4669 22.1504 68.5726 20.8981 69.6797 19.8799C68.946 16.7403 71.1417 14.3077 74.1416 15.8877C75.3066 16.5014 76.0231 18.68 75.2871 19.6367C74.1821 21.0725 72.2501 21.5115 71.1768 21.293C70.9789 21.2557 68.0677 24.2754 67.6973 24.7266C67.69 25.1167 67.9463 25.6205 68.0674 26.0107C67.8073 27.1176 67.5377 27.9539 66.5088 28.6279C65.2502 29.4523 63.1883 29.1367 62.3525 27.8408C62.0579 27.3838 62.0124 26.4405 61.8818 25.9033C61.4589 23.4145 59.7541 23.3449 58.3232 22.126C56.476 23.2492 55.6644 21.9582 55.1963 22.29C54.3683 22.8784 53.1093 24.2744 52.2705 25.002C53.8387 26.1765 55.5764 27.1164 57.0645 28.3457C60.6913 31.342 63.5558 36.5851 64.1367 41.2637C64.7825 46.4672 63.6498 50.993 60.8057 55.3174C61.7568 56.5553 63.1681 58.576 64.8711 58.6494C68.7334 58.8153 72.6885 58.924 76.5547 58.8555C77.7464 58.8343 78.6585 58.0336 78.7275 56.8604C78.793 54.8381 78.73 52.8045 78.7158 50.7803L78.7363 41.0986L78.7344 25.4307C78.7856 20.9132 78.799 16.3946 78.7744 11.877C57.0047 11.6015 35.1737 12.0529 13.3975 11.8174ZM25.3125 27.3496C25.3109 28.2598 25.2082 34.6116 25.4404 34.9893C25.9933 35.0358 26.5165 34.2198 26.7725 33.7852C27.0322 33.3032 27.6092 32.3048 27.6748 31.7949C27.8882 30.1372 27.8284 28.1815 27.8271 26.5127L27.8359 16.9736L25.2451 16.9258L25.3125 27.3496ZM8.13477 29.8457C8.10646 31.5434 8.102 33.2417 8.12012 34.9395C8.95077 34.9579 9.86104 34.9975 10.6855 34.9795C10.7416 33.2921 10.7527 31.603 10.7178 29.915L8.13477 29.8457ZM16.6309 23.3887C16.5262 27.1748 16.5829 31.1104 16.5547 34.917L19.1436 34.9561C19.2303 34.1507 19.1772 31.3035 19.1562 30.3896C19.1055 28.1762 19.2105 25.5362 19.082 23.3691L16.6309 23.3887ZM64.6445 24.7383C64.099 25.3902 63.5382 26.2991 64.1855 27.1133C64.5645 27.3377 64.7507 27.3196 65.1309 27.1445C65.457 26.893 65.826 26.6228 66.1191 26.3389C65.6434 25.6699 65.3305 25.224 64.6445 24.7383ZM56.5186 18.3848C55.3373 19.4491 55.3741 21.1661 56.9678 20.6572C57.5193 20.2848 57.6391 20.1697 58.0879 19.6797C57.7397 19.0514 57.5642 18.6762 56.8262 18.4619C56.7244 18.4328 56.6219 18.4071 56.5186 18.3848ZM72.3066 17.1738C70.8844 18.0545 70.6831 19.7323 72.4443 19.7441C73.464 18.9221 74.2242 17.1183 72.3066 17.1738ZM77.5791 1.9043C75.6833 1.67972 71.8091 1.79222 69.7695 1.79297L55.5869 1.78906L9.07227 1.83789C7.2637 1.84485 3.69632 1.56927 2.4668 2.81055C2.38691 2.88965 2.31037 2.97232 2.23828 3.05859C1.93571 4.41264 2.05886 8.22782 2.06738 9.78223L71.7988 9.80664L78.7734 9.81348C78.7953 8.01258 78.9205 4.98327 78.79 3.25586C78.4219 2.67044 78.1366 2.34219 77.5791 1.9043Z" fill="#4E9C5A"/>
</svg>
