<svg width="203" height="118" viewBox="0 0 203 118" fill="none" xmlns="http://www.w3.org/2000/svg">
<path fill-rule="evenodd" clip-rule="evenodd" d="M98.8411 11.9062C112.108 11.9687 126.076 16.1202 133.647 27.833C141.236 39.5763 134.616 52.9365 123.548 59.4668C112.793 65.8123 98.5234 67.5007 86.4105 64.6543C84.3885 64.1275 80.2503 63.0524 78.6712 61.8389C77.4694 62.3734 76.261 62.8932 75.0462 63.3975C72.4303 64.4795 61.2538 68.5608 59.0325 67.5215C58.729 67.3794 58.4566 67.1312 58.3567 66.8037C58.2283 66.3822 58.329 65.9807 58.4915 65.5869C59.2949 63.6401 60.6208 61.8204 61.6731 59.9951C63.0283 57.6444 64.2452 55.1967 65.5013 52.791C55.6662 39.9963 60.4568 26.5023 73.2142 18.4824C81.515 13.264 89.2737 12.1335 98.8411 11.9062ZM107.502 14.9229C104.633 14.4061 98.5741 13.8148 95.7064 14.1221C81.1334 15.1646 62.7601 22.8043 62.7884 39.8906C62.7956 44.1064 65.847 49.5224 68.5335 52.584C66.877 56.2356 64.0911 61.5194 61.8665 64.8652C66.0794 63.8446 69.8167 62.9034 73.7757 61.0625C75.2799 60.363 76.8414 59.2889 78.2669 58.6777C81.112 60.6907 86.2663 62.0816 89.6731 62.7119C101.228 64.8521 113.617 63.0308 123.515 56.4033C133.263 49.8758 138.007 38.5332 130.748 28.1914C125.494 20.704 116.281 16.5714 107.502 14.9229Z" fill="#4E9C5A"/>
<path fill-rule="evenodd" clip-rule="evenodd" d="M171.915 67.707C161.846 67.7626 151.246 71.4628 145.5 81.9014C139.74 92.3672 144.764 104.274 153.164 110.094C161.327 115.749 172.156 117.253 181.349 114.717C182.883 114.247 186.024 113.29 187.223 112.208C188.135 112.684 189.052 113.147 189.974 113.597C191.959 114.561 200.441 118.199 202.127 117.272C202.358 117.146 202.565 116.924 202.641 116.632C202.738 116.256 202.662 115.899 202.538 115.548C201.929 113.813 200.922 112.191 200.123 110.564C199.095 108.47 198.171 106.288 197.218 104.145C204.682 92.7418 201.047 80.7148 191.365 73.5674C185.065 68.9168 179.176 67.9096 171.915 67.707ZM165.341 70.3965C167.518 69.9359 172.117 69.4088 174.293 69.6826C185.353 70.6116 199.298 77.4209 199.277 92.6484C199.271 96.4056 196.955 101.232 194.916 103.961C196.173 107.215 198.288 111.924 199.976 114.906C196.779 113.997 193.942 113.158 190.938 111.518C189.796 110.894 188.611 109.936 187.529 109.392C185.369 111.185 181.458 112.426 178.872 112.987C170.103 114.895 160.7 113.272 153.188 107.365C145.79 101.548 142.19 91.4393 147.698 82.2227C151.686 75.5495 158.679 71.8657 165.341 70.3965Z" fill="#4E9C5A"/>
<path d="M83.0487 36.0684C84.0612 35.9284 85.0845 36.235 85.853 36.9089C86.6216 37.5827 87.0593 38.5572 87.0529 39.5793C87.0419 41.2983 85.7916 42.7584 84.0948 43.0334C82.843 43.2363 81.579 42.7508 80.7851 41.762C79.9911 40.7733 79.79 39.4342 80.2585 38.2558C80.7269 37.0776 81.7926 36.2421 83.0487 36.0684Z" fill="#4E9C5A"/>
<path d="M98.1898 36.0971C100.1 35.7126 101.958 36.9565 102.331 38.8692C102.703 40.7819 101.447 42.6321 99.5321 42.9921C98.4894 43.1882 97.414 42.9022 96.6055 42.2143C95.7983 41.5265 95.3443 40.5102 95.3718 39.4494C95.4136 37.8116 96.5833 36.4205 98.1898 36.0971Z" fill="#4E9C5A"/>
<path d="M113.764 36.0887C115.653 35.8166 117.41 37.1161 117.703 39.0029C117.996 40.8899 116.716 42.6613 114.833 42.9753C113.596 43.1816 112.343 42.7071 111.553 41.733C110.764 40.7589 110.557 39.4354 111.015 38.2675C111.472 37.0996 112.522 36.2676 113.764 36.0887Z" fill="#4E9C5A"/>
<path d="M27.7706 99.4309C31.4364 99.2962 35.5041 99.3786 39.199 99.3773C40.2173 100.339 40.5148 101.812 38.8538 102.178C35.5783 102.356 32.2087 102.102 28.9586 102.219C26.3393 102.313 25.9201 100.204 27.7706 99.4309Z" fill="#4E9C5A"/>
<path fill-rule="evenodd" clip-rule="evenodd" d="M7.40221 0.105897C8.86252 -0.0881211 13.1928 0.042252 14.8739 0.0502325L30.2108 0.0971075L50.8964 0.0726935C53.8091 0.0720393 56.8557 0.0111125 59.7674 0.0668341C60.8752 0.174898 61.9317 0.745113 62.8348 1.35883C65.6229 3.25361 66.5532 6.51008 66.4423 9.74164C66.3614 12.0992 66.4263 14.5523 66.4501 16.9243C66.4582 17.7342 66.5168 19.2443 65.9471 19.9106C65.1666 20.8238 63.9393 19.781 63.8758 18.8373C63.7644 17.8308 63.7943 16.5083 63.7489 15.3891L2.91686 15.3871C2.69211 27.4108 2.91628 40.0348 2.90124 52.1049L2.89538 76.5541C2.88779 81.5769 2.80019 86.7831 2.89831 91.7895C7.79467 91.8863 12.91 91.8087 17.8299 91.8139L43.534 91.8286C50.2446 91.8011 57.0239 91.8889 63.7176 91.7973C63.7625 89.1935 63.4382 73.524 64.0272 72.4389C64.1846 72.1494 64.4704 71.9526 64.7909 71.8813C65.113 71.8097 65.5165 71.8613 65.7928 72.0502C66.1373 72.2858 66.2379 72.5545 66.3163 72.9526C66.6698 74.7454 66.3841 78.4647 66.3973 80.5121L66.412 92.1713C66.4915 99.8548 67.9354 110.152 56.8192 110.36C54.614 110.402 52.395 110.377 50.1854 110.368L36.9628 110.35H19.3729C15.8412 110.366 12.2871 110.456 8.80554 110.293C2.12089 109.981 -0.176158 104.885 0.0135428 98.8627C0.094905 96.2776 0.0427181 93.3067 0.0408866 90.6928L0.0194022 65.8295L0.0203788 27.685L0.0194022 15.3608C0.0205796 9.14952 -0.756271 1.46188 7.40221 0.105897ZM24.3456 94.5395C17.3333 94.5369 9.87637 94.3837 2.92663 94.5551C2.72149 102.424 1.59021 107.94 11.62 108.027L42.4178 108.028L52.5135 108.035C55.6981 108.031 59.247 108.546 61.7079 106.192C64.6853 102.768 63.6503 99.0562 63.6522 94.5453L24.3456 94.5395ZM18.1893 2.15082C14.9104 2.14559 11.154 1.88045 7.953 2.26312C3.68916 2.77298 2.79449 6.91743 2.86315 10.4174L2.91393 12.7885L28.0614 12.8559L48.4882 12.8207C53.4315 12.8255 58.7563 12.9336 63.66 12.7836C63.7223 9.84914 64.0874 6.33449 61.9247 4.06488C60.5528 2.6252 58.573 2.0824 56.6434 2.10785C50.739 2.18608 44.7967 2.0735 38.9012 2.09613L18.1893 2.15082Z" fill="#4E9C5A"/>
<path d="M27.3638 6.26172L37.3985 6.28644C38.071 6.2888 39.4691 6.20755 39.9288 6.77338C40.5104 7.48901 39.9685 8.23709 39.3761 8.7082C36.1198 8.78892 32.8402 8.69708 29.5829 8.74967C28.7847 8.76249 27.28 8.9692 26.8306 8.23277C26.2904 7.34772 26.5408 6.77155 27.3638 6.26172Z" fill="#4E9C5A"/>
<path fill-rule="evenodd" clip-rule="evenodd" d="M97.0014 68.1179C97.2957 68.1231 97.5771 68.2457 97.7798 68.4588C98.515 69.2283 98.4027 72.0512 98.4341 73.1492C102.852 73.2413 107.782 72.8777 112.154 73.4617C113.654 73.6622 115.556 74.8015 116.662 75.8601C119.828 78.8947 119.777 82.2887 119.758 86.3172C119.74 88.1713 119.747 90.0256 119.776 91.8797C123.627 91.8862 128.515 91.7544 132.256 91.948C133.907 88.0759 138.118 86.9252 141.203 90.3006C141.756 90.9062 142.045 91.862 142.916 92.0857C143.02 92.0399 143.123 91.9954 143.228 91.9509L143.272 94.8806C143.234 94.8026 143.191 94.7443 143.145 94.7097C141.846 94.7324 140.422 97.0743 139.145 97.616C136.256 98.8431 133.589 97.1808 132.197 94.6912C128.213 94.7854 123.898 94.6454 119.85 94.6834C119.675 100.75 121.158 107.979 116.642 112.705C114.472 114.975 111.863 115.432 108.866 115.442C103.223 115.462 97.5935 115.436 91.9536 115.43C86.9525 115.323 81.4382 116.487 77.6089 112.554C74.344 109.201 74.7132 105.663 74.6743 101.434L74.6108 94.7136C73.5989 94.7058 69.7776 94.5905 71.5356 92.2322C72.0764 91.5061 73.7109 91.6142 74.6157 91.6443C75.6356 86.3139 73.4952 80.3376 77.6577 76.2459C81.0486 72.9128 84.8431 73.2224 89.1177 73.2742C91.2488 73.3075 93.3801 73.3233 95.5112 73.3211L95.5825 70.1423C95.6845 69.1513 95.6749 68.085 97.0014 68.1179ZM113.631 77.0476C111.395 75.5733 109.566 75.5733 107.009 75.6433C99.5732 75.8467 92.0479 75.4711 84.6196 75.7185C82.7359 76.0269 81.3173 76.572 79.8325 77.8484C77.7509 79.638 77.3807 81.8662 77.3716 84.5125C77.3621 87.2228 77.3718 89.9602 77.3628 92.6795L77.3432 101.178C77.3419 105.971 77.0617 111.832 83.7925 112.745C86.9698 113.175 90.4978 112.649 93.7055 112.859C99.1179 112.781 104.747 112.972 110.13 112.823C115.221 112.063 116.826 109.228 116.751 104.334C116.716 101.949 116.77 99.4091 116.787 97.0164C116.809 93.9918 116.813 90.9675 116.797 87.9431C116.814 83.9322 117.503 79.6011 113.631 77.0476ZM139.278 91.6033C138.717 90.8261 137.779 90.4136 136.827 90.5232C135.39 90.6886 134.352 91.9742 134.491 93.4119C134.631 94.8509 135.896 95.9134 137.337 95.7996C138.292 95.725 139.134 95.1401 139.537 94.2703C139.938 93.4003 139.84 92.3791 139.278 91.6033Z" fill="#4E9C5A"/>
<path fill-rule="evenodd" clip-rule="evenodd" d="M172.299 72.4344C178.646 72.0963 180.276 76.4582 180.888 81.8573C182.151 81.8412 185.442 81.4038 185.758 83.0614C186.176 85.2386 186.306 87.5945 186.534 89.8182C186.915 93.2658 187.241 96.7198 187.511 100.178C187.619 101.606 188.072 104.96 187.436 106.102C186.323 106.629 176.001 106.433 174.178 106.434C172.034 106.424 159.463 106.688 158.825 106.149C158.435 105.82 158.244 105.403 158.217 104.895C158.115 102.903 158.569 100.436 158.749 98.4149C159.01 95.1288 159.331 91.8465 159.709 88.5721C159.794 87.79 160.188 82.8699 160.771 82.4198C161.514 81.8466 164.291 81.9396 165.428 81.9237C165.512 79.9418 165.576 77.9423 166.716 76.2469C168.18 74.0711 169.806 72.9936 172.299 72.4344ZM168.318 84.3026C168.349 85.445 168.551 88.3871 166.773 88.4061C165.173 87.8611 165.36 85.7407 165.444 84.4374L162.702 84.4471C162.414 90.5545 161.021 97.7184 160.81 103.893C166.687 103.96 172.565 103.846 178.44 103.886C180.527 103.89 183.185 103.809 185.218 103.887C185.078 97.4211 183.611 90.8143 183.467 84.4305L180.612 84.4598C180.853 85.6324 181.192 86.8342 180.472 87.9188C179.677 89.1162 178.501 87.8376 177.969 87.1581C178.108 86.376 178.354 85.2016 178.421 84.4403C175.054 84.3295 171.687 84.2835 168.318 84.3026ZM172.772 75.0575C168.827 75.8545 168.16 78.5171 168.368 82.0907C170.245 82.1541 172.122 82.1683 174 82.1317L178.29 82.0663C178.01 79.799 177.726 77.5601 175.782 76.0194C174.931 75.3388 173.859 74.9961 172.772 75.0575Z" fill="#4E9C5A"/>
</svg>
