<svg width="84" height="84" viewBox="0 0 84 84" fill="none" xmlns="http://www.w3.org/2000/svg">
<path d="M74.0791 43.6709C76.4528 43.5352 77.4943 45.2897 77.5947 47.4395C79.0032 47.5401 81.0503 47.4144 81.9932 48.4326C83.1309 49.6612 83.5089 50.8928 83.5166 52.5068C83.5454 58.5288 83.5275 64.5502 83.5332 70.5684L83.5547 76.0371C83.5925 83.2776 82.4076 83.0741 75.8604 83.0752L69.1465 83.0723L47.7559 83.0791C47.451 83.0813 47.1455 83.0682 46.8418 83.04C41.9473 82.6413 42.674 78.5403 42.7158 74.9834C42.7425 72.6747 42.7534 70.3657 42.748 68.0566L42.7178 57.3252C42.7145 55.393 42.6045 53.2485 42.7939 51.3428C43.1685 47.5762 45.8081 47.4582 48.6924 47.7412C48.612 45.8573 49.4972 44.0331 51.5283 43.7559C52.254 43.6591 52.9878 43.8686 53.5537 44.333C54.6148 45.187 54.8264 46.3081 54.9512 47.5596C60.3046 47.7611 66.1849 47.6576 71.5967 47.6748C71.4874 45.3755 71.6321 44.3556 74.0791 43.6709ZM81.4727 57.4844C76.9754 57.7416 72.5488 57.5589 68.0645 57.6201C60.2839 57.7263 52.4397 57.5726 44.6729 57.6768L44.7119 70.1562C44.6919 73.0608 44.5913 76.2072 44.8057 79.1025C44.8457 79.6418 45.0452 79.972 45.3555 80.3965C46.4968 81.105 53.0058 80.8993 54.6162 80.9004L67.3018 80.9023L75.1162 80.9307C76.3718 80.935 80.8721 81.0696 81.2412 80.5215C81.9023 79.5383 81.6747 71.5414 81.6719 70.3145L81.6631 57.626L81.5488 57.4844H81.4727ZM77.5859 49.5566C77.6068 50.5974 77.6562 51.8663 76.8135 52.582C74.2991 54.7176 71.4653 53.41 71.5029 50.1855C71.5044 50.061 71.5073 49.9361 71.5107 49.8115C66.2927 49.8355 60.0484 49.663 54.9277 49.8965C54.7591 51.0747 54.3557 52.2526 53.3682 53.0029C52.7996 53.4367 52.0815 53.6266 51.373 53.5293C49.2571 53.2377 48.9791 51.4593 48.8184 49.7188C47.1145 49.6799 44.6177 49.759 44.5137 52.0869C44.5148 53.4207 44.5527 54.3513 44.6416 55.6816C46.5286 55.7851 48.6007 55.7249 50.5107 55.7207L60.3232 55.7021C67.2373 55.6898 74.693 55.8404 81.5566 55.6885C81.66 49.8517 82.6739 50.9199 77.5859 49.5566ZM75.0801 45.9082C74.7222 45.635 74.1998 45.7067 73.7539 45.7324C73.2961 46.3077 73.2782 50.8625 73.6514 51.4404C73.9964 51.6687 74.439 51.6766 74.8428 51.6289C75.4236 50.907 75.495 46.6557 75.0801 45.9082ZM52.5059 45.8828C52.2041 45.7359 51.8198 45.8177 51.4766 45.8535C51.0221 46.1913 50.9337 46.3521 50.8594 47.0303C50.7289 48.2218 50.6263 50.0717 51.2168 51.1357C51.3453 51.3674 51.8214 51.5286 52.0625 51.6211C52.8325 50.9077 52.912 46.4466 52.5059 45.8828Z" fill="#4E9C5A"/>
<path d="M29.5039 0.0244141C30.5473 -0.0560775 31.5405 0.0534692 32.4883 0.511719C35.4808 1.95842 36.2026 3.74785 37.2871 6.6084C39.3583 6.95049 41.5204 6.21286 43.1992 7.125C43.8326 7.46928 44.6191 8.10486 45.2764 8.54004C48.9436 8.79286 58.4356 7.07476 59.4043 12.6465C59.6883 14.2806 59.9482 24.5242 59.334 25.541C59.2437 25.5994 59.1122 25.7204 59.0059 25.7158C56.1909 25.5941 58.9944 14.4141 56.6943 11.9912C56.2456 11.5184 55.6954 11.2614 55.0713 11.1016C52.6403 10.4792 47.295 10.8754 44.5078 10.8408L44.5254 13.3145C55.2068 13.3816 55.3187 11.3649 55.0117 22.1865C54.9774 23.3979 55.0382 24.4897 53.4717 23.8887C52.7291 23.3067 53.2207 17.3315 52.9482 15.5234C51.797 15.4243 45.8452 15.2937 44.9131 15.541C44.7062 16.1131 44.1686 17.771 43.3877 17.8105C40.2774 17.9682 37.1123 17.8976 33.9902 17.9033L23.4355 17.9375C21.6491 17.9396 19.8708 17.9507 18.085 17.9023C16.7525 17.8661 15.0704 17.0225 14.7705 15.6318L14.751 15.5371C14.3473 15.2339 8.04978 15.399 7.04395 15.4082L7.0498 72.0723C14.3751 72.1472 21.7009 72.1675 29.0264 72.1309L35.8857 72.1221C37.3523 72.1213 39.2157 72.084 40.6504 72.2344C40.6687 72.8297 40.6326 73.5761 40.6172 74.1836C32.9901 74.4641 24.6132 74.3109 16.9248 74.3096L10.2754 74.3174C9.00658 74.33 7.09587 74.4334 5.91895 74.2861C5.0057 73.6112 4.91559 73.5727 4.85547 72.3721C4.73955 70.0542 4.77343 67.7282 4.77148 65.4072L4.7666 53.458L4.75391 27.6953L4.74512 19.9023C4.74424 18.3513 4.7028 16.7566 4.82715 15.2344C4.92151 14.0801 5.47963 13.4256 6.62695 13.3496C7.70615 13.2782 8.81998 13.3189 9.89453 13.333L15.1553 13.3799L15.1475 10.8369C13.194 10.8389 11.2403 10.8255 9.28711 10.7969C5.01466 10.7474 2.19215 10.3429 2.17969 15.7979C2.16842 20.7344 2.16939 25.6948 2.1748 30.6328L2.2002 54.71L2.25 66.373C2.24566 68.7205 2.16987 71.18 2.33789 73.5176C2.39892 74.3647 2.63446 74.811 3.23535 75.4277C4.02 76.2332 4.38963 76.3919 5.5127 76.5469C7.01138 76.7537 8.61452 76.6982 10.1299 76.6973L16.6152 76.6904C24.5755 76.687 32.6811 76.6084 40.6309 76.7139L40.624 78.8545C32.5811 78.9996 24.1522 78.9024 16.0918 78.8916C14.153 78.8829 12.214 78.8941 10.2754 78.9277C7.29161 78.9754 4.81659 79.4146 2.36719 77.3896C-0.375358 75.1221 0.0567559 72.461 0.0644531 69.2988L0.0703125 62.9062L0.0371094 42.9121L0.0185547 24.4824C0.0133547 21.1259 -0.0649867 17.5708 0.143555 14.2295C0.245777 12.8685 0.738733 11.8408 1.58008 10.8174C3.78022 8.14096 6.56783 8.57969 9.63379 8.62402C11.4927 8.65089 13.4865 8.6422 15.3516 8.49219C16.936 5.89399 19.836 6.76373 22.6338 6.69629C24.1294 2.73574 24.8561 0.726244 29.5039 0.0244141ZM35.6367 8.43945C34.2061 7.24627 35.0337 1.6132 29.5107 1.96973C26.4618 2.55024 25.1159 4.42712 24.7002 7.30371C24.614 7.90021 24.4914 8.55677 23.8223 8.59277C21.7611 8.86631 19.5065 8.44117 17.458 8.76562C17.3384 11.1548 17.2967 13.5475 17.332 15.9395L30.707 15.9268L42.6279 15.9336C42.6546 14.7229 43.0514 9.7951 42.1992 8.98242C41.1184 7.95277 36.7329 9.35328 35.6367 8.43945Z" fill="#4E9C5A"/>
<path d="M30.0674 4.57422C30.4359 4.57108 30.8013 4.64727 31.1377 4.79785C33.6605 5.94817 32.4534 9.0825 29.998 9.84082C26.7643 9.23547 26.4916 5.15114 30.0674 4.57422ZM29.8555 6.54297C29.571 6.97197 29.5722 6.82783 29.6279 7.25195C29.8786 7.57259 29.9826 7.66389 30.2891 7.93164C30.5114 7.52962 30.5459 7.47008 30.5859 7.01562C30.3839 6.56929 30.3719 6.58084 29.8555 6.54297Z" fill="#4E9C5A"/>
<path d="M80.7386 14.774C81.1998 14.727 81.8834 14.7462 82.3635 14.7453C82.5249 16.0964 82.2167 22.6102 81.4351 24.0957C81.2873 24.3766 80.9736 24.4232 80.6936 24.4613C79.3101 23.8835 80.0823 19.7228 80.3172 18.5257L62.8309 35.8847C60.3514 33.4706 57.8231 30.667 55.2455 28.4586C54.1704 29.3899 53.1255 30.3347 52.0998 31.3205C49.4199 33.8963 47.0676 36.7429 44.3661 39.3064L43.2925 40.0959C42.5701 38.9952 42.1693 38.3796 43.2717 37.3286C45.2243 35.4669 47.0833 33.6408 48.8969 31.6382C50.2596 30.1334 52.0066 28.8478 53.2532 27.1903C53.6156 26.7105 54.2399 26.0705 54.7016 25.6919C56.9351 26.5315 58.3598 28.5956 60.0098 30.2269C60.9112 31.1181 61.8464 31.9856 62.718 32.9011L78.7493 16.9588C77.4456 17.1782 74.5707 17.194 73.1295 17.2196C73.1091 17.0202 73.0906 16.8207 73.0741 16.6209C73.0359 16.1502 72.9982 15.9501 73.2977 15.5963C74.3357 15.2202 79.4383 14.8526 80.7386 14.774Z" fill="#4E9C5A"/>
<path d="M38.6706 27.025C40.5318 27.0043 42.4067 26.9772 44.2669 27.0149C45.0675 27.0312 46.2123 26.9209 46.5612 27.719C46.584 28.149 46.3489 28.5692 46.1693 28.9688C45.0085 29.2442 42.6123 29.1786 41.3214 29.1835L34.1862 29.2028C31.7736 29.2026 29.2164 29.3048 26.8373 29.0561C26.3129 29.0012 25.945 27.9577 26.2063 27.3865C26.8301 26.8523 37.3315 27.0295 38.6706 27.025Z" fill="#4E9C5A"/>
<path d="M29.8163 41.972C33.5194 41.9204 37.2231 41.9399 40.9254 42.0303C41.0383 42.7402 41.0556 43.4323 41.0889 44.1498C40.024 44.1148 38.7979 44.1583 37.7216 44.1711C36.1702 44.1721 27.4966 44.3978 26.7296 43.9286C26.4071 43.7314 26.1331 43.3719 26.0719 42.9946C26.034 42.7611 26.0898 42.5203 26.2586 42.3504C26.8471 41.7581 28.9635 41.9794 29.8163 41.972Z" fill="#4E9C5A"/>
<path d="M21.7485 55.7656C22.0039 55.8577 22.1757 55.9512 22.3526 56.16C22.59 56.4402 22.7632 56.801 22.7117 57.1757C22.65 57.6252 16.7673 63.7964 15.8957 64.4773C14.875 63.7535 13.8544 62.6315 12.97 61.7193C12.442 61.1792 12.0944 60.8415 11.5117 60.3631C12.0868 59.8569 12.4925 59.4631 13.1689 59.0956C14.0353 60.0268 14.6208 60.6657 15.6679 61.3825C18.4196 59.8536 19.1767 57.453 21.7485 55.7656Z" fill="#4E9C5A"/>
<path d="M28.9058 57.0328C32.2172 56.926 36.2904 56.8822 39.628 57.1465C40.1234 57.1858 40.2239 58.3332 40.0441 58.74C39.5243 59.2001 38.2067 59.109 37.4519 59.1272C35.8087 59.1366 27.1692 59.3616 26.4297 58.7447C26.1397 58.2516 26.0733 57.901 26.185 57.3387C26.5825 56.9729 28.2642 57.0458 28.9058 57.0328Z" fill="#4E9C5A"/>
<path d="M21.7327 25.8672C22.1971 26.1076 22.4415 26.7547 22.6841 27.2327C21.8926 28.365 16.9944 33.502 15.9138 34.3548C14.7694 33.5206 13.9404 32.5857 12.9604 31.5713C12.3798 31.0533 12.0905 30.819 11.4434 30.3886L13.1722 28.8779C13.8985 29.8229 14.7263 30.7242 15.7545 31.3341C18.6799 29.6245 19.3461 26.9851 21.7327 25.8672Z" fill="#4E9C5A"/>
<path d="M21.2529 41.1368C21.4379 41.1349 21.5201 41.1642 21.7003 41.2014C22.0786 41.4461 22.3169 41.9505 22.5506 42.3506C21.8785 43.5519 17.1665 48.5673 16.0876 49.3285C14.8338 48.5682 14.3043 47.9802 13.2829 46.9428L11.6719 45.2725C12.2369 44.6728 12.4708 44.4555 13.1278 43.9611C14.0644 44.9049 14.8545 45.7013 15.863 46.5685C16.6446 45.9099 17.172 45.4334 17.8594 44.6724C19.0258 43.3811 19.7684 42.0594 21.2529 41.1368Z" fill="#4E9C5A"/>
<path d="M26.3168 31.682C27.5774 31.5597 37.6863 31.4529 38.2239 31.9815C38.3563 32.4956 38.0931 33.1846 37.903 33.6579C36.3497 34.1836 29.0303 33.5098 27.0052 33.7304C26.1245 33.8264 26.0674 32.3413 26.3168 31.682Z" fill="#4E9C5A"/>
<path d="M26.703 46.5925C28.8853 46.4745 31.2487 46.676 33.4511 46.6125C34.334 46.5869 36.8022 46.5389 37.4269 47.0274C37.7956 47.7015 37.4933 48.1108 37.0079 48.622C33.8437 48.7461 30.3306 48.6916 27.1551 48.5949C26.0597 48.5616 25.5687 47.1571 26.703 46.5925Z" fill="#4E9C5A"/>
<path d="M57.755 34.7109C58.3301 34.7932 58.9783 35.0259 59.5396 35.2055C59.8194 36.695 59.7271 45.1395 59.437 46.6613C58.9228 46.7093 58.5507 46.7448 58.119 46.4492C57.4317 45.6487 57.663 36.2261 57.755 34.7109Z" fill="#4E9C5A"/>
<path d="M26.7427 61.5619C29.714 61.4414 32.9386 61.6378 35.9283 61.691C37.2029 61.7137 37.3644 62.9823 36.4294 63.5282C34.003 64.112 29.2958 63.5875 26.6555 63.655C26.4242 63.6609 25.7281 61.9902 26.7427 61.5619Z" fill="#4E9C5A"/>
<path d="M54.0137 32.4928C54.4705 32.4841 54.6064 32.4387 54.8834 32.7007C55.0342 33.7706 55.1526 41.3759 54.9708 42.3213C54.6502 42.5355 54.6679 42.4649 54.2163 42.4757C54.0301 42.3739 53.3815 42.0444 53.3407 41.807C52.9243 39.376 52.9241 35.537 53.3811 33.1015C53.4461 32.7555 53.7812 32.5986 54.0137 32.4928Z" fill="#4E9C5A"/>
</svg>
