<svg width="161" height="124" viewBox="0 0 161 124" fill="none" xmlns="http://www.w3.org/2000/svg">
<path d="M119.099 82.5895C120.692 82.5826 127.299 82.3992 128.324 82.8303C128.469 83.0172 128.533 83.1847 128.584 83.4141C128.834 84.5321 128.929 94.4327 128.44 95.061C128.318 95.2185 128.097 95.317 127.9 95.3418C127.457 95.398 127.08 95.2488 126.735 94.9834C126.35 94.3796 126.509 91.7838 126.517 90.8817C126.534 88.9333 126.522 86.9846 126.481 85.0365C125.037 84.839 121.38 84.9096 119.76 84.9088L106.765 84.9382L106.774 92.0006C109.206 92.0574 111.649 91.9364 114.068 92.0576C115.484 92.1285 115.142 94.7192 115.149 95.7363C115.161 97.4078 115.118 99.205 114.944 100.871C114.911 101.184 114.543 101.339 114.295 101.501L114.273 101.693L114.588 102.023C114.7 102.865 114.663 104.433 114.483 105.257C115.402 105.307 117.179 105.16 117.38 106.332C117.425 106.577 117.364 106.829 117.214 107.027C116.99 107.32 116.598 107.458 116.24 107.464C111.374 107.54 106.492 107.454 101.626 107.513C101.123 107.506 97.5016 107.638 97.3394 107.349C96.696 106.202 96.9921 104.335 96.9344 103.016C96.8985 102.18 96.9486 101.059 96.9562 100.179C96.9595 99.5879 96.8365 98.5772 97.2033 98.0918C97.3775 97.8623 97.6824 97.7317 97.9654 97.7132C98.1843 97.6989 98.3976 97.7918 98.5566 97.9392C99.4537 98.7749 99.0215 103.8 99.1053 105.26C103.149 105.398 109.13 105.307 113.197 105.152C113.252 103.873 113.291 102.838 113.549 101.582C113.399 101.371 113.143 101.002 113.11 100.753C112.857 98.7807 112.959 96.2398 112.94 94.2268C110.913 94.288 108.815 94.2801 106.782 94.2957C106.77 95.3588 107.431 104.159 104.546 100.534C104.407 100.361 104.47 95.0125 104.462 94.2822C102.251 94.2726 99.6986 94.3168 97.518 94.1901C94.5698 91.2694 103.145 92.0138 104.469 92.0063L104.486 84.9307C102.247 84.9215 99.5473 85.1 97.3895 84.6592C96.7929 84.5373 96.3759 82.8148 97.9382 82.7259C100.347 82.5888 102.758 82.6369 105.174 82.6313L119.099 82.5895Z" fill="#4E9C5A"/>
<path fill-rule="evenodd" clip-rule="evenodd" d="M149.71 59.0664C154.195 59.0929 159.296 61.0194 160.209 66.1143C160.409 67.9949 160.425 70.0404 160.417 71.9326C160.356 86.3423 160.369 100.781 160.332 115.188C160.308 124.463 148.822 123.384 142.467 123.382L125.968 123.35L94.7802 123.392C90.6553 123.384 86.2281 123.485 82.1435 123.368C79.5207 122.988 77.1624 122.176 75.7402 119.748C75.2378 118.891 74.737 117.467 74.705 116.467C74.6196 113.794 74.6652 111.104 74.6689 108.428L74.6845 92.8711L74.6582 80.7373C74.6548 78.6335 74.4826 75.4306 74.8896 73.498C75.9349 68.537 82.6205 67.4507 86.8027 68.3799C88.2224 68.6954 89.3792 69.9573 90.0644 71.1865C95.5253 70.9191 102.608 71.1397 108.131 71.1416L142.83 71.0938C142.803 69.6431 142.794 63.65 143.095 62.4629C143.237 61.8868 143.52 61.3552 143.92 60.916C145.328 59.3871 147.764 59.1584 149.71 59.0664ZM156.921 63.7334C154.729 61.336 151.531 60.7433 148.438 61.001C146.769 61.3106 145.735 61.4955 144.676 62.9229C144.616 65.1026 144.804 81.2232 144.497 81.7236C143.185 82.3213 142.867 81.0639 142.873 80.0664C142.89 77.7312 142.856 75.3907 142.812 73.0557C137.244 72.8458 131.062 73.0127 125.45 73.0391L103.678 73.0176C99.2098 73.052 94.7419 73.0473 90.2734 73.0049L90.2558 99.8418L90.2685 108.454C90.269 109.986 90.293 111.528 90.2099 113.059C90.1973 113.29 90.0786 113.534 89.9189 113.703C89.643 113.936 89.5827 113.887 89.2627 113.885C88.691 113.664 87.8581 112.562 87.3545 112.1C84.4727 109.453 78.3932 110.263 76.916 114.092C76.4358 115.355 76.4777 116.756 77.0332 117.988C78.1287 120.448 80.7799 121.427 83.3086 121.497C87.1778 121.603 91.0613 121.585 94.9316 121.588L117.033 121.593C124.441 121.656 131.847 121.662 139.255 121.613C142.146 121.611 145.086 121.613 147.973 121.628C150.593 121.642 152.489 121.474 154.882 120.396C159.115 118.486 160.032 113.774 154.903 112.334C152.308 111.605 149.975 111.655 147.384 112.328C146.89 112.465 146.555 112.584 146.09 112.742C145.338 112.999 144.09 114.001 143.385 113.82C142.664 113.009 142.877 110.892 142.842 109.842C142.759 107.417 142.922 104.93 142.744 102.513C141.42 103.82 140.036 105.06 138.708 106.361L134.061 110.871C132.962 111.945 130.996 114.199 129.714 114.815C126.555 116.333 121.842 117.217 118.747 118.484C118.362 118.184 118.089 117.984 117.757 117.623C118.247 116.047 119.256 113.649 119.869 112.037C120.442 110.528 121.436 107.15 122.127 105.993C122.468 105.424 125.26 102.753 125.93 102.087C130.03 98.0048 134.29 94.0157 138.442 89.9961L145.911 82.6709C146.91 81.7017 148.062 80.2855 149.268 79.5908C149.664 79.3629 150.159 79.2815 150.595 79.4395C151.322 79.7052 157.466 86.1481 157.791 86.8613C157.92 87.1452 157.871 87.3857 157.749 87.667C157.307 88.6885 156.126 89.5857 155.335 90.3584C153.383 92.2921 151.393 94.1881 149.368 96.0459C147.907 97.4058 145.848 98.9978 144.74 100.619C144.721 100.648 144.699 100.676 144.681 100.705C144.583 100.857 144.668 110.336 144.696 111.281C149.78 109.687 153.351 109.07 158.397 111.47C158.563 108.728 158.458 105.956 158.49 103.213C158.557 97.8183 158.392 92.3484 158.427 86.9658L158.496 73.0879C158.497 71.0872 158.547 68.8445 158.436 66.8467C158.383 65.9179 157.526 64.4187 156.921 63.7334ZM123.153 108.172C122.437 110.255 121.189 113.383 120.877 115.48C122.514 115.32 123.867 114.876 125.417 114.326C126.476 113.965 127.531 113.589 128.58 113.199C127.356 111.952 124.592 108.985 123.153 108.172ZM143.906 87.5039C141.297 89.8378 139.127 92.099 136.641 94.4785C132.586 98.3595 128.45 102.18 124.562 106.237C125.365 106.918 126.342 108 127.092 108.775C128.169 109.881 129.262 110.974 130.368 112.052C133.265 108.937 135.93 106.531 138.887 103.609L146.01 96.6328C147.186 95.4791 148.329 94.2535 149.527 93.1318C148.866 92.4507 144.308 87.6475 143.906 87.5039ZM88.334 72.0234C87.2103 70.2441 85.3444 69.809 83.3369 69.9512C79.3941 70.3685 76.3854 71.448 76.3486 75.9277C76.3302 78.1695 76.3658 80.4386 76.3545 82.6777L76.33 103.462C76.3121 105.61 76.4594 109.536 76.2636 111.445C77.676 110.076 78.5493 109.476 80.5234 109.026C83.4416 108.394 85.8761 108.818 88.4189 110.321C88.5297 107.379 88.4825 104.196 88.4814 101.237L88.4658 88.1514C88.4381 82.9497 88.6232 77.1493 88.334 72.0234ZM149.935 81.7402C148.234 82.9804 147.138 84.3205 145.648 85.7207C146.326 86.489 150.612 91.3429 151.301 91.6123C152.725 90.2925 154.17 88.7615 155.536 87.3604C154.746 86.5779 150.469 81.8501 149.935 81.7402Z" fill="#4E9C5A"/>
<path fill-rule="evenodd" clip-rule="evenodd" d="M35.3184 69.2881C36.9705 69.2402 43.6095 68.8778 44.6954 69.5811C45.2444 69.9367 45.7996 73.8317 45.9864 74.668C47.1225 74.9859 48.1835 75.3191 49.2403 75.8545C50.2107 75.1825 53.6493 72.5986 54.4561 73.3174C55.6074 74.3432 60.8901 78.9809 61.2393 80.1124C61.0498 81.0381 59.1246 83.5285 58.459 84.5469C58.9352 85.3009 59.6044 87.0929 59.9151 87.9434C61.583 88.4207 65.8121 88.4526 65.7647 90.5167C65.6955 93.49 66.117 96.8943 65.5411 99.7872C65.4332 100.322 60.7956 101.17 60.17 101.304C59.6322 102.476 59.1211 103.66 58.6377 104.856C61.5661 109.698 63.0794 108.433 58.2676 112.872C53.8127 116.982 54.852 117.962 49.294 114.028C48.3165 114.523 47.0835 114.939 46.0508 115.295C45.5413 117.003 45.3972 118.569 44.8702 120.221C44.7314 120.655 44.4404 120.807 44.0391 120.963C42.499 120.965 35.4728 121.172 34.5098 120.831C33.7313 120.223 33.1639 116.519 32.9327 115.407C31.934 115.148 30.6919 114.655 29.6553 114.326C28.5708 114.84 25.4499 116.886 24.7383 116.587C23.6369 116.122 17.8048 110.486 17.3584 109.79C17.9596 108.128 19.2305 106.509 20.2706 105.059C19.7549 104.065 19.2814 102.81 18.9053 101.76C17.7486 101.515 14.14 101.021 13.4805 100.283C13.1138 99.1873 13.0846 90.8718 13.4444 90.0821C14.3671 89.2017 17.4486 88.7471 18.8057 88.4737C19.1393 87.4501 19.8642 85.8169 20.2881 84.7725C19.4523 83.8541 17.4761 81.3796 17.4073 80.1631C17.7651 79.3802 20.0129 77.544 20.751 76.8331C21.8161 75.807 23.3919 73.8932 24.6641 73.3604C25.877 73.3909 28.4764 75.2211 29.6163 75.9336C30.8206 75.4306 31.5656 75.1855 32.8184 74.8194C33.2144 73.2634 33.3616 71.0226 34.1026 69.7442C34.3327 69.3474 34.8911 69.3229 35.3184 69.2881ZM43.1329 71.4278C40.6653 71.3914 38.1971 71.391 35.7295 71.4278C35.5429 72.9946 35.0522 74.8345 34.6202 76.3575C33.1334 76.9508 30.9874 77.8987 29.5362 78.377C28.1959 77.7567 26.2522 76.6325 25.0284 75.7725C23.0719 77.3026 21.7289 78.939 19.9229 80.5352C20.8969 81.8243 21.9691 83.4074 22.7491 84.8272C21.7778 86.6887 21.0938 88.1808 20.2549 90.1202C19.1628 90.5303 16.5766 91.2375 15.4053 91.4112C15.3635 93.8445 15.3528 96.2784 15.3731 98.712C16.6848 98.9657 19.3867 99.3969 20.5176 99.8975C21.2048 101.611 21.84 103.587 22.6485 105.212C21.8501 106.635 20.8939 107.939 20.0694 109.35C21.7737 110.926 23.5013 112.781 25.1895 114.433C26.4759 113.563 28.2187 112.34 29.6387 111.797C31.4116 112.622 33.0557 113.346 34.9483 113.84C35.2099 115.2 35.6999 117.467 35.836 118.775C38.2425 118.754 40.6495 118.718 43.0557 118.669C43.4742 117.447 43.7394 115.106 44 113.761C45.9781 113.12 47.7723 112.322 49.6006 111.721C51.0209 112.527 52.4225 113.367 53.8038 114.239C55.6555 112.558 57.1005 110.916 58.8321 109.189C58.0317 108.029 56.8053 106.341 56.2051 105.123L56.2764 105.01C56.8838 104.039 57.3468 102.726 57.752 101.643C58.1389 100.61 58.0502 99.7391 59.3594 99.3809C60.7729 98.9937 62.1767 98.664 63.5762 98.2247C63.5518 95.8977 63.4814 93.3881 63.5372 91.0752C62.5355 90.881 59.3295 90.1323 58.4356 89.7999C57.6657 87.9056 56.9355 86.4364 56.0957 84.6114C56.8803 83.1851 57.7241 81.6662 58.7247 80.379C57.0069 78.5687 55.6828 77.2795 53.8028 75.627C52.5101 76.4151 50.704 77.5888 49.3936 78.2422C47.5699 77.5111 45.805 77.0219 44.1338 76.3643C43.8525 75.3601 43.2756 72.4842 43.1329 71.4278Z" fill="#4E9C5A"/>
<path fill-rule="evenodd" clip-rule="evenodd" d="M38.0826 82.7314C44.7604 82.001 50.7669 86.8204 51.5006 93.498C52.2344 100.176 47.4172 106.184 40.7399 106.921C34.0583 107.659 28.0445 102.839 27.3102 96.1562C26.576 89.474 31.4001 83.4624 38.0826 82.7314ZM49.4156 93.9736C48.9111 88.44 44.0061 84.369 38.4742 84.8925C32.9696 85.4138 28.9236 90.2894 29.4254 95.7958C29.9275 101.303 34.789 105.366 40.2975 104.883C45.8328 104.397 49.9201 99.5071 49.4156 93.9736Z" fill="#4E9C5A"/>
<path fill-rule="evenodd" clip-rule="evenodd" d="M95.0349 45.3555C98.7439 45.3942 102.454 45.4086 106.163 45.3994C107.43 45.3997 112.52 45.1816 113.194 45.8193C113.341 46.19 113.423 46.6378 113.42 47.0381C113.391 50.861 113.407 54.6818 113.403 58.5049C113.401 60.2044 113.508 62.0033 113.228 63.6699C113.131 64.2453 112.593 64.3384 112.102 64.3438C109.268 64.359 106.427 64.3558 103.594 64.3584L87.0838 64.3408C85.4451 64.3334 77.2467 64.4626 76.1238 64.1104C75.3501 63.1992 75.6391 57.391 75.6443 55.8477C72.4016 55.6925 68.8363 55.8213 65.5613 55.8252L47.7166 55.8184C44.9432 55.8212 40.4412 55.9922 37.8455 55.7725C37.8315 57.1634 38.05 63.0694 37.5642 63.8486C36.402 64.5714 31.8409 64.3417 30.2254 64.3428L19.0769 64.3467L7.66481 64.3545C6.6568 64.3539 0.200967 64.7605 0.144305 63.5059C-0.0516584 59.0662 0.122379 54.5224 0.0251645 50.0566C0.0036086 49.064 -0.0949372 46.3293 0.330829 45.6064L0.44411 45.5791C1.64666 45.2951 4.53196 45.3853 5.92556 45.3867L14.5672 45.4014L28.6365 45.3994C30.1665 45.3996 36.5717 45.1898 37.5799 45.8096C37.9902 46.6223 37.8385 52.2268 37.8367 53.5762L75.7371 53.5684C75.7407 52.2397 75.4645 46.2754 76.0925 45.6221C77.3997 45.2467 82.787 45.3955 84.4216 45.3994C87.9593 45.4043 91.4977 45.39 95.0349 45.3555ZM5.82399 47.292C4.76337 47.2912 3.10603 47.363 2.09352 47.2969C1.98738 51.8965 1.94433 57.8222 2.07399 62.3945C8.84623 62.4881 15.8145 62.365 22.6131 62.373L31.2654 62.3838C32.6094 62.3817 34.4591 62.4292 35.7683 62.3369L35.7595 47.3984L14.1228 47.2852L5.82399 47.292ZM111.383 47.4111C103.48 47.1506 95.2362 47.433 87.3113 47.332C84.1614 47.2919 80.9389 47.4229 77.7927 47.3008C77.5781 52.1903 77.8055 57.3953 77.7058 62.3369C84.3901 62.5063 91.4647 62.3576 98.1873 62.3682L106.357 62.3701C107.826 62.3704 109.888 62.4312 111.316 62.2979C111.525 57.6711 111.296 52.1714 111.383 47.4111Z" fill="#4E9C5A"/>
<path fill-rule="evenodd" clip-rule="evenodd" d="M73.6228 0.0105882C74.3759 0.0145866 76.3067 -0.0813703 76.8211 0.448088C77.0447 1.26798 77.009 2.17602 77.0066 3.02231C76.993 7.82519 76.9235 12.6267 76.9715 17.4295C76.9749 17.7685 76.9019 18.1988 76.7498 18.5008C75.777 19.0055 71.1431 18.8389 69.7156 18.8368L59.0623 18.8397C58.887 21.7665 58.9592 27.0689 59.0613 30.0565L83.9842 30.0672L91.7957 30.0711C92.8016 30.071 95.7728 29.8664 96.4969 30.3651C96.7679 31.258 96.7368 41.0078 96.4734 42.5858C96.4364 42.8074 96.177 43.0135 95.9158 43.1209C94.4504 42.9092 94.9627 40.4086 94.9725 39.3123C95.0051 37.0765 94.9832 34.8402 94.907 32.6053C88.0983 32.7625 80.5851 32.6124 73.7293 32.6014L36.8562 32.6161C31.369 32.5978 24.9789 32.791 19.5887 32.5702C19.56 33.9973 19.7506 42.1007 19.4109 42.7625C19.2739 43.0295 19.0143 43.1839 18.7322 43.2664C18.4182 43.3582 18.0246 43.3365 17.7478 43.1493C17.5045 42.9845 17.4222 42.7611 17.3826 42.4813C17.1704 40.9821 17.3328 39.2746 17.3299 37.7538C17.3262 35.7721 17.1924 33.6927 17.3426 31.7186C17.3678 31.3861 17.4098 30.6798 17.6277 30.4198C17.874 30.1261 18.5556 30.0712 18.9197 30.0536C20.1226 29.9953 21.3595 30.0582 22.5662 30.0584L30.2234 30.0614C39.0782 30.0641 48.0578 30.1423 56.8973 30.0418C56.9415 26.3272 56.8567 22.5965 56.9041 18.8397C54.6936 18.7815 39.7849 19.0872 39.115 18.5321C38.9954 18.006 38.9267 17.4696 38.908 16.9305C38.8218 14.9939 38.6733 1.2603 39.0301 0.512541C39.1684 0.22292 39.4111 0.136076 39.699 0.0447679C50.9824 0.174813 62.3345 -0.049976 73.6228 0.0105882ZM74.91 1.82895C70.9451 1.6992 66.7563 1.76027 62.7654 1.75864L41.2527 1.75571L41.2459 16.9803L63.6307 17.033C67.3229 17.0302 71.1956 17.0847 74.8738 17.0047L74.91 1.82895Z" fill="#4E9C5A"/>
</svg>
