<svg width="83" height="80" viewBox="0 0 83 80" fill="none" xmlns="http://www.w3.org/2000/svg">
<path d="M21.7822 3.03027C22.7293 2.9558 26.0997 2.90807 26.9619 3.13965C28.3433 3.51117 28.67 6.69657 29.4199 8.25977C30.7429 9.05474 31.4064 9.23195 32.915 9.68848C34.5185 8.96319 35.4588 7.90557 37.4102 7.09961C39.4634 8.46932 42.3609 11.4956 43.5898 13.5771C42.9099 15.0103 41.8457 16.159 41.1357 17.6367C42.0638 24.3861 46.2497 19.2835 47.5576 23.8975C47.8371 24.8835 47.5728 29.5032 47.4902 30.7998C45.4788 31.5453 44.3679 31.6942 42.2588 32.0186C41.7736 33.0472 41.3757 34.1147 41.0693 35.21C41.4636 36.4294 42.8517 38.2906 43.6299 39.4102C42.736 41.0447 39.3886 45.3549 37.2236 45.6309C36.1825 45.7632 34.0053 44.1673 33.2031 43.374C31.9284 44.2307 30.6057 44.5406 29.2656 45.3311C29.1045 47.2131 28.8521 48.7739 27.5469 50.1895C26.9943 50.249 26.2456 50.2748 25.6768 50.3115C18.8479 50.5151 19.3925 50.9389 18.3213 44.6025C16.5299 44.5854 15.9123 44.3428 14.5811 43.1738C13.356 44.471 11.9588 45.3482 10.2168 45.7275C8.5068 45.2243 7.9215 44.0799 6.72754 42.9023C3.47582 39.6952 3.92234 39.1056 6.8457 35.8418C6.23865 34.6668 5.93866 33.3456 5.26562 32.2354C3.58664 31.6816 2.0198 31.4264 0.353516 30.9258C0.0702216 29.53 -0.381469 23.9613 0.602539 22.5645C1.16811 21.7618 3.95882 21.3981 5.05176 21.3887L7.05859 17.6426C2.75505 14.2531 4.56144 12.6135 7.52832 9.49414C11.3783 5.44633 10.7202 8.06445 14.127 9.60156C15.5082 9.44034 17.0229 8.77699 18.1553 8.82617C18.6909 7.0447 18.8107 5.20611 19.4326 3.27441C20.238 3.10324 20.962 3.07959 21.7822 3.03027ZM26.2949 5.13379C24.9442 5.05405 23.5905 5.03883 22.2383 5.08984C21.6017 5.13035 21.5885 5.03271 21.1357 5.34473C20.6808 6.13439 20.6354 7.10718 20.5918 8.03809C20.4499 11.0682 16.7526 11.2883 14.2402 12.1982C13.0214 11.456 11.3728 10.4325 10.3252 9.48242C9.39633 10.8513 7.83699 12.4888 6.60645 13.6484C7.68567 14.7869 8.49055 15.8837 9.1084 17.3281C8.58859 18.8641 7.82975 22.3845 6.54883 22.8691C5.31336 23.3363 3.61063 23.5673 2.25684 24.1143C2.00646 25.4868 2.10248 27.7359 2.14355 29.1826C3.63752 29.5359 5.19768 29.8237 6.66602 30.1953C7.78274 31.4425 8.68986 34.3337 9.25391 35.9893C8.52915 36.9308 7.32023 38.4237 6.7793 39.4287C7.7569 40.9022 9.11226 42.4166 10.2744 43.7725C11.6077 42.9068 13.1199 41.5496 14.3652 40.8623C15.0635 41.2366 15.9817 41.7403 16.6865 42.0371C18.4783 42.7915 19.9099 42.6914 20.5156 44.8955C20.8022 45.9383 20.9041 47.0423 21.042 48.1162C22.6127 48.2358 23.9601 48.3057 25.5439 48.2793C25.9046 48.245 26.2198 48.2874 26.4219 48.0195C27.2624 46.9045 26.839 44.0481 28.1221 43.2949C29.848 42.2819 31.7426 41.7843 33.6348 40.7334C34.8068 42.0202 35.7 42.567 37.252 43.3379C38.8661 42.1873 39.9755 40.8161 41.2363 39.3008C40.1774 38.319 38.8482 37.2899 38.8057 35.7383C38.7676 34.3436 39.8805 31.7502 40.5898 30.585C41.8484 29.7802 44.102 29.4513 45.6123 29.168C45.6033 27.6845 45.6403 25.4774 45.3955 24.0518C43.8869 23.5059 42.3494 23.5747 41.0811 23.1436C40.1327 21.8348 38.9701 19.1149 38.5967 17.5469C39.0611 16.1221 40.2066 14.8909 41.2217 13.7969C39.8358 12.3819 38.7709 11.0675 37.2939 9.63379C35.9534 10.3364 34.5986 11.3019 33.3359 12.1533C27.8134 9.49747 27.9361 11.8914 26.2949 5.13379Z" fill="#4E9C5A"/>
<path d="M23.5107 19.4766C27.4914 19.2922 30.8658 22.3753 31.04 26.3564C31.2141 30.3375 28.1221 33.7032 24.1406 33.8672C20.1735 34.0307 16.8222 30.953 16.6484 26.9863C16.4749 23.0196 19.5445 19.6603 23.5107 19.4766ZM23.7666 21.6406C21.9412 21.6879 20.2843 22.7201 19.4375 24.3379C18.591 25.9557 18.6879 27.905 19.6895 29.4316C20.6913 30.9585 22.4414 31.8232 24.2627 31.6904C26.9886 31.4917 29.0573 29.1536 28.9229 26.4238C28.7883 23.6938 26.4991 21.5701 23.7666 21.6406Z" fill="#4E9C5A"/>
<path d="M34.3071 22.2623C36.0826 22.2185 36.1413 24.5814 36.3749 25.9569C36.8636 28.8342 35.4493 32.0679 33.8108 34.3397C31.9907 36.8631 29.344 38.2563 26.3398 38.8535C22.5789 39.7399 20.5396 38.5207 17.0255 37.5082C16.8991 37.4719 14.7121 40.3849 14.6592 37.1622C14.7026 36.7447 14.6644 36.8007 14.413 36.4454C12.1596 33.26 18.1126 33.1404 19.0249 34.8499C19.0712 35.2663 18.8253 35.7614 18.6653 36.1664C21.6153 37.2137 23.9579 37.8028 27.1681 36.7494C31.1387 35.3719 33.9493 31.9152 34.4544 27.7384C34.641 26.1956 33.7182 23.3356 34.3071 22.2623Z" fill="#4E9C5A"/>
<path d="M22.4969 14.2255C25.6268 13.8055 28.5833 15.0191 31.393 16.2224C31.7738 15.6475 32.0841 14.912 32.863 15.1633C33.4737 15.7951 33.5298 17.8126 33.7116 18.7014C33.9704 19.9673 30.7612 19.9504 29.9766 19.7364C28.2296 19.2597 28.7711 18.5215 29.7518 17.6418C24.4922 14.9029 20.3721 15.4422 16.1505 19.5423C12.8668 23.0321 13.006 26.3797 13.7976 30.7564L12.4554 31.2964C10.3971 27.8145 11.288 22.7854 13.5913 19.6179C15.8068 16.571 18.7784 14.8019 22.4969 14.2255Z" fill="#4E9C5A"/>
<path d="M54.4043 37.582C58.46 37.6062 61.0108 38.8241 63.8086 41.8643C67.2191 45.5704 66.7292 48.745 66.4219 53.3955C69.5208 57.5181 73.8709 61.0619 77.4336 64.7793C79.8184 67.2675 82.8405 69.1919 82.8994 72.9473C82.9517 76.2842 80.2352 78.931 76.9814 78.9395C73.4729 78.9484 71.1354 75.8828 68.9404 73.5703C67.7351 72.312 66.5161 71.0663 65.2832 69.835C63.2075 67.8148 59.945 64.1023 57.8906 62.3975C54.5976 63.0023 51.786 63.2844 48.7227 61.6729C43.806 59.086 40.7413 53.9123 41.7578 48.3223C41.9869 47.0631 42.5749 45.8794 43.1699 44.7637C44.693 45.935 46.1095 47.331 47.4795 48.6729C48.38 49.5548 49.8099 51.2238 50.8037 51.8779C52.2277 51.7983 53.289 51.5397 54.6602 51.1631C55.3604 49.6935 55.6915 48.1045 55.9551 46.5117C53.678 44.0374 50.5885 41.5789 48.8281 38.7588C50.7265 37.7577 52.3208 37.6781 54.4043 37.582ZM64.2676 47.0166C62.9308 42.3109 58.2075 38.9413 53.3213 39.6387C52.8397 39.6942 52.6541 39.6302 52.3359 39.8867C52.886 40.7616 57.4326 45.0838 58.4775 45.5508C57.8204 47.6233 57.3695 51.061 56.1768 52.6211C54.3401 53.5303 52.4369 53.6233 50.4902 54.0654C47.9974 52.5621 45.9766 50.1886 43.791 48.1924C43.7352 52.4781 43.6513 54.4567 46.7754 57.7725C49.9862 61.1801 54.0823 61.1613 58.3711 60.1064C59.3641 60.7767 60.2743 61.7338 61.1006 62.6064C63.1928 64.8163 65.4567 66.8507 67.5352 69.0723C69.5091 71.1543 71.4806 73.2925 73.5625 75.2568C75.0299 76.6413 77.7121 77.8809 79.4043 76.1338C82.137 73.3121 80.6326 70.6376 78.1982 68.3994C75.2715 65.8288 72.568 63.1536 69.9033 60.2988C67.99 58.2489 65.8226 56.3272 63.8887 54.2734C64.3964 52.3426 64.8207 48.9642 64.2676 47.0166Z" fill="#4E9C5A"/>
<path d="M75.8783 71.0073C76.4197 70.7843 77.0397 70.8748 77.495 71.2432C77.9502 71.6116 78.1679 72.1991 78.0626 72.7752C77.9575 73.3513 77.546 73.824 76.99 74.0076C76.1716 74.2779 75.2863 73.8519 74.9868 73.0438C74.6874 72.2356 75.0815 71.3356 75.8783 71.0073Z" fill="#4E9C5A"/>
<path d="M62.4365 10.2148C63.59 10.2586 63.9936 10.437 64.8633 11.1787C65.1755 14.1922 66.5204 13.7136 68.6533 12.2559C70.3465 13.148 71.2883 14.1474 72.3145 15.7354C71.9098 16.778 71.3663 17.696 70.8213 18.6689C75.355 19.6961 74.6231 20.8397 74.249 25.0059C73.5741 25.0499 72.4211 25.3793 71.874 25.7637C70.5598 26.6873 72.0184 28.2655 72.6592 29.0957C71.214 30.0992 70.3353 31.6318 69.0342 32.5605C65.9681 30.4452 65.4618 31.4012 64.4756 34.4922L63.0615 34.6641C61.745 34.6911 60.9415 34.7099 59.6523 34.4521C59.1113 31.183 58.2727 30.9751 55.417 32.3066C53.7241 31.422 52.7465 31.0024 51.9043 29.2334C52.1776 28.1095 52.4836 27.3232 52.8945 26.2549C51.8251 25.5949 51.2844 25.3136 50.1299 24.7988C50.0274 24.1446 49.6968 20.6871 50.0332 20.2051C50.4798 19.5661 52.6858 19.1353 53.085 18.2012C52.9277 17.6925 52.255 17.0004 51.8965 16.1816C52.4701 13.9386 53.8294 13.0855 55.876 12.374C56.8845 13.0069 57.2943 13.274 58.4717 13.5059C58.8367 12.867 59.2973 11.4816 59.5576 10.7549C60.5345 10.5747 61.4477 10.3707 62.4365 10.2148ZM61.8369 12.0762C59.8943 14.1466 60.8194 15.9317 57.3516 14.958C55.8444 16.479 55.6141 14.5118 54.5107 15.3789C54.4472 15.9785 54.8959 16.4363 55.0713 17.0273C55.8404 19.6205 53.3745 20.9888 51.5684 21.9648C52.7246 23.3907 53.8665 24.1168 55.0762 25.4326C55.2136 25.5822 55.1635 26.3427 55.1367 26.5928C54.9613 28.2284 54.6877 28.4813 55.1875 30.0645C55.8086 29.7587 56.436 29.4653 57.0684 29.1836C58.3343 29.367 59.6911 29.6156 60.543 30.6777C61.5563 31.9412 60.4627 33.1268 62.502 32.8799C62.698 32.8286 62.9448 32.8081 62.9785 32.6055C63.2134 31.1941 63.783 30.1205 65.2334 29.5771C66.5041 29.1012 67.6276 29.4047 68.9297 29.9189C69.262 29.5531 69.533 29.2544 69.8301 28.8604C69.4631 27.9634 69.0649 27.004 68.9023 26.042C69.9609 24.2215 72.5309 22.9599 72.5049 21.5684C72.1173 20.8249 71.5293 21.0239 70.7676 21.0684C67.1479 17.798 70.7856 17.369 68.9033 14.6416C68.2776 15.1227 67.7423 15.5186 66.9961 15.8164C65.6774 15.5125 64.8567 15.3192 63.7061 14.5801C63.1974 13.2694 63.3226 12.4663 61.8369 12.0762Z" fill="#4E9C5A"/>
<path d="M61.4014 17.0605C64.3747 16.6759 67.0985 18.7716 67.4893 21.7441C67.8796 24.7166 65.79 27.4441 62.8184 27.8408C59.8382 28.2385 57.1008 26.1412 56.709 23.1602C56.3174 20.1794 58.4198 17.4464 61.4014 17.0605ZM61.0918 19.2373C59.2398 20.0944 58.3048 22.1908 59.1729 24.0752C59.4871 24.7712 60.0721 25.3087 60.792 25.5635C61.5392 25.8248 62.3142 25.7986 63.0605 25.5518C67.3522 23.2943 65.1607 18.8742 61.0918 19.2373Z" fill="#4E9C5A"/>
<path d="M28.7246 52.6953C29.651 52.9946 30.9158 52.7304 32.0596 52.7568C32.143 52.7999 32.225 52.8459 32.3047 52.8955C33.4289 53.587 33.6162 54.0346 33.9092 55.2656C35.018 54.1172 35.3752 53.6893 36.9053 54.5996C39.3897 56.0779 39.3847 57.191 37.958 59.5303C39.2114 59.8014 39.4754 59.8817 40.5527 60.541C40.5534 61.8483 40.6329 62.7033 40.8438 63.9854C40.176 64.6697 39.1637 65.155 38.3145 65.6084C39.4858 67.4258 38.7162 69.654 36.6357 70.3994C35.6174 70.7643 34.686 70.2237 33.7959 69.751C33.5346 70.5347 33.2781 71.0924 32.8682 71.8027C32.7383 71.9424 32.5087 72.1438 32.3154 72.1699C29.4113 72.5621 28.328 72.6568 27.6357 69.6543C25.497 70.8449 23.6146 70.8294 22.8037 67.9922C22.5606 67.1412 22.8041 66.1395 22.9727 65.2715C22.4963 65.1265 21.4429 64.8637 21.1045 64.5752C20.691 63.7219 20.7762 60.6146 21.4033 59.9023C21.9655 59.6474 23.0196 59.7143 23.6787 59.7129C23.3861 59.2585 22.6549 58.4446 22.4834 58.0098C21.8756 56.4673 24.555 54.6731 25.6885 54.1377C26.1385 54.4467 27.0731 54.8826 27.5996 55.1436C28.2331 54.2414 28.4387 53.7403 28.7246 52.6953ZM30.6406 54.5273C29.9479 56.373 29.9999 56.5651 27.9932 56.5264L27.002 57.8779C26.5204 57.4963 25.7096 56.7119 25.0742 56.8271C24.6834 57.395 25.4821 58.1929 25.8496 58.6709C24.9909 60.3568 24.3881 61.8085 22.5283 62.4189L22.4229 62.4531C23.7898 63.4877 24.7093 64.1233 25.8281 65.4365C25.5224 66.1095 24.9217 67.1017 25.1455 67.7158C25.6382 68.0063 26.3616 67.6316 26.8623 67.4404C29.3075 68.1055 29.3178 68.7523 30.501 70.832C31.3271 69.6292 31.946 68.0965 33.3896 67.7969C34.5692 67.552 35.7188 68.3232 36.4922 67.6523C36.7305 66.9785 36.249 66.3473 35.9219 65.7676C36.613 64.1883 36.8561 63.625 38.5156 62.9756C38.6948 62.9057 38.8746 62.8369 39.0547 62.7695C37.2769 61.34 36.5105 61.0111 35.8516 58.7959C36.2154 58.3119 36.5584 57.8533 36.9014 57.3525C36.4933 57.0468 35.9329 56.5986 35.501 56.3604L33.8076 57.4453C33.1959 57.1306 32.2369 56.6865 31.7725 56.2324L31.7266 56.1885C31.2456 55.7191 30.9852 54.7843 30.6406 54.5273Z" fill="#4E9C5A"/>
<path d="M30.6953 58.4072C32.1503 58.3736 33.5109 59.1254 34.2568 60.375C35.0026 61.6248 35.0184 63.1798 34.2979 64.4443C33.5773 65.709 32.2318 66.4877 30.7764 66.4834C28.5666 66.4766 26.7723 64.6951 26.75 62.4854C26.7279 60.2757 28.4861 58.4584 30.6953 58.4072ZM30.9775 64.5352C33.3987 62.9173 33.2372 60.1549 30.2627 60.4219C27.5348 61.8604 29.0353 65.0415 30.9775 64.5352Z" fill="#4E9C5A"/>
<path d="M74.6702 33.2504C75.7314 33.1943 82.3374 39.4032 79.4381 40.3041C78.5883 40.1415 77.7182 38.4686 76.4749 37.5508C76.2569 40.6601 76.5219 43.9521 75.8842 47.0215C75.3737 49.4795 74.8429 52.5542 73.3451 54.5969L72.9486 54.9387C72.6096 55.0157 72.5606 54.9906 72.233 54.8641C71.5445 54.1039 72.6076 51.249 72.8917 50.256C74.0864 46.0803 74.7599 41.8644 73.9954 37.5328C73.1654 38.5986 72.4352 41.4377 70.7285 40.4789C69.9217 39.1542 73.5784 34.0943 74.6702 33.2504Z" fill="#4E9C5A"/>
<path d="M8.00153 49.5898C8.87683 49.8941 13.9037 52.9132 14.5367 53.8452C14.7644 54.1806 14.8694 54.4364 14.7923 54.8616C14.6302 55.145 14.5208 55.2063 14.2305 55.3283C13.0404 55.8281 12.2592 54.3791 11.4677 53.7615C11.2523 53.5933 10.7939 53.3999 10.531 53.2894C11.6684 57.1265 13.7106 60.0647 16.057 63.2614C16.6905 64.1244 18.7921 65.9876 18.9467 66.7679C18.8234 67.1443 18.8148 67.0588 18.4386 67.3396C18.0525 67.4854 17.6243 67.6615 17.2313 67.5584C16.5078 67.1472 15.8102 66.3019 15.2614 65.6603C12.5228 62.4579 9.48955 57.6211 8.2362 53.6246C8.00851 54.778 7.8791 57.111 7.05104 57.9768C6.70378 58.3399 5.82687 58.1521 5.49357 57.6952C5.32617 56.2857 7.2705 50.9414 8.00153 49.5898Z" fill="#4E9C5A"/>
<path d="M53.7367 0C54.3414 0.0303211 54.6674 0.0935927 55.0418 0.587541C56.4176 2.40315 57.608 4.64748 58.7631 6.60314C57.7859 7.2622 50.336 11.0264 50.4312 8.49769C51.0237 7.38703 53.2881 6.68197 54.446 6.3267C51.9064 5.76422 50.2947 4.95001 47.4527 4.71247C44.6748 4.31796 41.0697 4.59588 38.2393 4.24759C38.036 4.22253 37.9961 3.49711 38.0232 3.27903C38.1829 1.99547 39.8761 2.30337 40.7882 2.22385C43.4417 2.10211 46.1355 2.31745 48.7411 2.82822C50.9458 3.29573 53.0508 3.91486 55.2553 4.33009C54.6098 3.34722 52.9104 1.61743 53.0804 0.467744C53.343 0.0766589 53.2461 0.194971 53.7367 0Z" fill="#4E9C5A"/>
<path d="M59.4606 68.5195C59.9333 68.6037 60.3707 69.1178 60.4142 69.5978C59.7952 72.3581 47.64 75.7406 44.8062 75.921C45.5884 76.423 48.5438 78.0087 47.9962 79.0744C46.4881 80.0023 42.3049 76.6941 41.2545 75.658C41.034 75.3908 40.8113 75.1675 40.7363 74.8283C41.0455 74.0309 44.8682 70.0375 45.9563 69.5857C46.3817 69.409 46.621 69.3462 47.066 69.5088C47.3074 69.7664 47.4141 69.8864 47.1947 70.2484C46.3568 71.6315 45.13 72.9607 44.0138 74.099C45.8361 73.3171 47.7725 73.2004 49.7154 72.7045C53.4552 71.7499 56.1226 70.3235 59.4606 68.5195Z" fill="#4E9C5A"/>
</svg>
