<svg width="174" height="105" viewBox="0 0 174 105" fill="none" xmlns="http://www.w3.org/2000/svg">
<path fill-rule="evenodd" clip-rule="evenodd" d="M51.5469 2.86661C53.5078 2.85864 55.549 2.7069 57.4971 2.87051C58.0477 2.91675 58.8294 3.0062 59.2959 3.33243C60.1126 3.90383 63.1162 12.8144 63.4112 14.1293C65.0028 14.57 69.6217 16.2979 71.085 16.9848C72.5981 16.0999 74.2542 15.4284 75.8272 14.6547C77.4011 13.8807 78.9663 12.9768 80.5928 12.3227C81.2174 12.0715 81.8098 11.8404 82.46 12.1303C83.8728 12.7604 92.5739 21.5981 92.9346 22.8002C93.2907 23.991 89.0121 31.9676 88.0557 33.5912C89.113 35.9834 90.6056 39.0956 91.2949 41.5385C94.5673 42.3984 97.8554 43.6808 101.11 44.6195C102.517 45.0252 102.953 45.5189 102.993 46.9799C103.108 51.1313 103.073 55.3235 103.039 59.4779C103.019 59.7679 102.886 60.8494 102.711 61.0717C102.052 61.908 98.9906 62.6946 98.0449 63.0014C95.7562 63.7317 93.4749 64.4856 91.2022 65.2641C90.702 67.0729 88.9595 71.034 88.1651 72.8725C88.8533 74.1591 93.4764 82.7536 93.4385 83.3354C93.4025 83.8863 92.9038 84.5807 92.5684 84.9945C91.1536 86.7398 89.2993 88.3032 87.6944 89.8822C86.3096 91.2448 84.9699 92.8391 83.4239 94.0131C83.0796 94.2746 82.4215 94.7838 81.9629 94.6996C81.9275 94.6929 81.8927 94.684 81.8574 94.6762C79.3289 94.133 73.7777 90.994 71.293 89.6986C68.6533 90.9231 66.5952 91.7219 63.8711 92.6703C62.7298 95.4785 61.8917 98.5037 60.8311 101.35C60.2598 102.883 60.1734 104.011 58.2891 104.147C55.7908 104.151 45.4177 104.462 43.8916 103.891C43.5325 103.757 43.3034 103.278 43.1416 102.95C42.719 102.091 42.4535 101.115 42.1455 100.208C41.6869 98.8571 41.1834 97.5225 40.7217 96.1723C40.3394 95.0546 40.0066 93.8796 39.5069 92.809L39.4463 92.682C37.2361 91.9704 34.3996 90.6799 32.2041 89.7494C28.7131 91.2916 25.0278 93.5686 21.4375 94.6898C20.3028 95.0434 15.032 89.1526 14.0313 88.2367C13.031 87.3209 10.2424 84.6736 9.98635 83.5824C10.2036 82.2026 12.0317 79.3254 12.709 77.8686C13.4412 76.2938 14.3196 74.1751 15.2227 72.7719C14.6169 71.7816 12.4277 66.3253 12.0606 65.2641C10.9165 65.0047 1.4444 62.0374 0.626 61.558C0.178434 60.802 -0.0115586 60.2346 0.00197624 59.3383C0.0683103 55.2071 0.0131552 51.0656 2.3112e-05 46.9359C-0.00330779 45.8761 0.353019 45.2826 1.31545 44.8813C2.29879 44.4711 3.38578 44.196 4.39651 43.8637C6.82945 43.0494 9.2692 42.2558 11.7158 41.4838C12.3763 39.415 13.823 35.6583 14.8985 33.8148C14.8396 33.7276 14.7815 33.6395 14.7256 33.5502C14.1239 32.5877 9.51295 23.6626 9.74123 23.1459C10.6037 21.1946 18.1911 13.9054 20.3311 12.2172C21.1921 11.5381 24.855 13.7415 25.8487 14.2465C27.8239 15.2533 29.8225 16.214 31.8428 17.1273C33.889 16.1827 37.1499 14.8391 39.334 14.1869C40.3629 11.2105 41.4428 8.27539 42.5303 5.32168C43.1591 3.61361 42.9454 3.07853 44.918 2.83731C47.1212 2.77435 49.3413 2.87546 51.5469 2.86661ZM57.6104 5.46817C54.9337 5.30946 50.4309 5.32869 47.7207 5.41836L45.1514 5.50235C43.9172 8.42789 42.8582 11.3905 41.7735 14.3744C41.5762 14.917 41.3911 15.3993 41.1377 15.9193C39.7673 16.4925 32.5117 19.5013 31.6201 19.5785C31.1522 19.6189 30.5762 19.3952 30.1514 19.2191C27.0814 17.9459 24.2388 16.0338 21.1475 14.8393C18.1659 17.5896 15.2788 20.4412 12.4912 23.3881C13.177 24.8666 13.8637 26.3247 14.5801 27.7768C15.2667 29.168 17.0444 32.1604 17.4151 33.4994C16.9619 35.6742 14.8971 38.4073 14.4444 40.7973C14.3373 41.3624 13.8252 42.9955 13.3418 43.3607C12.3455 43.9058 10.9595 44.3407 9.87893 44.724L2.70998 47.2094C2.65263 51.2717 2.55228 55.6694 2.72659 59.7065C6.02466 60.8855 10.1492 61.6653 13.3721 63.1078C14.4415 63.5865 15.0989 66.8293 15.6289 67.8578C16.3544 69.5082 17.4029 71.1885 17.8291 72.8861C17.458 74.1048 16.2401 76.3691 15.6201 77.6039C14.6818 79.4842 13.7692 81.3776 12.8819 83.2826C13.9583 84.6168 15.4829 86.0197 16.7315 87.2299C18.3321 88.7848 19.9004 90.3718 21.4346 91.9926C22.7365 91.327 24.338 90.6121 25.6934 89.9926C27.492 89.171 30.1915 87.5707 31.9697 87.1205C33.685 87.7051 35.4602 88.5911 37.1719 89.2836C38.5777 89.8526 40.1758 90.2464 41.4912 90.7885C42.4203 92.9838 43.1473 95.3746 43.9268 97.6283C44.3585 98.8775 44.8432 100.487 45.4463 101.658L55.7256 101.665L57.8184 101.676C59.2241 98.4842 60.437 94.5089 61.8037 91.1508C63.2578 90.1564 65.6886 89.5049 67.3916 88.8012C68.5185 88.3354 70.4364 87.4563 71.5381 87.1254C73.0042 87.5991 75.5603 88.974 77.0752 89.7338C78.7364 90.5677 80.3934 91.2119 82.0049 91.9818C83.9041 89.9964 85.8384 88.0444 87.8067 86.1273C88.5077 85.444 90.2383 83.9207 90.7647 83.2592C89.4045 80.8507 88.2035 78.1759 86.8321 75.7563C86.2802 74.7825 85.4102 73.5477 85.8067 72.4428C86.756 69.7985 87.9409 67.1661 88.9756 64.5473C89.1224 64.1759 89.2762 63.7781 89.4746 63.4301C91.6109 62.2005 97.8279 60.4403 100.464 59.5258C100.476 55.9204 100.631 50.7067 100.421 47.1977C97.6499 45.8965 92.4009 44.9391 89.5117 43.394C89.0092 42.025 88.4747 40.6678 87.9092 39.3236C86.9363 37.0437 84.9514 34.1288 86.1514 31.7885C87.5785 29.0053 89.0075 26.2191 90.4151 23.4252C87.5443 20.4966 84.6202 17.6203 81.6446 14.7982C78.7277 16.1035 73.9189 18.7228 71.1553 19.6537C69.8159 19.2256 67.6103 18.2458 66.2256 17.6801C64.9984 17.1787 62.6251 16.3634 61.5928 15.8568C61.3548 15.4806 61.1902 15.1093 61.0362 14.6928C59.8991 11.6189 58.8527 8.50162 57.6104 5.46817Z" fill="#4E9C5A"/>
<path fill-rule="evenodd" clip-rule="evenodd" d="M49.2883 25.3523C64.967 24.0949 78.6897 35.8002 79.9201 51.4812C81.1504 67.1623 69.4207 80.8651 53.7375 82.0681C38.0929 83.2682 24.4307 71.5738 23.2033 55.9314C21.9761 40.2888 33.6478 26.6067 49.2883 25.3523ZM47.4963 57.8025C43.3825 58.7818 39.8301 61.3631 37.6281 64.9734C36.1343 67.4609 35.1942 70.8979 35.0998 73.7947C36.282 74.57 37.2591 75.3882 38.5217 76.074C44.6294 79.391 49.7684 80.0316 56.4631 79.0681C61.8532 77.9039 64.3078 76.5152 68.7287 73.3542L68.6847 73.2185C68.2957 71.9613 68.2076 70.5257 67.8469 69.2136C66.6885 65.0213 63.8829 61.4763 60.0685 59.3865C58.9728 58.7915 57.6185 58.2777 56.4474 57.8122C51.9074 58.4012 52.3092 58.8538 47.4963 57.8025ZM50.2951 27.8269C50.1595 27.8298 50.1568 27.8359 50.0217 27.8601C49.3472 27.9312 48.6428 27.9867 47.9758 28.0955C26.2927 31.6291 17.9483 55.6844 32.8293 71.8152C34.0104 65.9509 35.847 61.452 41.049 57.991C42.2052 57.2349 43.4268 56.5833 44.6984 56.0437C39.8686 51.4945 39.4012 45.0338 44.0139 40.1189C46.0992 37.8967 49.5815 36.5859 52.6262 36.8328C53.8935 37.0211 55.0727 37.2184 56.2472 37.78C63.5323 41.2638 64.903 50.8336 58.6574 56.0505C65.6716 59.1347 69.4767 63.828 70.718 71.4831C86.6467 53.6351 73.9158 27.3247 50.2951 27.8269ZM51.1574 39.283C46.5073 39.5951 42.9887 43.6139 43.2941 48.2644C43.5996 52.9147 47.6131 56.4388 52.2639 56.1404C56.9243 55.841 60.4576 51.8169 60.1515 47.157C59.8455 42.4972 55.8167 38.9704 51.1574 39.283Z" fill="#4E9C5A"/>
<path d="M129.579 26.5937C133.643 25.9084 134.914 32.9398 130.83 34.7411C126.336 35.0181 125.801 28.4217 129.579 26.5937Z" fill="#4E9C5A"/>
<path d="M149.431 26.4864C153.24 26.4524 154.375 33.7156 149.907 34.7785C145.87 34.5435 145.389 27.9824 149.431 26.4864Z" fill="#4E9C5A"/>
<path fill-rule="evenodd" clip-rule="evenodd" d="M119.804 0.0119137C120.446 -0.0232062 121.024 0.00939848 121.63 0.245312C122.604 0.621434 123.39 1.36812 123.817 2.32148C124.643 4.20908 123.678 6.5113 121.786 7.27461C121.701 10.572 121.683 13.8711 121.734 17.1691C122.495 16.8741 123.561 16.4537 124.313 16.217C132.809 13.5413 150.585 13.2166 158.277 17.2521C158.333 14.0375 158.32 10.6744 158.309 7.45527C157.534 6.98231 156.681 6.35169 156.247 5.54219C153.84 1.11823 160.599 -2.164 163.028 1.89473C164.384 4.16323 162.933 6.41399 160.869 7.51094C160.737 10.8907 160.845 15.1723 160.826 18.6369C160.948 18.7291 161.069 18.8225 161.188 18.9172C162.931 20.3011 164.201 22.448 164.458 24.6711C165.138 24.6657 165.84 24.6562 166.504 24.6779C171.806 24.8518 171.56 29.8922 171.432 33.8244C171.372 35.6841 170.816 37.2551 169.448 38.4973C167.829 39.5808 166.051 39.5554 164.164 39.2805C161.743 44.184 157.786 48.1628 152.896 50.6115C145.766 54.1157 138.763 54.7823 131.237 52.1828C124.086 49.7131 119.125 46.0625 115.764 39.2131C115.223 39.242 114.682 39.2629 114.14 39.2756C109.578 39.3656 108.667 36.708 108.638 32.6613C108.596 26.7796 108.868 24.6417 115.461 24.7404C116.056 21.8223 116.902 20.4025 119.325 18.6066C119.246 15.0418 119.152 11.0287 119.249 7.46602C117.943 6.89314 116.929 5.98737 116.568 4.55586C116.333 3.61783 116.492 2.62484 117.006 1.80586C117.66 0.760677 118.639 0.271077 119.804 0.0119137ZM157.501 44.7814C155.225 45.7039 152.605 45.963 150.164 45.9826C147.212 46.0062 144.216 46.0558 141.265 46.0041C135.195 45.8977 128.673 46.3374 122.701 45.1047C124.006 46.1615 125.008 46.916 126.452 47.7775C132.596 51.4638 139.965 52.5204 146.897 50.7102C150.557 49.768 154.685 47.506 157.52 45.0051L157.539 44.8283L157.501 44.7814ZM140.267 16.6672C139.268 16.6491 137.216 16.678 136.271 16.7521C131.573 16.9765 122.912 17.702 119.56 21.4143C118.829 22.2097 118.315 23.1795 118.066 24.2307C117.646 26.0633 117.896 29.7395 117.882 31.7229C117.864 34.2607 117.275 39.2197 119.563 40.8791C124.032 44.1214 131.035 43.7542 136.273 43.7551L144.169 43.7512C149.314 43.7862 156.357 44.1867 160.61 40.5383C163.043 38.4515 162.173 33.5376 162.236 30.6057C162.301 27.6027 162.808 23.6561 160.375 21.468C155.253 16.8094 146.788 16.8636 140.267 16.6672ZM164.737 27.135C164.601 30.024 164.729 33.9819 164.777 36.9123C165.988 37 167.246 37.1115 168.232 36.259C169.462 34.8705 169.023 31.906 169.003 30.0861C168.967 26.9752 166.992 27.0718 164.737 27.135ZM113.823 26.967C111.981 27.1195 110.898 28.0222 111.08 30.0139C111.28 32.1867 110.169 35.975 112.72 36.9387C113.605 36.919 114.517 36.916 115.397 36.8352C115.403 33.5709 115.384 30.3061 115.337 27.0422L113.823 26.967ZM161.062 3.44355C160.836 2.63715 160.006 2.16112 159.196 2.37324C158.659 2.51366 158.239 2.93242 158.099 3.46895C157.959 4.00566 158.119 4.57669 158.518 4.96211C158.917 5.34738 159.493 5.48729 160.024 5.32832C160.826 5.08836 161.288 4.24986 161.062 3.44355ZM120.243 2.3C119.695 2.3158 119.198 2.62582 118.944 3.11152C118.69 3.59722 118.718 4.18278 119.018 4.6418C119.317 5.10096 119.842 5.36243 120.39 5.32539C121.212 5.26956 121.839 4.5654 121.8 3.74141C121.76 2.91714 121.068 2.27621 120.243 2.3Z" fill="#4E9C5A"/>
<path fill-rule="evenodd" clip-rule="evenodd" d="M140.341 62.7904C146.959 62.717 146.191 62.3073 146.173 68.5238L146.16 76.0433C146.189 84.3588 146.173 92.6749 146.114 100.99C147.294 101.024 150.873 100.448 150.896 102.106C150.905 102.78 150.349 103.265 149.678 103.245C147.844 103.192 146.007 103.231 144.169 103.238L130.734 103.237L92.1732 103.226L79.9329 103.219C77.5918 103.225 75.2421 103.249 72.9017 103.206C72.0405 103.191 71.4868 101.817 72.3402 101.326C73.1939 100.835 74.1819 100.991 75.1243 100.964C77.4125 100.973 79.6993 100.991 81.9866 100.996L99.682 100.988C99.664 97.4139 99.665 93.8387 99.6829 90.265C100.097 89.6691 100.452 89.1211 101.247 89.0491C102.72 88.9156 104.235 88.9743 105.716 88.9788L114.543 89.0062C114.584 87.3869 114.599 85.766 114.585 84.1458C114.577 83.0833 114.511 81.7439 114.644 80.6917C114.721 80.0746 115.396 79.687 115.896 79.3685C117.342 79.2769 119.38 79.3326 120.856 79.3392C123.681 79.3607 126.505 79.3642 129.329 79.349L129.296 68.8392C129.292 67.3871 129.213 65.5371 129.374 64.1087C129.434 63.588 130.122 63.1297 130.556 62.8538C133.78 62.7114 137.138 62.8259 140.341 62.7904ZM140.893 65.2806C137.997 65.3175 135.061 65.2379 132.17 65.3577L131.914 65.4163C131.626 65.9532 131.758 97.3504 131.711 100.896C135.078 100.995 140.202 101.096 143.542 100.924L143.834 100.868C144.114 100.428 143.97 98.823 143.967 98.2259C143.93 91.559 143.941 84.8885 143.945 78.221C143.939 75.7957 143.951 73.3697 143.978 70.9447C143.997 69.281 144.059 67.038 143.936 65.388C142.953 65.2831 141.885 65.268 140.893 65.2806ZM114.396 91.5823C110.307 91.5442 106.22 91.5378 102.132 91.5648C102.112 94.6826 102.054 97.7762 102.121 100.893L109.903 100.989C111.206 100.993 113.115 101.024 114.374 100.882C114.56 98.312 114.345 94.3344 114.396 91.5823ZM129.127 81.8909C126.642 81.7241 122.808 81.848 120.238 81.8568L117.087 81.9251C116.832 88.2325 117.166 94.5988 116.975 100.908C119.991 100.96 123.006 100.985 126.021 100.978C127.078 100.961 128.131 100.955 129.185 100.881L129.198 88.762C129.195 86.6111 129.251 84.0122 129.127 81.8909Z" fill="#4E9C5A"/>
<path fill-rule="evenodd" clip-rule="evenodd" d="M161.269 72.0257C161.587 72.0235 162.157 72.0263 162.347 72.2874C163.746 74.2222 163.846 77.3695 165.329 79.2952C167.21 81.736 170.948 82.0803 173.574 83.3128C174.049 83.5321 174.18 84.5892 173.713 84.8138C171.365 85.9436 168.667 86.4292 166.38 87.7913C163.986 89.2166 163.683 94.6467 162.337 96.2864C162.054 96.3796 161.287 96.5072 161.143 96.2054C159.936 93.6936 159.79 91.4128 158.373 88.8909C156.905 86.2779 149.883 86.0232 149.723 83.8704C150.036 83.1827 150.941 82.8944 151.573 82.682C157.681 80.6286 158.535 80.7088 160.219 74.1224C160.393 73.4416 160.686 72.5575 161.269 72.0257ZM161.743 77.5091C160.116 81.0228 159.181 82.3912 155.437 83.7698C155.098 83.8981 154.753 84.011 154.404 84.1087C157.584 85.0296 160.085 86.409 161.293 89.5755C161.387 89.8223 161.687 90.6141 161.886 90.7493C163.749 86.2219 164.756 85.8526 169.147 84.1468C165.824 82.9301 164.138 82.3326 162.511 78.9017C162.368 78.6 161.978 77.6937 161.743 77.5091Z" fill="#4E9C5A"/>
</svg>
