<svg width="175" height="120" viewBox="0 0 175 120" fill="none" xmlns="http://www.w3.org/2000/svg">
<path fill-rule="evenodd" clip-rule="evenodd" d="M39.7889 2.06592C50.2371 1.23509 60.2482 8.12109 63.9227 17.8062C69.888 16.3272 76.5069 18.6131 80.8807 22.772C84.6171 26.3629 86.7765 31.2901 86.8847 36.4712C86.9905 41.3424 84.9232 46.6505 81.5536 50.1685C78.3315 53.5971 73.9663 55.7286 69.2811 56.1607C67.2367 56.35 63.3421 56.2349 61.1932 56.2339C56.6018 56.1992 52.0097 56.2202 47.4188 56.2974C42.9442 56.3624 38.0941 56.2724 33.5888 56.2632L14.7753 56.2515C10.7256 56.248 6.84769 54.6108 4.02039 51.7114C1.49129 49.1019 -0.0610309 45.3292 0.00184016 41.6841C0.0564888 37.61 1.7407 33.7278 4.6786 30.9048C8.07992 27.6441 11.998 26.7197 16.5682 26.7954C16.8817 20.3983 18.3392 15.3585 22.6757 10.4253C27.021 5.447 33.1912 2.43285 39.7889 2.06592ZM48.3163 6.18409C46.3073 5.43547 42.4982 4.747 40.3729 4.95655C36.9797 5.19684 34.4759 5.74921 31.3973 7.28272C24.9468 10.4958 20.3117 17.007 19.6679 24.2153C19.5503 25.5332 19.8165 27.035 19.7929 28.3648C19.7559 29.3873 19.6465 29.7614 18.5692 29.8257C17.3581 29.8979 16.1741 29.6543 14.9813 29.6587C4.11344 29.6989 -1.56438 43.091 6.95399 50.4819C10.7952 53.8148 14.3426 53.3732 18.9774 53.356L27.5409 53.3335L59.2489 53.3208C66.9959 53.3489 73.2156 54.3431 79.2196 48.396C82.3528 45.3205 84.1079 41.1078 84.0848 36.7173C84.1118 29.9509 79.6313 23.6229 73.2079 21.2788C67.6285 19.2429 62.8279 20.271 57.8602 23.3052C57.001 23.83 56.2675 24.7086 55.3446 25.1314C53.5604 25.9092 52.4966 23.6841 53.8554 22.6069C56.0017 20.9058 58.6925 19.5644 61.1923 18.4399C58.3703 12.5537 54.5877 8.52122 48.3163 6.18409Z" fill="#4E9C5A"/>
<path fill-rule="evenodd" clip-rule="evenodd" d="M146.573 1.36328C147.288 1.3747 159.874 7.53166 161.641 8.48535C165.33 10.4776 171.019 12.7909 174.69 14.7656C174.468 25.9476 174.752 37.2737 174.603 48.4707C173.399 49.3425 169.398 51.1022 167.903 51.8105C160.825 55.1626 153.524 58.1488 146.393 61.3652C145.658 61.4854 120.655 48.3731 118.504 47.25C118.475 46.7415 118.486 46.2518 118.489 45.7432C118.556 35.3363 118.711 24.9393 118.65 14.5322C119.929 13.8618 121.476 13.2543 122.804 12.5908C127.739 10.1252 132.72 7.86976 137.739 5.59766C140.672 4.27031 143.577 2.72897 146.573 1.36328ZM121.341 17.1445C121.117 21.6362 121.202 26.4663 121.189 30.998L121.065 45.585C124.123 47.0357 127.037 48.6773 130.043 50.2256L145.069 57.9502C145.207 48.1972 145.154 38.4388 145.349 28.6992C143.484 27.844 141.613 26.9487 139.77 26.0439C133.657 23.0426 127.383 20.2801 121.341 17.1445ZM171.725 17.8535C169.783 18.8063 167.708 19.6557 165.731 20.5527L155.014 25.417C153.212 26.2187 149.574 28.0854 147.967 28.6064C147.881 35.8001 147.831 42.9943 147.818 50.1885C147.812 51.1868 147.685 57.1071 147.827 57.6543C147.999 57.6983 148.005 57.7319 148.138 57.6963C151.63 56.0491 155.215 54.5492 158.743 52.9629L171.978 46.9375C171.949 44.04 171.998 18.2408 171.725 17.8535ZM146.435 4.16504L130.96 11.2939C128.244 12.5694 126.017 13.7612 123.184 14.9854C130.779 18.9709 138.701 22.5181 146.45 26.207C146.607 26.2821 146.757 26.2442 146.917 26.209L147.029 26.1348C154.653 22.4335 162.637 19.1591 170.239 15.4775C168.362 14.718 166.117 13.5008 164.238 12.5879C160.504 10.8032 156.782 8.99065 153.073 7.15039C152.004 6.61983 146.977 3.98944 146.435 4.16504Z" fill="#4E9C5A"/>
<path d="M44.0411 59.8105C45.1225 60.145 46.3559 62.2206 46.9403 63.1285C50.1171 68.0643 54.274 70.5921 59.7516 72.4121C60.4558 72.646 62.7469 73.6907 61.5737 74.6895C60.5914 75.5258 58.2609 74.3169 57.1792 74.0016C52.1588 72.4246 48.7924 69.4142 45.4462 65.4542C45.637 67.3994 45.507 69.4116 45.6294 71.3408C45.8985 75.187 46.8985 79.5503 48.2995 83.101C55.4185 101.145 74.6176 112.454 93.8502 110.381C94.3595 110.326 95.0612 110.256 95.5177 110.506C96.6129 113.036 94.1332 112.73 92.3388 112.877C79.3962 113.94 65.787 108.788 56.6223 99.8135C47.1483 90.5368 42.9832 78.8814 42.8514 66.0251C40.4397 70.2073 37.7619 74.4027 35.2282 78.5003C34.7572 79.2621 31.7922 78.6078 34.0335 75.7944C35.9875 73.3417 42.0619 61.0245 44.0411 59.8105Z" fill="#4E9C5A"/>
<path d="M136.176 64.3652C136.633 64.3767 136.721 64.3679 137.132 64.5556C137.855 65.2564 137.876 68.3654 137.904 69.3892C138.087 76.7401 136.255 84.001 132.607 90.3854C126.809 100.576 118.333 106.71 107.122 109.777C109.196 111.01 121.387 116.683 122.105 117.729C122.255 117.948 122.345 118.32 122.274 118.579C122.128 119.11 121.501 119.445 121.069 119.714C119.318 119.14 116.462 117.676 114.766 116.84C110.519 114.744 106.38 112.503 102.123 110.407C101.493 110.021 100.688 109.666 100.986 108.829C101.84 108.004 103.713 106.837 104.773 106.012C108.412 103.181 110.397 100.261 112.704 96.2991C113.274 95.5846 114.583 92.0512 115.433 92.0391C117.794 92.1763 116.617 94.0745 116.077 95.2959C113.952 100.102 111 103.553 107.39 107.219C111.566 105.733 115.383 104.235 119.09 101.724C129.561 94.6285 135.676 82.1794 135.453 69.6023C135.432 68.4091 135.12 66.1112 135.336 64.9896C135.571 64.6033 135.765 64.5618 136.176 64.3652Z" fill="#4E9C5A"/>
<path d="M152.425 64.8813C152.79 64.8683 152.818 64.8677 153.169 64.9575C153.242 65.0295 153.443 65.235 153.452 65.3462C154.771 83.8216 143.029 104.517 125.783 111.843C124.834 110.917 124.2 110.281 125.684 109.479C140.715 101.339 150.148 86.944 151.084 69.7775C151.159 68.4075 151.12 66.8117 151.433 65.5143C151.504 65.2141 152.201 64.9747 152.425 64.8813Z" fill="#4E9C5A"/>
<path d="M87.0761 0.176944C96.06 -0.824252 106.61 2.53595 114.101 7.40902C114.765 7.84071 115.422 8.27177 115.477 9.10547C115.299 9.58884 114.848 9.91742 114.457 10.2649C112.528 9.35721 110.536 8.09811 108.609 7.10169C104.993 5.23184 101.837 4.26158 97.9059 3.42674C89.4041 1.57336 81.6811 2.68874 73.6485 5.98896C72.0852 6.63128 70.5249 7.55212 68.9711 8.30031C68.4218 7.81481 67.4418 7.01166 68.2118 6.27969C69.0057 5.52496 70.1549 5.10924 71.1236 4.61945C76.2196 2.04341 81.3843 0.621962 87.0761 0.176944Z" fill="#4E9C5A"/>
<path d="M92.6875 32.0753C97.6357 31.751 103.214 32.738 107.904 34.3083C109.056 34.694 111.679 35.2645 112.03 36.7099C112.114 37.057 111.796 37.4466 111.595 37.7302C110.629 38.0801 108.294 36.98 107.118 36.5903C104.009 35.549 100.793 34.8501 97.5313 34.5058C96.465 34.3881 95.0013 34.2686 93.9261 34.2643C92.4323 34.2584 91.9469 33.2824 92.6875 32.0753Z" fill="#4E9C5A"/>
</svg>
