<svg width="1920" height="617" viewBox="0 0 1920 617" fill="none" xmlns="http://www.w3.org/2000/svg">
<path d="M1758.31 346.107C1848.43 345.149 1947.9 327.978 2031.37 294.286C2102.57 265.546 2210.62 205.578 2212 117.779C2212.24 102.656 2205.22 85.3055 2194.24 74.8944C2193.51 74.2098 2192.75 73.5573 2191.97 72.938C2188.36 70.2082 2181.44 63.9233 2176.84 65.3789C2176.58 69.8298 2184.31 79.3934 2187.42 84.7496C2219.02 148.349 2124.55 213.372 2075.18 235.637C1904.16 312.76 1696.3 317.025 1518.77 259.677C1499.92 253.589 1419.95 219.563 1411.39 203.931C1414.95 198.692 1436.76 181.72 1443.32 175.13C1487.14 131.111 1520.58 74.1633 1507.06 9.72811C1496.16 -42.2208 1450.15 -70.2442 1398.75 -60.3457C1361.55 -53.181 1331.97 -30.5162 1311.07 0.611622C1285 40.0268 1280.14 84.5759 1290.32 129.84C1294.42 148.019 1300.89 163.245 1310.13 179.36C1313.32 184.952 1320.37 194.071 1321.84 199.342C1318.84 202.921 1302.18 209.296 1297.3 211.438C1153.97 274.395 985.117 274.305 835.611 236.143C615.115 179.866 409.282 65.856 174.55 117.311C87.8235 136.333 21.7991 163.404 -44.7776 225.318C-39.9415 236.128 -27.387 265.638 -22.0882 273.671C-19.1688 273.049 -13.4047 266.39 -11.1707 264.029C-1.59947 253.722 8.85244 244.269 20.0663 235.778C90.5238 182.201 179.853 158.335 267.003 154.507C401.849 148.584 532.497 192.294 657.825 236.894C870.018 312.406 1102.91 350.823 1316.28 257.118C1330.49 250.876 1346.55 244.413 1359.4 235.519C1368.87 244.754 1395.11 262.128 1407.01 268.97C1510.52 327.815 1640.85 347.356 1758.31 346.107ZM1373.76 167.574C1335.76 120.952 1331.12 45.8519 1381.25 5.08442C1395.14 -6.2043 1405.88 -10.2184 1423.83 -8.67203C1433.6 -4.87336 1439.65 -0.770818 1444.03 9.21245C1469.82 67.9037 1418.1 133.684 1373.76 167.574Z" fill="#4E9C5A"/>
</svg>
