<svg width="135" height="117" viewBox="0 0 135 117" fill="none" xmlns="http://www.w3.org/2000/svg">
<path fill-rule="evenodd" clip-rule="evenodd" d="M88.0885 8.33191C96.7099 8.15885 105.422 8.43647 114.049 8.32117C114.843 8.3106 116.619 8.27047 117.274 8.62488C117.31 8.76613 117.338 8.91003 117.358 9.05457C117.489 9.98764 117.434 11.9981 117.435 13.0419L117.437 20.3866L117.43 33.0126C117.432 35.2873 117.601 39.1037 117.216 41.4188C117.165 41.7343 116.089 41.7503 115.743 41.7665L94.608 41.7909C93.3066 41.7898 87.5826 41.9016 86.5895 41.6639C85.9791 40.777 86.1786 36.3074 86.1803 34.9784L86.1862 25.9638C86.1894 24.1371 86.0218 9.40488 86.3502 8.71961C86.8833 8.28919 87.3955 8.35564 88.0885 8.33191ZM114.756 31.3446C111.073 31.2704 106.816 31.2462 103.137 31.3319C103.111 33.9591 103.112 36.5866 103.14 39.2138C106.635 39.2316 111.312 39.3392 114.745 39.1561C114.818 36.5529 114.82 33.948 114.756 31.3446ZM100.527 31.3173C96.7707 31.3251 92.6316 31.2382 88.9147 31.3622C88.8718 33.8852 88.8365 36.6879 88.8795 39.2128L100.537 39.2411C100.566 36.6001 100.562 33.9583 100.527 31.3173ZM100.454 20.8749C96.6087 20.8231 92.7636 20.823 88.9186 20.8749C88.8563 23.2949 88.8319 26.3966 88.8991 28.8212C92.7584 28.8481 96.6189 28.854 100.478 28.8388C100.569 26.2162 100.5 23.5031 100.454 20.8749ZM114.743 20.9022C111.233 20.7497 106.781 20.8428 103.22 20.8866C103.061 23.3095 103.131 26.3002 103.155 28.747C106.238 28.9598 109.478 28.7408 112.577 28.8163C113.286 28.8335 114.033 28.8135 114.741 28.7821C114.804 26.0823 114.785 23.6054 114.743 20.9022ZM114.797 10.9833C112.392 10.8142 109.408 10.9089 106.964 10.9305C103.571 10.9716 100.176 10.9722 96.7809 10.9315L88.9352 10.9823C88.8765 13.4134 88.8601 15.8456 88.8873 18.2772C91.6742 18.444 94.893 18.3368 97.7125 18.3202L107.093 18.3427L114.782 18.3309C114.765 15.8819 114.77 13.4323 114.797 10.9833Z" fill="#4E9C5A"/>
<path fill-rule="evenodd" clip-rule="evenodd" d="M74.3497 0.0279915C78.4421 -0.0388373 82.5562 0.0345652 86.6504 0.0377572L110.027 0.0328744L123.701 0.0250619C125.841 0.0339397 128.14 0.0234414 130.27 0.147132C131.047 0.192515 132.222 0.884656 132.778 1.44108C134.118 2.78128 134.345 4.06426 134.359 5.88444C134.38 8.57441 134.337 11.2474 134.343 13.9274L134.321 37.4362L134.343 47.5924C134.351 50.8509 135.117 56.5917 130.552 57.6256C128.609 58.0658 125.389 57.8655 123.313 57.8649L112.031 57.8727C111.996 60.8359 112.193 64.1079 112.28 67.1081L114.184 67.1237C115.562 67.1119 120.394 66.5623 120.606 68.363C120.69 69.0834 120.015 69.8211 119.174 69.8278C116.649 69.8477 114.121 69.8406 111.594 69.8395H97.1993L87.2491 69.8454C85.6101 69.846 83.9542 69.8645 82.3155 69.8171C81.5967 69.78 81.0422 69.2554 81.0645 68.528C81.1184 66.772 84.0005 67.0884 85.1758 67.0846L89.6329 67.0612C89.8816 64.0056 90.0536 60.9438 90.1475 57.8796C85.7106 57.9731 81.1984 57.7957 76.754 57.8727C74.9507 57.904 72.8737 57.9349 71.3585 56.8356C70.3003 56.0815 69.5993 54.9253 69.421 53.6393C69.2217 52.1915 69.3263 48.136 69.3174 46.5475L69.3106 30.3112L69.3135 13.3444C69.3105 10.5096 69.2571 7.66352 69.3448 4.8317C69.4322 2.00923 71.4812 0.363186 74.1436 0.0445931C74.2472 0.0301426 74.2246 0.029986 74.3497 0.0279915ZM102.551 57.9391C99.2909 57.9023 96.0305 57.9145 92.7715 57.9772C92.5208 60.1596 92.4145 64.8493 92.3526 67.1559C97.7879 67.2981 103.802 67.2647 109.251 67.2116L109.485 67.1559C109.605 66.8844 109.228 59.1269 109.212 58.071C107.449 57.8694 104.419 57.9422 102.551 57.9391ZM131.575 49.7878C127.668 49.7006 123.486 49.7847 119.554 49.7858L98.3282 49.7751L81.3897 49.7839C78.3239 49.7839 75.0472 49.7215 71.9962 49.8112C71.9821 50.6556 71.9468 51.5182 71.9717 52.3688C72.0306 54.3764 72.7132 55.0241 74.6719 55.0485C77.8438 55.088 81.008 55.0524 84.1758 55.0505L102.058 55.0573L120.372 55.0544C122.609 55.0524 124.846 55.0504 127.083 55.0534C128.279 55.055 129.998 55.1966 130.974 54.4235C131.896 52.9676 131.513 51.5828 131.575 49.7878ZM112.232 2.72233L74.1563 2.72135C72.7091 3.13571 71.9829 3.6292 71.9629 5.28092C71.9367 7.44693 71.9753 9.61616 71.9864 11.7829L71.9874 22.6051C71.9999 30.6923 71.8499 39.1151 71.9893 47.1676C74.6064 47.1974 77.1713 47.1358 79.7745 47.1462L129.57 47.1774L131.598 47.1813L131.59 18.0798L131.607 9.25944C131.611 7.73572 131.652 6.17356 131.567 4.65592C131.509 3.63058 130.332 2.81009 129.355 2.7692C127.497 2.69141 125.633 2.71017 123.774 2.70768L112.232 2.72233Z" fill="#4E9C5A"/>
<path fill-rule="evenodd" clip-rule="evenodd" d="M22.4434 7.82235C24.2603 7.76659 26.317 7.72136 28.1123 7.79208C30.4582 7.88454 30.1355 11.6705 30.1631 13.2638L32.333 14.2227C33.5677 13.6351 35.1296 12.7623 36.543 13.1124C38.2315 13.5308 39.1818 15.8689 39.8848 17.2638C40.3955 18.3362 41.2057 19.7716 40.9102 20.9962C40.6063 22.2549 38.4816 23.2898 37.4268 23.8507C37.4243 24.8027 37.4899 25.7874 37.5381 26.7403C38.4669 27.1503 40.4101 28.0003 40.7422 29.0011C41.1373 30.1929 40.6262 31.5366 40.0772 32.589C37.8975 36.7668 37.155 38.7826 32.2656 36.0616C31.6225 36.4818 30.8533 36.7678 30.1397 37.0645C29.9871 39.5146 30.6175 41.6239 27.5947 42.296C27.3808 42.3141 27.1666 42.3282 26.9522 42.3399C25.3389 42.4299 21.3694 42.7086 20.209 41.5304C19.2889 40.5959 19.5419 38.6318 19.499 37.2686C18.6563 36.6846 18.1542 36.3986 17.1924 36.0567C15.7906 36.5889 14.2521 37.7079 12.5156 37.0431C11.1389 36.1994 9.94565 33.6766 9.28713 32.3321C7.6003 28.8883 9.03506 28.0385 11.9121 26.7325C11.9562 25.8712 11.9496 24.8807 11.961 24.0089C9.63843 22.3556 7.28958 22.094 9.27931 18.1954C9.99793 16.7874 11.105 13.9362 12.6445 13.3067C14.2291 12.6589 15.7985 13.5486 17.2432 14.2599C17.9868 13.9148 18.7228 13.5277 19.4531 13.1534C19.461 12.5362 19.4777 11.8554 19.4844 11.2413C19.5102 8.87861 19.827 8.03512 22.3057 7.82724L22.4434 7.82235ZM27.3965 10.5411C26.4137 10.2719 24.0023 10.4014 22.8672 10.4229C22.6203 10.4549 22.2241 10.452 22.1494 10.6388C21.7357 11.6781 21.976 13.0139 21.7598 14.2745C20.8348 15.442 18.7099 16.6713 17.2979 16.9981C15.9526 16.6948 14.9101 16.0198 13.7022 15.7247C12.6757 16.8692 11.7088 18.9218 11.1231 20.3673C12.3131 21.3176 14.248 22.0315 14.3447 23.7179C14.6433 28.9326 14.4182 27.4528 11.1338 30.1964C11.8135 31.8547 12.4932 33.4864 13.8242 34.7384C15.1689 34.2727 15.9164 33.7399 17.3662 33.3809C18.4068 33.8534 20.4705 34.6698 21.2617 35.4239C22.1132 36.2362 21.9507 38.5046 22.0625 39.7179C23.4 39.9684 25.1972 39.9717 26.5664 39.8702C26.8238 39.8517 27.2876 39.8468 27.3945 39.6475C27.9375 38.6332 27.6473 37.1825 27.8965 35.88C28.7458 34.7278 30.9752 33.8242 32.335 33.4542C33.4466 33.8412 34.5939 34.2271 35.6406 34.7696C36.9022 33.5684 37.6279 31.8708 38.4014 30.3165L38.2969 30.2276C37.1357 29.2601 35.0046 28.5507 35.0586 27.2052C35.1066 26.0187 34.727 23.148 35.6143 22.2423C36.3273 21.5145 37.5606 20.9269 38.3584 20.2852C37.6356 18.5319 36.9813 16.7789 35.4619 15.5763C34.508 16.0489 33.2381 16.7335 32.2276 16.9854C31.2239 16.6342 28.3105 15.3833 27.8877 14.378C27.5954 13.682 27.8697 11.2359 27.3965 10.5411Z" fill="#4E9C5A"/>
<path fill-rule="evenodd" clip-rule="evenodd" d="M23.9786 19.2206C27.2002 18.7673 30.1834 20.9986 30.6543 24.2138C31.1249 27.4289 28.9062 30.4201 25.6895 30.9071C22.4489 31.3976 19.4266 29.1618 18.9522 25.9227C18.4778 22.6836 20.7328 19.6774 23.9786 19.2206ZM28.0938 24.7245C27.8623 22.9414 26.2334 21.679 24.4463 21.8973C22.6415 22.1181 21.3614 23.7644 21.5948 25.5653C21.8284 27.3665 23.4863 28.6335 25.2881 28.3876C27.072 28.144 28.3251 26.5077 28.0938 24.7245Z" fill="#4E9C5A"/>
<path fill-rule="evenodd" clip-rule="evenodd" d="M54.9666 0.0975625C56.4206 0.0938524 60.0512 -0.0555009 61.2567 0.176664C62.1604 0.358011 62.9938 0.791652 63.661 1.42666C64.9625 2.6885 65.1258 4.09403 65.1473 5.79287C65.1807 8.43442 65.1141 11.0585 65.1219 13.7001C65.1634 21.4201 65.1653 29.1403 65.1287 36.8603L65.1014 47.3915C65.1074 50.3625 65.6998 54.2714 63.4549 56.4989C62.937 57.0128 61.7113 57.587 60.9842 57.6317C55.6576 57.9599 50.2586 57.675 44.911 57.7636C44.9279 60.75 45.1802 64.0523 45.4256 67.0185C46.6192 67.04 52.4449 66.7969 53.0457 67.3183C53.3353 67.5695 53.4965 67.9259 53.5184 68.3056C53.541 68.7001 53.4368 69.0995 53.1551 69.3876C52.8325 69.7176 52.3488 69.7407 51.9139 69.7763C50.7037 69.8752 49.4646 69.818 48.2498 69.8124L41.5018 69.7577L23.37 69.7685C22.0725 69.7729 15.4865 70.0734 14.7723 69.5819C14.4479 69.3587 14.2062 68.8787 14.1649 68.495C14.1292 68.1627 14.2299 67.8643 14.4618 67.623C14.7683 67.3041 15.2226 67.1422 15.6502 67.0712C17.2383 66.8077 20.7657 67.0309 22.5496 67.0468C22.8183 63.9588 22.9852 60.8624 23.0516 57.7636L10.702 57.7567C6.04032 57.7544 0.139269 58.7742 0.0779622 52.2802L0.0799154 19.998L0.0681966 10.4589C0.0536819 7.76172 -0.453178 3.52161 1.53402 1.47061C3.19528 -0.243591 6.37143 0.0898722 8.60628 0.0829141L16.3534 0.0780313L42.242 0.0575235C46.4636 0.0220122 50.7399 0.108435 54.9666 0.0975625ZM42.0848 57.8983C37.4533 57.7471 32.7398 57.9453 28.1014 57.8739C27.3092 57.8617 26.4652 57.8645 25.6766 57.9052C25.6219 60.9678 25.5163 64.0296 25.3602 67.0888C30.8597 67.2653 36.88 67.1382 42.4246 67.1532L42.577 67.036C42.3432 64.0419 42.2816 60.9066 42.0848 57.8983ZM62.4305 49.8954C60.5906 49.6698 57.0975 49.7622 55.117 49.7655L42.4139 49.787C29.5282 49.8051 16.4931 49.676 3.62484 49.8241C3.28615 49.8542 3.05701 49.8167 2.81331 49.9921C2.59219 51.7633 2.50179 55.016 4.9432 55.039C7.96555 55.0672 10.9839 55.0494 14.0067 55.0419L31.8885 55.0038L50.6229 55.0546C52.6405 55.0569 60.0793 55.2335 61.4989 54.7675C62.8703 53.629 62.49 51.5173 62.4305 49.8954ZM60.2996 2.75577C58.7984 2.68985 57.3042 2.74993 55.8035 2.74405L43.9198 2.78409L5.01644 2.72647C3.63925 3.04796 2.8214 3.64296 2.79378 5.17666C2.76901 6.54923 2.80993 7.92401 2.82601 9.29678C2.85487 11.6904 2.85961 14.0847 2.84163 16.4784L2.79378 47.1688L41.3787 47.1474C47.6111 47.1763 53.8438 47.1686 60.076 47.1249L62.4891 47.12L62.4793 18.0585L62.4901 9.30948C62.4924 7.8296 62.5311 6.30129 62.453 4.82901C62.397 3.77833 61.3474 2.80185 60.2996 2.75577Z" fill="#4E9C5A"/>
<path fill-rule="evenodd" clip-rule="evenodd" d="M66.7628 74.2453C67.4374 74.1706 68.5251 74.4327 69.1368 74.7472C70.3344 75.3746 71.237 76.4469 71.6495 77.7335L111.815 77.7218L124.695 77.7179C127.039 77.7109 129.403 77.6923 131.746 77.7023C132.163 77.7292 132.606 77.7184 132.928 78.0246C133.31 78.3885 133.487 78.8929 133.404 79.4132C133.301 80.0745 132.54 80.5217 131.92 80.5138C130.155 80.4919 128.394 80.4924 126.631 80.4914L114.812 80.4884L87.296 80.4933C82.0663 80.4903 76.7532 80.4361 71.5333 80.5109C71.0512 81.8625 70.4022 82.5755 69.2462 83.3605C70.6869 86.765 72.2446 89.9592 73.7716 93.3058C75.6774 97.4833 77.499 101.584 79.502 105.72C83.1043 106.586 82.0492 108.226 82.2745 110.973C82.7826 117.171 78.953 116.722 74.2891 116.705L67.9717 116.677L59.8165 116.667C58.6105 116.664 56.4543 116.72 55.3536 116.526C54.6925 116.412 54.0657 116.15 53.5215 115.758C52.7763 115.219 52.2771 114.416 52.1964 113.531C52.1001 112.476 52.0209 108.866 52.1758 107.983C52.2379 107.619 52.3869 107.274 52.6104 106.98C53.1882 106.229 54.0053 105.927 54.9044 105.797L65.1739 83.424C63.6542 82.631 63.2373 82.1107 62.5938 80.5187C56.5933 80.4648 50.5925 80.4536 44.5919 80.4835L19.7676 80.4894L7.56354 80.4835C5.86593 80.4826 4.15925 80.5191 2.46393 80.4992C0.41923 80.4761 0.522872 77.7443 2.39753 77.715C4.33135 77.6861 6.28612 77.714 8.22175 77.715L20.7989 77.7287L62.546 77.6945C62.9905 75.6279 64.8419 74.6119 66.7628 74.2453ZM54.9434 108.628C54.9151 109.912 54.6316 112.773 55.3438 113.704C55.8496 113.967 56.4938 114.026 57.0577 114.052C59.2018 114.148 61.4041 114.018 63.5557 114.016C65.7092 114.014 77.3037 114.228 78.421 113.878C78.6086 113.818 78.7858 113.723 78.9561 113.626C79.5547 113.012 79.4807 112.156 79.4688 111.293C79.4496 110.404 79.4189 109.515 79.377 108.627L54.9434 108.628ZM67.0538 85.838C64.1063 92.5303 60.7948 99.154 57.9083 105.829C61.1191 105.859 64.3301 105.872 67.5411 105.868L76.5528 105.844C75.4756 103.72 67.5841 86.1463 67.0538 85.838ZM68.3292 77.3664C67.815 76.9757 67.1491 76.8444 66.5245 77.0099C65.3986 77.3072 64.7315 78.4649 65.0401 79.5861C65.3488 80.7083 66.5147 81.3623 67.6348 81.0441C68.5426 80.7857 69.1651 79.9534 69.1553 79.0099C69.1486 78.3645 68.8435 77.7574 68.3292 77.3664Z" fill="#4E9C5A"/>
</svg>
