<svg width="17" height="33" viewBox="0 0 17 33" fill="none" xmlns="http://www.w3.org/2000/svg">
<path d="M0.433702 2.56174L13.114 15.4455C13.3921 15.7266 13.548 16.1061 13.548 16.5015C13.548 16.8969 13.3921 17.2764 13.114 17.5575L0.436454 30.4412C0.158495 30.7241 0.00274563 31.1048 0.00274563 31.5014C0.00274563 31.8979 0.158495 32.2786 0.436454 32.5615C0.57224 32.7008 0.734534 32.8115 0.91377 32.887C1.09301 32.9626 1.28556 33.0016 1.48008 33.0016C1.6746 33.0016 1.86715 32.9626 2.04639 32.887C2.22562 32.8115 2.38792 32.7008 2.5237 32.5615L15.2012 19.6805C16.0342 18.8321 16.501 17.6905 16.501 16.5015C16.501 15.3125 16.0342 14.1709 15.2012 13.3225L2.5237 0.441488C2.38787 0.301783 2.22541 0.190731 2.04592 0.114901C1.86643 0.0390703 1.67355 0 1.4787 0C1.28385 0 1.09098 0.0390703 0.911488 0.114901C0.731998 0.190731 0.569532 0.301783 0.433702 0.441488C0.155744 0.72434 -5.48354e-06 1.10504 -5.48354e-06 1.50161C-5.48354e-06 1.89818 0.155744 2.27889 0.433702 2.56174Z" fill="#4E9C5A"/>
</svg>
