<svg width="17" height="33" viewBox="0 0 17 33" fill="none" xmlns="http://www.w3.org/2000/svg">
<path d="M16.0673 2.56174L3.38702 15.4455C3.10892 15.7266 2.95294 16.1061 2.95294 16.5015C2.95294 16.8969 3.10892 17.2764 3.38702 17.5575L16.0645 30.4412C16.3425 30.7241 16.4982 31.1048 16.4982 31.5014C16.4982 31.8979 16.3425 32.2786 16.0645 32.5615C15.9287 32.7008 15.7664 32.8115 15.5872 32.887C15.408 32.9626 15.2154 33.0016 15.0209 33.0016C14.8264 33.0016 14.6338 32.9626 14.4546 32.887C14.2754 32.8115 14.1131 32.7008 13.9773 32.5615L1.29977 19.6805C0.466728 18.8321 0 17.6905 0 16.5015C0 15.3125 0.466728 14.1709 1.29977 13.3225L13.9773 0.441488C14.1131 0.301783 14.2756 0.190731 14.4551 0.114901C14.6345 0.0390703 14.8274 0 15.0223 0C15.2171 0 15.41 0.0390703 15.5895 0.114901C15.769 0.190731 15.9314 0.301783 16.0673 0.441488C16.3452 0.72434 16.501 1.10504 16.501 1.50161C16.501 1.89818 16.3452 2.27889 16.0673 2.56174Z" fill="#4E9C5A"/>
</svg>
