<svg width="269" height="110" viewBox="0 0 269 110" fill="none" xmlns="http://www.w3.org/2000/svg">
<path d="M115 88.9639C125 97.4639 141.5 102.464 154.5 87.4639" stroke="#333333"/>
<path fill-rule="evenodd" clip-rule="evenodd" d="M132.365 32.1454C134.497 31.9924 138.544 32.5585 140.661 33.1757C144.871 34.4897 149.053 37.1231 151.258 41.0858C152.679 43.6398 152.974 46.797 152.267 49.6191C151.328 53.3645 148.557 56.2479 145.401 58.2587C144.711 58.6982 143.971 58.9772 143.268 59.3808C143.33 59.8087 143.468 60.6693 143.64 61.0497C144.004 61.868 144.833 62.6891 145.004 63.5692C145.196 64.5569 143.735 64.1446 143.251 64.0868C141.106 63.8302 139.538 62.4171 137.945 61.0849C136.609 61.2718 135.263 61.3732 133.915 61.3886C132.755 61.4043 129.868 61.3785 128.792 61.0487C128.295 61.3853 127.77 61.9055 127.291 62.2987C126.04 63.3204 124.538 63.9812 122.946 64.2099C122.537 64.2704 122.012 64.3681 121.671 64.1103C121.178 63.3761 122.518 62.2035 122.797 61.5575C123.11 60.8324 123.234 60.1885 123.337 59.4179C122.691 59.0592 121.953 58.7847 121.339 58.4189C117.457 56.1026 114.157 52.3591 113.822 47.6513C113.601 44.4802 114.65 41.3527 116.733 38.9706C120.454 34.6375 125.874 32.5668 131.43 32.2128C131.741 32.193 132.054 32.1673 132.365 32.1454ZM134.068 33.4521C133.559 33.4342 132.684 33.4255 132.185 33.4648C127.058 33.7709 121.423 35.7393 117.94 39.5702C112.07 46.0274 115.838 54.3445 122.908 57.6503C123.323 57.8444 124 58.1614 124.371 58.4618C125.062 59.3211 124.067 61.8335 123.761 62.5985C125.357 62.0365 127.244 61.1216 128.109 59.5702C130.436 59.8179 132.277 60.0468 134.63 59.9316C135.331 59.8967 136.031 59.8331 136.727 59.7411C139.019 59.4381 138.007 59.2299 139.614 60.8066C140.275 61.4556 142.121 62.3033 142.988 62.7177C142.209 61.1471 142.092 60.3823 142.027 58.6444L142.08 58.5937C142.642 58.0718 144.054 57.544 144.764 57.0448C145.52 56.5135 146.368 56.001 147.071 55.3778C149.435 53.282 151.274 50.2963 151.465 47.0663C151.622 44.4243 150.222 41.4633 148.519 39.5204C148.155 39.1053 147.469 38.525 147.045 38.1689C143.491 35.1834 138.647 33.6125 134.068 33.4521Z" fill="#333333"/>
<path d="M133.224 40.3694C133.57 40.3768 133.915 40.4224 134.251 40.5056C134.708 40.6189 135.032 40.7793 135.447 40.9479C138.664 42.256 139.638 46.7608 137.793 49.5839C137.057 50.7105 136.378 51.3082 136.013 52.7104C135.67 52.7375 135.271 52.7044 134.923 52.686C135.146 52.0421 135.328 51.3559 135.658 50.7484C136.191 49.7954 136.871 49.0755 137.291 48.0494C138.589 44.8829 135.739 40.7941 132.247 41.7394C130.736 42.1487 130.025 43.0585 129.242 44.3763C129.09 44.6674 129.004 45.0664 128.959 45.3722C128.592 47.8963 129.737 48.8537 130.968 50.7405C131.189 51.079 131.325 51.8897 131.618 52.3013C131.832 52.4165 131.738 52.3972 131.971 52.3866C132.654 51.8223 131.068 48.9267 131.367 48.1803C131.44 47.9981 131.906 47.8676 132.097 47.8031C132.629 49.0974 132.973 51.2407 133.045 52.6432C132.54 52.6424 130.958 52.7982 130.569 52.6428C130.393 52.5727 130.074 51.4219 129.932 51.181C129.729 50.8724 129.475 50.4879 129.239 50.2107C127.359 48.0064 127.259 44.6405 129.122 42.3801C130.028 41.2819 131.784 40.5091 133.224 40.3694Z" fill="#333333"/>
<path d="M130.667 54.6753C131.487 54.6604 135.141 54.5872 135.722 54.7691C136.013 55.0137 135.972 55.3317 135.783 55.6387L135.722 55.6532C135.325 55.7507 134.639 55.7238 134.21 55.7194C133.192 55.6997 132.168 55.7867 131.153 55.7527C130.542 55.7323 130.61 55.1027 130.667 54.6753Z" fill="#333333"/>
<path d="M131.415 53.0521C132.784 53.1011 134.41 52.9317 135.768 53.1448C136.046 53.1885 136.005 53.7514 135.89 53.9732C135.692 54.1021 135.524 54.0814 135.284 54.0898C134.598 54.084 131.185 54.1855 130.732 54.0534C130.497 53.8093 130.481 53.4621 130.675 53.1864C130.88 53.0393 131.149 53.0643 131.415 53.0521Z" fill="#333333"/>
<path d="M134.811 47.772C135.033 47.8563 135.387 48.106 135.387 48.2852C135.385 48.7625 134.619 52.4655 134.529 52.6228L134.351 52.63L133.611 52.5754C133.76 51.5607 134.249 48.4443 134.811 47.772Z" fill="#333333"/>
<path d="M131.944 56.0398C132.72 56.202 133.337 56.1967 134.117 56.0949C134.48 56.0475 135.007 55.9853 135.15 56.3951C135.099 56.7503 134.836 56.9708 134.587 57.2067C134.152 57.5185 133.935 57.6262 133.387 57.6594C132.697 57.7012 131.572 57.1411 131.586 56.3542C131.71 56.1176 131.678 56.1852 131.944 56.0398Z" fill="#333333"/>
<path d="M124.837 42.5854C125.509 42.7774 128.178 43.4963 126.826 44.5162C125.871 44.2781 123.516 43.9823 124.837 42.5854Z" fill="#333333"/>
<path d="M141.501 42.7241C142.251 42.9355 142.285 43.7077 141.556 44.0219C141.008 44.2579 140.477 44.3789 139.904 44.5301C139.523 44.4578 139.169 44.1629 139.369 43.816C139.646 43.3348 141.038 42.9079 141.501 42.7241Z" fill="#333333"/>
<path d="M128.065 38.4351C128.757 38.4482 129.81 39.9475 129.794 40.5853C129.716 40.8141 129.636 40.847 129.445 40.9942C128.671 40.9845 127.914 39.6116 127.649 38.9699C127.775 38.7862 127.925 38.6089 128.065 38.4351Z" fill="#333333"/>
<path d="M138.327 38.5066C138.749 38.5222 138.875 38.7063 139.174 39.0008C138.941 39.4053 138.042 40.6686 137.731 41.0034C137.468 41.0586 137.383 41.0572 137.136 40.9628C136.566 40.3395 137.871 38.9419 138.327 38.5066Z" fill="#333333"/>
<path d="M133.03 36.5017C134.265 36.5284 133.875 37.8015 133.922 38.6781C133.938 38.9758 133.893 39.1932 133.687 39.4162C133.484 39.4801 133.453 39.5013 133.246 39.4854C132.634 39.1628 132.764 37.0269 133.03 36.5017Z" fill="#333333"/>
<path d="M161.665 54.0582C171.476 53.8368 175.616 64.1243 171.295 72.0938C170.182 74.1463 168.434 75.6509 168.66 78.2219C168.693 78.5838 168.731 79.0787 168.824 79.4286C169.541 82.1324 171.086 84.5977 172.287 87.1014C172.418 87.3745 172.502 88.0299 172.365 88.3149C171.207 88.6959 168.319 82.0426 167.943 81.1016C167.041 78.8432 167.165 75.5862 168.741 73.5986C176.027 64.4072 169.278 52.2357 157.507 56.2425C155.603 56.8907 153.272 58.6461 152.447 60.5237C151.631 62.2561 151.366 63.5276 151.194 65.48C151.134 66.1648 151.267 67.3771 151.039 67.9847C150.375 69.7618 149.064 70.3556 148.211 72.1784C148.934 72.8832 149.554 72.8682 150.512 73.1779C150.544 73.9816 150.44 74.9082 150.522 75.6624C150.652 76.2095 150.894 76.6425 150.954 77.2121C151.105 78.6366 150.329 79.6837 151.711 80.5786C153.095 80.6559 155.082 80.1712 156.557 79.936C158.584 79.6128 159.07 80.2522 158.41 82.2718C158.3 82.607 158.046 83.0484 157.864 83.3673C156.645 85.4974 155.208 87.4931 153.696 89.4179C153.438 89.7469 152.583 90.5128 152.191 90.111C152.028 89.1844 153.854 87.1547 154.374 86.3179C155.154 85.0636 156.21 83.9091 156.827 82.5348C157.007 82.1343 157.231 81.7049 157.424 81.305C155.526 81.4475 153.268 82.0452 151.43 81.8424C149.292 81.6057 149.902 78.9271 149.739 77.6968C149.531 76.1252 149.011 76.0184 149.34 74.2544C148.364 73.8951 147.066 73.5637 147.034 72.2913C146.99 70.4603 149.16 69.4413 149.73 67.7733C150.014 66.9407 149.877 66.1291 149.936 65.2672C150.073 62.4968 151 59.7447 152.874 57.6807C155.026 55.3106 158.573 54.2189 161.665 54.0582Z" fill="#333333"/>
<path d="M104.956 54.1156C107.154 53.8827 109.131 54.3975 111.172 55.1472C113.913 56.1543 115.949 58.0267 117.061 60.7686C117.626 62.1591 117.853 63.2384 117.89 64.7494C117.958 65.5238 117.76 66.8336 118.042 67.5299C118.952 69.7732 121.265 70.1371 120.798 72.8813C120.2 73.6128 119.569 74.0227 118.655 74.2302C119.162 76.1632 118.578 75.9516 118.198 77.715C118.107 78.3749 118.2 79.0368 118.15 79.7039C117.955 82.3281 115.769 81.9144 113.918 81.7173C112.803 81.5879 111.686 81.4756 110.567 81.3801C111.486 83.4757 112.843 85.1155 114.143 86.9737C114.454 87.4195 116.35 89.6519 115.732 90.112C115.459 90.134 115.168 90.0273 114.9 89.9513C113.481 88.1747 110.042 83.9446 109.473 82.0023C109.314 81.4586 109.247 80.6977 109.551 80.1892C109.675 79.9827 109.883 79.916 110.109 79.892C110.618 79.8381 111.158 79.9634 111.661 80.0416C112.808 80.22 115.23 80.7216 116.257 80.4906C117.453 80.2206 116.845 78.075 116.999 77.1789C117.105 76.5555 117.398 76.0498 117.729 75.5259C117.641 75.0716 117.382 73.8927 117.486 73.5033C117.685 72.7594 119.184 73.035 119.644 72.2665C119.819 71.4756 118.255 70.0797 117.696 69.4071C116.31 67.7422 116.9 66.661 116.726 64.6825C116.616 63.4335 116.359 62.5728 115.896 61.4198C115.105 59.3607 114.079 58.2776 112.241 57.0991C109.815 55.5685 105.704 55.0747 102.973 55.8767C96.3305 57.8274 94.375 66.287 98.002 71.7902C99.5585 74.1519 100.734 75.3969 100.579 78.4009C100.455 80.7963 99.6178 82.5177 98.5027 84.5881C98.1667 85.204 96.4168 88.9174 95.6069 88.3662C95.1926 87.6247 96.4387 85.6522 96.8194 84.9453C97.8841 82.9684 99.0397 81.0543 99.3555 78.7976C99.7646 75.8746 97.866 74.2042 96.5192 71.8879C94.2168 67.7068 94.4984 61.588 97.59 57.8763C99.4822 55.6046 102.086 54.4173 104.956 54.1156Z" fill="#333333"/>
<path d="M170.5 84.9641C177.5 101.964 229.142 106.872 268 108.144" stroke="#333333" stroke-width="1.3"/>
<path d="M96 87.4639C65.5 88.9639 66.882 27.8481 42 3.46377C41.2962 2.77409 39.6301 1.08228 39 0.463867" stroke="#333333" stroke-width="1.3"/>
</svg>
