<svg width="427" height="162" viewBox="0 0 427 162" fill="none" xmlns="http://www.w3.org/2000/svg">
<path d="M209.98 42.042C213.517 41.788 220.233 42.7271 223.745 43.751C230.728 45.9307 237.664 50.2988 241.322 56.8721C243.68 61.1086 244.169 66.3461 242.995 71.0274C241.437 77.2404 236.841 82.0229 231.605 85.3584C230.461 86.0875 229.235 86.5493 228.068 87.2188C228.172 87.9283 228.4 89.356 228.685 89.9873C229.289 91.345 230.665 92.7076 230.948 94.168C231.266 95.8063 228.842 95.1223 228.04 95.0264C224.481 94.6006 221.88 92.2558 219.237 90.0459C217.022 90.356 214.791 90.5253 212.555 90.5508C210.63 90.5768 205.84 90.5334 204.056 89.9863C203.231 90.5448 202.359 91.4081 201.565 92.0606C199.49 93.7553 196.998 94.8511 194.356 95.2305C193.678 95.3309 192.809 95.4922 192.243 95.0645C191.425 93.8463 193.649 91.9015 194.111 90.8301C194.63 89.6273 194.835 88.5604 195.006 87.2822C193.933 86.6872 192.709 86.2311 191.691 85.624C185.251 81.7818 179.777 75.5719 179.222 67.7627C178.856 62.5026 180.596 57.3147 184.051 53.3633C190.224 46.1754 199.216 42.7414 208.432 42.1543C208.947 42.1214 209.465 42.0783 209.98 42.042ZM212.806 44.209C211.961 44.1794 210.511 44.1645 209.683 44.2295C201.179 44.7373 191.83 48.0026 186.053 54.3574C176.315 65.0688 182.567 78.8661 194.294 84.3496C194.982 84.6715 196.106 85.1979 196.722 85.6963C197.867 87.1219 196.218 91.2872 195.71 92.5566C198.358 91.6243 201.486 90.1075 202.921 87.5342C206.782 87.945 209.835 88.3249 213.738 88.1338C214.901 88.076 216.062 87.971 217.217 87.8184C221.019 87.3156 219.34 86.9693 222.006 89.585C223.103 90.6615 226.163 92.0684 227.602 92.7559C226.311 90.1505 226.118 88.8808 226.009 85.9981L226.098 85.9141C227.03 85.0484 229.372 84.1728 230.55 83.3447C231.803 82.4634 233.209 81.6129 234.375 80.5791C238.298 77.1025 241.347 72.15 241.665 66.792C241.925 62.4093 239.603 57.4973 236.777 54.2744C236.174 53.5858 235.036 52.6239 234.333 52.0332C228.438 47.0809 220.402 44.4752 212.806 44.209Z" fill="#333333"/>
<path d="M211.405 55.6836C211.98 55.6959 212.552 55.7716 213.11 55.9095C213.867 56.0975 214.405 56.3636 215.093 56.6432C220.431 58.8132 222.046 66.2858 218.985 70.9688C217.764 72.8376 216.639 73.829 216.032 76.155C215.464 76.1999 214.801 76.1451 214.224 76.1146C214.595 75.0463 214.896 73.9081 215.444 72.9004C216.328 71.3195 217.455 70.1254 218.153 68.4232C220.305 63.1707 215.578 56.3882 209.786 57.9562C207.278 58.6351 206.1 60.1443 204.8 62.3303C204.548 62.8132 204.405 63.475 204.331 63.9824C203.722 68.1694 205.622 69.7575 207.664 72.8873C208.03 73.4488 208.256 74.7937 208.741 75.4763C209.096 75.6674 208.942 75.6354 209.327 75.6178C210.46 74.6817 207.829 69.8786 208.325 68.6404C208.447 68.3382 209.219 68.1217 209.537 68.0147C210.419 70.1617 210.99 73.717 211.109 76.0436C210.272 76.0422 207.648 76.3006 207.002 76.0429C206.711 75.9266 206.18 74.0177 205.945 73.618C205.608 73.106 205.187 72.4683 204.795 72.0085C201.677 68.352 201.51 62.7686 204.602 59.0189C206.104 57.1972 209.017 55.9153 211.405 55.6836Z" fill="#333333"/>
<path d="M207.166 79.414C208.526 79.3895 214.586 79.2679 215.55 79.5697C216.033 79.9754 215.966 80.503 215.652 81.0122L215.551 81.0362C214.892 81.1979 213.753 81.1534 213.043 81.1461C211.354 81.1134 209.656 81.2577 207.971 81.2014C206.957 81.1674 207.071 80.123 207.166 79.414Z" fill="#333333"/>
<path d="M208.406 76.7212C210.677 76.8024 213.374 76.5215 215.626 76.8749C216.088 76.9474 216.019 77.8812 215.829 78.249C215.501 78.4628 215.222 78.4285 214.824 78.4425C213.686 78.4328 208.023 78.6013 207.273 78.3821C206.882 77.9771 206.857 77.4013 207.178 76.9438C207.518 76.6998 207.965 76.7413 208.406 76.7212Z" fill="#333333"/>
<path d="M214.038 67.9629C214.407 68.1029 214.995 68.5169 214.994 68.8142C214.992 69.606 213.721 75.7486 213.571 76.0095L213.276 76.0214L212.049 75.9309C212.295 74.2476 213.106 69.0782 214.038 67.9629Z" fill="#333333"/>
<path d="M209.284 81.6777C210.571 81.9468 211.594 81.938 212.888 81.7692C213.49 81.6904 214.364 81.5873 214.602 82.2672C214.516 82.8563 214.081 83.2221 213.668 83.6135C212.946 84.1306 212.587 84.3093 211.677 84.3644C210.532 84.4336 208.667 83.5046 208.689 82.1993C208.896 81.8069 208.843 81.9189 209.284 81.6777Z" fill="#333333"/>
<path d="M197.493 59.3594C198.609 59.6777 203.036 60.8703 200.793 62.5621C199.21 62.1672 195.302 61.6765 197.493 59.3594Z" fill="#333333"/>
<path d="M225.137 59.5898C226.381 59.9405 226.437 61.2215 225.228 61.7426C224.319 62.134 223.437 62.3348 222.488 62.5856C221.855 62.4657 221.269 61.9765 221.6 61.401C222.06 60.6029 224.368 59.8948 225.137 59.5898Z" fill="#333333"/>
<path d="M202.849 52.4746C203.996 52.4964 205.744 54.9834 205.716 56.0414C205.588 56.421 205.456 56.4756 205.138 56.7198C203.853 56.7037 202.599 54.4263 202.159 53.3618C202.368 53.0571 202.616 52.763 202.849 52.4746Z" fill="#333333"/>
<path d="M219.872 52.5938C220.571 52.6197 220.781 52.925 221.276 53.4135C220.89 54.0846 219.398 56.1801 218.883 56.7355C218.446 56.827 218.306 56.8248 217.896 56.6681C216.95 55.6343 219.114 53.3158 219.872 52.5938Z" fill="#333333"/>
<path d="M211.085 49.2676C213.133 49.3118 212.486 51.4237 212.565 52.8777C212.591 53.3716 212.517 53.7322 212.175 54.1021C211.838 54.2082 211.786 54.2433 211.444 54.217C210.427 53.6818 210.643 50.1388 211.085 49.2676Z" fill="#333333"/>
<path d="M258.585 78.3906C274.86 78.0233 281.727 95.0883 274.56 108.308C272.714 111.713 269.813 114.209 270.189 118.474C270.243 119.074 270.306 119.895 270.46 120.475C271.65 124.96 274.213 129.05 276.206 133.203C276.423 133.656 276.562 134.743 276.334 135.216C274.413 135.848 269.623 124.811 268.999 123.25C267.503 119.504 267.708 114.101 270.322 110.804C282.408 95.5577 271.213 75.3675 251.688 82.0139C248.529 83.0891 244.663 86.0011 243.294 89.1157C241.941 91.9893 241.501 94.0986 241.216 97.3372C241.116 98.4731 241.336 100.484 240.959 101.492C239.857 104.44 237.682 105.425 236.268 108.449C237.466 109.618 238.495 109.593 240.084 110.107C240.138 111.44 239.965 112.977 240.1 114.228C240.317 115.135 240.718 115.854 240.818 116.799C241.068 119.161 239.78 120.898 242.074 122.383C244.369 122.511 247.665 121.707 250.111 121.317C253.474 120.781 254.28 121.841 253.185 125.192C253.002 125.748 252.582 126.48 252.28 127.009C250.259 130.542 247.874 133.853 245.366 137.046C244.938 137.591 243.52 138.862 242.87 138.195C242.599 136.658 245.628 133.291 246.49 131.903C247.785 129.823 249.536 127.908 250.559 125.628C250.858 124.964 251.23 124.251 251.55 123.588C248.402 123.824 244.656 124.816 241.607 124.479C238.061 124.087 239.072 119.643 238.802 117.603C238.458 114.996 237.595 114.818 238.141 111.892C236.521 111.296 234.367 110.746 234.316 108.636C234.241 105.599 237.842 103.908 238.787 101.141C239.258 99.7602 239.032 98.4139 239.128 96.9842C239.355 92.3887 240.894 87.8234 244.003 84.3996C247.572 80.4682 253.456 78.6572 258.585 78.3906Z" fill="#333333"/>
<path d="M164.515 78.4863C168.161 78.1001 171.44 78.954 174.826 80.1976C179.372 81.8681 182.75 84.9741 184.596 89.5224C185.532 91.829 185.909 93.6193 185.971 96.1258C186.083 97.4103 185.754 99.5831 186.223 100.738C187.732 104.459 191.568 105.063 190.794 109.615C189.802 110.829 188.756 111.508 187.239 111.853C188.081 115.059 187.111 114.708 186.481 117.633C186.331 118.728 186.484 119.826 186.402 120.933C186.078 125.286 182.451 124.599 179.382 124.272C177.532 124.058 175.678 123.871 173.823 123.713C175.348 127.189 177.599 129.909 179.754 132.992C180.271 133.731 183.415 137.434 182.39 138.198C181.937 138.234 181.456 138.057 181.01 137.931C178.657 134.984 172.951 127.967 172.008 124.745C171.744 123.843 171.632 122.581 172.138 121.738C172.343 121.395 172.688 121.284 173.063 121.245C173.907 121.155 174.803 121.363 175.638 121.493C177.54 121.789 181.557 122.621 183.261 122.237C185.246 121.79 184.237 118.23 184.491 116.744C184.669 115.71 185.154 114.871 185.704 114.002C185.558 113.248 185.127 111.293 185.3 110.647C185.63 109.413 188.117 109.87 188.879 108.595C189.17 107.283 186.576 104.968 185.648 103.852C183.349 101.09 184.329 99.2968 184.039 96.0147C183.857 93.9429 183.431 92.5153 182.663 90.6027C181.351 87.1869 179.648 85.3902 176.6 83.4355C172.576 80.8964 165.756 80.0772 161.225 81.4077C150.207 84.6435 146.963 98.6763 152.98 107.805C155.562 111.723 157.512 113.788 157.254 118.771C157.048 122.745 155.66 125.6 153.81 129.034C153.253 130.056 150.35 136.216 149.007 135.302C148.319 134.072 150.387 130.8 151.018 129.627C152.784 126.348 154.701 123.173 155.225 119.429C155.904 114.58 152.754 111.81 150.52 107.967C146.701 101.032 147.168 90.8817 152.296 84.7246C155.435 80.9563 159.754 78.9868 164.515 78.4863Z" fill="#333333"/>
<path d="M180 135C192 150 232 150.5 244.5 136" stroke="#333333" stroke-width="1.9" stroke-linecap="round"/>
<path d="M152.405 130.926C152.64 130.426 152.426 129.83 151.926 129.595C151.426 129.36 150.83 129.574 150.595 130.074L151.5 130.5L152.405 130.926ZM62.5 135L62.2671 135.972C76.523 139.386 96.8497 142.524 114.642 142.675C123.533 142.75 131.848 142.08 138.472 140.297C145.057 138.524 150.213 135.584 152.405 130.926L151.5 130.5L150.595 130.074C148.787 133.916 144.368 136.638 137.953 138.366C131.577 140.082 123.467 140.75 114.658 140.675C97.0503 140.526 76.877 137.414 62.7329 134.027L62.5 135ZM0 132.5V133.5C8.21386 133.5 34.0179 129.208 62.2671 135.972L62.5 135L62.7329 134.027C34.1821 127.191 7.78614 131.5 0 131.5V132.5Z" fill="#333333"/>
<path d="M273.5 131C292.49 164.922 423 96 426 96" stroke="#333333" stroke-width="1.9" stroke-linecap="round"/>
</svg>
