<svg width="15" height="21" viewBox="0 0 15 21" fill="none" xmlns="http://www.w3.org/2000/svg">
<path d="M11.1162 9.74281C13.3562 10.8255 14.4762 12.4868 14.4762 14.7268C14.4762 16.5561 13.8229 18.0308 12.5162 19.1508C11.1909 20.2708 9.46422 20.8308 7.33622 20.8308C5.00289 20.8308 3.19222 20.2335 1.90422 19.0388C0.634886 17.8441 0.000218838 16.2015 0.000218838 14.1108H2.91222C2.98689 16.8548 4.45222 18.2268 7.30822 18.2268C8.55889 18.2268 9.54822 17.9095 10.2762 17.2748C11.0042 16.6215 11.3682 15.7535 11.3682 14.6708C11.3682 13.5321 10.9949 12.6455 10.2482 12.0108C9.50155 11.3575 8.46555 11.0308 7.14022 11.0308H5.65622V8.70681H7.05622C8.30689 8.70681 9.25889 8.44548 9.91222 7.92281C10.5842 7.38148 10.9202 6.60681 10.9202 5.59881C10.9202 4.64681 10.5842 3.90014 9.91222 3.35881C9.25889 2.81748 8.35355 2.54681 7.19622 2.54681C4.71355 2.54681 3.41622 3.72281 3.30422 6.07481H0.364219C0.401552 4.17081 1.01755 2.68681 2.21222 1.62281C3.42555 0.540145 5.09622 -0.00118876 7.22422 -0.00118876C9.24022 -0.00118876 10.8456 0.484144 12.0402 1.45481C13.2536 2.42548 13.8602 3.75081 13.8602 5.43081C13.8602 7.35348 12.9456 8.79081 11.1162 9.74281Z" fill="#5E5E5E"/>
</svg>
