<svg width="125" height="72" viewBox="0 0 125 72" fill="none" xmlns="http://www.w3.org/2000/svg">
<path d="M99.9864 19.0226C100.127 19.0142 100.267 19.0093 100.408 19.0079C101.154 19.0031 102.513 19.3663 102.515 20.2801C102.124 20.9275 100.205 20.4902 99.5349 20.4914C97.0689 20.4956 94.6012 20.4653 92.1352 20.4653C91.5075 20.4652 90.7282 20.42 90.1208 20.5134C89.7619 20.5679 89.4274 20.7282 89.1595 20.9737C88.7155 21.3829 88.6616 21.9405 88.6355 22.5123C88.5563 24.246 88.7231 26.0033 88.7332 27.7388C88.7433 29.428 88.5933 31.1993 88.734 32.8798C88.7542 33.1254 88.7922 33.5503 88.9741 33.7296C89.2715 34.0219 89.9674 34.1139 90.3626 34.1525C91.8209 34.2946 93.3678 34.193 94.8371 34.1912C96.6712 34.1891 98.5542 34.2695 100.383 34.1451C100.721 34.1221 101.313 34.1001 101.602 33.914C102.613 33.2596 101.109 25.8158 102.373 24.4722C102.63 24.1987 102.903 24.1076 103.265 24.1038L103.346 24.1035C103.394 24.3031 103.427 24.5061 103.445 24.7106C103.482 25.1591 103.482 25.6915 103.471 26.1439C103.415 28.3903 103.483 30.6763 103.356 32.9152C103.269 34.4663 101.854 35.6615 100.328 35.6986C97.3604 35.7705 94.3526 35.7288 91.382 35.7259C90.1764 35.7239 89.2522 35.8502 88.2951 34.9693C87.5655 34.2979 87.3279 33.6178 87.29 32.6201C87.2757 30.5865 87.3397 28.5809 87.3245 26.5491C87.3515 24.8946 87.1872 23.2095 87.3582 21.5657C87.386 20.7062 88.6961 19.3691 89.5445 19.2706C92.8227 18.8897 96.7057 19.1331 99.9864 19.0226Z" fill="#1C1B1B"/>
<path d="M104.378 19.7384C105.567 19.7258 105.295 20.7492 104.732 21.3682C101.864 24.5269 98.607 27.2694 95.7113 30.407C94.932 31.2511 94.4501 31.1756 93.6758 30.3692C92.8308 29.4886 91.9883 28.6012 91.1416 27.7217C90.5695 27.1438 90.0783 26.7756 90.3816 25.9198C91.2671 25.0272 94.0204 28.376 94.7685 29.0892C96.2859 27.6149 97.7771 26.1137 99.2414 24.5862C100.321 23.4792 103.147 20.35 104.378 19.7384Z" fill="#1C1B1B"/>
<path fill-rule="evenodd" clip-rule="evenodd" d="M75.8515 11.061C78.6581 11.0039 81.6743 11.0669 84.5 11.0679L101.714 11.0649L110.614 11.061C112.211 11.0589 113.842 11.014 115.424 11.1186C116.835 11.2121 117.978 12.2624 118.122 13.6714C118.243 14.8556 118.212 15.9695 118.21 17.1538L118.195 22.5737C118.179 28.8985 118.13 35.5331 118.23 41.8423C119.817 43.3499 122.252 44.6075 123.798 46.0659C125.185 47.3744 124.348 50.3283 123.119 51.4927C122.453 52.1234 121.75 53.4842 120.714 53.7134C119.057 54.0793 117.107 53.9365 115.414 53.9311L82.0156 53.9282C78.5599 53.9184 75.0951 53.9389 71.6465 53.937C70.1209 53.9362 69.4635 53.7872 68.4619 52.7007C66.0523 50.0864 66.2691 49.8826 66.3183 46.6284C66.9803 45.7584 71.3531 42.7259 72.457 41.9272C72.3235 40.2764 72.3878 37.7373 72.3838 36.019L72.3926 25.2993C72.413 23.0096 72.4149 20.7198 72.3984 18.4302C72.3908 16.9755 72.3637 15.5377 72.4297 14.0835C72.5075 12.3678 73.6533 11.3818 75.2851 11.0815C75.4738 11.0723 75.6626 11.0655 75.8515 11.061ZM78.6719 47.7183C75.8233 47.7173 72.3266 47.629 69.5293 47.7563L67.8027 47.8071C67.8716 49.475 68.573 50.4372 69.709 51.6089C70.714 52.6457 72.2736 52.3405 73.6094 52.3345L78.1201 52.3306L93.0762 52.3266L109.877 52.3257C112.933 52.3314 116.025 52.3598 119.08 52.2925C119.81 52.2764 120.013 52.233 120.596 51.7934C121.882 50.552 122.666 49.6461 122.835 47.8296C118.959 47.6806 115.134 47.7193 111.259 47.7202H94.7236L78.6719 47.7183ZM117.068 43.2427C114.805 43.1379 112.112 43.2248 109.815 43.229L96.6767 43.2075C90.7946 43.2938 84.851 43.1494 78.9619 43.23C77.805 43.2458 74.6066 43.163 73.6914 43.312C73.1179 43.4054 70.2146 45.6558 69.3965 46.1909L94.0664 46.1919L110.324 46.1958C113.928 46.2266 117.533 46.2011 121.137 46.1196C119.748 45.1898 118.465 44.1318 117.068 43.2427ZM86.1074 12.5815C82.7081 12.5848 79.1673 12.5418 75.7764 12.6138C74.8591 12.7555 74.0135 13.3011 73.9795 14.3218C73.9337 15.6928 73.9564 17.0761 73.9472 18.4497C73.9247 21.7884 73.9254 25.1276 73.9492 28.4663L73.914 36.9692C73.9081 38.2641 73.8415 40.4162 73.9492 41.6567C87.4912 41.6359 101.262 41.803 114.776 41.6352C115.405 41.6221 116.063 41.6192 116.688 41.5796L116.695 23.4907L116.686 17.5181C116.68 16.3655 116.705 14.9805 116.604 13.8579C116.03 12.9745 115.691 12.6252 114.587 12.5962C113.635 12.5711 112.68 12.5837 111.729 12.5854L104.964 12.5932L86.1074 12.5815Z" fill="#1C1B1B"/>
<path fill-rule="evenodd" clip-rule="evenodd" d="M29.1378 34.0986C30.5408 34.037 33.9004 33.9157 35.2638 34.1865C35.9655 34.326 36.2647 36.9606 36.6144 37.9395C37.4402 38.2911 38.0059 38.4977 38.8625 38.7676C39.6218 38.3853 41.7797 36.7485 42.4377 36.9785C43.3752 37.3065 47.2864 41.1773 47.6701 41.8564C47.2237 43.063 46.4517 43.9798 45.7462 45.0605C46.0089 45.9374 46.241 46.6827 46.6867 47.4863C48.6073 48.2121 50.949 47.4952 50.7873 50.2129C50.6809 51.999 51.0841 54.2537 50.5861 55.9687C50.4197 56.5407 47.4924 57.0378 46.8517 57.2324C46.4486 57.7884 46.0494 58.8065 45.7726 59.4561C46.159 60.263 47.7527 62.2458 47.6886 62.9102C47.6025 63.7914 43.2112 67.7763 42.4084 68.1074C41.8049 68.3558 39.5909 66.7246 38.9679 66.3008C36.5684 67.0843 36.4838 66.9095 36.0705 69.5566C35.9442 70.3653 35.7395 71.0913 34.8488 71.2598C33.7225 71.2472 28.7969 71.3826 28.1447 71.0273C27.6058 70.3036 27.2211 68.2654 26.9787 67.2695L24.7072 66.5596C23.8903 66.9019 22.2495 68.2454 21.4543 68.1826C20.3682 68.0967 16.8291 64.3107 15.9699 63.3418C16.3303 62.0596 17.2658 60.9099 17.9552 59.6875C17.5927 58.893 17.2986 58.1913 16.8351 57.4482C14.9504 56.9571 12.6301 57.4912 12.8107 54.9853C12.9428 53.1511 12.5706 50.8841 12.9484 49.0859C13.0665 48.5241 16.2878 47.854 16.8654 47.7168C17.2051 47.0117 17.4892 45.9886 17.7238 45.2158C17.1318 44.305 15.8195 43.0448 15.8771 41.9814C16.2666 41.2263 19.9545 37.6377 20.9279 37.0684C21.5977 36.6766 23.5806 38.4296 24.6867 38.7949C25.253 38.676 26.2781 38.2217 26.924 38.0098C27.2056 36.9485 27.2083 35.417 27.8546 34.5967C28.1944 34.1655 28.6358 34.15 29.1378 34.0986ZM34.3429 35.7393C32.6327 35.6948 30.8512 35.7421 29.1349 35.7656C28.1667 39.8545 28.509 39.2284 24.5968 40.6709C23.6841 40.2635 22.2147 39.3331 21.3039 38.7891C20.1517 39.855 18.8786 41.1676 17.7228 42.1514C18.2646 42.9793 19.3227 44.5429 19.671 45.3701C19.3533 46.1216 18.3106 48.5982 17.8888 49.1621C16.8312 49.4453 15.437 49.769 14.4377 50.1377C14.421 51.4411 14.3499 53.9292 14.5187 55.166C15.6893 55.5187 17.0356 55.6312 18.1134 56.0596C18.6332 56.9683 19.2647 58.7831 19.7433 59.8496C19.4413 60.7022 18.4428 61.8411 17.9464 62.8184C18.6256 63.6061 20.7754 65.7225 21.6115 66.4336C22.5228 65.8978 23.7792 65.1103 24.7296 64.7109C25.4164 64.9704 26.1034 65.205 26.7931 65.4375C27.3536 65.627 28.2256 65.7847 28.4386 66.4062C28.7887 67.4282 28.8911 68.5257 29.1984 69.5713C30.878 69.5966 32.6777 69.5232 34.3244 69.5889C34.5607 68.578 34.8786 66.7631 35.2209 65.8994C36.4736 65.5346 37.7556 65.0307 38.9826 64.5732C40.0478 65.0627 41.1575 65.7748 42.1759 66.3838C43.5502 65.1217 44.5875 64.1364 45.8351 62.7227C45.2714 61.993 44.3709 60.6483 43.9171 59.8564C44.3722 58.7057 44.874 57.3458 45.3312 56.2158C45.5343 55.716 48.4145 55.1927 49.1173 54.8662C49.1431 53.2185 49.1478 51.5706 49.132 49.9228C47.9931 49.4278 46.5859 49.3289 45.3986 48.8584L43.9084 45.3008C44.2771 44.2867 45.0822 42.9317 45.7257 42.0664C44.5628 40.907 43.4694 39.8271 42.256 38.7236C41.0666 39.2888 40.1232 40.0793 38.9152 40.6016C37.9058 40.1996 36.0309 39.6261 35.2277 39.2568C34.798 38.2056 34.6116 36.8527 34.3429 35.7393Z" fill="#1C1B1B"/>
<path fill-rule="evenodd" clip-rule="evenodd" d="M30.8514 43.8121C35.646 43.3291 39.9224 46.8293 40.3973 51.6246C40.8722 56.4198 37.3652 60.6901 32.5692 61.1569C27.7846 61.6227 23.5265 58.126 23.0526 53.3424C22.5788 48.5585 26.0684 44.2941 30.8514 43.8121ZM39.0399 51.7096C38.5828 47.6923 34.9377 44.8184 30.9247 45.3111C26.9617 45.7977 24.1309 49.3871 24.5819 53.3541C25.0333 57.3214 28.5982 60.1843 32.5692 59.7682C36.5904 59.3469 39.497 55.727 39.0399 51.7096Z" fill="#1C1B1B"/>
<path fill-rule="evenodd" clip-rule="evenodd" d="M16.9607 0.0665926C19.4041 -0.123485 23.0897 0.117965 25.5798 0.479679C29.5226 1.11113 34.2209 2.00749 36.9529 5.19062C38.2206 6.668 37.8535 10.1361 37.8533 12.09L37.8718 20.7922L37.866 28.2902C37.8622 29.0345 38.0159 31.927 37.5232 32.4777C37.0888 32.9628 36.283 31.9601 36.0076 31.5031C35.367 31.7425 33.1668 32.2854 32.7517 31.716C33.7647 30.6963 35.2806 30.0206 36.2244 28.7092C36.3467 27.2718 36.3264 25.6337 36.3074 24.1828C36.2948 23.222 36.168 22.2729 36.2224 21.301C34.4724 22.7871 31.7847 23.5973 29.5867 24.1437C21.7915 26.0817 12.8973 26.0722 5.3064 23.3019C4.05317 22.8445 2.79063 22.0676 1.6609 21.3771C1.60019 23.5794 1.50845 26.5106 1.64722 28.6896C1.95767 29.1647 2.33345 29.5938 2.76441 29.9631C3.90871 30.9574 5.55742 31.6532 6.98512 32.1213C13.1825 34.1534 19.0253 33.944 25.3552 33.4631C24.925 34.2947 24.7422 34.6336 23.9343 35.1076C23.1743 35.1335 21.8123 34.8983 21.1677 34.9973C19.0651 35.3208 17.492 35.3863 15.3474 35.2834C11.876 35.1681 7.60604 34.2964 4.42359 32.8303C3.49203 32.401 2.51278 31.7446 1.65699 31.1691C1.58428 33.4265 1.52999 36.432 1.63453 38.633C3.65901 41.9198 9.7082 42.6844 13.1199 43.341C13.2845 43.3727 13.5976 43.8237 13.6179 43.9934C13.792 45.4438 11.6566 44.7033 10.9187 44.6076C7.34969 44.1965 4.7507 43.0151 1.68043 41.2824C1.63936 43.6842 1.39804 48.0554 1.76051 50.3195C2.70706 52.3228 5.44233 53.1568 7.35328 53.7521C8.36773 54.068 9.99491 54.1984 10.2625 55.0471C10.2481 55.5048 9.99416 55.9556 9.40601 55.9855C9.07129 55.9889 8.71396 55.8736 8.38453 55.7824C5.7144 55.043 2.69616 54.1457 0.864998 51.924C0.51944 51.5047 0.0517475 50.558 0.041756 50.008C-0.00869891 47.1747 0.0332736 44.3381 0.0349201 41.5041L0.0271076 24.6574L0.010506 12.9553C0.00824441 11.0748 -0.0324412 9.04929 0.0632404 7.17597C0.100437 6.44787 0.683092 5.38444 1.20289 4.86542C5.01503 1.06061 11.9397 0.317994 16.9607 0.0665926ZM36.2283 11.2365C29.8318 17.0097 8.22294 16.8351 1.61402 11.2678C1.65045 13.6249 1.45847 16.2893 1.65113 18.6262C1.66827 18.8341 1.8929 19.1658 2.01929 19.3508C7.35307 25.4663 31.8454 25.4936 36.3064 18.6193C36.3213 17.7889 36.4063 11.5138 36.2283 11.2365ZM36.3503 7.8371C34.997 1.90145 20.9619 1.42179 16.0681 1.6662C11.8862 1.91636 6.6754 2.76468 3.18726 5.28437C1.15557 6.75214 1.09461 8.67599 3.11012 10.2404C7.65301 13.6331 16.3038 14.3101 21.7263 13.8684C25.6923 13.5812 35.2003 12.398 36.3503 7.8371Z" fill="#1C1B1B"/>
<path fill-rule="evenodd" clip-rule="evenodd" d="M30.1945 15.6717C31.4427 15.3824 32.6889 16.1611 32.9757 17.4099C33.2624 18.6588 32.481 19.903 31.2316 20.1873C29.9857 20.4706 28.7452 19.6923 28.4591 18.447C28.1732 17.2018 28.9498 15.9602 30.1945 15.6717ZM30.4289 16.699C29.0333 17.4896 29.1144 18.9486 30.7648 19.2293C32.3747 18.828 32.081 16.8448 30.4289 16.699Z" fill="#1C1B1B"/>
<path d="M57.8794 23.2793C58.1092 23.2455 58.4678 23.2221 58.6727 23.3193C59.9128 23.9072 61.1307 24.5903 62.3705 25.1809C64.7787 26.328 67.2399 27.3767 69.5924 28.631C69.8442 28.7775 70.0413 28.8736 70.1725 29.1466C70.5248 29.8798 69.6698 30.3767 69.1283 30.6378C67.1594 31.5871 65.2116 32.575 63.246 33.5293C61.72 34.2701 60.2079 35.1329 58.6402 35.752C58.2789 35.893 57.79 35.8355 57.4415 35.6275C56.8189 34.682 59.1422 33.8221 59.7441 33.465C61.6407 32.3399 64.0621 31.493 65.8604 30.2654C63.9792 30.2915 62.0977 30.2926 60.2164 30.2687L48.6959 30.2761C46.9431 30.2753 45.1868 30.3036 43.4357 30.2786C42.898 30.271 42.2084 30.1195 42.0566 29.5425C42.1015 29.3016 42.2225 29.0815 42.4021 28.9147C42.8212 28.521 45.4321 28.6648 46.1797 28.6651L52.4993 28.6669C56.6838 28.6651 61.6381 28.5356 65.773 28.7636C63.3707 27.1388 60.2269 26.162 57.7869 24.6212C57.2348 24.2725 57.4583 23.6757 57.8794 23.2793Z" fill="#1C1B1B"/>
<path fill-rule="evenodd" clip-rule="evenodd" d="M30.5084 25.5259C31.7707 25.4073 32.8926 26.329 33.0211 27.5904C33.1496 28.8518 32.2366 29.9814 30.9762 30.1197C29.7019 30.2593 28.5581 29.3334 28.4283 28.0581C28.2985 26.7829 29.2322 25.646 30.5084 25.5259ZM30.8141 26.6382C30.667 26.6195 30.4955 26.6323 30.3473 26.6441C29.0969 27.5557 29.3476 28.9904 30.9205 28.9273C31.5284 28.5387 32.0633 27.8366 31.5846 27.1167C31.4097 26.8527 31.1283 26.6778 30.8141 26.6382Z" fill="#1C1B1B"/>
</svg>
