<svg width="33" height="33" viewBox="0 0 33 33" fill="none" xmlns="http://www.w3.org/2000/svg">
<path d="M16.5014 2.75C24.0955 2.75 30.2514 8.90588 30.2514 16.5C30.2514 24.0941 24.0955 30.25 16.5014 30.25C14.0714 30.2542 11.6842 29.6111 9.58511 28.3869L2.75686 30.25L4.61586 23.419C3.39068 21.3193 2.74711 18.931 2.75136 16.5C2.75136 8.90588 8.90724 2.75 16.5014 2.75ZM11.8154 10.0375L11.5404 10.0485C11.3626 10.0608 11.1888 10.1075 11.0289 10.186C10.8798 10.2706 10.7436 10.3762 10.6246 10.4995C10.4596 10.6549 10.3661 10.7896 10.2657 10.9202C9.75716 11.5815 9.48333 12.3933 9.48749 13.2275C9.49024 13.9012 9.66624 14.5571 9.94124 15.1704C10.5036 16.4106 11.429 17.7237 12.65 18.9406C12.9442 19.2335 13.233 19.5278 13.5437 19.8014C15.061 21.1371 16.8689 22.1003 18.8237 22.6146L19.6047 22.7343C19.8591 22.748 20.1135 22.7288 20.3692 22.7164C20.7696 22.6953 21.1605 22.5869 21.5146 22.3988C21.6945 22.3057 21.8702 22.2048 22.0412 22.0962C22.0412 22.0962 22.0994 22.0568 22.2131 21.9725C22.3987 21.835 22.5129 21.7374 22.6669 21.5765C22.7824 21.4573 22.8786 21.3189 22.9556 21.1613C23.0629 20.9371 23.1701 20.5095 23.2141 20.1534C23.2471 19.8811 23.2375 19.7326 23.2334 19.6405C23.2279 19.4934 23.1055 19.3407 22.9721 19.2761L22.1719 18.9172C22.1719 18.9172 20.9756 18.3961 20.2441 18.0634C20.1675 18.03 20.0855 18.0109 20.0021 18.007C19.908 17.9972 19.8129 18.0077 19.7232 18.0378C19.6336 18.0679 19.5514 18.117 19.4824 18.1816C19.4755 18.1789 19.3834 18.2573 18.3892 19.4618C18.3322 19.5384 18.2536 19.5964 18.1635 19.6282C18.0734 19.66 17.9758 19.6643 17.8832 19.6405C17.7936 19.6166 17.7059 19.5863 17.6206 19.5498C17.4501 19.4783 17.391 19.4508 17.2741 19.4012C16.4847 19.0574 15.754 18.592 15.1085 18.0221C14.9352 17.8709 14.7744 17.7059 14.6094 17.5464C14.0685 17.0283 13.597 16.4422 13.2069 15.8029L13.1257 15.6722C13.0683 15.584 13.0213 15.4894 12.9855 15.3904C12.9332 15.1882 13.0694 15.026 13.0694 15.026C13.0694 15.026 13.4035 14.6602 13.5589 14.4622C13.7101 14.2697 13.838 14.0828 13.9205 13.9494C14.0827 13.6881 14.1336 13.42 14.0484 13.2124C13.6634 12.2719 13.2655 11.3364 12.8549 10.406C12.7737 10.2217 12.5331 10.0897 12.3145 10.0636C12.2402 10.0545 12.166 10.0471 12.0917 10.0416C11.9071 10.031 11.722 10.0329 11.5376 10.0471L11.8154 10.0375Z" fill="white"/>
</svg>
