<svg width="37" height="37" viewBox="0 0 37 37" fill="none" xmlns="http://www.w3.org/2000/svg">
<path d="M18.3334 0C28.4589 0 36.6667 8.20783 36.6667 18.3333C36.6667 28.4588 28.4589 36.6667 18.3334 36.6667C15.0934 36.6722 11.9104 35.8148 9.1117 34.1825L0.00736167 36.6667L2.48603 27.5587C0.852452 24.759 -0.00564965 21.5747 2.79926e-05 18.3333C2.79926e-05 8.20783 8.20786 0 18.3334 0ZM12.0854 9.71667L11.7187 9.73133C11.4816 9.74767 11.25 9.80993 11.0367 9.91467C10.8379 10.0274 10.6564 10.1682 10.4977 10.3327C10.2777 10.5398 10.153 10.7195 10.0192 10.8937C9.34108 11.7753 8.97598 12.8577 8.98153 13.97C8.9852 14.8683 9.21986 15.7428 9.58653 16.5605C10.3364 18.2142 11.5702 19.965 13.1982 21.5875C13.5905 21.978 13.9755 22.3703 14.3899 22.7352C16.4128 24.5161 18.8234 25.8004 21.4299 26.4862L22.4712 26.6457C22.8104 26.664 23.1495 26.6383 23.4905 26.6218C24.0244 26.5937 24.5456 26.4491 25.0177 26.1983C25.2576 26.0743 25.4919 25.9397 25.7199 25.795C25.7199 25.795 25.7975 25.7424 25.949 25.63C26.1965 25.4467 26.3487 25.3165 26.554 25.102C26.708 24.9431 26.8364 24.7586 26.939 24.5483C27.082 24.2495 27.225 23.6793 27.2837 23.2045C27.3277 22.8415 27.3149 22.6435 27.3094 22.5207C27.302 22.3245 27.1389 22.121 26.961 22.0348L25.894 21.5563C25.894 21.5563 24.299 20.8615 23.3237 20.4178C23.2216 20.3734 23.1123 20.3479 23.001 20.3427C22.8756 20.3295 22.7488 20.3435 22.6292 20.3837C22.5096 20.4239 22.4001 20.4893 22.308 20.5755C22.2989 20.5718 22.176 20.6763 20.8505 22.2823C20.7744 22.3846 20.6697 22.4618 20.5495 22.5043C20.4293 22.5467 20.2993 22.5524 20.1759 22.5207C20.0564 22.4888 19.9394 22.4484 19.8257 22.3997C19.5984 22.3043 19.5195 22.2677 19.3637 22.2017C18.3111 21.7432 17.3368 21.1227 16.4762 20.3628C16.2452 20.1612 16.0307 19.9412 15.8107 19.7285C15.0895 19.0377 14.4609 18.2563 13.9407 17.4038L13.8325 17.2297C13.756 17.112 13.6933 16.9859 13.6455 16.8538C13.5759 16.5843 13.7574 16.368 13.7574 16.368C13.7574 16.368 14.2029 15.8803 14.41 15.6163C14.6117 15.3597 14.7822 15.1103 14.8922 14.9325C15.1085 14.5842 15.1764 14.2267 15.0627 13.9498C14.5494 12.6958 14.0189 11.4486 13.4714 10.208C13.3632 9.96233 13.0424 9.78633 12.7509 9.7515C12.6519 9.73928 12.5529 9.7295 12.4539 9.72217C12.2077 9.70805 11.9609 9.7105 11.715 9.7295L12.0854 9.71667Z" fill="#4E9C5A"/>
</svg>
