<svg width="1920" height="1928" viewBox="0 0 1920 1928" fill="none" xmlns="http://www.w3.org/2000/svg">
<path d="M1920 604C1917.33 602.833 1902.7 597.7 1863.5 584.5L1865 468.5L1893 480L1920 493.5V604Z" fill="#4E9C5A"/>
<path d="M1691.51 458.895C1733.07 447.847 1825.54 450.479 1865.56 468.653C1866.19 505.102 1863.98 547.341 1863.59 584.464C1609.61 508.464 1395.18 764.195 1243.29 924.095C980.68 1200.56 662.159 1409.41 256.688 1372.75C241.998 1405.66 226.943 1436.17 206.928 1466.57C-7.30378 1791.88 -576.356 1937.29 -941.29 1826.38C-939.968 1789.23 -940.475 1743.1 -940.997 1705.82C-842.614 1733.29 -752.458 1743.45 -649.982 1741.56C-528.116 1738.46 -407.385 1716.62 -292.303 1676.84C-121.514 1617.95 48.6891 1508.94 129.467 1346.33C-17.738 1299.69 -177.178 1186.48 -171.136 1016.85C-167.736 921.386 -80.7484 862.858 13.3687 870.738C90.9427 877.232 160.335 916.407 209.706 974.414C280.869 1056.87 299.796 1148.2 291.166 1253.87C312.194 1256.51 338.858 1255.9 360.168 1255.51C440.644 1254.03 514.039 1241.7 590.945 1218.36C764.758 1165.63 905.946 1070.3 1038.09 950.722C1090.26 903.126 1140.66 853.745 1189.2 802.672C1331.81 655.198 1477.23 498.018 1691.51 458.895ZM110.453 1046.23C75.9277 1007.1 28.7802 981.544 -25.4037 991.951C-43.5015 998.499 -44.7448 1010.75 -44.2891 1027.43C-41.4473 1131.59 66.9836 1195.86 154.733 1227.24L167.404 1230.89C173.334 1163.33 156.093 1097.97 110.453 1046.23Z" fill="#4E9C5A"/>
</svg>
