<svg width="1920" height="1330" viewBox="0 0 1920 1330" fill="none" xmlns="http://www.w3.org/2000/svg">
<path d="M2152.37 208.404C2154.25 215.893 2155.28 236.561 2155.17 244.477C2154.27 310.388 2121.67 375.991 2074.25 421.1C1998.62 493.036 1909.99 517.526 1808.27 516.154C1805.95 566.258 1809.83 616.453 1819.81 665.605C1858.01 855.826 1964.62 1014.87 2108.54 1142.15C2143.08 1173.14 2179.68 1201.75 2218.09 1227.79C2190.43 1243.32 2146.15 1259.84 2115.14 1267.87L2106.24 1262.3C1946.05 1159.6 1822.79 1008.52 1754.35 830.997C1740.01 794.437 1728.33 756.892 1719.41 718.646C1702.55 653.057 1694.55 564.668 1700.01 497.286C1617.5 476.005 1531.6 417.001 1477.14 352.064C1395.79 255.079 1357.24 136.405 1355.18 10.704C1354.63 -23.1188 1357.19 -46.352 1359.9 -79.4639C1383.74 -84.2455 1428.22 -85.944 1451.59 -84.3461C1441.55 107.856 1521.29 320.396 1718.17 386.128C1719.32 381.149 1720.71 376.199 1722.15 371.283C1759.23 246.531 1845.28 125.405 1980.83 101.032C2063.99 86.0774 2137.08 120.348 2152.37 208.404ZM2045.82 254.625C2046.84 246.819 2046.39 235.461 2044.73 227.538C2043.16 221.572 2042.05 216.836 2036.04 213.618C2022.79 206.529 1993.49 211.655 1979.74 215.677C1925.13 231.65 1883.05 276.956 1856.53 325.621C1844.03 348.56 1836.97 368.319 1828.65 392.699L1824.87 405.191C1854.06 404.569 1879.51 401.832 1907.83 393.287C1972.01 373.922 2036.58 325.176 2045.82 254.625Z" fill="#4E9C5A" fill-opacity="0.78"/>
</svg>
