<svg width="1920" height="2408" viewBox="0 0 1920 2408" fill="none" xmlns="http://www.w3.org/2000/svg">
<path d="M931.236 -366.407C942.207 -407.989 939.403 -500.456 921.155 -540.445C884.704 -541.001 842.471 -538.716 805.349 -538.259C881.819 -284.416 626.486 -69.5111 466.868 82.6759C190.893 345.794 -17.3653 664.701 20.04 1070.1C-12.8363 1084.86 -43.3253 1099.97 -73.682 1120.04C-398.595 1334.87 -542.954 1904.19 -431.367 2268.92C-394.221 2267.53 -348.084 2267.95 -310.805 2268.4C-338.456 2170.07 -348.781 2079.94 -347.082 1977.46C-344.208 1855.58 -322.592 1734.81 -283.024 1619.66C-224.452 1448.76 -115.757 1278.36 46.7028 1197.28C93.6093 1344.39 207.121 1503.62 376.74 1497.27C472.194 1493.69 530.559 1406.59 522.505 1312.49C515.867 1234.93 476.565 1165.61 418.466 1116.35C335.876 1045.34 244.514 1026.58 138.856 1035.41C136.183 1014.38 136.742 987.717 137.095 966.407C138.426 885.928 150.618 812.511 173.809 735.561C226.221 561.651 321.288 420.286 440.622 287.921C488.121 235.665 537.409 185.175 588.391 136.533C735.601 -6.34421 892.51 -152.062 931.236 -366.407ZM346.834 1215.73C386.032 1250.19 411.672 1297.29 401.366 1351.49C394.85 1369.6 382.597 1370.86 365.917 1370.44C261.753 1367.79 197.285 1259.48 165.743 1171.79L162.073 1159.13C229.613 1153.07 295.014 1170.19 346.834 1215.73Z" fill="#4E9C5A"/>
</svg>
