<svg width="42" height="42" viewBox="0 0 42 42" fill="none" xmlns="http://www.w3.org/2000/svg">
<g clip-path="url(#clip0_2350_7271)">
<path fill-rule="evenodd" clip-rule="evenodd" d="M17.0904 1.87395L15.3133 3.17858C15.0002 3.42836 14.6685 3.65389 14.321 3.8532C14.0871 3.97758 13.8418 4.07953 13.5887 4.1577C13.3025 4.24433 13.0059 4.28895 12.41 4.38083L10.2313 4.7142C8.51191 4.9767 7.65091 5.11058 6.97628 5.5122C6.37253 5.86658 5.87116 6.37058 5.51416 6.97433C5.11253 7.65683 4.98128 8.51783 4.71616 10.2293L4.38278 12.4081C4.29091 13.004 4.24628 13.3032 4.15966 13.5893C4.08091 13.8431 3.97941 14.0863 3.85516 14.3191C3.71341 14.5816 3.53753 14.8257 3.18053 15.3113L1.87591 17.0885C0.846906 18.4902 0.332406 19.1911 0.132906 19.9497C-0.0390938 20.6276 -0.0390938 21.3377 0.132906 22.0156C0.329781 22.7821 0.846906 23.4856 1.87591 24.8768L3.18053 26.654C3.53753 27.1396 3.71603 27.3837 3.85516 27.6462C3.97766 27.8807 4.07916 28.1257 4.15966 28.3812C4.24628 28.6647 4.29091 28.9613 4.38278 29.5572L4.71616 31.736C4.97866 33.4553 5.11253 34.3137 5.51416 34.991C5.86853 35.5947 6.37253 36.0987 6.97628 36.4531C7.65878 36.8547 8.51978 36.986 10.2313 37.2511L12.41 37.5845C13.0059 37.6763 13.3052 37.7236 13.5887 37.8102C13.8424 37.8872 14.0865 37.9887 14.321 38.1147C14.5835 38.2538 14.8277 38.4297 15.3133 38.7893L17.0904 40.094C18.4922 41.123 19.193 41.6375 19.9517 41.837C20.6289 42.0128 21.3403 42.0128 22.0175 41.837C22.784 41.6375 23.4875 41.123 24.8788 40.094L26.6559 38.7893C27.1415 38.4323 27.3857 38.2538 27.6482 38.1147C27.8827 37.9887 28.1268 37.8872 28.3805 37.8102C28.6667 37.7236 28.9633 37.679 29.5592 37.5845L31.7379 37.2511C33.4573 36.9886 34.3157 36.8573 34.9929 36.4531C35.5967 36.0987 36.1007 35.5947 36.455 34.991C36.8567 34.3085 36.9879 33.4475 37.253 31.736L37.5864 29.5572C37.6783 28.9613 37.7229 28.6647 37.8095 28.3786C37.8883 28.1248 37.9898 27.8807 38.114 27.6462C38.2558 27.3837 38.4317 27.1396 38.7887 26.654L40.0933 24.8768C41.1223 23.4751 41.6368 22.7768 41.8363 22.0156C42.0083 21.3377 42.0083 20.6276 41.8363 19.9497C41.6394 19.1832 41.1223 18.4797 40.0933 17.0885L38.7887 15.3113C38.5389 14.9982 38.3133 14.6665 38.114 14.3191C37.9897 14.0851 37.8877 13.8399 37.8095 13.5867C37.7053 13.2001 37.6307 12.8061 37.5864 12.4081L37.253 10.2293C36.9905 8.50995 36.8567 7.64895 36.455 6.97433C36.0971 6.37272 35.5945 5.87011 34.9929 5.5122C34.3104 5.11058 33.4494 4.97933 31.7379 4.7142L29.5592 4.38083C29.1612 4.33653 28.7672 4.26194 28.3805 4.1577C28.1268 4.08111 27.8814 3.9791 27.6482 3.8532C27.3007 3.65389 26.969 3.42836 26.6559 3.17858L24.8788 1.87395C23.477 0.844953 22.7762 0.330453 22.0175 0.130953C21.3396 -0.0410469 20.6295 -0.0410469 19.9517 0.130953C19.1852 0.330453 18.4817 0.844953 17.0904 1.87395ZM31.0817 16.0752C31.2336 15.8899 31.3468 15.676 31.4146 15.4462C31.4825 15.2164 31.5036 14.9753 31.4767 14.7372C31.4497 14.4991 31.3754 14.2688 31.2579 14.0599C31.1405 13.851 30.9824 13.6678 30.7929 13.5211C30.4075 13.2196 29.9197 13.0805 29.4333 13.1335C28.9469 13.1864 28.5004 13.4272 28.1889 13.8046L19.5002 24.4621L14.8539 20.8921C14.4744 20.5832 13.9892 20.4347 13.5018 20.4784C13.0144 20.522 12.5633 20.7543 12.2447 21.1257C12.089 21.3079 11.9714 21.5194 11.8989 21.7477C11.8263 21.9761 11.8003 22.2167 11.8223 22.4553C11.8444 22.6939 11.914 22.9256 12.0271 23.1369C12.1402 23.3481 12.2945 23.5345 12.4809 23.6851L18.5709 28.4363C18.9555 28.7491 19.4482 28.8971 19.9415 28.8479C20.4348 28.7988 20.8885 28.5564 21.2038 28.1738L31.0738 16.0463L31.0817 16.0752Z" fill="white"/>
</g>
<defs>
<clipPath id="clip0_2350_7271">
<rect width="42" height="42" fill="white"/>
</clipPath>
</defs>
</svg>
