<svg width="30" height="21" viewBox="0 0 30 21" fill="none" xmlns="http://www.w3.org/2000/svg">
<path d="M0 1.45104C0 0.648958 0.650416 0 1.45104 0H13.1323C13.5171 1.14691e-08 13.8862 0.152877 14.1583 0.425C14.4305 0.697123 14.5833 1.0662 14.5833 1.45104C14.5833 1.83588 14.4305 2.20496 14.1583 2.47708C13.8862 2.74921 13.5171 2.90208 13.1323 2.90208H1.45104C1.0662 2.90208 0.697123 2.74921 0.425 2.47708C0.152877 2.20496 0 1.83588 0 1.45104ZM0 10.2083C0 9.40625 0.650416 8.75729 1.45104 8.75729H27.7156C28.1005 8.75729 28.4695 8.91017 28.7417 9.18229C29.0138 9.45442 29.1667 9.82349 29.1667 10.2083C29.1667 10.5932 29.0138 10.9623 28.7417 11.2344C28.4695 11.5065 28.1005 11.6594 27.7156 11.6594H1.45104C1.0662 11.6594 0.697123 11.5065 0.425 11.2344C0.152877 10.9623 0 10.5932 0 10.2083ZM1.45104 17.5146C1.0662 17.5146 0.697123 17.6675 0.425 17.9396C0.152877 18.2117 0 18.5808 0 18.9656C0 19.3505 0.152877 19.7195 0.425 19.9917C0.697123 20.2638 1.0662 20.4167 1.45104 20.4167H18.9656C19.3505 20.4167 19.7195 20.2638 19.9917 19.9917C20.2638 19.7195 20.4167 19.3505 20.4167 18.9656C20.4167 18.5808 20.2638 18.2117 19.9917 17.9396C19.7195 17.6675 19.3505 17.5146 18.9656 17.5146H1.45104Z" fill="white"/>
</svg>
