<svg width="427" height="88" viewBox="0 0 427 88" fill="none" xmlns="http://www.w3.org/2000/svg">
<path fill-rule="evenodd" clip-rule="evenodd" d="M252.366 33.1763C254.5 33.047 257.117 33.2102 259.304 33.1518C261.574 33.1578 263.848 33.1297 266.118 33.1675C266.755 33.1781 267.502 33.3612 267.515 34.147C267.54 35.6912 267.52 37.2379 267.521 38.7817L267.522 48.7182L267.53 79.9409C268.747 79.9361 288.787 79.9451 290.003 79.9682C290.027 80.9223 290.04 81.7631 290.012 82.7192C288.526 82.7729 268.019 82.739 266.521 82.7417L256.292 82.7241L225.411 82.7348L180.726 82.7378L162.054 82.7427C158.494 82.7692 154.934 82.7575 151.374 82.7065C151.352 81.798 151.353 80.8885 151.377 79.98C153.083 79.9154 154.911 79.9442 156.627 79.9429L165.317 79.938L196.163 79.9223L196.168 76.2114L196.162 69.6313C196.161 68.5116 196.151 67.3944 196.174 66.2729C196.185 65.7002 196.343 65.0643 197.027 64.9985C197.664 64.9374 198.351 64.9667 198.995 64.9663L202.815 64.9673L208.05 64.9682C208.99 64.9687 209.924 64.9652 210.864 64.9956C211.285 64.9251 211.919 65.4441 211.935 65.893C212.095 70.5385 211.85 75.267 211.991 79.9116C212.87 79.9225 213.748 79.9272 214.627 79.9272L214.644 65.022L214.634 60.6352C214.63 59.8324 214.608 59.0201 214.651 58.2192C214.703 57.2552 215.466 57.1499 216.239 57.1557C220.313 57.1864 224.386 57.1776 228.459 57.146C229.216 57.1401 230.389 57.1089 230.438 58.1352C230.489 58.9845 230.472 59.8409 230.471 60.6919L230.468 65.0825L230.481 79.9311L233.137 79.9409C233.033 72.1834 233.131 64.2212 233.13 56.4477L233.108 50.4126C233.104 49.4653 233.062 48.3344 233.157 47.3911C233.202 46.9494 233.646 46.6557 233.99 46.4282L243.26 46.4263C244.846 46.4222 246.457 46.3727 248.035 46.4585C249.144 46.5187 248.957 47.8264 248.956 48.5893C248.955 49.2857 248.947 49.9834 248.944 50.6792L248.933 57.0259L248.947 79.9429L251.643 79.9341L251.633 45.4839L251.632 37.3061C251.631 36.2566 251.577 34.9633 251.682 33.9214C251.714 33.6004 252.104 33.3373 252.366 33.1763ZM235.903 49.268L235.887 79.9243C239.178 79.9399 242.955 80.0271 246.216 79.9272C246.132 73.3425 246.227 66.6203 246.207 60.019L246.19 52.9409C246.188 51.9543 246.121 50.1859 246.224 49.2661L235.903 49.268ZM227.707 59.9448C224.366 59.9445 220.708 59.8663 217.393 59.9614L217.396 79.9399C220.707 79.9657 224.398 79.9989 227.7 79.935C227.788 77.7497 227.713 75.0301 227.712 72.8061L227.707 59.9448ZM254.391 35.9516L254.412 60.4604C254.424 66.8575 254.514 73.5442 254.402 79.9243C255.29 79.9284 264.488 80.0528 264.756 79.8305L264.728 50.0405L264.73 41.1665C264.727 39.5337 264.659 37.5442 264.758 35.9516C261.321 35.9457 257.826 35.9143 254.391 35.9516ZM198.928 67.728L198.929 79.9282L207.841 79.9458L209.226 79.937L209.234 67.7378L200.517 67.7192L198.928 67.728Z" fill="#333333"/>
<path fill-rule="evenodd" clip-rule="evenodd" d="M183.81 7.08809C185.751 6.96137 188.801 7.05985 190.803 7.06075L203.82 7.05391C205.809 7.0533 207.117 7.06911 208.64 8.63204C210.626 10.6713 210.01 15.1858 210.009 17.9856L222.675 17.9875C224.267 17.9899 227.939 17.8698 229.365 18.2043C230.625 18.5077 231.777 19.1559 232.694 20.0783C233.671 21.0499 234.368 22.2723 234.709 23.6135C235.003 24.8066 234.897 27.0029 234.894 28.3391C234.884 30.3214 234.888 32.3041 234.908 34.2863C234.063 34.8253 232.787 35.8795 232.083 36.5705C232.112 36.3587 232.133 36.0415 232.133 35.8234C232.136 33.7087 232.153 31.6088 232.133 29.4914C232.118 27.8897 232.218 26.0108 232.009 24.4533C231.923 23.8121 231.314 22.7191 230.85 22.2648C229.816 21.251 228.83 20.787 227.405 20.7854C222.658 20.7799 217.911 20.7899 213.167 20.7893L183.735 20.7883H168.766L164.185 20.7844C163.291 20.7832 162.381 20.7629 161.482 20.8244C159.595 20.9633 157.763 22.588 157.517 24.5178C157.348 25.8426 157.445 27.6986 157.443 29.091L157.438 39.4826C158.346 39.7442 159.424 40.243 160.347 40.5725C169.489 43.8349 178.62 45.3969 188.245 46.3566C188.244 45.3502 188.212 44.3382 188.212 43.3352C188.213 42.8946 188.246 42.4224 188.585 42.1213C188.736 41.9771 188.984 41.8123 189.198 41.8039C190.342 41.7595 191.526 41.7876 192.671 41.7893L200.351 41.8137C201.218 42.3416 201.124 43.0702 201.133 43.9826C201.141 44.7842 201.144 45.5872 201.154 46.3889C202.449 46.1579 203.787 46.063 205.097 45.9162C206.529 45.7419 207.96 45.5522 209.388 45.3459C211.876 44.9716 214.348 44.4986 216.798 43.9289C218.97 43.4458 221.71 42.7941 223.843 42.1232C223.359 42.5544 222.478 43.127 221.917 43.5139C220.879 44.2278 219.845 44.947 218.815 45.6721C218.412 45.9566 217.587 46.5707 217.148 46.7072C216.172 47.0104 215.019 47.2048 214.004 47.4035C211.363 47.9121 208.703 48.323 206.032 48.635C204.398 48.8382 202.788 49.0551 201.143 49.1311C201.106 51.3362 201.406 53.8668 198.523 54.5578C197.495 54.8039 196.259 54.6382 195.202 54.6701C194.191 54.7006 193.155 54.658 192.143 54.6906C189.989 54.7673 188.23 53.4316 188.27 51.1535C188.281 50.5126 188.274 49.7937 188.279 49.1359C185.912 49.0866 182.823 48.6039 180.454 48.2775C172.414 47.1699 165.059 45.2743 157.425 42.4738L157.427 60.0041L157.417 64.7912C157.411 66.9887 157.151 69.1536 158.828 70.8605C159.491 71.5394 160.359 71.9779 161.295 72.1057C162.11 72.2239 164.019 72.1686 164.908 72.1652L170.905 72.1662L193.156 72.1672L193.181 75.007C190.387 74.9364 187.443 74.9943 184.638 74.9963L169.518 74.9816L164.023 74.9973C161.348 74.9973 159.271 75.0684 157.133 73.1467C155.674 71.855 154.791 70.0273 154.681 68.0725C154.629 67.125 154.664 65.8532 154.665 64.8772L154.672 59.1086L154.671 40.5822L154.672 29.6945C154.67 28.2806 154.687 26.8551 154.669 25.4426C154.646 23.5483 155.253 21.7821 156.523 20.3586C157.419 19.3423 158.588 18.6101 159.889 18.2502C161.387 17.8485 164.564 17.9667 166.224 17.9699L174.482 17.9758C176.05 17.9785 177.928 18.0328 179.475 17.9465C179.436 16.2308 179.469 14.505 179.452 12.7883C179.445 12.2005 179.448 11.5729 179.561 10.9963C179.69 10.3055 179.975 9.65382 180.394 9.092C181.25 7.94852 182.412 7.27946 183.81 7.08809ZM198.388 44.5754C196.086 44.5667 193.288 44.4993 191.028 44.591C191.05 45.9421 191.057 47.2935 191.048 48.6447C191.047 48.9748 191.031 49.3441 191.047 49.6682C191.088 50.4929 190.847 51.8977 192.032 51.9123C193.755 51.9333 195.481 51.8942 197.206 51.9416C197.623 51.9531 197.879 51.9324 198.183 51.6359C198.526 51.0224 198.409 49.6714 198.404 48.9367C198.384 47.483 198.379 46.0291 198.388 44.5754ZM188.235 9.83418C187.317 9.83249 184.922 9.71511 184.094 9.85079C183.42 10.0932 182.756 10.4983 182.434 11.1731C181.972 12.1427 182.258 16.5624 182.197 17.9602C184.795 18.0486 187.518 17.9527 190.128 17.968C195.157 17.9974 200.205 17.9267 205.233 17.9846L207.229 17.9836C207.209 15.9476 207.353 13.6366 207.132 11.6506C206.881 9.39235 203.774 9.82572 202.295 9.83028L196.49 9.84297L188.235 9.83418Z" fill="#333333"/>
<path d="M257.296 10.0719C258.441 10.0318 267.546 9.93929 268.097 10.2504C268.296 10.363 268.418 10.6588 268.473 10.8733C268.69 11.7123 268.527 13.7782 268.53 14.7444C268.537 16.7644 268.653 18.852 268.534 20.8647C268.521 21.0944 268.507 21.329 268.38 21.5276C268.202 21.8057 267.879 21.9557 267.569 22.0264C267.061 22.1422 266.274 22.1585 265.824 21.8537C265.63 21.7239 265.489 21.528 265.426 21.3017C265.319 20.9197 265.333 19.594 265.229 19.0415C265.026 17.9626 264.744 16.9596 264.546 15.8811C262.125 18.3501 259.662 20.778 257.159 23.1635C244.74 34.8453 230.976 45.2246 215.765 52.876C215.337 53.0914 214.918 53.2995 214.481 53.4962C212.463 54.3428 210.486 55.4489 208.412 56.2123C207.686 56.4792 206.949 56.8462 206.196 57.0201C206.99 56.2743 208.041 55.7857 208.975 55.2272C210.906 54.0965 212.825 52.9455 214.732 51.7744C219.905 48.5217 224.983 45.1173 229.959 41.5654C237.353 36.3228 244.453 30.6704 251.225 24.6343C253.252 22.8267 255.244 20.9806 257.201 19.0969C258.911 17.4429 260.73 15.5818 262.477 14.0036C261.449 13.8462 260.6 13.3519 259.639 13.1033C259.033 12.9465 257.776 13.0134 257.064 12.9983C256.826 12.837 256.56 12.6641 256.479 12.3777C256.198 11.3931 256.246 10.4642 257.296 10.0719Z" fill="#333333"/>
<path d="M0.512085 62.5C3.31208 63.7 41.6788 57 60.5121 53.5C69.0121 51.5 88.4121 46.3 98.0121 41.5C107.612 36.7 122.345 29.5 128.512 26.5C132.121 25.0781 137.884 23.1538 142.267 21.7163C145.745 20.5757 149.37 19.9381 153.027 19.8162L162.512 19.5" stroke="#333333" stroke-width="2.6"/>
<path d="M281.512 81V62.5C281.845 47.6667 292.512 21.1 332.512 33.5C358.679 43.1667 393.012 62.999 426.512 62.999" stroke="#333333" stroke-width="2.6"/>
</svg>
