<svg width="187" height="57" viewBox="0 0 187 57" fill="none" xmlns="http://www.w3.org/2000/svg">
<path fill-rule="evenodd" clip-rule="evenodd" d="M159.685 20.8687C161.027 20.7874 162.673 20.8898 164.049 20.8531C165.477 20.8569 166.908 20.8391 168.336 20.8629C168.737 20.8695 169.207 20.9848 169.215 21.4791C169.231 22.4506 169.218 23.4239 169.219 24.3951L169.22 30.6451L169.225 50.2857C169.99 50.2827 182.597 50.2878 183.362 50.3023C183.378 50.9025 183.386 51.4314 183.368 52.0328C182.435 52.0666 169.533 52.0448 168.59 52.0465L162.154 52.0357L142.727 52.0426L114.615 52.0445L102.869 52.0474C100.63 52.0641 98.3898 52.057 96.1505 52.025C96.1363 51.4536 96.1361 50.8815 96.1514 50.3101C97.2244 50.2695 98.375 50.2876 99.4542 50.2867L104.922 50.2828L124.327 50.274L124.33 47.939L124.326 43.8004C124.325 43.0959 124.32 42.3926 124.334 41.6871C124.341 41.3269 124.441 40.9276 124.871 40.8863C125.272 40.8479 125.703 40.8661 126.108 40.8658L128.513 40.8668H131.806C132.397 40.8671 132.984 40.8653 133.575 40.8844C133.84 40.8399 134.239 41.1664 134.249 41.4488C134.35 44.3708 134.197 47.3448 134.285 50.2662C134.838 50.273 135.391 50.2769 135.943 50.2769L135.953 40.901L135.947 38.1412C135.945 37.6363 135.931 37.1254 135.958 36.6217C135.991 36.0153 136.47 35.9491 136.957 35.9527C139.52 35.972 142.083 35.9667 144.645 35.9469C145.121 35.9432 145.859 35.9233 145.891 36.5689C145.922 37.1031 145.911 37.6421 145.91 38.1773L145.908 40.9381L145.917 50.2789L147.588 50.2848C147.523 45.4052 147.584 40.3971 147.583 35.5074L147.569 31.7105C147.566 31.1147 147.541 30.4034 147.601 29.8101C147.629 29.5325 147.908 29.3477 148.124 29.2047L153.956 29.2037C154.954 29.2011 155.967 29.1703 156.96 29.2242C157.658 29.2621 157.541 30.0841 157.54 30.564C157.54 31.0021 157.534 31.4408 157.532 31.8785L157.524 35.8707L157.534 50.2867L159.23 50.2808L159.224 28.6099L159.223 23.4664C159.222 22.8062 159.189 21.9929 159.255 21.3375C159.275 21.1356 159.52 20.97 159.685 20.8687ZM144.172 37.7066C142.07 37.7064 139.768 37.6575 137.683 37.7174L137.685 50.2838C139.768 50.3 142.09 50.322 144.167 50.2818C144.222 48.9072 144.176 47.1964 144.175 45.7974L144.172 37.7066ZM149.327 30.9908L149.317 50.275C151.388 50.2848 153.764 50.3388 155.815 50.276C155.763 46.1341 155.822 41.9058 155.81 37.7535L155.8 33.3014C155.799 32.6809 155.756 31.5686 155.82 30.9898L149.327 30.9908ZM160.959 22.6148L160.972 38.0318C160.979 42.0557 161.036 46.2618 160.966 50.275C161.524 50.2775 167.307 50.356 167.48 50.2164L167.462 31.4771L167.463 25.8941C167.461 24.867 167.418 23.6155 167.481 22.6139C165.318 22.6101 163.12 22.5914 160.959 22.6148ZM126.066 42.6031L126.067 50.2769L131.674 50.2877L132.545 50.2828L132.551 42.609L127.066 42.5973L126.066 42.6031Z" fill="#333333"/>
<path fill-rule="evenodd" clip-rule="evenodd" d="M120.955 4.44118L129.144 4.43629C130.395 4.43591 131.218 4.44653 132.176 5.42946C133.426 6.71223 133.038 9.55211 133.037 11.3132L141.006 11.3152C142.008 11.3167 144.318 11.2406 145.214 11.4509C146.007 11.6418 146.731 12.0496 147.308 12.6297C147.923 13.2408 148.362 14.0097 148.576 14.8533C148.761 15.6037 148.695 16.9854 148.693 17.8259C148.686 19.0729 148.689 20.3203 148.701 21.5672C148.17 21.9062 147.368 22.569 146.925 23.0037C146.943 22.8704 146.955 22.6711 146.955 22.5339C146.957 21.2037 146.969 19.8825 146.956 18.5506C146.947 17.5431 147.01 16.3612 146.878 15.3816C146.824 14.9783 146.44 14.2915 146.149 14.0056C145.498 13.3678 144.877 13.076 143.981 13.075C140.995 13.0715 138.009 13.0773 135.025 13.0769H116.508L107.091 13.0759L104.209 13.074C103.647 13.0732 103.074 13.0607 102.508 13.0994C101.321 13.187 100.169 14.2088 100.014 15.4226C99.9075 16.2561 99.9698 17.4237 99.9681 18.2996L99.9642 24.8357C100.535 25.0002 101.214 25.314 101.795 25.5213C107.546 27.5733 113.29 28.5562 119.345 29.1599C119.344 28.5267 119.324 27.8896 119.325 27.2586C119.325 26.9815 119.347 26.6852 119.56 26.4959C119.655 26.4052 119.81 26.301 119.945 26.2957C120.665 26.2677 121.41 26.2859 122.13 26.2869L126.961 26.3015C127.507 26.6337 127.448 27.0927 127.453 27.6668C127.458 28.1707 127.46 28.6754 127.466 29.1795C128.281 29.0342 129.124 28.9749 129.948 28.8826C130.849 28.7729 131.749 28.653 132.647 28.5232C134.212 28.2877 135.767 27.9909 137.309 27.6326C138.675 27.3287 140.398 26.9188 141.741 26.4968C141.436 26.7679 140.882 27.1275 140.53 27.3709C139.876 27.82 139.226 28.2731 138.577 28.7293C138.324 28.9082 137.805 29.2936 137.529 29.3797C136.915 29.5704 136.189 29.6932 135.551 29.8181C133.889 30.138 132.215 30.3963 130.534 30.5925C129.507 30.7204 128.495 30.8572 127.46 30.905C127.437 32.292 127.626 33.8833 125.812 34.3181C125.165 34.473 124.388 34.3693 123.722 34.3894C123.086 34.4086 122.434 34.3816 121.797 34.4021C120.442 34.4501 119.337 33.6095 119.362 32.1765C119.369 31.7735 119.363 31.3216 119.367 30.908C117.878 30.8769 115.935 30.5732 114.445 30.3679C109.386 29.6712 104.759 28.4792 99.9564 26.7175L99.9583 37.7439L99.9515 40.7556C99.9476 42.1379 99.784 43.5002 100.839 44.574C101.256 45.0009 101.802 45.2768 102.391 45.3572C102.903 45.4316 104.104 45.3964 104.663 45.3943H108.437L122.435 45.3953L122.45 47.1824C120.693 47.1379 118.841 47.1743 117.076 47.1756L107.565 47.1658L104.107 47.1756C102.424 47.1756 101.118 47.2202 99.7728 46.0115C98.855 45.1989 98.2991 44.0489 98.2298 42.8191C98.1973 42.2231 98.2201 41.4232 98.221 40.8093L98.2249 37.1814L98.2239 25.5271L98.2249 18.6785C98.2237 17.7892 98.2339 16.8931 98.223 16.0047C98.2083 14.813 98.5899 13.7019 99.389 12.8064C99.9528 12.1671 100.688 11.7057 101.506 11.4793C102.448 11.2266 104.448 11.3014 105.492 11.3035L110.687 11.3074C111.674 11.3091 112.855 11.3431 113.828 11.2888C113.804 10.2096 113.825 9.12362 113.814 8.04371C113.81 7.67406 113.811 7.2794 113.882 6.91676C113.964 6.48234 114.143 6.07283 114.407 5.7195C114.945 5.00014 115.676 4.57908 116.556 4.45875C117.777 4.37906 119.696 4.44062 120.955 4.44118ZM125.727 28.0388C124.278 28.0334 122.518 27.9909 121.096 28.0486C121.11 28.8985 121.114 29.7485 121.109 30.5984C121.108 30.806 121.098 31.0381 121.108 31.242C121.133 31.7608 120.982 32.645 121.728 32.6541C122.812 32.6673 123.898 32.6428 124.984 32.6726C125.245 32.6798 125.406 32.6665 125.597 32.4802C125.813 32.0945 125.74 31.2442 125.737 30.782C125.724 29.8676 125.721 28.9532 125.727 28.0388ZM119.339 6.18532C118.762 6.18423 117.255 6.11068 116.735 6.19606C116.311 6.34857 115.892 6.60346 115.69 7.02809C115.399 7.639 115.58 10.4175 115.541 11.2966C117.176 11.3523 118.889 11.2919 120.532 11.3015C123.695 11.32 126.871 11.2759 130.034 11.3123L131.289 11.3113C131.277 10.0306 131.367 8.57717 131.228 7.32789C131.07 5.90726 129.115 6.17957 128.185 6.18239L124.534 6.1902L119.339 6.18532Z" fill="#333333"/>
<path d="M162.787 6.33566C163.507 6.3104 169.235 6.25223 169.581 6.44791C169.707 6.51878 169.784 6.70481 169.818 6.83976C169.954 7.36749 169.852 8.66702 169.854 9.27481C169.858 10.5455 169.932 11.8586 169.857 13.1247C169.848 13.2692 169.84 13.4167 169.76 13.5417C169.648 13.7166 169.444 13.811 169.249 13.8554C168.93 13.9283 168.435 13.9385 168.152 13.7468C168.029 13.6652 167.941 13.5419 167.901 13.3995C167.834 13.1593 167.843 12.3254 167.777 11.9778C167.65 11.2991 167.472 10.6682 167.348 9.98981C165.824 11.5429 164.275 13.0701 162.7 14.5707C154.887 21.9189 146.229 28.4478 136.659 33.2608C136.39 33.3963 136.126 33.5272 135.851 33.6509C134.582 34.1835 133.338 34.8793 132.033 35.3594C131.576 35.5273 131.113 35.7582 130.639 35.8676C131.139 35.3985 131.8 35.0911 132.387 34.7398C133.602 34.0286 134.809 33.3045 136.009 32.5679C139.264 30.5218 142.458 28.3804 145.589 26.1461C150.24 22.8483 154.707 19.2928 158.968 15.4958C160.242 14.3588 161.496 13.1976 162.727 12.0126C163.803 10.9722 164.947 9.80156 166.046 8.80881C165.4 8.70981 164.865 8.39888 164.26 8.24248C163.879 8.14387 163.088 8.18593 162.641 8.17644C162.491 8.07496 162.324 7.96622 162.272 7.78605C162.096 7.16671 162.126 6.58243 162.787 6.33566Z" fill="#333333"/>
<path d="M98.7418 25.5647C70.3499 8.19066 27.8971 25.7361 0.741772 55.7712" stroke="#333333" stroke-width="2"/>
</svg>
