<svg width="184" height="386" viewBox="0 0 184 386" fill="none" xmlns="http://www.w3.org/2000/svg">
<mask id="mask0_2329_9088" style="mask-type:alpha" maskUnits="userSpaceOnUse" x="42" y="6" width="624" height="311">
<path d="M42.5 317H666V21C666 12.7157 659.284 6 651 6H74L42.5 317Z" fill="white"/>
</mask>
<g mask="url(#mask0_2329_9088)">
<path d="M-8.35864 549.712C-6.82421 564.9 5.62906 595.284 16.6766 606.302C28.8612 601.946 42.6135 595.924 54.8951 591.146C-2.14921 516.302 55.9424 413.059 90.0344 342.588C148.98 220.749 178.467 88.8033 115.524 -41.2835C124.613 -50.2823 132.864 -59.1038 140.453 -69.5571C221.68 -181.446 198.728 -388.662 116.196 -495.987C104.023 -490.896 88.6361 -485.288 76.1891 -480.794C97.6312 -451.556 112.293 -422.883 124.496 -388.609C138.725 -347.743 146.588 -304.909 147.784 -261.703C149.609 -197.603 134.713 -127.421 90.8169 -80.231C56.8963 -123.286 -0.67172 -162.067 -56.2572 -138.821C-87.5384 -125.739 -96.0872 -89.518 -81.6858 -59.244C-69.8157 -34.2911 -48.1151 -16.1474 -22.6662 -7.01196C13.6323 6.29969 46.3365 1.15159 80.3554 -14.9466C83.863 -8.29191 86.9989 0.640952 89.5369 7.76795C99.1214 34.6832 104.217 60.6042 106.096 89.0701C110.344 153.404 96.3586 212.236 73.1865 271.099C63.9096 294.386 53.8175 317.309 42.9324 339.828C11.8046 405.659 -22.1932 473.643 -8.35864 549.712ZM-11.2401 -48.9723C-28.5611 -55.5398 -42.9513 -68.0006 -46.2792 -87.3006C-46.3699 -94.1316 -42.4553 -96.0793 -36.8583 -98.0163C-1.90675 -110.114 33.0158 -82.1459 54.4254 -56.9293L57.2235 -53.1769C35.5291 -42.7489 11.6582 -40.2907 -11.2401 -48.9723Z" fill="#4E9C5A"/>
</g>
</svg>
