<svg width="632" height="311" viewBox="0 0 632 311" fill="none" xmlns="http://www.w3.org/2000/svg">
<mask id="mask0_2330_9104" style="mask-type:alpha" maskUnits="userSpaceOnUse" x="0" y="0" width="632" height="311">
<path d="M0 311H632V15C632 6.7157 625.192 0 616.796 0H31.9294L0 311Z" fill="white"/>
</mask>
<g mask="url(#mask0_2330_9104)">
<path d="M-51.5521 543.712C-49.9967 558.9 -37.3737 589.284 -26.1756 600.302C-13.8249 595.946 0.114932 589.924 12.564 585.146C-45.258 510.302 13.6255 407.059 48.1823 336.588C107.931 214.749 137.82 82.803 74.0194 -47.2838C83.2323 -56.2826 91.5958 -65.1041 99.2883 -75.5574C181.623 -187.446 158.358 -394.662 74.7006 -501.987C62.3616 -496.896 46.7649 -491.288 34.1483 -486.794C55.8827 -457.556 70.7444 -428.883 83.1137 -394.609C97.5367 -353.743 105.507 -310.909 106.719 -267.703C108.569 -203.603 93.47 -133.421 48.9755 -86.2313C14.5924 -129.286 -43.7604 -168.067 -100.104 -144.821C-131.811 -131.739 -140.477 -95.5183 -125.879 -65.2443C-113.847 -40.2914 -91.8505 -22.1477 -66.0547 -13.0123C-29.2614 0.299382 3.88868 -4.84871 38.3714 -20.9469C41.9268 -14.2922 45.1054 -5.35936 47.678 1.76764C57.3932 28.6829 62.5582 54.6039 64.4629 83.0698C68.7688 147.404 54.5927 206.236 31.1047 265.099C21.7014 288.386 11.4717 311.309 0.438172 333.828C-31.114 399.659 -65.5753 467.643 -51.5521 543.712ZM-54.4728 -54.9726C-72.03 -61.5401 -86.6163 -74.0009 -89.9896 -93.3009C-90.0816 -100.132 -86.1136 -102.08 -80.4403 -104.017C-45.0123 -116.114 -9.61361 -88.1462 12.0879 -62.9296L14.9241 -59.1772C-7.06605 -48.7492 -31.2624 -46.291 -54.4728 -54.9726Z" fill="#4E9C5A"/>
</g>
</svg>
