<svg width="632" height="386" viewBox="0 0 632 386" fill="none" xmlns="http://www.w3.org/2000/svg">
<mask id="mask0_741_11306" style="mask-type:alpha" maskUnits="userSpaceOnUse" x="0" y="6" width="632" height="311">
<path d="M0 21C0 12.7157 6.71573 6 15 6H632V302C632 310.284 625.284 317 617 317H0V21Z" fill="white"/>
</mask>
<g mask="url(#mask0_741_11306)">
<mask id="mask1_741_11306" style="mask-type:alpha" maskUnits="userSpaceOnUse" x="-468" y="6" width="624" height="311">
<path d="M155.5 317H-468V21C-468 12.7157 -461.284 6 -453 6H124L155.5 317Z" fill="white"/>
</mask>
<g mask="url(#mask1_741_11306)">
<path d="M206.359 549.712C204.824 564.9 192.371 595.284 181.323 606.302C169.139 601.946 155.386 595.924 143.105 591.146C200.149 516.302 142.058 413.059 107.966 342.588C49.0201 220.749 19.5329 88.8033 82.4762 -41.2835C73.3868 -50.2823 65.1359 -59.1038 57.5468 -69.5571C-23.6803 -181.446 -0.728423 -388.662 81.8035 -495.987C93.9768 -490.896 109.364 -485.288 121.811 -480.794C100.369 -451.556 85.7075 -422.883 73.5038 -388.609C59.2747 -347.743 51.4115 -304.909 50.2156 -261.703C48.3909 -197.603 63.2873 -127.421 107.183 -80.231C141.104 -123.286 198.672 -162.067 254.257 -138.821C285.538 -125.739 294.087 -89.518 279.686 -59.244C267.816 -34.2911 246.115 -16.1474 220.666 -7.01196C184.368 6.29969 151.664 1.15159 117.645 -14.9466C114.137 -8.29191 111.001 0.640952 108.463 7.76795C98.8786 34.6832 93.7831 60.6042 91.9038 89.0701C87.6564 153.404 101.641 212.236 124.814 271.099C134.09 294.386 144.183 317.309 155.068 339.828C186.195 405.659 220.193 473.643 206.359 549.712ZM209.24 -48.9723C226.561 -55.5398 240.951 -68.0006 244.279 -87.3006C244.37 -94.1316 240.455 -96.0793 234.858 -98.0163C199.907 -110.114 164.984 -82.1459 143.575 -56.9293L140.776 -53.1769C162.471 -42.7489 186.342 -40.2907 209.24 -48.9723Z" fill="#4E9C5A"/>
</g>
</g>
</svg>
