<svg width="1920" height="2206" viewBox="0 0 1920 2206" fill="none" xmlns="http://www.w3.org/2000/svg">
<path d="M-115.173 1333.89C-157.495 1326.26 -240.112 1284.64 -268.642 1251.2C-253.741 1217.93 -233.82 1180.62 -217.716 1147.17C-19.9784 1323.76 282.704 1183.18 488.091 1102.84C843.193 963.929 1220.24 909.969 1571.84 1115.21C1599.11 1091.65 1625.69 1070.4 1656.71 1051.37C1988.73 847.705 2565.72 957.492 2849.11 1212.77C2832.15 1245.85 2813.03 1287.84 2797.69 1321.82C2720.26 1255.2 2642.93 1207.75 2549.33 1165.97C2437.67 1117.07 2319.08 1085.62 2197.99 1072.81C2018.35 1053.66 1817.97 1080.15 1675.83 1193.12C1789.34 1297.81 1885.67 1467.98 1808.22 1619.02C1764.64 1704.02 1661.03 1720.11 1579.15 1673.04C1511.67 1634.24 1465.45 1569.32 1445.36 1495.85C1415.91 1390.98 1437.52 1300.25 1490.18 1208.23C1472.26 1196.92 1447.85 1186.16 1428.39 1177.47C1354.89 1144.66 1283.2 1124.68 1203.66 1113.18C1023.89 1087.18 855.595 1113.59 685.197 1165.8C617.762 1186.76 551.172 1210.09 485.541 1235.74C293.835 1308.77 95.4546 1389.39 -115.173 1333.89ZM1565.71 1472.93C1580.37 1523.02 1612.22 1566.16 1665.7 1579.73C1684.86 1581.48 1691.19 1570.91 1697.85 1555.61C1739.48 1460.09 1668.56 1355.89 1602.42 1290.24L1592.49 1281.56C1558.46 1340.21 1546.33 1406.72 1565.71 1472.93Z" fill="#4E9C5A"/>
</svg>
