<svg width="1920" height="1609" viewBox="0 0 1920 1609" fill="none" xmlns="http://www.w3.org/2000/svg">
<path d="M-7.5853 1564.99C-45.9513 1577.62 -135.151 1580.13 -176.161 1565.21C-181.903 1530.99 -185.741 1491.17 -190.605 1456.26C64.0959 1513.97 234.005 1262.03 357.356 1103.53C570.617 829.5 847.128 615.999 1241.8 628.554C1251.27 596.834 1261.43 567.337 1276.36 537.689C1436.27 220.355 1962.39 52.9481 2328.59 137.488C2332.56 172.476 2339.56 215.812 2345.32 250.822C2246.94 230.317 2158.9 225.638 2060.73 232.947C1944.1 242.442 1831.2 269.49 1726.27 313.096C1570.51 377.67 1422.39 489.322 1367.74 646.523C1515.72 682.406 1684.85 780.21 1702.98 939.974C1713.18 1029.88 1637.87 1089.59 1546.35 1087.27C1470.92 1085.35 1398.73 1052.28 1343.12 1000.42C1263.13 926.762 1232.07 841.944 1225.45 742.152C1204.88 740.813 1179.35 742.825 1158.93 744.344C1081.84 750.082 1013.07 765.632 942.487 791.717C782.96 850.669 660.781 947.895 550.712 1067.43C507.313 1114.98 465.867 1164.11 426.437 1214.74C310.254 1361.05 192.728 1516.64 -7.5853 1564.99ZM1428.33 927.56C1467.02 962.478 1515.91 983.949 1566.5 971.242C1582.96 964.109 1582.42 952.523 1579.63 936.87C1562.21 839.124 1448.98 784.574 1360.26 759.818L1347.58 757.075C1351.41 820.888 1377.19 881.397 1428.33 927.56Z" fill="#4E9C5A"/>
</svg>
