<svg width="1196" height="2885" viewBox="0 0 1196 2885" fill="none" xmlns="http://www.w3.org/2000/svg">
<path fill-rule="evenodd" clip-rule="evenodd" d="M930.961 2740.48C914.973 2777.57 857.708 2846.01 819.345 2866.81C789.92 2848.42 757.569 2824.88 728.21 2805.37C940.31 2653 864.395 2358.75 827.555 2161.32C763.855 1819.97 787.405 1471.43 1058.52 1184.33C1041.05 1156.21 1025.71 1129.05 1013.42 1098.21C881.928 768.088 1105.5 263.266 1411.62 45.2164C1440.44 65.4462 1477.52 88.9477 1507.54 107.852C1426.96 167.895 1365.07 230.69 1305.45 309.02C1235.21 402.615 1180.6 505.053 1143.65 612.517C1088.7 771.921 1074.05 956.829 1155.48 1101.98C1280.47 1015.01 1465.83 953.269 1597.43 1045.64C1671.5 1097.63 1666.25 1193.59 1603.82 1260.55C1552.37 1315.75 1479.75 1347.85 1404.05 1355.08C1295.87 1366.11 1211.79 1333.12 1132.7 1271.9C1118.06 1286.41 1102.64 1306.85 1090.24 1323.14C1043.41 1384.66 1009.45 1446.44 982.168 1516.57C920.509 1675.07 912.264 1831 928.746 1992.65C935.561 2056.66 944.856 2120.27 956.603 2183.35C989.079 2367.34 1027.61 2558.49 930.961 2740.48ZM1406.02 1242.99C1457.81 1237.18 1506.31 1214.82 1530.34 1168.54C1535.91 1151.49 1526.89 1144.2 1513.32 1135.91C1428.6 1084.14 1312.69 1132.71 1235.33 1182.71L1224.86 1190.38C1275.17 1229.83 1337.56 1250.66 1406.02 1242.99Z" fill="#4E9C5A"/>
</svg>
