<svg width="126" height="109" viewBox="0 0 126 109" fill="none" xmlns="http://www.w3.org/2000/svg">
<path d="M99.6497 9.04612e-06C100.129 0.000408324 100.81 -0.0173125 101.039 0.485361C102.57 3.83981 103.983 7.31271 105.541 10.6524C106.263 10.8521 107.867 11.0093 108.664 11.1045C110.419 11.3186 112.175 11.5208 113.932 11.7119C114.663 11.7894 118.614 11.7744 117.264 13.8242C117.009 14.2122 115.39 15.422 114.907 15.8486L108.851 21.2061C109.015 21.8079 109.144 22.4575 109.281 23.0684C109.842 25.5675 110.361 28.0791 110.952 30.5713C111.142 31.3696 111.562 32.9596 110.474 33.2852C110.172 33.3752 109.693 33.2566 109.397 33.124C106.429 31.3532 103.114 29.594 100.206 27.7686C99.6885 27.8734 98.4007 28.6953 97.9065 28.9756C95.8765 30.1324 93.855 31.286 91.8616 32.5068C91.3732 32.806 90.3121 33.5052 89.7268 33.3213C89.1271 33.1327 88.6929 32.5503 88.8303 31.8926C89.0746 30.7348 89.4113 29.598 89.6809 28.4443C90.2227 26.126 90.561 23.5929 91.3088 21.335C88.6887 19.2936 86.0653 16.8624 83.4973 14.7217C83.0816 14.3752 82.5043 13.8735 82.5061 13.29C82.5085 12.496 82.9311 12.1307 83.6965 12.0264C85.1051 11.8321 86.5227 11.7826 87.9338 11.6094C90.0641 11.4111 92.2641 10.9952 94.3928 10.8818C94.6123 10.317 94.9209 9.7399 95.1702 9.18263C96.4708 6.2753 97.7902 3.37613 99.0735 0.461923C99.166 0.251094 99.4534 0.0978207 99.6497 9.04612e-06ZM100.027 4.48731C98.8862 6.91978 97.6946 9.30207 96.6887 11.7988C96.5203 12.2154 96.3321 12.6316 96.1165 13.0254C94.2357 13.294 92.3505 13.5316 90.4622 13.7373C89.3081 13.8707 87.7285 14.0836 86.594 14.1035C88.1241 15.5396 92.9532 19.2808 93.7844 20.5713C93.5939 22.5055 92.2942 27.8904 91.5901 29.7002C93.5164 28.7372 98.5451 25.3799 100.134 25.1172C100.707 25.3007 101.202 25.5155 101.711 25.8379C103.917 27.2348 106.231 28.4976 108.437 29.8848C108.221 29.3082 108.062 28.7229 107.948 28.1182C107.461 25.5093 106.651 22.8718 106.231 20.2617C107.149 19.2307 109.055 17.7973 110.184 16.8066C111.066 16.0319 112.36 14.8036 113.24 14.1133C112.319 14.0801 111.371 13.9454 110.459 13.8018C108.341 13.468 106.192 13.3131 104.071 13.0283C103.159 11.6844 100.499 4.85911 100.027 4.48731Z" fill="#333333"/>
<path d="M7.48343 44.9349C10.1809 44.8271 11.7518 46.4788 13.5995 48.2124C15.6253 50.1452 17.5526 52.1787 19.3739 54.3054C22.3427 57.7114 26.0023 62.811 30.3474 64.2218C36.7532 66.3016 42.3614 60.2776 46.2098 56.0674C48.6541 53.3931 51.2155 50.5699 53.8578 48.1261C54.9489 47.122 56.0033 46.2533 57.3138 45.5596C59.236 44.4547 61.9784 44.6706 62.9574 46.9173C64.6903 50.8941 60.98 54.294 58.735 57.0197C54.9135 61.6593 52.541 66.0789 50.7823 71.8042C49.0043 77.5461 48.1017 83.5232 48.1049 89.5339C48.1548 94.406 48.8416 99.3911 49.6236 104.194C49.7733 105.115 50.5192 107.668 50.2479 108.468C49.8048 108.868 48.8127 108.717 48.1958 108.687C48.0671 108.235 47.9519 107.78 47.8503 107.322C44.3329 91.3976 44.8719 74.7305 53.2738 60.3631C55.2948 57.0172 58.1617 54.3669 60.332 51.1171C61.5127 49.3493 61.3431 46.779 58.6422 47.637C55.8316 49.0902 53.2702 51.8726 51.1017 54.1668C46.4507 59.0878 42.5188 64.8836 35.6102 66.7178C28.2832 68.6633 23.5957 62.8704 19.3623 57.9641C17.6625 55.9818 15.9197 54.0367 14.1352 52.1303C13.0084 50.9195 8.11746 45.4085 6.56809 48.3932C5.60127 50.2556 8.32048 53.9975 9.43247 55.5127C13.6115 61.2068 17.5554 66.6988 19.8292 73.4788C20.7216 76.1966 21.2547 79.0194 21.4152 81.8756C21.7407 87.2591 20.5357 102.777 18.2864 107.171C17.9268 107.874 17.3942 108.492 16.6122 108.722C16.1933 108.847 15.6183 108.887 15.231 108.645C15.0737 108.547 14.9587 108.39 14.9316 108.205C14.8303 107.514 16.1669 106.381 16.5418 105.767C17.3076 104.515 18.1626 96.9067 18.3941 95.008C20.37 78.801 18.5349 72.2831 8.92327 58.9037C7.18075 56.478 4.88135 53.89 4.21372 50.9055C3.90539 49.5268 4.00197 47.8227 4.79607 46.6132C5.42815 45.6506 6.38911 45.1732 7.48343 44.9349Z" fill="#333333"/>
<path d="M33.263 40.2094C38.9741 40.0767 43.7052 44.6111 43.8148 50.3227C43.9245 56.0343 39.3715 60.7476 33.6595 60.8344C27.9799 60.9207 23.299 56.3983 23.1898 50.7191C23.0807 45.04 27.5843 40.3414 33.263 40.2094ZM41.3431 49.6908C40.8794 45.3767 37.0133 42.2502 32.6976 42.6996C28.3621 43.1513 25.2184 47.0394 25.6839 51.3734C26.1496 55.7077 30.0475 58.8394 34.3802 58.3598C38.6929 57.882 41.8067 54.0051 41.3431 49.6908Z" fill="#333333"/>
<path d="M121.209 55.3067C121.664 55.2777 122.09 55.2514 122.467 55.5152C122.647 55.7523 122.719 55.982 122.722 56.2814C122.74 58.2997 122.725 60.3467 122.725 62.3628L122.699 76.7746L122.75 96.5401C122.755 100.14 122.76 103.787 122.719 107.388C122.697 107.743 122.637 108.25 122.359 108.497C121.873 108.93 120.816 108.834 120.416 108.327C120.218 108.075 120.233 107.39 120.23 107.088L120.269 74.2542C120.29 71.5369 120.293 68.8196 120.278 66.1023C120.257 64.2345 120.141 61.6524 120.313 59.8324L109.325 71.7196C107.034 74.1707 106.462 72.8699 104.521 70.8692C103.501 69.8708 102.415 68.9989 101.444 67.9232C101.559 69.0891 101.458 71.979 101.451 73.2579L101.434 83.3164L101.421 98.8272C101.419 101.625 101.439 104.45 101.374 107.247C101.364 107.691 101.334 108.067 101.033 108.414C100.808 108.67 100.485 108.819 100.145 108.823C98.8989 108.843 98.9554 107.681 98.9502 106.788C98.8968 97.7176 98.9307 88.6474 98.9338 79.5767L98.9318 69.8968C98.9184 68.1784 98.8773 66.4284 98.8752 64.7097C98.8876 64.4177 98.9862 64.0223 99.2153 63.8231C99.6592 63.4389 100.552 63.4145 100.989 63.8134C102.125 64.8514 103.134 66.03 104.212 67.1324C105.227 68.1713 106.351 69.1194 107.337 70.1748C107.882 69.5222 108.668 68.7602 109.262 68.1037L114.638 62.2045C115.699 61.0483 120.209 55.8037 121.209 55.3067Z" fill="#333333"/>
<path d="M90.8331 79.6272C92.171 79.5143 92.3066 79.9627 92.3209 81.129C92.3444 83.0598 92.3226 84.989 92.3156 86.9195L92.3476 94.5729L92.3492 103.291C92.3449 104.703 92.3419 106.135 92.3266 107.547C92.2876 107.932 92.3395 108.298 91.9817 108.545C90.8023 109.357 89.885 108.53 89.8628 107.262C89.8388 105.883 89.8646 104.549 89.8704 103.194L89.8806 95.2561L89.833 88.1196C89.8262 86.901 89.774 85.3198 89.877 84.131C89.1375 84.9489 88.3379 85.774 87.5606 86.5599C84.5504 89.6022 81.776 92.8458 78.8416 95.9651C77.4239 97.4723 76.8981 97.5966 75.3245 96.0544C74.9705 95.7082 74.5561 95.3198 74.1996 94.9746C73.165 93.9832 72.1422 92.9804 71.1312 91.9653C71.281 95.1966 70.9883 98.6467 71.1168 101.896C71.1904 103.758 71.0584 105.702 71.1486 107.568C71.2297 109.245 68.7838 109.186 68.6591 107.804C68.6202 106.875 68.6453 105.828 68.6504 104.896L68.6568 99.82L68.6423 92.6249C68.6386 91.4166 68.5774 90.1816 68.6391 88.9754C68.6556 88.6528 68.6633 88.3877 68.9041 88.1442C69.1292 87.9151 69.5612 87.7415 69.8815 87.7507C70.8971 87.7826 76.0234 93.2496 77.0237 94.2791C80.7053 90.1077 84.6531 86.0514 88.4385 81.9646C89.0453 81.3094 90.1267 80.1049 90.8331 79.6272Z" fill="#333333"/>
<path d="M123.986 37.9333C124.582 37.8759 125.021 37.8626 125.513 38.2652C125.764 38.4705 125.974 38.7193 125.998 39.0556C126.019 39.3569 125.88 39.64 125.705 39.8763C124.93 40.9275 123.945 41.8786 123.095 42.8751C121.564 44.6686 120.089 46.5162 118.582 48.33C115.551 51.9777 112.702 55.7793 109.664 59.4201C109.288 59.8708 108.886 60.3356 108.251 60.3658C107.312 60.4105 102.779 55.5623 101.861 54.6802C101 53.9219 99.3998 52.7941 100.494 51.5041C100.708 51.253 101.02 51.1074 101.349 51.1056C102.201 51.0965 103.035 52.1169 103.562 52.7217C104.995 54.3636 106.606 55.8145 108.104 57.3884C109.82 55.0974 112.019 52.5781 113.832 50.2978C116.143 47.3925 118.501 44.4478 120.915 41.6355C121.783 40.625 123.056 38.6744 123.986 37.9333Z" fill="#333333"/>
<path d="M92.0025 65.8703C92.7862 65.855 93.6097 66.2309 93.4151 67.159C93.2 68.2483 92.2916 68.9196 91.6343 69.7284C87.796 74.4529 83.6517 78.9125 79.8968 83.705C79.6671 83.9983 79.4059 84.2499 79.1396 84.5073C78.2721 85.3461 77.5928 84.9208 76.8247 84.245C75.0364 82.6718 73.3191 81.018 71.5929 79.3757C69.0105 77.0739 71.0585 75.3134 72.6143 76.7256C74.2515 78.2115 76.4708 80.415 77.9427 82.0823C81.6256 77.8389 85.1958 73.5372 88.8521 69.2756C89.7085 68.2774 90.4772 67.2776 91.2835 66.2386C91.4392 66.0378 91.7593 65.9406 92.0025 65.8703Z" fill="#333333"/>
<path d="M33.2931 93.6126C34.2858 93.592 34.6785 93.815 35.0049 94.7592C35.7585 97.0093 36.5363 99.4422 37.1616 101.722C37.5262 103.053 39.0814 107.526 38.6339 108.573C38.1588 109.023 37.8675 108.925 37.275 108.639C37.0104 108.51 36.5686 108.052 36.4835 107.764C36.1159 106.521 35.8092 105.255 35.4277 104.016C34.8956 102.194 34.1611 100.409 33.6369 98.6028C32.7207 99.3138 30.7652 107.612 29.5534 108.238C28.9384 108.331 28.38 108.198 27.8127 107.967C27.708 107.745 27.7078 107.6 27.7965 107.355C28.8912 104.329 30.0289 101.322 31.0433 98.2679C31.4935 96.9127 31.9664 95.5154 32.5898 94.2321C32.7445 93.9147 32.9964 93.777 33.2931 93.6126Z" fill="#333333"/>
<path d="M75.3182 45.5926C74.8006 46.4341 74.2067 47.2444 73.5672 48.0058C71.1046 50.9331 68.8148 54.0605 66.2723 56.91C65.17 58.1454 62.9588 56.5718 64.2792 55.0714C66.8824 52.1134 69.4809 49.1199 71.9035 46.0084C72.1529 45.6881 72.5993 45.3404 72.9204 45.0974C73.29 45.345 74.7596 45.4886 75.3182 45.5926Z" fill="#333333"/>
<path d="M73.6921 43.8399C74.8577 41.2421 78.3919 38.0631 79.9305 35.4891C80.2384 34.9738 81.2422 34.8452 81.739 35.0864C82.4381 35.4288 82.7366 36.4983 82.3151 37.1697C81.5022 38.464 80.4008 39.5489 79.4498 40.7411C78.2201 42.2019 77.0805 43.8138 75.7227 45.1403L75.3184 45.5919C74.7597 45.4879 73.2902 45.3443 72.9205 45.0967C73.3202 44.5754 73.4231 44.4326 73.6921 43.8399Z" fill="#333333"/>
<path d="M12.847 102.668C14.9261 102.472 14.7127 104.522 13.9017 104.796C10.8458 105.828 7.1426 106.977 3.96772 107.752C3.58809 107.844 2.32598 107.554 1.98497 107.485C1.54559 107.44 0.180674 107.403 0 107.026C0.391493 106.376 3.62682 105.512 4.55398 105.219C7.31284 104.351 10.0773 103.5 12.847 102.668Z" fill="#333333"/>
<path d="M60.7662 89.3147C62.438 89.3352 62.4503 91.4148 61.2446 91.8453C60.1267 92.2439 58.742 92.5275 57.5702 92.8347C55.7822 93.3166 54.0024 93.8272 52.2315 94.3686C50.6034 94.2145 50.4799 92.3662 51.5717 92.0662C54.5148 91.2576 57.8335 89.9219 60.7662 89.3147Z" fill="#333333"/>
</svg>
