<svg width="427" height="96" viewBox="0 0 427 96" fill="none" xmlns="http://www.w3.org/2000/svg">
<path d="M239.766 14.4365C241.352 14.58 242.138 15.2879 243.29 16.3052C243.507 17.5761 243.82 19.1275 243.377 20.3389C243.104 20.309 242.861 20.1434 242.616 20.0067C242.171 19.1674 242.215 17.8494 242.173 16.856C240.769 16.1653 239.665 16.085 239.766 14.4365Z" fill="#333333"/>
<path d="M196.632 31.6631C198.621 32.755 194.684 35.6141 193.704 36.5267C193.039 36.0053 193.132 36.2377 192.983 35.5253C193.545 34.3179 195.572 32.6321 196.632 31.6631Z" fill="#333333"/>
<path d="M184.865 43.332L185.364 43.419C185.511 43.566 185.774 43.7631 185.763 43.9131C185.688 44.9752 183.066 47.135 182.245 47.8977C181.825 47.8285 181.748 47.6918 181.456 47.3706C181.561 46.1585 183.88 44.2735 184.865 43.332Z" fill="#333333"/>
<path d="M239.766 45.2344C240.438 45.3508 240.207 45.2267 240.668 45.6715C240.524 46.9321 238.221 48.7516 237.193 49.7119C236.759 49.5738 236.705 49.4992 236.381 49.174C236.553 47.7917 238.644 46.2505 239.766 45.2344Z" fill="#333333"/>
<path d="M179.308 48.9492C181.288 50.1897 177.402 52.8044 176.31 53.7706C175.676 53.2471 175.748 53.4711 175.664 52.7955C176.198 51.7279 178.337 49.8601 179.308 48.9492Z" fill="#333333"/>
<path d="M234.141 50.7754C234.507 50.8857 234.626 51.053 234.899 51.3194C234.792 52.7092 232.611 54.3668 231.493 55.412C230.81 55.0467 230.901 55.2317 230.679 54.6348C230.983 53.5711 233.236 51.6287 234.141 50.7754Z" fill="#333333"/>
<path d="M202.326 26.0938C202.571 26.233 202.769 26.4915 202.961 26.7075C202.776 28.1211 200.639 29.7343 199.501 30.778L198.843 30.2459L198.794 29.7084C199.408 28.5832 201.288 27.042 202.326 26.0938Z" fill="#333333"/>
<path d="M190.767 37.5352C193.058 38.2678 188.586 41.5805 187.834 42.2481C187.258 41.7162 187.296 41.9136 187.2 41.2653C187.858 40.0355 189.666 38.5468 190.767 37.5352Z" fill="#333333"/>
<path d="M213.78 14.6328C215.968 15.3233 211.66 18.7045 210.934 19.3935L210.304 18.9228L210.234 18.4012C210.857 17.2179 212.73 15.6228 213.78 14.6328Z" fill="#333333"/>
<path d="M207.901 20.4854C208.328 20.5318 208.401 20.6367 208.718 20.936C208.634 22.26 206.278 24.1021 205.198 25.1157C204.505 24.6883 204.638 24.9127 204.449 24.2367C204.915 23.181 206.964 21.3851 207.901 20.4854Z" fill="#333333"/>
<path d="M228.603 56.3936C229.161 56.8503 229.023 56.6254 229.263 57.2986C228.925 58.4118 226.823 60.1748 225.888 61.0374C225.451 60.9327 225.4 60.8576 225.085 60.5296C225.232 59.1867 227.511 57.4113 228.603 56.3936Z" fill="#333333"/>
<path d="M222.773 62.2539C223.426 62.4405 223.251 62.2887 223.587 62.8044C223.527 63.8924 220.94 66.0046 220.058 66.811C219.496 66.3025 219.538 66.4914 219.4 65.8534C219.971 64.633 221.709 63.228 222.773 62.2539Z" fill="#333333"/>
<path d="M217.3 67.8242C217.517 67.9035 217.751 68.152 217.93 68.3185C217.779 69.7076 215.565 71.4179 214.45 72.459C214.149 72.2861 213.99 72.0851 213.755 71.8352C213.988 70.409 216.132 68.855 217.3 67.8242Z" fill="#333333"/>
<path d="M211.604 73.4219C213.815 74.1826 209.688 77.2815 208.879 78.0342C207.904 77.4518 208.048 76.9505 208.76 76.1653C209.63 75.2047 210.649 74.3057 211.604 73.4219Z" fill="#333333"/>
<path d="M184.247 72.2227C185.896 72.5082 188.394 74.8639 188.273 76.6682C186.864 76.5318 185.112 74.441 184.303 73.3104C184.144 73.0871 184.235 72.5315 184.247 72.2227Z" fill="#333333"/>
<path d="M206.035 79.0322C206.637 79.4768 206.509 79.2513 206.679 79.9207C206.276 80.9534 204.16 82.7691 203.248 83.6185C203.021 83.4888 202.755 83.2177 202.557 83.0337C202.776 81.5975 204.871 80.0686 206.035 79.0322Z" fill="#333333"/>
<path d="M243.563 38.585C246.272 39.059 243.948 42.6459 243.055 43.8246L242.481 43.6289C241.907 42.9004 243.444 40.1707 243.563 38.585Z" fill="#333333"/>
<path d="M243.293 30.4844C244.791 31.2437 244.77 35.1231 244.238 36.355L243.528 36.1024C242.791 35.2295 242.721 31.5056 243.293 30.4844Z" fill="#333333"/>
<path d="M195.999 83.3311C197.565 83.9956 200.194 84.4029 200.728 84.9511L200.672 85.8109C199.03 86.0062 196.356 85.6698 195.705 83.9287L195.999 83.3311Z" fill="#333333"/>
<path d="M189.85 77.8291C190.837 77.9054 191.413 78.3509 192.087 79.0561C193.125 80.1461 194.054 80.7295 193.846 82.2644C192.652 82.1165 190.685 79.7953 189.953 78.7955C189.787 78.5721 189.85 78.1309 189.85 77.8291Z" fill="#333333"/>
<path d="M178.475 66.9625C180.215 66.7378 182.572 69.4232 182.597 71.0959C181.218 70.9275 178.582 68.3861 178.475 66.9625Z" fill="#333333"/>
<path d="M216.078 12.8837C217.14 12.7888 220.317 12.5737 221.185 13.2147C221.57 13.4996 221.49 13.7571 221.553 14.2658C220.284 14.2873 217.557 14.4886 216.461 13.8852C216.106 13.6908 216.153 13.3323 216.078 12.8837Z" fill="#333333"/>
<path d="M242.917 22.6064C244.413 23.2664 244.242 27.4546 243.584 28.4395C243.377 28.3075 243.095 28.0644 242.894 27.9044C242.535 26.7112 242.129 23.5586 242.917 22.6064Z" fill="#333333"/>
<path d="M172.797 61.5024C174.413 61.4611 176.786 64.073 176.996 65.7416C175.533 65.6606 172.895 63.003 172.797 61.5024Z" fill="#333333"/>
<path d="M223.991 13.3468C225.136 13.2695 228.237 13.1685 229.212 13.7932C229.503 13.9812 229.48 14.3344 229.562 14.7466C228.246 14.7622 225.54 14.9535 224.397 14.3304C224.054 14.1436 224.08 13.7825 223.991 13.3468Z" fill="#333333"/>
<path d="M173.534 54.748L173.998 55.0189C174.637 56.2176 172.75 57.3373 172.265 59.7022L171.738 59.4803C170.543 57.9566 172.452 55.8311 173.534 54.748Z" fill="#333333"/>
<path fill-rule="evenodd" clip-rule="evenodd" d="M248.561 0.108426C257.279 -0.998709 263.267 6.56122 258.216 14.1826C256.079 17.4095 252.858 18.9079 249.613 20.7432C249.713 26.8657 250.035 32.9308 250.229 39.0401C250.353 42.9991 249.571 44.0909 246.821 46.8223C237.308 56.2697 227.808 65.7429 218.33 75.2246L209.168 84.377C205.973 87.5536 203.6 90.7949 198.668 90.6953C193.462 90.5899 189.654 85.4813 186.185 82.0635C180.526 76.1548 174.342 70.6106 168.699 64.668C166.035 61.8649 164.929 57.5197 167.382 54.2354C168.787 52.3544 171.442 49.9766 173.145 48.2744L184.233 37.2178L201.689 19.7774C204.857 16.6068 207.948 13.2476 211.293 10.2735C212.196 9.47058 213.004 8.75438 214.184 8.41311C218.194 7.25589 231.727 8.7393 236.556 9.02249C237.009 8.09114 237.536 7.19753 238.133 6.35061C240.69 2.71565 244.271 0.872162 248.561 0.108426ZM216.319 10.0938C215.148 10.4513 214.168 10.8131 213.23 11.6192C209.674 14.6702 169.676 54.6636 168.911 56.1055C168.3 57.262 168.178 59.045 168.568 60.2764C168.853 61.1749 169.373 61.9613 169.984 62.669C172.752 65.8654 193.756 86.8286 195.673 87.7754C197.309 88.5836 199.012 88.7399 200.743 88.1465C204.389 86.8962 215.395 74.9407 218.787 71.501L238.515 51.7852C241.394 48.9251 244.798 45.9764 247.29 42.794C248.027 41.854 247.987 40.1553 248.015 39.0186C247.812 31.7252 247.394 24.4254 247.128 17.1348C247.082 15.8052 246.953 13.6574 245.911 12.753C244.166 11.2414 239.981 11.5352 237.707 11.4795C237.273 14.0393 237.466 15.0174 236.82 17.7598C238.261 19.2141 239.775 21.4089 239.511 23.4307C237.885 35.8966 219.242 29.1695 226.996 18.4854C228.852 15.9284 234.048 16.8436 235.093 15.9698L235.038 15.6065C233.489 14.7353 232.529 15.4627 231.914 14.3867C232.686 13.4274 234.416 14.0857 235.13 13.6416C235.319 13.5239 235.569 11.747 235.641 11.2901L222.755 10.4385C221.167 10.3389 217.763 10.0383 216.319 10.0938ZM234.442 19.0313C233.798 18.4665 232.251 18.449 231.43 18.502L231.363 18.5069C229.788 19.1101 228.512 19.8171 227.777 21.4649C227.299 22.5564 227.295 23.7975 227.768 24.8916C228.312 26.1571 229.338 27.1547 230.617 27.6651C231.135 27.8694 231.732 28.024 232.273 28.1563C234.307 27.6676 235.443 27.3617 236.701 25.5391C236.953 24.822 237.265 24.0039 237.482 23.2852C237.134 22.2947 236.833 21.3432 236.336 20.417C235.581 21.7974 234.999 22.9849 233.542 23.7061C232.718 23.7457 232.347 23.6314 231.981 22.8233C232.179 20.7666 234.745 20.7532 234.442 19.0313ZM253.408 15.9951C260.933 10.1133 258.519 1.44349 248.325 2.43557C243.689 3.47174 241.625 5.11672 239.14 9.02835L239.036 9.19534C246.979 9.7092 249.228 9.3356 249.375 18.1397C250.203 18.0023 252.693 16.5538 253.408 15.9951Z" fill="#333333"/>
<path d="M0.0169678 14.9985C38.517 14.4957 85.0667 6.25037 116.517 14.9978C138.648 21.3915 158.472 41.4241 172.342 39.6014C175.9 39.0676 183.117 38.1 183.517 38.5" stroke="#333333" stroke-width="2.6" stroke-miterlimit="1.88708"/>
<path d="M426.017 89.4989L408.517 90.7192C408.517 90.7192 323.467 99.4673 292.017 90.7198C269.885 84.3262 269.887 65.395 256.017 67.2177C252.517 66.4778 241.517 69.498 245.517 59.498C249.517 49.498 258.517 34.998 249.517 37.998" stroke="#333333" stroke-width="2.6" stroke-miterlimit="1.88708"/>
</svg>
