<svg width="666" height="168" viewBox="0 0 666 168" fill="none" xmlns="http://www.w3.org/2000/svg">
<path fill-rule="evenodd" clip-rule="evenodd" d="M33.9215 53.4531C24.7756 54.5008 6.555 62.2541 2.84912e-05 69.0044C2.72512 76.3165 6.46613 84.561 9.4457 91.9282C54.1169 56.9278 116.84 91.1257 159.608 111.115C233.552 145.678 313.352 162.395 391.286 123.392C396.786 128.801 402.172 133.705 408.537 138.197C476.659 186.275 601.425 170.766 665.476 120.135C662.308 112.836 658.803 103.603 655.992 96.1333C638.535 109.298 621.363 118.371 600.794 126.005C576.267 134.915 550.502 140.001 524.459 141.07C485.821 142.687 443.382 134.27 414.573 108.181C440.261 87.38 463.182 52.3537 448.717 19.0231C440.577 0.266382 418.667 -4.59646 400.528 4.33116C385.578 11.6898 374.812 24.9215 369.508 40.3406C361.774 62.3356 365.142 82.0142 375.123 102.398C371.138 104.566 365.777 106.53 361.499 108.118C345.347 114.114 329.757 117.395 312.608 118.758C273.849 121.837 238.261 113.878 202.58 100.379C188.464 94.9729 174.56 89.0731 160.894 82.6909C120.947 64.4514 79.6791 44.4982 33.9215 53.4531ZM394.901 46.8927C398.722 36.3953 406.12 27.6175 417.731 25.4553C421.849 25.3456 423.055 27.6913 424.268 31.0507C431.844 52.0289 415.261 73.3121 400.228 86.4251L397.988 88.1422C391.526 75.1446 389.85 60.7702 394.901 46.8927Z" fill="white"/>
</svg>
