<svg width="390" height="245" viewBox="0 0 390 245" fill="none" xmlns="http://www.w3.org/2000/svg">
<path fill-rule="evenodd" clip-rule="evenodd" d="M664.227 160.215C707.362 153.877 754.16 139.701 792.455 119.214C825.126 101.737 873.872 67.9285 870.107 28.7149C869.46 21.9606 865.219 14.6895 859.431 10.7709C859.046 10.5138 858.651 10.2729 858.245 10.0483C856.379 9.06859 852.747 6.72162 850.615 7.67164C850.713 9.67224 854.899 13.4268 856.659 15.6096C875.012 41.8762 833.023 77.0467 810.489 90.2064C732.434 135.789 633.043 151.324 545.083 137.414C535.746 135.937 495.711 126.02 490.819 119.616C492.26 117.048 501.853 108.056 504.665 104.689C523.444 82.1992 536.594 54.6305 526.867 26.805C519.02 4.37205 495.561 -5.09799 471.432 2.68379C453.967 8.3164 440.934 20.3564 432.49 35.5976C421.989 54.8704 421.904 75.0406 429.069 94.5421C431.948 102.374 435.814 108.734 441.056 115.309C442.869 117.591 446.707 121.193 447.678 123.445C446.417 125.238 438.756 129.171 436.526 130.445C371.024 167.899 290.108 178.933 216.543 171.735C108.048 161.12 3.66696 123.818 -106.215 162.142C-146.813 176.307 -177.084 192.701 -205.863 224.656C-203.001 229.156 -195.496 241.482 -192.552 244.713C-191.185 244.245 -188.759 240.901 -187.807 239.702C-183.741 234.481 -179.209 229.583 -174.264 225.064C-143.205 196.569 -101.605 180.075 -60.0378 172.653C4.27851 161.169 69.0866 172.077 131.391 183.731C236.877 203.461 350.411 205.304 447.924 149.555C454.42 145.841 461.79 141.909 467.502 137.102C472.506 140.596 485.955 146.617 492 148.886C544.57 168.317 608.005 168.476 664.227 160.215ZM470.954 105.885C450.392 87.603 444.382 54.4429 466.347 32.9889C472.43 27.048 477.376 24.554 486.052 24.066C490.926 25.1178 494.035 26.5488 496.638 30.7098C511.956 55.171 490.492 87.8751 470.954 105.885Z" fill="#4E9C5A"/>
</svg>
