<svg width="1920" height="2526" viewBox="0 0 1920 2526" fill="none" xmlns="http://www.w3.org/2000/svg">
<path d="M734.309 2425.67C703.011 2455.16 620.427 2496.85 576.578 2499.91C558.685 2468.15 540.527 2429.95 523.204 2397.12C782.755 2343.1 849.664 2016.14 907.168 1803.23C1006.58 1435.11 1187.35 1099.86 1561.42 939.152C1558.68 903.222 1557.4 869.217 1560.54 832.961C1594.16 444.899 2025.47 46.2217 2399.21 -29.8818C2415.73 3.42094 2438.13 43.757 2456.32 76.2955C2356.72 98.9508 2272.6 132.918 2183.36 183.342C2077.65 244.059 1981.86 320.717 1899.57 410.468C1777.38 543.532 1679.55 720.4 1685.89 901.858C1837.55 872.826 2031.65 896.534 2107.06 1048.6C2149.49 1134.18 2100.83 1227.05 2014.3 1264.91C1942.99 1296.11 1863.31 1294.67 1792.29 1267.15C1690.46 1228.48 1630.35 1157.17 1587.66 1060.12C1567.91 1067.81 1544.75 1081.03 1526.19 1091.51C1456.12 1131.11 1397.43 1176.88 1340.89 1234C1213.11 1363.09 1134.3 1514.11 1074.97 1682.17C1051.74 1748.85 1030.91 1816.27 1012.51 1884.29C957.264 2081.85 904.152 2289.3 734.309 2425.67ZM1845.41 1156.75C1894.4 1174.74 1948.02 1174.78 1990.73 1139.85C2003.53 1125.47 1998.79 1114.1 1990.45 1099.65C1938.39 1009.39 1812.44 1004.46 1720.33 1018.62L1707.45 1021.44C1734.38 1083.68 1780.65 1132.97 1845.41 1156.75Z" fill="#4E9C5A"/>
</svg>
