<svg width="608" height="1353" viewBox="0 0 608 1353" fill="none" xmlns="http://www.w3.org/2000/svg">
<g filter="url(#filter0_i_901_15992)">
<path d="M797.264 293.335C799.15 300.823 800.178 321.491 800.07 329.407C799.167 395.319 766.567 460.921 719.142 506.03C643.512 577.966 554.889 602.456 453.161 601.084C450.85 651.188 454.726 701.383 464.7 750.535C502.903 940.757 609.513 1099.8 753.437 1227.08C787.977 1258.07 824.577 1286.68 862.987 1312.72C835.323 1328.25 791.045 1344.77 760.031 1352.8L751.135 1347.23C590.946 1244.53 467.681 1093.45 399.248 915.927C384.905 879.368 373.228 841.822 364.305 803.576C347.445 737.987 339.447 649.598 344.907 582.216C262.399 560.935 176.491 501.931 122.032 436.994C40.6836 340.009 2.13266 221.335 0.0751261 95.6342C-0.475127 61.8113 2.08936 38.5782 4.79236 5.46634C28.6311 0.684679 73.1133 -1.0138 96.4814 0.584064C86.4432 192.786 166.183 405.325 363.06 471.058C364.212 466.079 365.602 461.129 367.049 456.213C404.128 331.461 490.171 210.335 625.721 185.962C708.889 171.008 781.972 205.278 797.264 293.335ZM690.717 339.554C691.74 331.748 691.287 320.39 689.625 312.467C688.059 306.502 686.95 301.766 680.936 298.548C667.687 291.459 638.385 296.584 624.634 300.606C570.026 316.579 527.949 361.885 501.426 410.55C488.924 433.49 481.863 453.248 473.55 477.628L469.769 490.12C498.952 489.498 524.409 486.761 552.73 478.216C616.908 458.851 681.472 410.105 690.717 339.554Z" fill="#4E9C5A"/>
</g>
<defs>
<filter id="filter0_i_901_15992" x="0" y="0" width="862.987" height="1356.8" filterUnits="userSpaceOnUse" color-interpolation-filters="sRGB">
<feFlood flood-opacity="0" result="BackgroundImageFix"/>
<feBlend mode="normal" in="SourceGraphic" in2="BackgroundImageFix" result="shape"/>
<feColorMatrix in="SourceAlpha" type="matrix" values="0 0 0 0 0 0 0 0 0 0 0 0 0 0 0 0 0 0 127 0" result="hardAlpha"/>
<feOffset dy="4"/>
<feGaussianBlur stdDeviation="58.7"/>
<feComposite in2="hardAlpha" operator="arithmetic" k2="-1" k3="1"/>
<feColorMatrix type="matrix" values="0 0 0 0 0 0 0 0 0 0 0 0 0 0 0 0 0 0 0.14 0"/>
<feBlend mode="normal" in2="shape" result="effect1_innerShadow_901_15992"/>
</filter>
</defs>
</svg>
