<svg width="130" height="97" viewBox="0 0 130 97" fill="none" xmlns="http://www.w3.org/2000/svg">
<path d="M61.9805 0.042001C65.5174 -0.211992 72.2335 0.727098 75.7452 1.75099C82.7283 3.93074 89.6637 8.29876 93.3223 14.8721C95.6801 19.1086 96.1691 24.3461 94.9952 29.0274C93.4372 35.2404 88.8408 40.0229 83.6055 43.3584C82.4613 44.0875 81.235 44.5493 80.0684 45.2188C80.1721 45.9283 80.4 47.356 80.6846 47.9873C81.2891 49.345 82.6649 50.7076 82.9483 52.168C83.266 53.8063 80.842 53.1223 80.0401 53.0264C76.4808 52.6006 73.8803 50.2558 71.2374 48.0459C69.0225 48.356 66.7906 48.5253 64.5548 48.5508C62.6297 48.5768 57.8405 48.5334 56.0557 47.9863C55.2315 48.5448 54.3593 49.4081 53.5655 50.0606C51.4897 51.7553 48.9983 52.8511 46.3565 53.2305C45.678 53.3309 44.8088 53.4922 44.2432 53.0645C43.4252 51.8463 45.6489 49.9015 46.1114 48.8301C46.6306 47.6273 46.8351 46.5604 47.0059 45.2822C45.9332 44.6872 44.7091 44.2311 43.6915 43.624C37.251 39.7818 31.7773 33.5719 31.2218 25.7627C30.8561 20.5026 32.5963 15.3147 36.0509 11.3633C42.2238 4.17537 51.2158 0.741447 60.4317 0.154306C60.9474 0.121408 61.4648 0.0783379 61.9805 0.042001ZM64.8057 2.20899C63.9615 2.17943 62.5107 2.16445 61.6827 2.2295C53.1787 2.73727 43.8301 6.00264 38.0528 12.3574C28.3153 23.0688 34.5669 36.8661 46.294 42.3496C46.9824 42.6715 48.1057 43.1979 48.7218 43.6963C49.8667 45.1219 48.2179 49.2872 47.71 50.5566C50.3577 49.6243 53.4864 48.1075 54.921 45.5342C58.7819 45.945 61.8349 46.3249 65.7384 46.1338C66.9015 46.076 68.0623 45.971 69.2169 45.8184C73.0191 45.3156 71.34 44.9693 74.0059 47.585C75.1032 48.6615 78.1633 50.0684 79.6016 50.7559C78.3107 48.1505 78.1177 46.8808 78.0089 43.9981L78.0977 43.9141C79.0299 43.0484 81.372 42.1728 82.5499 41.3447C83.8035 40.4634 85.2088 39.6129 86.3751 38.5791C90.2977 35.1025 93.3476 30.15 93.6651 24.792C93.9248 20.4093 91.6026 15.4973 88.7774 12.2744C88.1736 11.5858 87.0362 10.6239 86.3331 10.0332C80.438 5.08092 72.4019 2.47517 64.8057 2.20899Z" fill="#333333"/>
<path d="M63.4052 13.6836C63.9798 13.6959 64.5515 13.7716 65.1098 13.9095C65.8669 14.0975 66.4047 14.3636 67.0925 14.6432C72.4305 16.8132 74.0457 24.2858 70.9853 28.9688C69.7641 30.8376 68.6384 31.829 68.0323 34.155C67.4635 34.1999 66.8006 34.1451 66.2234 34.1146C66.5947 33.0463 66.8956 31.9081 67.4438 30.9004C68.3281 29.3195 69.4547 28.1254 70.1523 26.4232C72.3053 21.1707 67.578 14.3882 61.7856 15.9562C59.278 16.6351 58.0994 18.1443 56.7996 20.3303C56.548 20.8132 56.4048 21.475 56.331 21.9824C55.7223 26.1694 57.622 27.7575 59.6635 30.8873C60.0298 31.4488 60.2556 32.7937 60.7409 33.4763C61.096 33.6674 60.9415 33.6354 61.3265 33.6178C62.4595 32.6817 59.8293 27.8786 60.3253 26.6404C60.4465 26.3382 61.2189 26.1217 61.5369 26.0147C62.4191 28.1617 62.9897 31.717 63.1083 34.0436C62.272 34.0422 59.6477 34.3006 59.0022 34.0429C58.7105 33.9266 58.1802 32.0177 57.9452 31.618C57.6078 31.106 57.187 30.4683 56.795 30.0085C53.6773 26.352 53.5102 20.7686 56.602 17.0189C58.1041 15.1972 61.0171 13.9153 63.4052 13.6836Z" fill="#333333"/>
<path d="M59.1656 37.414C60.5254 37.3895 66.5859 37.2679 67.55 37.5697C68.0328 37.9754 67.9658 38.503 67.6517 39.0122L67.5505 39.0362C66.8917 39.1979 65.7531 39.1534 65.0425 39.1461C63.3535 39.1134 61.6554 39.2577 59.9704 39.2014C58.9571 39.1674 59.0712 38.123 59.1656 37.414Z" fill="#333333"/>
<path d="M60.4058 34.7212C62.6764 34.8024 65.3743 34.5215 67.6257 34.8749C68.088 34.9474 68.019 35.8812 67.8287 36.249C67.5008 36.4628 67.2219 36.4285 66.8235 36.4425C65.6853 36.4328 60.0232 36.6013 59.2732 36.3821C58.8818 35.9771 58.8564 35.4013 59.1783 34.9438C59.5178 34.6998 59.9646 34.7413 60.4058 34.7212Z" fill="#333333"/>
<path d="M66.0385 25.9629C66.4072 26.1029 66.9948 26.5169 66.994 26.8142C66.9918 27.606 65.7208 33.7486 65.5709 34.0095L65.2762 34.0214L64.0491 33.9309C64.2954 32.2476 65.1063 27.0782 66.0385 25.9629Z" fill="#333333"/>
<path d="M61.2839 39.6777C62.5711 39.9468 63.5944 39.938 64.8877 39.7692C65.4905 39.6904 66.3639 39.5873 66.602 40.2672C66.5165 40.8563 66.0812 41.2221 65.6678 41.6135C64.9461 42.1306 64.5868 42.3093 63.677 42.3644C62.5324 42.4336 60.6672 41.5046 60.6892 40.1993C60.8963 39.8069 60.8434 39.9189 61.2839 39.6777Z" fill="#333333"/>
<path d="M49.4934 17.3594C50.609 17.6777 55.0357 18.8703 52.7933 20.5621C51.2098 20.1672 47.3023 19.6765 49.4934 17.3594Z" fill="#333333"/>
<path d="M77.1367 17.5898C78.3807 17.9405 78.4372 19.2215 77.2278 19.7426C76.3194 20.134 75.4374 20.3348 74.4879 20.5856C73.8551 20.4657 73.2686 19.9765 73.6 19.401C74.0599 18.6029 76.3683 17.8948 77.1367 17.5898Z" fill="#333333"/>
<path d="M54.849 10.4746C55.9964 10.4964 57.744 12.9834 57.7166 14.0414C57.5882 14.421 57.4559 14.4756 57.1378 14.7198C55.8536 14.7037 54.5992 12.4263 54.1594 11.3618C54.368 11.0571 54.6164 10.763 54.849 10.4746Z" fill="#333333"/>
<path d="M71.8719 10.5938C72.5707 10.6197 72.7807 10.925 73.2761 11.4135C72.8897 12.0846 71.398 14.1801 70.8832 14.7355C70.4465 14.827 70.3059 14.8248 69.8964 14.6681C68.9504 13.6343 71.1144 11.3158 71.8719 10.5938Z" fill="#333333"/>
<path d="M63.0851 7.26758C65.1332 7.31184 64.4864 9.42366 64.5647 10.8777C64.5912 11.3716 64.5166 11.7322 64.175 12.1021C63.838 12.2082 63.7861 12.2433 63.444 12.217C62.4273 11.6818 62.6436 8.1388 63.0851 7.26758Z" fill="#333333"/>
<path d="M110.585 36.3906C126.86 36.0233 133.728 53.0883 126.56 66.3082C124.714 69.713 121.813 72.2089 122.189 76.4735C122.243 77.0739 122.306 77.8948 122.46 78.4753C123.65 82.9604 126.213 87.0499 128.206 91.2029C128.423 91.6559 128.562 92.7431 128.335 93.2159C126.413 93.8481 121.623 82.8115 120.999 81.2504C119.503 77.5043 119.708 72.1015 122.322 68.8045C134.409 53.5577 123.214 33.3675 103.688 40.0139C100.529 41.0891 96.6628 44.0011 95.2937 47.1157C93.9409 49.9893 93.5013 52.0986 93.2158 55.3372C93.1157 56.4731 93.3365 58.484 92.9594 59.492C91.8567 62.4399 89.682 63.4249 88.268 66.4486C89.4661 67.6177 90.4954 67.5928 92.084 68.1065C92.1377 69.4397 91.9651 70.9768 92.1006 72.2279C92.3171 73.1354 92.7179 73.8536 92.8179 74.7986C93.068 77.1615 91.7805 78.8984 94.074 80.383C96.3693 80.5111 99.6652 79.7071 102.111 79.3169C105.474 78.7808 106.28 79.8415 105.185 83.1916C105.003 83.7477 104.582 84.4798 104.28 85.0088C102.259 88.5422 99.8744 91.8528 97.3664 95.0456C96.9379 95.5913 95.5202 96.8618 94.8698 96.1953C94.599 94.6582 97.6282 91.2915 98.4906 89.9033C99.7847 87.8226 101.536 85.9075 102.56 83.6279C102.858 82.9635 103.23 82.2512 103.55 81.5879C100.402 81.8242 96.6558 82.8156 93.607 82.4793C90.0611 82.0867 91.0722 77.6434 90.8024 75.6026C90.4579 72.9956 89.5948 72.8185 90.1407 69.8923C88.521 69.2963 86.3674 68.7465 86.3157 66.6358C86.2413 63.5986 89.8424 61.9082 90.7866 59.1413C91.2579 57.7602 91.0317 56.4139 91.1283 54.9842C91.3554 50.3887 92.8946 45.8234 96.003 42.3996C99.5725 38.4682 105.456 36.6572 110.585 36.3906Z" fill="#333333"/>
<path d="M16.5151 36.4863C20.1612 36.1001 23.4405 36.954 26.8256 38.1976C31.3724 39.8681 34.7497 42.9741 36.5955 47.5224C37.5317 49.829 37.9086 51.6193 37.9709 54.1258C38.0833 55.4103 37.7543 57.5831 38.2227 58.7381C39.7321 62.4593 43.5679 63.063 42.7938 67.615C41.8022 68.8285 40.7557 69.5084 39.2391 69.8526C40.0806 73.0591 39.1109 72.7081 38.4815 75.6332C38.3305 76.7279 38.4842 77.826 38.4018 78.9325C38.0775 83.2855 34.4514 82.5993 31.3819 82.2723C29.5318 82.0577 27.6784 81.8713 25.8227 81.713C27.3479 85.1892 29.5989 87.9093 31.7542 90.9918C32.2709 91.7311 35.4154 95.4343 34.3898 96.1976C33.9371 96.2341 33.4556 96.057 33.0102 95.931C30.657 92.9839 24.951 85.9671 24.008 82.745C23.7441 81.8432 23.6324 80.5811 24.1377 79.7375C24.3432 79.3949 24.6877 79.2843 25.0633 79.2445C25.9072 79.1551 26.8034 79.3629 27.6376 79.4927C29.5399 79.7886 33.557 80.6206 35.2607 80.2374C37.2458 79.7896 36.2367 76.2305 36.4914 74.744C36.6686 73.7099 37.154 72.8711 37.7038 72.0019C37.5577 71.2484 37.1267 69.2929 37.2996 68.6469C37.6299 67.4129 40.1168 67.87 40.8791 66.5953C41.17 65.2833 38.5762 62.9677 37.6477 61.852C35.3491 59.0902 36.3286 57.2968 36.0395 54.0147C35.857 51.9429 35.4311 50.5153 34.6629 48.6027C33.351 45.1869 31.6479 43.3902 28.6 41.4355C24.5759 38.8964 17.756 38.0772 13.2255 39.4077C2.2071 42.6435 -1.03675 56.6763 4.97978 65.8052C7.5617 69.7228 9.51211 71.788 9.254 76.771C9.04813 80.7445 7.6601 83.6 5.81026 87.0345C5.25303 88.0561 2.35028 94.2159 1.00679 93.3015C0.319491 92.0717 2.38657 88.7996 3.01802 87.627C4.78421 84.3477 6.70103 81.1726 7.22487 77.4291C7.90358 72.5804 4.75412 69.8095 2.5201 65.9672C-1.29923 59.0315 -0.832041 48.8817 4.29628 42.7246C7.43507 38.9563 11.7541 36.9868 16.5151 36.4863Z" fill="#333333"/>
</svg>
