<svg width="1920" height="2141" viewBox="0 0 1920 2141" fill="none" xmlns="http://www.w3.org/2000/svg">
<path d="M178.25 2081.09C138.566 2097.67 46.5897 2107.58 4.47497 2094.99C-1.07726 2058.96 -4.60834 2016.81 -9.24867 1979.98C252.686 2020.9 430.525 1738.49 559.373 1559.5C782.137 1250.04 1069.45 999.991 1476.16 981.42C1486.26 946.831 1497.04 914.556 1512.76 881.733C1680.98 530.416 2225.11 309.31 2601.7 369.799C2605.42 406.785 2612.17 452.427 2617.73 489.291C2516.53 475.393 2425.83 477.534 2324.56 493.277C2204.23 512.846 2087.57 550.828 1978.93 605.822C1817.68 687.288 1663.81 818.336 1605.78 990.383C1757.95 1016.66 1931.24 1107.25 1948.22 1276.14C1957.77 1371.18 1879.51 1440.94 1785.19 1445.88C1707.45 1449.94 1633.4 1420.52 1576.63 1369.73C1494.96 1297.67 1463.84 1209.74 1458.09 1103.87C1436.9 1104.11 1410.56 1108.32 1389.5 1111.6C1309.96 1123.96 1238.91 1146.11 1165.87 1179.64C1000.8 1255.41 873.815 1368.98 759.075 1505.34C713.83 1559.56 670.58 1615.31 629.394 1672.49C508.066 1837.91 385.255 2013.33 178.25 2081.09ZM1665.25 1285.14C1704.75 1319.24 1754.92 1338.18 1807.2 1320.53C1824.24 1311.59 1823.82 1299.28 1821.11 1282.82C1804.19 1180 1688.06 1131.01 1596.87 1111.79L1583.82 1109.9C1587.09 1177.63 1613.02 1240.06 1665.25 1285.14Z" fill="#4E9C5A"/>
</svg>
