<svg width="28" height="28" viewBox="0 0 28 28" fill="none" xmlns="http://www.w3.org/2000/svg">
<path d="M13.75 0C21.3441 0 27.5 6.15588 27.5 13.75C27.5 21.3441 21.3441 27.5 13.75 27.5C11.3201 27.5042 8.93282 26.8611 6.83377 25.6369L0.00552125 27.5L1.86452 20.669C0.639339 18.5693 -0.00423724 16.181 2.09944e-05 13.75C2.09944e-05 6.15588 6.1559 0 13.75 0ZM9.06402 7.2875L8.78902 7.2985C8.61122 7.31075 8.4375 7.35745 8.27752 7.436C8.12844 7.52058 7.99229 7.62616 7.87327 7.7495C7.70827 7.90488 7.61477 8.03963 7.5144 8.17025C7.00581 8.83149 6.73198 9.64331 6.73615 10.4775C6.7389 11.1512 6.9149 11.8071 7.1899 12.4204C7.75227 13.6606 8.67765 14.9737 9.89865 16.1906C10.1929 16.4835 10.4816 16.7778 10.7924 17.0514C12.3096 18.3871 14.1175 19.3503 16.0724 19.8646L16.8534 19.9843C17.1078 19.998 17.3621 19.9788 17.6179 19.9664C18.0183 19.9453 18.4092 19.8369 18.7633 19.6488C18.9432 19.5557 19.1189 19.4548 19.2899 19.3462C19.2899 19.3462 19.3481 19.3068 19.4618 19.2225C19.6474 19.085 19.7615 18.9874 19.9155 18.8265C20.031 18.7073 20.1273 18.5689 20.2043 18.4113C20.3115 18.1871 20.4188 17.7595 20.4628 17.4034C20.4958 17.1311 20.4861 16.9826 20.482 16.8905C20.4765 16.7434 20.3541 16.5907 20.2208 16.5261L19.4205 16.1672C19.4205 16.1672 18.2243 15.6461 17.4928 15.3134C17.4162 15.28 17.3342 15.2609 17.2508 15.257C17.1567 15.2472 17.0616 15.2577 16.9719 15.2878C16.8822 15.3179 16.8001 15.367 16.731 15.4316C16.7241 15.4289 16.632 15.5073 15.6379 16.7118C15.5808 16.7884 15.5022 16.8464 15.4121 16.8782C15.322 16.91 15.2245 16.9143 15.1319 16.8905C15.0423 16.8666 14.9545 16.8363 14.8693 16.7998C14.6988 16.7283 14.6396 16.7008 14.5228 16.6512C13.7333 16.3074 13.0026 15.842 12.3571 15.2721C12.1839 15.1209 12.023 14.9559 11.858 14.7964C11.3171 14.2783 10.8457 13.6922 10.4555 13.0529L10.3744 12.9222C10.317 12.834 10.2699 12.7394 10.2341 12.6404C10.1819 12.4382 10.318 12.276 10.318 12.276C10.318 12.276 10.6521 11.9102 10.8075 11.7122C10.9588 11.5197 11.0866 11.3328 11.1691 11.1994C11.3314 10.9381 11.3823 10.67 11.297 10.4624C10.912 9.52188 10.5142 8.58642 10.1035 7.656C10.0224 7.47175 9.78177 7.33975 9.56315 7.31362C9.4889 7.30446 9.41465 7.29712 9.3404 7.29163C9.15577 7.28104 8.97065 7.28287 8.78627 7.29713L9.06402 7.2875Z" fill="white"/>
</svg>
