<?xml version="1.0" encoding="UTF-8"?>
<svg xmlns="http://www.w3.org/2000/svg" width="134" height="52" viewBox="0 0 134 52" fill="none">
  <g clip-path="url(#clip0_901_17012)">
    <path d="M15.5235 26.2635C14.4159 29.7177 11.1667 36.4808 9.65293 33.681C8.32374 33.4992 8.54527 35.7899 9.20987 36.1535C13.8251 36.4444 17.2219 27.6452 17.665 23.5728C18.2558 27.6452 21.911 35.3172 25.4556 33.4265C25.1602 33.172 25.8986 31.6085 24.5694 31.7903C22.871 33.8628 20.1757 28.1542 19.4742 25.209C18.4035 20.7003 19.2157 17.4643 18.2188 17.2825C17.185 17.1007 16.0774 24.5182 15.5235 26.2635Z" fill="white"></path>
    <path d="M23.0187 11.7137H23.1664C26.7109 11.7865 25.751 1.75099 22.2064 2.44183C20.1019 2.8418 18.4035 9.45939 17.9973 9.09579C17.6281 8.76855 16.6312 1.24194 12.1267 2.51455C9.80064 3.16904 11.6467 9.93208 14.379 10.0412C15.302 10.9865 14.1205 11.3865 14.0836 11.7865C7.4007 8.76855 10.0222 0.442012 12.3852 0.514732C15.0066 0.587453 16.5204 2.73272 17.8127 4.5871C18.4773 3.3872 19.6588 0.29657 22.6126 0.29657C25.6033 0.29657 29.9601 9.89572 22.9449 13.5681C22.8341 13.459 21.5788 12.5864 23.0187 11.7137Z" fill="#4E9C5A"></path>
    <path d="M11.7573 21.4936L11.5727 22.2208C10.8712 25.1296 2.96988 24.5479 2.15759 20.6573C1.60376 17.9666 9.50508 17.7485 9.80046 17.1667C10.2066 16.3668 1.01301 16.185 3.44987 10.8036C4.70521 8.00389 10.3174 10.2219 10.2804 12.8762C11.1666 13.8579 11.9789 13.2398 12.385 12.8398C9.65277 6.07679 1.12378 8.7311 1.04993 11.0218C0.976088 13.6034 2.93296 15.1669 4.74214 16.5849C4.0037 17.2758 0.422257 18.0757 0.274569 20.9846C0.0899585 23.9297 9.80046 28.5839 13.6773 22.039C13.6773 21.8936 12.7173 20.1119 11.7573 21.4936Z" fill="#4E9C5A"></path>
    <path d="M25.9352 15.1318L26.046 14.3683C26.4521 11.7867 30.6982 12.3321 33.9473 15.7136C34.9811 16.8044 27.6706 17.8225 27.3013 18.077C25.8614 19.0588 33.5042 20.2223 31.9535 23.9674C31.3628 25.3855 26.046 24.3674 26.2306 22.3312C27.3383 21.204 27.486 20.4768 25.9722 21.0949C25.2706 20.1859 24.9753 22.1857 24.643 22.1494C26.4152 28.1489 34.2427 26.5854 34.5011 24.6219C34.7965 22.4039 32.1012 20.2223 30.6982 18.8769C31.8058 18.477 35.0181 18.2225 35.4242 15.75C35.8303 13.2411 28.1136 8.87783 24.2368 14.1501C24.8276 14.2228 25.0122 16.2226 25.9352 15.1318Z" fill="#4E9C5A"></path>
    <path d="M43.5477 25.0997H43.8062C43.8431 25.0997 44.1015 25.0997 44.5446 25.136C44.9877 25.1724 45.4307 25.1724 45.8369 25.1724H46.2061C47.5353 25.1724 48.3476 25.0997 48.6799 24.9542C48.9752 24.8088 49.1598 24.5543 49.1598 24.1543C49.1598 23.5725 48.9383 23.0271 48.4583 22.6272C47.9783 22.1908 47.3876 21.9727 46.6861 21.9727C45.8738 21.9727 45.1723 22.2636 44.5815 22.8453C43.9908 23.4271 43.6215 24.1907 43.5477 25.0997ZM51.4121 31.2809V31.6082C51.4121 32.4081 50.9321 33.1353 49.9352 33.8262C48.9752 34.517 47.8307 34.8443 46.5753 34.8443C44.7661 34.8443 43.3262 34.2261 42.2554 32.9535C41.1847 31.7173 40.6309 30.0083 40.6309 27.8994C40.6309 25.7542 41.1847 24.0452 42.3293 22.7726C43.4739 21.5 44.9877 20.8819 46.8707 20.8819C48.2737 20.8819 49.3814 21.2455 50.2675 21.9727C51.1536 22.6999 51.5598 23.6452 51.5598 24.7724C51.5598 25.2451 51.3013 25.536 50.7844 25.6814C50.2675 25.8269 48.7168 25.8996 46.2061 25.8996C45.4676 25.8996 44.8769 25.8996 44.4707 25.8996C44.0646 25.8996 43.6585 25.8632 43.2892 25.8632C43.2154 26.1178 43.1416 26.4086 43.1046 26.6632C43.0677 26.954 43.0677 27.2449 43.0677 27.5358C43.0677 29.2084 43.4739 30.5174 44.2492 31.4627C45.0615 32.4081 46.1322 32.9172 47.4614 32.9172C48.1999 32.9172 48.8645 32.7717 49.5291 32.4808C50.2306 32.299 50.8583 31.8627 51.4121 31.2809ZM53.9597 34.517C54.1812 34.3352 54.3659 34.008 54.4397 33.4989C54.5505 32.9899 54.5874 32.0809 54.5874 30.7355V27.8994V26.9904C54.5874 24.8451 54.5505 23.4634 54.4397 22.809C54.3659 22.1545 54.1812 21.7545 53.9597 21.5727L56.6919 21.2818C56.7289 21.5 56.7658 21.7545 56.8027 21.9363C56.8396 22.1545 56.8396 22.3726 56.8396 22.5544V22.8453C57.3935 22.2272 58.0581 21.7545 58.7965 21.4273C59.5349 21.1 60.2734 20.9182 61.0487 20.9182C61.7503 20.9182 62.3779 21.1 62.8949 21.4636C63.4118 21.8272 63.781 22.3726 64.0025 23.0271C64.6671 22.2999 65.3686 21.7545 66.0332 21.4273C66.6978 21.1 67.3993 20.9182 68.1747 20.9182C68.9131 20.9182 69.5408 21.1 70.0577 21.4636C70.5746 21.8272 70.9439 22.3363 71.1654 23.0271C71.2762 23.3544 71.35 23.8634 71.3869 24.5179C71.4238 25.1724 71.4608 26.3359 71.4608 27.9358V30.6628V31.4991C71.4608 32.5172 71.4977 33.2444 71.6085 33.6444C71.6823 34.0443 71.8669 34.3352 72.0884 34.517H69.1716C69.2085 33.5716 69.2454 32.6263 69.2824 31.5718C69.3193 30.5174 69.3193 29.0266 69.3193 27.0995V26.6995C69.3193 24.8815 69.1347 23.718 68.8024 23.2453C68.4332 22.7726 67.8424 22.5181 66.9563 22.5181C66.5132 22.5181 66.1071 22.6272 65.7009 22.809C65.3317 22.9908 64.9994 23.2453 64.704 23.6089C64.4825 23.8998 64.3348 24.3361 64.261 24.9542C64.1502 25.5723 64.1133 26.6268 64.1133 28.1539V31.39C64.1133 32.3717 64.1502 33.099 64.261 33.5716C64.3717 34.0443 64.5194 34.3716 64.741 34.5534H61.3441C61.5657 34.3716 61.7133 34.0807 61.8241 33.608C61.898 33.1717 61.9718 32.2627 61.9718 30.9537V29.8265V25.4633C61.9718 24.4088 61.7872 23.6816 61.418 23.2089C61.0487 22.7362 60.4211 22.5181 59.6088 22.5181C59.1657 22.5181 58.7596 22.6272 58.3904 22.809C58.0211 22.9908 57.6888 23.2453 57.4304 23.6089C57.2089 23.8998 57.0242 24.3361 56.9504 24.9542C56.8396 25.5723 56.8027 26.5177 56.8027 27.8631C56.8027 28.1903 56.8027 28.6993 56.8027 29.4993C56.8027 30.2992 56.8027 30.9173 56.8027 31.39C56.8027 32.3717 56.8396 33.099 56.9504 33.5716C57.0242 34.0443 57.2089 34.3716 57.4304 34.5534L53.9597 34.517ZM103.989 34.6988H103.841C103.804 34.6988 103.768 34.6988 103.731 34.6625C103.731 34.6625 103.694 34.5897 103.694 34.5534V34.4443L103.62 32.2627C103.177 33.099 102.586 33.7534 101.848 34.1898C101.146 34.6625 100.371 34.8806 99.5584 34.8806C98.7831 34.8806 98.0816 34.6988 97.4908 34.3716C96.9 34.0443 96.4201 33.5716 96.1247 32.9899C95.9032 32.5535 95.7555 32.0445 95.6816 31.4264C95.5709 30.8082 95.5339 29.7902 95.5339 28.3721V27.7903C95.5339 26.1178 95.5339 24.5179 95.5709 22.918C95.5709 22.6272 95.5709 22.4817 95.5709 22.409C95.5709 22.0817 95.5339 21.8272 95.4232 21.6818C95.3124 21.5363 95.1647 21.3909 94.9432 21.2818L96.9001 20.9909C96.937 20.9909 96.9739 20.9909 97.0108 20.9909C97.0477 20.9909 97.0847 20.9909 97.0847 20.9909C97.3431 20.9909 97.5277 21.0637 97.6016 21.1727C97.6754 21.2818 97.7123 21.5727 97.7123 22.0454L97.6385 28.9175V29.0993C97.6385 30.5537 97.86 31.5718 98.3031 32.1899C98.7462 32.8081 99.4477 33.1353 100.445 33.1353C101.552 33.1353 102.328 32.7717 102.808 32.0081C103.251 31.2446 103.509 29.8629 103.509 27.7903V24.3361C103.509 23.3544 103.472 22.6272 103.361 22.1908C103.288 21.7545 103.103 21.4636 102.881 21.3182L105.835 20.9909C105.798 21.7545 105.761 22.8453 105.724 24.2997C105.688 25.7542 105.688 27.354 105.688 29.0629V30.7355C105.688 32.0809 105.724 32.9899 105.835 33.4989C105.946 34.008 106.094 34.3716 106.352 34.5534L103.989 34.6988ZM114.881 33.8262C116.063 33.8262 116.986 33.3171 117.65 32.3354C118.315 31.3173 118.647 29.9356 118.647 28.1903C118.647 26.5177 118.315 25.1724 117.687 24.1543C117.023 23.1726 116.173 22.6635 115.066 22.6635C113.921 22.6635 113.072 23.1362 112.555 24.0452C112.038 24.9542 111.78 26.4086 111.78 28.4085C111.78 30.481 112.038 31.8991 112.481 32.6626C112.924 33.4262 113.737 33.8262 114.881 33.8262ZM109.417 34.6261C109.49 33.6807 109.564 32.5535 109.601 31.2809C109.638 30.0083 109.675 28.6266 109.675 27.2086C109.675 21.9727 109.601 18.5911 109.454 16.9913C109.306 15.4278 109.01 14.5188 108.604 14.2279L111.78 13.6825V23.5362C112.26 22.6999 112.924 22.0817 113.737 21.5727C114.549 21.1 115.435 20.8455 116.358 20.8455C117.798 20.8455 118.943 21.4273 119.792 22.6272C120.641 23.827 121.084 25.3905 121.084 27.3904C121.084 29.7174 120.53 31.4991 119.386 32.8081C118.278 34.117 116.69 34.7715 114.696 34.7715C114.18 34.7715 113.515 34.6988 112.629 34.5897C111.743 34.4443 111.115 34.4079 110.746 34.4079C110.598 34.4079 110.377 34.4079 110.155 34.4443C109.934 34.5534 109.675 34.5897 109.417 34.6261ZM125.736 25.0997H125.995C126.032 25.0997 126.29 25.0997 126.733 25.136C127.176 25.1724 127.619 25.1724 128.025 25.1724H128.395C129.724 25.1724 130.536 25.0997 130.868 24.9542C131.164 24.8088 131.348 24.5543 131.348 24.1543C131.348 23.5725 131.127 23.0271 130.647 22.6272C130.167 22.1908 129.576 21.9727 128.875 21.9727C128.062 21.9727 127.361 22.2636 126.77 22.8453C126.216 23.4271 125.847 24.1907 125.736 25.0997ZM133.637 31.2809V31.6082C133.637 32.4081 133.158 33.1353 132.161 33.8262C131.164 34.517 130.056 34.8443 128.801 34.8443C126.992 34.8443 125.552 34.2261 124.481 32.9535C123.41 31.7173 122.856 30.0083 122.856 27.8994C122.856 25.7542 123.41 24.0452 124.555 22.7726C125.699 21.5 127.213 20.8819 129.096 20.8819C130.499 20.8819 131.607 21.2455 132.493 21.9727C133.379 22.6999 133.785 23.6452 133.785 24.7724C133.785 25.2451 133.527 25.536 133.01 25.6814C132.493 25.8269 130.942 25.8996 128.431 25.8996C127.693 25.8996 127.102 25.8996 126.696 25.8996C126.29 25.8996 125.884 25.8632 125.515 25.8632C125.441 26.1178 125.367 26.4086 125.33 26.6632C125.293 26.954 125.293 27.2449 125.293 27.5358C125.293 29.2084 125.699 30.5174 126.475 31.4627C127.287 32.4081 128.358 32.9172 129.687 32.9172C130.425 32.9172 131.09 32.7717 131.754 32.4808C132.456 32.299 133.047 31.8627 133.637 31.2809Z" fill="white"></path>
    <path d="M85.048 34.153C86.6357 34.9529 88.1864 35.5711 89.7002 36.0074C91.2509 36.4437 92.6171 36.6619 93.8355 36.6619C94.0201 36.6619 94.2416 36.6619 94.4632 36.6255C94.6847 36.6255 94.9062 36.5892 95.1278 36.5528C94.6478 37.0618 94.0201 37.4618 93.2817 37.7163C92.5432 38.0072 91.7679 38.1163 90.8817 38.1163C89.4787 38.1163 87.8541 37.7891 86.1188 37.0982C84.3465 36.4074 82.5743 35.462 80.802 34.2621C78.7344 33.9712 77.1467 33.0622 76.076 31.5351C74.9683 30.0079 74.4514 27.9354 74.4514 25.3174C74.4514 22.0086 75.3006 19.4998 76.9621 17.7181C78.6236 15.9728 81.0235 15.1002 84.1619 15.1002C86.8572 15.1002 88.9249 15.8637 90.3648 17.4272C91.8048 18.9907 92.5063 21.2087 92.5063 24.1539C92.5063 26.8082 91.8417 29.0262 90.5125 30.8079C89.1833 32.6622 87.3741 33.753 85.048 34.153ZM77.5159 24.8447C77.5159 27.3173 78.1067 29.3171 79.2882 30.7715C80.4697 32.2259 82.0204 32.9531 83.9773 32.9531C85.7126 32.9531 87.1157 32.2623 88.0757 30.9169C89.0725 29.5716 89.5525 27.6809 89.5525 25.2811C89.5525 22.6995 88.9987 20.5906 87.928 18.9544C86.8572 17.3181 85.4542 16.5182 83.7927 16.5182C81.7989 16.5182 80.2482 17.2454 79.1405 18.6998C78.0698 20.1179 77.5159 22.1904 77.5159 24.8447Z" fill="white"></path>
    <path d="M8.54474 43.5339H9.57855C9.68932 43.5339 9.80008 43.5339 9.87393 43.5339C10.5385 43.5339 11.0554 43.5703 11.4985 43.8611C11.9416 44.152 12.2 44.7338 12.2 45.3883C12.2 46.7336 11.4247 47.279 9.87393 47.279H9.13549V50.3697H8.50781L8.54474 43.5339ZM9.57855 46.7336C10.797 46.7336 11.5354 46.5882 11.5354 45.4246C11.5354 44.952 11.3508 44.552 11.0554 44.2975C10.7231 44.043 10.2801 44.043 9.57855 44.043H9.13549V46.7336H9.57855Z" fill="white"></path>
    <path d="M14.9692 48.2976C14.9692 47.0613 15.9661 46.0796 17.2215 46.0796C18.5138 46.0796 19.5106 47.0613 19.5106 48.2976C19.5106 49.5702 18.4768 50.5519 17.2215 50.5519C16.0031 50.5519 14.9692 49.5702 14.9692 48.2976ZM18.9199 48.2976C18.9199 47.3159 18.1815 46.5887 17.2584 46.5887C16.3354 46.5887 15.5969 47.3159 15.5969 48.2976C15.5969 49.243 16.3354 50.0065 17.2584 50.0065C18.1815 50.0065 18.9199 49.2793 18.9199 48.2976Z" fill="white"></path>
    <path d="M22.686 46.2248H23.3137L24.4214 49.2063L25.7506 46.0066L27.0798 49.2063L28.1874 46.2248H28.8151L27.1167 50.5517L25.7875 47.352L24.4214 50.5517L22.686 46.2248Z" fill="white"></path>
    <path d="M32.4709 48.2976C32.5079 49.3884 33.0617 50.0065 33.9109 50.0065C34.5386 50.0065 34.9816 49.6793 35.3139 49.0248L35.8308 49.3157C35.3878 50.152 34.797 50.5519 33.9109 50.5519C32.6925 50.5519 31.8433 49.6429 31.8433 48.334C31.8433 46.9523 32.6925 46.0796 33.9109 46.0796C35.0555 46.0796 35.8308 46.8795 35.8308 48.1885C35.8308 48.2249 35.8308 48.2976 35.8308 48.334L32.4709 48.2976ZM33.8371 46.625C33.1725 46.625 32.6186 47.0977 32.5448 47.8249H35.1662C35.0924 47.0613 34.6124 46.625 33.8371 46.625Z" fill="white"></path>
    <path d="M41.5534 46.0796C41.701 46.0796 41.8857 46.116 42.0333 46.1523L41.8487 46.6977C41.701 46.6614 41.5534 46.625 41.4426 46.625C40.778 46.625 40.1503 47.2795 40.1503 48.334V50.3701H39.5596V46.2251H40.1503V47.0614C40.6303 46.3705 40.9626 46.0796 41.5534 46.0796Z" fill="white"></path>
    <path d="M45.5408 48.2977C45.5777 49.3885 46.1315 50.0067 46.9807 50.0067C47.6084 50.0067 48.0515 49.6794 48.3838 49.0249L48.9007 49.3158C48.4576 50.1521 47.8669 50.5521 46.9807 50.5521C45.7623 50.5521 44.9131 49.6431 44.9131 48.3341C44.9131 46.9524 45.7623 46.0797 46.9807 46.0797C48.1253 46.0797 48.9007 46.8797 48.9007 48.1886C48.9007 48.225 48.9007 48.2977 48.9007 48.3341L45.5408 48.2977ZM46.87 46.6251C46.2054 46.6251 45.6515 47.0978 45.5777 47.825H48.1992C48.1253 47.0615 47.6453 46.6251 46.87 46.6251Z" fill="white"></path>
    <path d="M55.8059 49.6066C55.5475 50.2247 55.0306 50.552 54.3291 50.552C53.1106 50.552 52.2983 49.6793 52.2983 48.334C52.2983 46.9886 53.1106 46.0796 54.2552 46.0796C54.9567 46.0796 55.4736 46.3705 55.769 46.9886V43.1344H56.3598V50.3701H55.769L55.8059 49.6066ZM54.366 50.0065C55.2152 50.0065 55.769 49.3884 55.769 48.2249C55.769 47.2068 55.2152 46.5887 54.366 46.5887C53.5168 46.5887 52.926 47.2432 52.926 48.334C52.9629 49.4248 53.4798 50.0065 54.366 50.0065Z" fill="white"></path>
    <path d="M65.8853 50.3701V43.1344H66.476V46.9886C66.7714 46.3705 67.2883 46.0796 67.9898 46.0796C69.1344 46.0796 69.9467 46.9886 69.9467 48.334C69.9467 49.6793 69.1344 50.552 67.916 50.552C67.2514 50.552 66.7345 50.2247 66.4391 49.6066V50.3701H65.8853ZM67.879 46.5887C67.0298 46.5887 66.476 47.2068 66.476 48.2249C66.476 49.3884 67.0668 50.0065 67.916 50.0065C68.8021 50.0065 69.319 49.4248 69.319 48.334C69.2821 47.2432 68.7283 46.5887 67.879 46.5887Z" fill="white"></path>
    <path d="M73.7861 46.226L75.0045 49.4621L76.1122 46.226H76.7399L74.5615 52.4436H73.9338L74.6723 50.3347L73.1584 46.226H73.7861Z" fill="white"></path>
    <path d="M86.9302 44.1157H85.0103V43.5339H89.4778V44.1157H87.5579V50.3697H86.9302V44.1157Z" fill="white"></path>
    <path d="M92.9861 43.1344H93.5399V46.8796C93.8722 46.3341 94.3891 46.0796 95.0168 46.0796C95.9398 46.0796 96.5306 46.5887 96.5306 47.5704V50.3701H95.9398V47.8249C95.9398 46.9886 95.6076 46.5887 94.8691 46.5887C93.9461 46.5887 93.5768 47.1341 93.5768 48.2249V50.4065H92.9861V43.1344Z" fill="white"></path>
    <path d="M100.297 48.2976C100.297 47.0613 101.294 46.0796 102.549 46.0796C103.842 46.0796 104.839 47.0613 104.839 48.2976C104.839 49.5702 103.805 50.5519 102.549 50.5519C101.331 50.5519 100.297 49.5702 100.297 48.2976ZM104.248 48.2976C104.248 47.3159 103.509 46.5887 102.586 46.5887C101.663 46.5887 100.925 47.3159 100.925 48.2976C100.925 49.243 101.663 50.0065 102.586 50.0065C103.472 50.0065 104.248 49.2793 104.248 48.2976Z" fill="white"></path>
    <path d="M109.232 48.2985C109.232 49.4621 109.49 50.0075 110.413 50.0075C111.336 50.0075 111.631 49.4257 111.631 48.2985V46.226H112.222V48.5894C112.222 49.8984 111.595 50.5529 110.45 50.5529C109.305 50.5529 108.678 49.8984 108.678 48.5894V46.226H109.268V48.2985H109.232Z" fill="white"></path>
    <path d="M120.05 49.6429C120.05 50.5882 120.013 51.2064 119.866 51.5336C119.57 52.1517 118.979 52.4426 118.056 52.4426C116.949 52.4426 116.321 52.0063 116.173 51.1336L116.912 51.17C117.023 51.679 117.429 51.9336 118.093 51.9336C118.61 51.9336 119.053 51.7154 119.275 51.4245C119.459 51.17 119.459 50.8428 119.459 50.5155C119.459 50.4428 119.459 50.3337 119.459 50.2246V49.6065C119.201 50.1883 118.647 50.5519 117.946 50.5519C116.801 50.5519 115.989 49.7156 115.989 48.2975C115.989 46.9522 116.764 46.0432 117.946 46.0432C118.61 46.0432 119.238 46.4431 119.423 46.9886V46.225H120.013L120.05 49.6429ZM116.616 48.3339C116.616 49.4247 117.133 50.0428 117.983 50.0428C118.832 50.0428 119.459 49.4247 119.459 48.2975C119.459 47.2067 118.906 46.625 118.019 46.625C117.17 46.5886 116.616 47.2431 116.616 48.3339Z" fill="white"></path>
    <path d="M124.186 43.1344H124.739V46.8796C125.072 46.3341 125.589 46.0796 126.216 46.0796C127.139 46.0796 127.73 46.5887 127.73 47.5704V50.3701H127.139V47.8249C127.139 46.9886 126.807 46.5887 126.069 46.5887C125.146 46.5887 124.776 47.1341 124.776 48.2249V50.4065H124.186V43.1344Z" fill="white"></path>
    <path d="M131.163 46.6987V46.226H131.938V44.517H132.529V46.226H133.378V46.6987H132.529V50.3711H131.938V46.6987H131.163Z" fill="white"></path>
  </g>
  <defs>
    <clipPath id="clip0_901_17012">
      <rect width="134" height="52" fill="white"></rect>
    </clipPath>
  </defs>
</svg>
