<?xml version="1.0" encoding="UTF-8"?>
<svg xmlns="http://www.w3.org/2000/svg" width="139" height="311" viewBox="0 0 139 311" fill="none">
  <mask id="mask0_2343_10409" style="mask-type:alpha" maskUnits="userSpaceOnUse" x="0" y="0" width="139" height="311">
    <path d="M138.52 14.9759C138.52 6.70492 131.827 0 123.572 0H0V296.024C0 304.295 6.69259 311 14.9482 311H138.52V14.9759Z" fill="white"></path>
  </mask>
  <g mask="url(#mask0_2343_10409)">
    <path d="M188.105 -232.212C186.565 -247.399 174.065 -277.783 162.976 -288.802C150.745 -284.445 136.94 -278.424 124.612 -273.647C181.872 -198.803 123.562 -95.5599 89.3407 -25.0889C30.1725 96.7502 0.574448 228.697 63.7552 358.784C54.6315 367.783 46.3495 376.604 38.7318 387.058C-42.8018 498.946 -19.7636 706.162 63.0798 813.487C75.299 808.396 90.7447 802.788 103.239 798.294C81.7152 769.056 66.9984 740.382 54.7486 706.109C40.4659 665.243 32.5732 622.408 31.3727 579.203C29.5411 515.102 44.4939 444.921 88.5557 397.73C122.605 440.785 180.39 479.566 236.185 456.32C267.584 443.238 276.165 407.017 261.709 376.743C249.794 351.791 228.012 333.648 202.467 324.512C166.032 311.201 133.204 316.348 99.0567 332.446C95.5357 325.792 92.3867 316.859 89.8397 309.732C80.2188 282.816 75.105 256.895 73.2187 228.429C68.9552 164.095 82.9931 105.264 106.253 46.4009C115.565 23.114 125.694 0.190683 136.62 -22.3289C167.866 -88.1596 201.992 -156.143 188.105 -232.212ZM190.998 366.472C208.384 373.04 222.829 385.5 226.169 404.8C226.26 411.631 222.331 413.578 216.712 415.515C181.629 427.613 146.574 399.646 125.084 374.429L122.276 370.676C144.052 360.249 168.013 357.791 190.998 366.472Z" fill="#4E9C5A"></path>
  </g>
  <path d="M51.7001 218.5C28.3886 218.5 9.52344 199.678 9.52344 176.5C9.52344 153.322 28.3886 134.5 51.7001 134.5C75.0118 134.5 93.8779 153.322 93.8779 176.5C93.8779 199.678 75.0118 218.5 51.7001 218.5Z" fill="white" stroke="#4E9C5A" stroke-width="10"></path>
  <path d="M48.3063 183.895H58.7616V186.499H44.9336L45.0179 185.239C45.0929 183.877 45.402 182.57 45.9454 181.319C46.5637 179.882 47.8378 178.669 49.7678 177.679L52.0443 176.419C53.2435 175.785 54.1054 175.141 54.63 174.487C55.1547 173.815 55.417 173.003 55.417 172.051C55.417 171.025 55.0891 170.213 54.4333 169.615C53.7962 169.018 52.9062 168.719 51.7633 168.719C49.1963 168.719 47.9128 170.054 47.9128 172.723H44.9617C44.943 170.633 45.5332 169.009 46.7324 167.851C47.9315 166.694 49.6366 166.115 51.8476 166.115C53.8712 166.115 55.4826 166.657 56.6818 167.739C57.8997 168.841 58.5086 170.241 58.5086 171.939C58.5086 173.339 58.1151 174.571 57.3282 175.635C56.5412 176.699 55.3046 177.679 53.6182 178.575L51.6227 179.695C50.4798 180.33 49.6553 180.955 49.1494 181.571C48.6623 182.187 48.3812 182.962 48.3063 183.895Z" fill="#5E5E5E"></path>
</svg>
