<?xml version="1.0" encoding="UTF-8"?>
<svg xmlns="http://www.w3.org/2000/svg" width="127" height="311" viewBox="0 0 127 311" fill="none">
  <mask id="mask0_2342_10318" style="mask-type:alpha" maskUnits="userSpaceOnUse" x="0" y="0" width="127" height="311">
    <path d="M0 15C0 6.7157 5.7628 0 12.8716 0H127V296C127 304.284 121.237 311 114.128 311H0V15Z" fill="white"></path>
  </mask>
  <g mask="url(#mask0_2342_10318)">
    <path d="M-52.8591 -236.712C-51.3246 -251.9 -38.8714 -282.284 -27.8238 -293.302C-15.6392 -288.946 -1.88693 -282.924 10.3947 -278.146C-46.6496 -203.302 11.442 -100.059 45.534 -29.5879C104.48 92.2512 133.967 224.197 71.0236 354.283C80.1126 363.282 88.3636 372.104 95.9526 382.557C177.18 494.446 154.228 701.662 71.6956 808.987C59.5226 803.896 44.1357 798.288 31.6887 793.794C53.1306 764.556 67.7926 735.883 79.9956 701.609C94.2246 660.743 102.088 617.909 103.284 574.703C105.109 510.603 90.2126 440.421 46.3165 393.231C12.3959 436.286 -45.1722 475.067 -100.758 451.821C-132.039 438.739 -140.588 402.518 -126.186 372.244C-114.316 347.291 -92.6155 329.147 -67.1666 320.012C-30.8681 306.7 1.83606 311.848 35.855 327.947C39.3626 321.292 42.4985 312.359 45.0365 305.232C54.6206 278.317 59.7166 252.396 61.5956 223.93C65.8436 159.596 51.8582 100.764 28.6861 41.9013C19.4092 18.6144 9.31706 -4.30837 -1.56804 -26.8279C-32.6958 -92.6587 -66.6936 -160.643 -52.8591 -236.712ZM-55.7405 361.972C-73.0615 368.54 -87.4517 381.001 -90.7796 400.301C-90.8703 407.132 -86.9557 409.079 -81.3587 411.016C-46.4072 423.114 -11.4846 395.146 9.92497 369.929L12.7231 366.177C-8.97133 355.749 -32.8422 353.291 -55.7405 361.972Z" fill="#4E9C5A"></path>
    <path d="M79.5 216C102.696 216 121.5 197.196 121.5 174C121.5 150.804 102.696 132 79.5 132C56.304 132 37.5 150.804 37.5 174C37.5 197.196 56.304 216 79.5 216Z" fill="white" stroke="#4E9C5A" stroke-width="10"></path>
    <path d="M80.0778 164.064H82.4858V184H79.4898V169.776H74.9258V167.564L75.3738 167.536C76.8108 167.443 77.8838 167.144 78.5938 166.64C79.3218 166.118 79.8158 165.259 80.0778 164.064Z" fill="#5E5E5E"></path>
  </g>
</svg>
