<?xml version="1.0" encoding="UTF-8"?>
<svg xmlns="http://www.w3.org/2000/svg" width="241" height="37" viewBox="0 0 241 37" fill="none">
  <g clip-path="url(#clip0_1796_20449)">
    <path d="M140.499 3.7998C135.799 8.8998 130.699 12.2998 125.599 16.0998L142.999 36.5998H118.699L105.399 21.9998V36.5998H85.6992V3.7998H104.999V13.1998L117.499 3.7998H140.499Z" fill="#FF0000"></path>
    <path d="M227.502 3.8999H208.102V36.5999H227.502V3.8999Z" fill="#FF0000"></path>
    <path d="M79.9016 3.7998H60.6016V36.5998H79.9016V3.7998Z" fill="#FF0000"></path>
    <path d="M19 36.6002V14.9002H28.1C28.1 14.9002 35.1 14.6002 35.1 19.3002V36.6002H54.6V11.2002C54.6 11.2002 55.1 4.8002 47.2 3.7002H0V36.6002H19Z" fill="#FF0000"></path>
    <path d="M167.298 14.2001V19.1001H182.298V14.1001C182.298 14.1001 182.398 13.0001 180.598 13.0001H168.798C167.198 12.9001 167.298 14.2001 167.298 14.2001ZM201.698 36.6001H182.698V27.9001H167.398V36.6001H147.998V8.20012C147.998 8.20012 147.498 3.80012 151.798 3.90012H197.898C201.998 3.90012 201.698 8.20012 201.698 8.20012V36.6001Z" fill="#FF0000"></path>
    <path d="M235.198 4V2.3H236.598C237.198 2.3 237.898 2.4 237.898 3.2C237.898 4.2 236.798 4.1 236.098 4.1H235.198V4ZM236.898 4.5C237.798 4.5 238.498 4.1 238.498 3.2C238.498 2.8 238.298 2.4 237.998 2.2C237.598 2 237.198 2 236.798 2H234.698V6.8H235.298V4.5H236.398L237.798 6.7H238.498L236.898 4.5ZM236.198 8.6C238.598 8.6 240.498 6.7 240.498 4.3C240.498 1.9 238.598 0 236.198 0C233.798 0 231.898 1.9 231.898 4.3C231.898 6.7 233.798 8.6 236.198 8.6ZM236.198 8.1C234.098 8.1 232.398 6.4 232.398 4.3C232.398 2.2 234.098 0.5 236.198 0.5C238.298 0.5 239.998 2.2 239.998 4.3C239.998 6.4 238.298 8.1 236.198 8.1Z" fill="#FF0000"></path>
  </g>
  <defs>
    <clipPath id="clip0_1796_20449">
      <rect width="240.5" height="36.6" fill="white"></rect>
    </clipPath>
  </defs>
</svg>
